<?xml version="1.0" standalone="no"?>
<!DOCTYPE svg PUBLIC "-//W3C//DTD SVG 1.1//EN" "http://www.w3.org/Graphics/SVG/1.1/DTD/svg11.dtd" >
<svg xmlns="http://www.w3.org/2000/svg">
<metadata></metadata>
<defs>
<font id="hasty_tastyregular" horiz-adv-x="645" >
<font-face units-per-em="2048" ascent="1638" descent="-410" />
<missing-glyph horiz-adv-x="655" />
<glyph horiz-adv-x="0" />
<glyph unicode="&#xd;" horiz-adv-x="681" />
<glyph unicode=" "  horiz-adv-x="655" />
<glyph unicode="&#x09;" horiz-adv-x="655" />
<glyph unicode="&#xa0;" horiz-adv-x="655" />
<glyph unicode="!" horiz-adv-x="260" d="M66 61q0 16 11 30.5t26.5 25t33 16.5t29.5 6q25 0 39 -19.5t14 -47.5v-4q-8 -29 -17 -42.5t-20.5 -19.5t-23 -7t-25.5 -3h-14q-25 0 -39 20t-14 45zM84 983q0 35 1 71t3 70q0 2 -1 11.5t-1 20.5v20.5v11.5l2 10q4 14 10 24.5t35 10.5h14q23 -2 29 -26.5t6 -59.5 q0 -41 -4 -84t-4 -68v-333q4 -41 7 -82t3 -84q0 -55 -9 -112.5t-58 -98.5q-6 -6 -11 -6q-10 10 -12 21t-2 26q0 12 2 28.5t2 38.5v84q2 10 2 27q0 119 -7 238.5t-7 240.5z" />
<glyph unicode="&#x22;" horiz-adv-x="405" d="M66 856q16 47 30.5 92t14.5 94v27q0 23 -8.5 45.5t-8.5 28.5v14q0 16 10.5 20.5t26.5 4.5q20 0 32.5 -14.5t18.5 -35t8.5 -44t2.5 -41.5v-31.5t-1.5 -19t-3.5 -14.5t-4 -19l-16 -50l-16 -24q-10 -16 -20.5 -27.5t-29.5 -11.5q-10 0 -20 1t-16 5zM213 831v9q0 12 8 28.5 t17.5 36t17.5 42t8 44.5v35q-4 39 -13 78t-9 80q0 10 3 17t19 11h15l28 -12l8 -12l9 -27l16 -123v-37q0 -23 -4 -52t-18.5 -56t-39 -44.5t-65.5 -17.5z" />
<glyph unicode="#" horiz-adv-x="995" d="M2 614q0 16 9 26.5t20 10.5q35 -4 66.5 -9t62.5 -7l108 -8h92l9 8q14 33 30.5 77t30.5 90t25.5 93t19.5 90q2 20 2 36.5t1 30t8.5 22.5t23.5 13h8l17 -8q18 -12 22 -18t4 -25q0 -47 -11 -91t-24 -87q-16 -57 -37.5 -120.5t-44.5 -116.5q51 -4 102.5 -7.5t104.5 -7.5 q10 4 21.5 21.5t11.5 31.5l33 89l41 141q2 8 8 20.5t13 24.5t14.5 20.5t13.5 8.5q18 0 35.5 -8.5t17.5 -30.5q-16 -35 -33.5 -87.5t-33.5 -97.5l-50 -133q8 0 29 -1t42.5 -2t40.5 -2t28 -1h75q10 -2 23.5 -11t13.5 -20q0 -18 -25.5 -22t-60.5 -8l-192 -9q-4 0 -9.5 -9 t-5.5 -17l-34 -76q-10 -20 -20.5 -44t-12.5 -44v-8q8 -2 33.5 -5t33.5 -3h25q4 0 24.5 -3.5t24.5 -3.5h33q23 0 33 -8t10 -14l-10 -8q-23 -10 -81.5 -19.5t-150.5 -9.5q-16 -8 -28.5 -34.5t-21.5 -63.5t-16 -78t-9 -76v-22q-4 -16 -6.5 -23.5t-16.5 -7.5q-27 0 -43 16 q0 23 -1 45.5t-1 32.5q0 16 1 28.5t7 35.5l35 116q2 2 4 12.5t4 10.5v8q-51 0 -103.5 3t-88.5 13h-41q-37 -55 -49.5 -96t-16.5 -67.5t-9 -40t-26 -13.5q-14 0 -27.5 16.5t-13.5 28.5v9q10 47 26.5 86t39.5 84v14q-6 8 -25.5 10t-41 7t-40 13.5t-24.5 28.5l4 17l4 12t6 8h17 q33 0 63.5 -11t65.5 -11q10 0 24 22.5t27.5 52t26 59t18.5 44.5l-58 8h-26q-18 0 -59 1t-83 6t-74 17.5t-32 34.5zM326 348q10 -2 37.5 -5t37.5 -3l144 -8q0 2 13 29.5t28.5 61.5t28 62.5t12.5 32.5v12q0 2 -22.5 4.5t-35.5 4.5l-147 8q-10 0 -13 -9.5t-8 -13.5l-67 -149z " />
<glyph unicode="$" horiz-adv-x="905" d="M33 250q0 39 16.5 52t28.5 24q-2 -2 5 -10.5t11 -32.5l17 -82q6 -29 29.5 -37t58.5 -8h16q23 0 39 1t34.5 4t43 10t61.5 22l68 24q20 16 26.5 18.5t6.5 6.5t-3.5 10t-3.5 22q-16 92 -22 180.5t-12 180.5l-17 8h-276q-63 0 -91 28.5t-28 53.5t45 58.5t105.5 66.5t123 63.5 t97.5 49.5q8 0 8 8v223q0 10 7 18.5t17 8.5q12 0 28.5 -8.5t23.5 -8.5l8 -26q0 -4 1 -20.5t2 -38t3 -42t2 -33.5q0 -4 -1 -16t-1 -16h10q41 16 81 33.5t87 17.5q27 0 35 -5t25 -22l6 -8v-8q-27 -16 -67 -25.5t-78 -21.5t-64.5 -31.5t-26.5 -54.5q0 -90 19 -176q2 -2 11 -5.5 t13 -5.5l82 -16q37 -8 78 -27.5t73.5 -46t54 -59.5t21.5 -68q0 -43 -27.5 -85t-65.5 -76.5t-75.5 -59t-58.5 -37.5l-57 -32v-33q0 -43 4 -87t4 -87v-54q0 -25 -14.5 -54.5t-42.5 -29.5q-2 0 -9.5 6.5t-7.5 10.5l-24 287q-72 -27 -136.5 -44.5t-138.5 -17.5q-35 0 -46 3 t-40 7l-24 9q-49 23 -63.5 51.5t-14.5 89.5zM143 719q8 -4 41 -6t76 -4t91 -2h87q0 51 -3 103t-7 77l-27 -8q-31 -16 -68.5 -36t-74.5 -40.5t-68 -42t-47 -41.5zM543 637q0 -41 3 -101.5t7 -117t8 -96t8 -39.5h25q33 20 67.5 46.5t63.5 54.5t46 56.5t17 55.5t-22.5 51 t-57 44.5t-78.5 33t-87 12.5z" />
<glyph unicode="%" horiz-adv-x="722" d="M20 623q2 37 6.5 70.5t18.5 68.5l12 31q8 20 25.5 49.5t42.5 55.5t55.5 44.5t65.5 18.5q41 0 63.5 -23t50.5 -49v-4q-10 -10 -17 -15.5t-19 -5.5q41 -63 41 -143q0 -39 -14.5 -78t-41 -69.5t-62.5 -50t-79 -19.5h-33q-25 2 -44 16.5t-32.5 32.5t-23 38t-15.5 32zM86 639 q0 -35 17.5 -57.5t52.5 -22.5q29 0 53 13.5t42.5 33t31 43t16.5 43.5v82q0 25 -19.5 58.5t-48.5 39.5h-6q-33 -8 -58.5 -31.5t-44 -54t-27.5 -66.5t-9 -67v-14zM152 121v4q0 16 28.5 107.5t120.5 240.5q43 86 82 171t72 173l41 129q8 8 16 16.5t16 8.5q18 0 31.5 -11.5 t18.5 -21.5l2 -8q-27 -61 -48.5 -123t-48.5 -121q-45 -104 -97 -204.5t-107 -200.5l-13 -23q-25 -25 -37 -50.5t-21 -47t-18.5 -39t-25.5 -25.5l-10 23q-2 0 -2 2zM356 217q4 37 9.5 71t15.5 68l14 33q8 20 25.5 49t42 55.5t55.5 44t66 17.5q41 0 63.5 -21.5t50.5 -48.5v-6 q-10 -8 -18 -14t-21 -6q43 -63 43 -144q0 -37 -14 -75.5t-40.5 -69.5t-63.5 -50.5t-80 -19.5h-33q-29 0 -49.5 18.5t-33.5 40t-21.5 40t-10.5 18.5zM424 233q0 -33 17.5 -56t52.5 -23q29 0 53 13t42.5 32.5t31 43t16.5 44.5v82q0 25 -19.5 58.5t-48.5 41.5h-8 q-33 -8 -58.5 -31.5t-43 -55.5t-26.5 -66.5t-9 -65.5v-17z" />
<glyph unicode="&#x26;" horiz-adv-x="778" d="M20 274l9 50q8 43 39.5 81.5t73.5 71.5t89.5 59.5t87.5 47.5q29 14 60 21t59 30q-57 25 -106 69t-84 84l-15 35q-12 18 -12 41q0 6 1 12.5t3 16.5l6 16q0 2 8.5 12.5t12.5 16.5q51 55 101 80.5t118 25.5q25 0 46.5 -11t21.5 -52q0 -8 -1 -18.5t-3 -20.5l-5 -12 q-8 -25 -32.5 -44.5t-46.5 -19.5q-16 0 -17 21q0 10 2 20.5t2 22.5t-6 21.5t-24 9.5q-4 0 -9.5 -1.5t-13.5 -3.5l-23 -4l-47 -30v-11q0 -49 37 -88t103 -86q29 -20 62.5 -44.5t80.5 -24.5h29q12 -2 16 -14.5t4 -20.5v-6l-29 -27q-10 -8 -15 -10t-15 -4h-2q-23 -6 -46.5 -6 t-68.5 -9q-43 -10 -104.5 -32.5t-117.5 -54t-96 -73.5t-40 -87q0 -29 17 -60t69 -53l4 -2q29 -16 60.5 -30.5t72.5 -14.5q20 0 35.5 1t28 7t25.5 16.5t30 28.5l-25 -4q-31 -8 -60.5 -18.5t-62.5 -10.5q-25 0 -35 14.5t-20 43.5q0 25 51 40t122 22t147.5 9t127.5 2 q29 0 51.5 -4t22.5 -18v-4q-16 -20 -21 -25.5t-32 -9.5l-53 -8q-16 -2 -42 -3t-51.5 -4t-46 -8.5t-24.5 -15.5q-10 -37 -37 -60.5t-57.5 -38t-61.5 -20.5t-49 -6q-80 0 -153.5 40t-108.5 101v2q-16 16 -17 41z" />
<glyph unicode="'" horiz-adv-x="239" d="M66 766q14 35 25 80t11 84q0 25 -4 51.5l-8 53t-8 49t-4 36.5t24 27l2 2q25 0 39.5 -13.5t20.5 -34t8 -45t2 -44.5v-119q-4 -47 -30.5 -87t-67.5 -40h-10z" />
<glyph unicode="(" d="M72 463v67q0 111 19.5 221.5t78.5 202.5q29 43 64.5 80t70.5 72q23 25 50.5 52.5t58 51t65.5 39t72 15.5q16 0 29.5 -9.5t13.5 -31.5q0 -12 -14 -23l-45 -16q-4 -2 -14.5 -7.5t-21 -11.5t-18.5 -11t-10 -5l-72 -59q-74 -61 -122 -123t-75.5 -131.5t-38.5 -154.5t-11 -194 q0 -55 14 -116.5t47 -111.5t83 -83t124 -33q45 0 88 13.5t86 23.5v-10q0 -23 -13.5 -36t-33 -22.5t-43 -15.5t-41.5 -12h-2q-10 -2 -22.5 -3t-22.5 -1q-82 0 -163 42t-120 111q-23 43 -35 92.5t-20 96.5z" />
<glyph unicode=")" d="M72 170v10q45 -10 87 -23.5t89 -13.5q72 0 123 33t82.5 83t46 111.5t14.5 116.5q0 106 -12.5 191.5t-40 156t-74.5 132t-121 123.5l-69 59q-2 0 -11.5 5t-19.5 11t-19.5 11.5t-13.5 7.5l-47 16q-12 8 -12 23q0 23 13 32t30 9q37 0 71.5 -15.5t65.5 -39t57.5 -51.5 t50.5 -52q35 -35 70 -73t64 -79q61 -94 79.5 -203.5t18.5 -220.5v-67l-6 -41q-8 -47 -19.5 -97.5t-33.5 -91.5q-41 -70 -122 -111.5t-163 -41.5q-10 0 -21.5 1t-21.5 3h-4q-18 6 -42 12t-43.5 15.5t-32.5 22.5t-13 36z" />
<glyph unicode="*" horiz-adv-x="653" d="M33 401v29q0 18 2 23.5t12 11.5h31h82t82 4l-58 88q-10 14 -23.5 40t-25.5 51.5t-21.5 45t-9.5 21.5q0 27 33 26q37 0 53 -32q23 -53 45.5 -99.5t57.5 -93.5q35 104 57.5 195.5t22.5 195.5q0 10 -1 21.5t-1 21.5q8 6 18 6h8q20 0 39 -13t19 -36q-4 -104 -26.5 -196.5 t-57.5 -200.5l-13 -33q47 4 96.5 11.5t98.5 17.5h18q37 0 47 -10q0 -20 -23.5 -32.5t-59 -20t-80.5 -11.5t-88 -10l10 -10q37 -37 76 -69t71.5 -55.5t54 -39t21.5 -17.5q0 -10 -15.5 -16t-19.5 -6h-8q-63 14 -120.5 59t-100.5 92h-8q-20 -72 -44 -111.5t-83 -39.5 q-16 0 -17 10q0 12 13.5 27.5t19.5 27.5q18 31 29.5 65t19.5 69q-47 -8 -93 -15.5t-93 -7.5h-37q-4 0 -7 6t-3 10z" />
<glyph unicode="+" horiz-adv-x="622" d="M35 479q0 29 20 43h115q6 0 20.5 1t30 2t29.5 2t20 1l29 9q8 0 8 8v221q0 10 -5 31.5t-11 25.5q0 12 7 27.5t15 21.5h11q20 0 40.5 -7t20.5 -42v-270h43q33 0 70 7t59 7q10 0 26.5 -1t16.5 -7v-4q0 -18 -21.5 -30.5t-52 -20.5t-67.5 -13.5t-68 -11.5l-12 -8l-1 -9 t-3 -23.5t-3 -29t-1 -22.5v-278l8 -52v-20q-4 -4 -11.5 -12.5t-11.5 -10.5q-39 12 -51 62.5t-12 116.5q0 49 3 101t3 99v33t-2 31q-45 0 -90 -3t-90 -3h-56q-8 4 -17 11t-9 17z" />
<glyph unicode="," horiz-adv-x="327" d="M-154 -395q2 14 20.5 28.5t41 26.5t45 24.5t35.5 24.5q61 53 107 122t46 167v14q0 2 -2 16.5t-4 22.5l-16 99q-6 10 -7 18t-1 25q0 23 10 31.5t20 8.5q35 0 45 -47l15 -84q8 -43 6 -77.5t6 -36.5q0 -66 -25.5 -123.5t-62.5 -102.5q-12 -14 -43 -40.5t-69 -52t-80 -45 t-76 -19.5h-11z" />
<glyph unicode="-" horiz-adv-x="610" d="M45 520q0 25 51 40t122 22.5t147.5 9.5t128.5 2q27 0 49 -4t22 -19v-4q-16 -20 -21 -25t-32 -10l-53 -8q-59 -10 -118.5 -14t-117.5 -18q-33 -8 -61.5 -18.5t-63.5 -10.5q-23 0 -34 14t-19 43z" />
<glyph unicode="." horiz-adv-x="284" d="M66 61q0 16 11 30.5t26.5 25t33 16.5t29.5 6q25 0 39 -19.5t14 -47.5v-4q-8 -29 -17 -42.5t-20.5 -19.5t-23 -7t-25.5 -3h-14q-25 0 -39 20t-14 45z" />
<glyph unicode="/" horiz-adv-x="411" d="M49 76q0 51 15.5 163.5t74.5 280.5q29 113 53.5 228.5t40.5 238.5l15 176q8 10 16 20.5t19 10.5q23 0 42 -15.5t25 -27.5l6 -12q-16 -82 -25 -165t-26 -165q-29 -147 -68.5 -290.5t-80.5 -291.5q-23 -35 -32 -69.5t-14.5 -64.5t-13.5 -52.5t-26 -34.5l-17 31q-4 0 -4 39z " />
<glyph unicode="0" horiz-adv-x="575" d="M66 457q4 53 10 102t20 100l17 43q12 31 34.5 73t53 79t70.5 63.5t85 26.5q27 0 46.5 -9t36 -23.5t31.5 -33t34 -36.5v-6q-12 -12 -22.5 -21.5t-26.5 -9.5q55 -96 55 -205q0 -55 -19.5 -110.5t-53.5 -100.5t-80 -72.5t-101 -27.5h-43q-35 0 -60.5 24.5t-43 54t-27.5 56.5 t-16 33zM152 479q0 -47 22.5 -80.5t67.5 -33.5q37 0 67.5 19t54 48t39 62.5t21.5 62.5v117q0 18 -7 40.5t-18.5 44t-27 38t-33.5 22.5h-8q-43 -12 -77 -46t-56.5 -79t-33.5 -96t-11 -96v-23z" />
<glyph unicode="1" horiz-adv-x="307" d="M66 311q0 162 23.5 321t37.5 318q0 16 -1 29.5t-1 30.5q0 31 10 51h29q41 0 59.5 -19.5t18.5 -33.5v-15q-18 -139 -37 -275t-31 -274l-10 -112v-68l18 -129l11 -43v-6q0 -4 1 -5t1 -3q0 -16 -11.5 -20.5t-27.5 -8.5h-6q-31 0 -48.5 32t-25.5 75t-9 86.5t-1 68.5z" />
<glyph unicode="2" horiz-adv-x="671" d="M45 197q0 55 29.5 102t58.5 94v2l15 21q16 20 35.5 45.5t34.5 49.5t15 32l31 28q2 4 12.5 20.5t21.5 35t20.5 35t13.5 20.5l59 78q49 66 84 145.5t37 163.5q0 16 -5 26.5t-28 10.5q-31 0 -66.5 -9.5t-66.5 -28.5t-51.5 -50t-20.5 -72q0 -2 4.5 -13t4.5 -15v-17 q0 -18 -8.5 -21t-26.5 -3q-35 0 -59.5 22.5t-34.5 56.5v31q12 51 42.5 92t72.5 70t88 43t89 14q31 0 62 -10t55.5 -31.5t39.5 -52.5t15 -72q0 -82 -41.5 -164.5t-105 -171t-135.5 -184.5t-133 -205l-39 -79q-10 -20 -10 -39q0 -35 26.5 -42.5t52.5 -7.5q20 0 71.5 11.5 t104 25t92.5 25.5t40 16q0 6 4 6t14 -14t10 -24v-7q-68 -59 -162 -94t-174 -35q-35 0 -67.5 7.5t-60 24.5t-44 44t-16.5 64z" />
<glyph unicode="3" horiz-adv-x="700" d="M37 670q0 6 8 26.5t25 24.5l34 10q53 16 96.5 47t84.5 66q47 39 82.5 70.5t62.5 61.5t42 57.5t22 60.5l-9 8l-34 16h-25q-43 0 -56.5 -19.5t-16.5 -42t-8 -42t-32 -19.5q-23 0 -42 15.5t-19 42.5v14q0 51 16.5 79t40 41t47 16t37.5 3q33 0 59.5 -4t49 -14t43 -31.5 t43.5 -54.5v-21q0 -25 -7.5 -43t-19.5 -41l-24 -43q-53 -59 -121 -120.5t-140 -102.5q27 -20 60 -22t61 -13q43 -12 88 -31.5t84 -48t63.5 -66.5t24.5 -87v-43q0 -16 -12 -37t-22 -33q-33 -47 -81 -89t-101.5 -74.5t-110 -51t-105.5 -18.5q-23 0 -47 5t-44.5 17.5t-34 32.5 t-13.5 49q0 10 4 24.5t14 18.5v-14q2 -2 5 -2h4q4 0 9 3t9 5q29 -41 44 -51t46 -10q59 0 112.5 31.5t98.5 64.5q43 25 68.5 51.5t39 51t18.5 46t5 35.5q0 45 -38 78t-92 53.5t-113.5 29.5t-100.5 9q-49 0 -74.5 -5t-50.5 -5q-10 0 -16 1t-17 7z" />
<glyph unicode="4" horiz-adv-x="624" d="M41 651v49q0 55 14.5 117t37 123t49 122.5t51.5 121.5q20 66 32.5 95.5t40.5 29.5q12 0 37 -19.5t25 -48.5v-14l-29 -51q-2 -10 -14.5 -38t-27.5 -66t-32.5 -79t-27.5 -75q-25 -53 -42.5 -102.5t-17.5 -125.5q0 -47 5 -71.5t34 -38.5h27q43 0 97 26.5t89 71.5 q16 23 20.5 51.5t8.5 54.5q0 10 14 49t31 111q4 20 8 53t12.5 65t22.5 54.5t39 22.5q23 0 38 -21.5t15 -44.5q0 -20 -12.5 -44.5t-16.5 -41.5l-12 -48t-17.5 -65.5t-15.5 -62.5t-8 -37l-37 -194q-12 -68 -24.5 -136.5t-18.5 -138.5v-10q-4 -18 -6 -44t-4 -47.5t-2 -35.5 t0 -12q0 -16 1 -30.5t1 -31.5q0 -29 -6 -47t-39 -18q-12 0 -26.5 4t-16.5 22v21.5t-1 32t-1 32v21.5v68.5t1 50t3 44t4 50.5l21 106q0 4 3 22.5t5 22.5v19q-25 -18 -59.5 -35.5t-49.5 -17.5h-45q-25 0 -55.5 7t-58 24.5t-46 48t-18.5 79.5z" />
<glyph unicode="5" horiz-adv-x="778" d="M59 94q0 -2 11.5 6.5t35.5 12.5q4 -2 10.5 -15.5t10.5 -17.5q18 -27 51 -47.5t55 -20.5q31 0 52.5 31t21.5 70v14q-12 82 -35.5 151.5t-54.5 143.5q-23 49 -46.5 95t-45 94t-34.5 98.5t-13 105.5q0 63 31.5 107.5t77.5 73t99.5 42t94.5 13.5q16 0 35.5 -2t38 -8.5 t33 -20.5t20.5 -39q0 -20 5 -33.5t20.5 -26t45 -26.5t76.5 -39l117 -70q10 -4 10 -20q0 -27 -10 -32t-27 -5q-35 0 -86 21.5t-109 48t-118.5 53.5t-116.5 37l-63 12l-19 -12q-20 -16 -32.5 -25.5t-19.5 -19.5t-9 -21.5t-2 -29.5q0 -66 28.5 -139.5t61.5 -121.5 q51 -111 94 -220t54 -242q0 -41 -14.5 -70t-37 -47.5t-50 -26.5t-52.5 -8q-4 0 -27.5 1t-29.5 1q-20 2 -45 19.5t-45.5 42t-34 54t-13.5 58.5z" />
<glyph unicode="6" horiz-adv-x="669" d="M12 379v8q2 39 15.5 67.5t33 49t45 37t54.5 34.5q10 2 34.5 15.5t30.5 21.5q2 0 20.5 44t43 105.5t52.5 128t48 114.5l100 227q10 23 39 26q16 0 27.5 -20t13.5 -37v-16l-14 -35l-100 -201l-43 -102q-4 -12 -14.5 -33.5t-20.5 -43t-18.5 -40t-10.5 -24.5l-16 -52l2 -10 q23 2 42 3t42 1q29 0 62.5 -6t66.5 -23l24 -16l25 -41q4 -6 12 -17.5t8 -13.5l2 -77q2 -57 -24.5 -122t-73.5 -120t-108.5 -93t-130.5 -42h-11q-37 0 -68.5 19.5t-49.5 64.5q0 25 -4.5 47t-4.5 45q0 121 45 240l-2 8l-55 -45l-65 -74q-10 -8 -21 -8h-8q-4 0 -13.5 2t-11.5 4 zM223 215q0 -6 4 -24.5t6 -24.5q8 -4 14.5 -5t12.5 -1q63 0 116.5 32.5t91.5 83t59.5 108.5t21.5 110q-2 23 -16.5 38t-35 25t-43 14t-40.5 4l-76 -16q-10 -2 -25.5 -4t-19.5 -12q-16 -31 -28.5 -75t-22 -90t-14.5 -87t-5 -66v-10z" />
<glyph unicode="7" horiz-adv-x="634" d="M-4 1163v15q0 2 6 8t10 6q86 49 184.5 82t200.5 33h56q2 0 11 -3.5t13 -5.5q59 -27 90 -65.5t31 -106.5q0 -94 -11.5 -173t-28.5 -151.5t-38.5 -143t-42.5 -146.5q39 -12 53.5 -14t14.5 -19q0 -8 -10.5 -14t-25.5 -11t-30.5 -9.5t-25.5 -6.5q-23 -66 -46.5 -130 t-33.5 -134l-8 -55q-4 -12 -6.5 -32.5t-6.5 -40t-10 -34t-18 -14.5h-62q-2 0 -5 16.5t-3 24.5q0 14 8 40.5t8 55.5q0 4 5.5 25.5t12.5 46t12 48.5t5 32q8 35 25.5 74.5t17.5 70.5q0 4 -9 5t-15 1h-13q-8 0 -43 3t-74.5 12.5t-71.5 25t-32 39.5q0 8 7 28.5t36 20.5 q4 0 20.5 -5t22.5 -9q27 -25 69 -29t77 -4h59l27 72q0 4 3 20.5t5 20.5l16 47q35 96 53.5 195.5t18.5 197.5v66q0 4 -2 18t-8.5 30.5t-16.5 30t-24 15.5h-47q-72 0 -126.5 -21.5t-119.5 -52.5q-27 -12 -45.5 -33.5t-51.5 -21.5q-23 0 -45 13t-22 46z" />
<glyph unicode="8" horiz-adv-x="528" d="M47 481v39q0 27 2 56.5t10.5 54t23.5 41t42 16.5q16 0 38.5 -12t22.5 -31q0 -18 -15 -26.5t-19 -24.5q-16 -66 -17 -127q0 -72 15.5 -150.5t66.5 -134.5l43 -41q6 -6 14.5 -7t16.5 -1q41 0 68.5 18.5t27.5 90.5q0 57 -23.5 132t-52 140.5t-52 110.5t-23.5 47l-19 41v8 q-6 8 -14 26.5t-17.5 40t-16.5 41t-9 27.5l-19 47q-16 41 -28.5 86t-12.5 92q0 41 17.5 75t66.5 34q55 0 109.5 -25.5t97.5 -63.5t70.5 -84t27.5 -87q0 -61 -28.5 -106.5t-98.5 -102.5l-26 -16q-4 0 -14.5 -3.5t-10.5 -5.5q0 -4 5.5 -21.5t19.5 -41.5l43 -96 q14 -27 29.5 -66t30 -78t23.5 -74.5t9 -56.5v-88q-23 -63 -56.5 -92t-95.5 -29q-80 0 -132 41t-83.5 104.5t-44 139t-12.5 143.5zM184 1057q0 -41 1 -55.5t8 -28.5l32 -94q4 -12 12.5 -32t17.5 -38t15 -32.5t6 -16.5h9q4 0 22.5 15.5t28.5 23.5l16 24q12 18 28.5 47t16.5 56 q0 35 -20.5 68.5t-48 61t-59 45t-52.5 17.5q-25 0 -29 -16t-4 -45z" />
<glyph unicode="9" horiz-adv-x="614" d="M53 643q0 68 22.5 109t57.5 88q23 29 49.5 60.5t56 57t64.5 43t72 17.5q47 0 84 -31t67 -72q2 -2 5.5 -8t3.5 -10l-5 -10l-4 -13v-10q-4 -61 -9 -121.5t-5 -121.5q0 -111 14.5 -215.5t14.5 -215.5q6 -63 21.5 -132.5t15.5 -127.5v-26q0 -29 -6.5 -39t-34.5 -10h-17 q-12 0 -23.5 54t-21.5 138t-18 184.5t-14.5 193.5t-9.5 166t-3 99v51q-29 -29 -60.5 -59.5t-65.5 -55t-70.5 -41t-75.5 -16.5h-31l-45 25q-6 14 -17.5 23.5t-11.5 25.5zM133 668q0 -10 7 -12.5t14 -2.5q35 0 67.5 19.5t61.5 42.5q16 14 42.5 36.5t51 49t43 52.5t18.5 44 q0 27 -13 32t-32 5q-33 0 -62.5 -17.5t-57 -43t-51 -54t-44.5 -53.5l-28 -51q-4 -10 -10.5 -23.5t-6.5 -23.5z" />
<glyph unicode=":" horiz-adv-x="284" d="M66 61q0 16 11 30.5t26.5 25t33 16.5t29.5 6q25 0 39 -19.5t14 -47.5v-4q-8 -29 -17 -42.5t-20.5 -19.5t-23 -7t-25.5 -3h-14q-25 0 -39 20t-14 45zM70 530q0 16 10 30.5t25.5 25t33 16.5t29.5 6q25 0 40 -19.5t15 -47.5v-4q-8 -29 -17 -42.5t-20.5 -19.5t-23.5 -8 t-27 -4h-12q-25 0 -39 20t-14 47z" />
<glyph unicode=";" horiz-adv-x="327" d="M-154 -395q2 14 20.5 28.5t41 26.5t45 24.5t35.5 24.5q61 53 107 122t46 167v14q0 2 -2 16.5t-4 22.5l-16 99q-6 10 -7 18t-1 25q0 23 10 31.5t20 8.5q35 0 45 -47l15 -84q8 -43 6 -77.5t6 -36.5q0 -66 -25.5 -123.5t-62.5 -102.5q-12 -14 -43 -40.5t-69 -52t-80 -45 t-76 -19.5h-11zM70 537q0 16 10 30.5t25.5 24.5t33 16t29.5 6q25 0 40 -19.5t15 -47.5v-4q-8 -29 -17 -42.5t-20.5 -19.5t-23.5 -7t-27 -3h-12q-25 0 -39 20.5t-14 45.5z" />
<glyph unicode="&#x3c;" horiz-adv-x="813" d="M51 496l2 16l51 33q8 6 29 20.5t43.5 31.5t43 32.5t28.5 21.5l16 13q15 14 35 32.5t43 39t39 36.5l8 10l55 41q45 39 91.5 84t87.5 86l63 74q12 12 27 12h6q33 -2 33 -35v-6q0 -6 -9 -14q-86 -104 -193.5 -195.5t-211.5 -177.5l-170 -141q0 -4 4 -4q2 -2 4 -2l213 -133 q51 -35 107.5 -62.5t113.5 -50.5q4 0 29 -7t53.5 -17.5t51 -23.5t22.5 -28v-6q-4 -10 -11 -13t-22 -3l-26 2q-35 4 -63 15t-62 24h-9l-18 9t-29.5 14t-29 14.5t-19.5 11.5q-53 27 -95 54.5t-83 53t-82 48t-90 40.5q-20 8 -48 14.5t-28 35.5z" />
<glyph unicode="=" horiz-adv-x="722" d="M55 575q12 23 28.5 31t36 10t40 3.5t43.5 7.5q66 10 131 13t131 3h76l110 -16q8 -4 16.5 -5t8.5 -10q0 -27 -26.5 -33t-57.5 -6q-16 0 -31.5 1t-25.5 1q-102 0 -198.5 -7t-201.5 -36l-20 -8q-18 0 -39 12t-21 39zM84 365q0 18 10 29.5t21 19.5h12q16 0 29.5 -1t31.5 -7 h338q2 0 4 -8.5t2 -12.5q0 -23 -23.5 -34t-60 -17t-84 -7t-96.5 -1h-133q-14 4 -32.5 12.5t-18.5 26.5z" />
<glyph unicode="&#x3e;" horiz-adv-x="813" d="M51 176v6q0 14 22.5 27.5t51.5 24t53.5 17.5t28.5 7q57 23 113.5 50.5t109.5 62.5l211 133q4 0 8 6l-170 141q-104 86 -212.5 177.5t-192.5 195.5q-8 8 -8 14v6q0 31 32 35h6q14 0 27 -12l64 -74q41 -41 88 -86t90 -84l65 -51q16 -16 39 -36.5t43.5 -39t34.5 -32.5 l14 -13q8 -6 30 -21.5t44.5 -32.5t42 -31.5t27.5 -20.5l53 -33v-16q0 -29 -27.5 -36t-46.5 -14q-49 -18 -91 -40.5t-82 -48t-84 -53.5t-95 -54q-6 -4 -19.5 -11.5t-29 -14.5t-28.5 -14t-19 -9h-8q-33 -12 -62 -23.5t-63 -15.5l-27 -2q-14 0 -21.5 3t-11.5 13z" />
<glyph unicode="?" horiz-adv-x="712" d="M8 940q0 37 23 66l47 41q88 92 179 121.5t189 29.5q16 -4 37 -6t44.5 -8t49 -18.5t54.5 -37.5q45 -41 54 -76.5t15 -58.5q0 -16 -4 -39.5t-8 -25.5q-35 -63 -50 -92t-23.5 -43.5t-15.5 -24.5t-24 -35l-153 -213q-8 -8 -22.5 -32.5t-41.5 -67.5l-69 -113 q-20 -33 -36.5 -53.5t-31.5 -20.5l-8 3l-2 2q-2 2 -2 6v8q2 6 10 51t55 150q8 20 48 71q18 43 61 104.5t89 126t84 126t46 106.5q4 23 7 37t3 20q0 8 -1 10.5t-1 6.5l-24 24q-16 12 -47 21.5t-58 9.5t-63.5 -6t-72.5 -15.5t-65.5 -20.5t-41.5 -21l-78 -72 q-41 -39 -53.5 -54.5t-12.5 -27.5q0 -16 8.5 -35.5t19.5 -38t19.5 -31t8.5 -14.5l2 -4q2 -2 2 -10q0 -33 -27 -33q-18 0 -39.5 23.5t-39 56.5t-29 69t-11.5 58zM139 70q0 14 11.5 28.5t27 24.5t32.5 16t30 6q25 0 39 -19.5t14 -47.5v-4q-8 -29 -17.5 -42.5t-20.5 -19.5 t-23.5 -7t-24.5 -3h-14q-25 0 -39.5 20.5t-14.5 47.5z" />
<glyph unicode="@" horiz-adv-x="1222" d="M35 356q0 133 69.5 246t178 196t240.5 133t257 62q61 0 119.5 -14t120.5 -55q37 -25 59.5 -47.5t36.5 -47t22.5 -53t18.5 -67.5q8 -35 13.5 -55.5t7.5 -34t2 -26.5v-32q0 -53 -11.5 -111.5t-36 -109.5t-63.5 -84t-94 -33q-53 0 -103.5 29t-91.5 72h-6q-25 -12 -46 -22.5 t-52 -10.5t-60.5 16.5t-52 42t-37 60t-14.5 71.5q0 39 16.5 71t43 53.5t60.5 33.5t68 12q20 0 47 -9t51.5 -23.5t41 -32t16.5 -31.5q0 -10 -5 -32.5t-10 -48t-10.5 -50.5t-5.5 -41q0 -10 6 -16q35 -51 57.5 -59.5t41.5 -8.5h4q49 0 82 38t54.5 84t30.5 87t9 45 q-8 33 -10 58.5t-4 53t-8.5 61.5t-22.5 81q-18 39 -50 63.5t-69 37t-76 16.5t-69 4q-96 0 -175 -23.5t-153 -62.5l-31 -17q-12 -6 -32.5 -19t-41 -26.5t-37 -25t-18.5 -13.5l-86 -82q-55 -86 -88 -161.5t-33 -186.5q0 -31 13 -61l14 -57q8 -29 27.5 -54.5t40.5 -46.5 q55 -55 112.5 -88t116.5 -51.5t119.5 -24.5t122.5 -6q84 0 149.5 10.5t111.5 23.5t73.5 24.5t33.5 15.5q16 8 27 8q12 0 37 -8l14 -4q0 -4 -6 -10q-80 -78 -193.5 -101.5t-232.5 -23.5h-92q-111 14 -212 54t-178 103.5t-123 149.5t-46 192zM594 459l16 -76q6 -8 18.5 -12 t16.5 -4t14.5 3t14.5 3l51 35q-6 23 -12 51t-6 53q0 51 34 72h-14q-55 0 -89 -36t-44 -89z" />
<glyph unicode="A" horiz-adv-x="749" d="M29 477v4q0 25 16 30t41 5h33q31 -14 64.5 -20.5t66.5 -10.5l12 15q4 8 10.5 21.5t6.5 15.5v8q2 0 4 4q2 2 3 5t3 7l8 17v24l8 6q4 8 6 16.5t11 14.5q-2 0 -5 2q-2 0 -2 2t3.5 8t5.5 8q6 0 8 6.5t2 15.5t1 16.5t7 11.5v8l18 41v16q4 18 13.5 37.5t13.5 42.5v20l16 23 q-8 0 -8 6q0 2 4 10.5t4 10.5v22q4 18 9.5 35.5t9.5 36.5v20q2 4 6 18.5t4 18.5v101q4 18 22.5 21t41.5 3q4 0 13 -1t11 -1l10 -6v-111q0 -98 17 -192q0 -4 2 -15.5t3 -24.5t3 -24.5t2 -13.5v-53q8 -66 16.5 -132.5t18.5 -131.5q10 -78 21.5 -160t41.5 -158l35 -86l27 -43 v-4l2 -4q0 -10 -21.5 -15.5t-33.5 -5.5q-8 2 -21.5 4.5t-13.5 4.5q-8 0 -42 26.5t-78 64.5t-90 80t-77 72l-53 52q-6 6 -10 6q-23 -49 -43.5 -97.5t-45.5 -97.5l-26 -22l-37 -15q-12 0 -24.5 7.5t-20.5 15.5v28l27 37q12 16 28.5 45t31.5 57.5t26.5 53.5t11.5 31v10l-64 47 l-34 14l-72 21q-8 4 -8 14zM305 391l64 -57l63 -51l62 -58q4 -4 13 -11t19 -13q10 -8 21 -17h10q-20 37 -32.5 91.5t-21.5 119t-15.5 132t-12.5 132.5q-4 33 -5 68t-11 70q-18 -59 -35.5 -114.5t-42.5 -115.5l-31 -73v-15l37 -8q10 -2 25.5 -3t29 -2t23.5 -5t10 -12 q0 -10 -12 -15.5t-28.5 -8.5t-35 -3h-30.5h-45q-10 -4 -13.5 -13.5t-5.5 -17.5z" />
<glyph unicode="B" horiz-adv-x="796" d="M41 119q0 2 8 23.5t37 43.5q-2 6 -2 24.5v41.5q0 78 9 136t9 124q0 156 -24 309l-21 99q0 4 -4 19t-6 19v27q0 8 4 13.5t29 5.5q39 0 52 -13.5t24 -70.5l12 -80q0 10 6 30.5t10 26.5l27 76q16 66 53 101.5t68 35.5h18q53 0 77 -26.5t36 -79.5v-50q0 -78 -27 -151l-18 -37 l-29 -45v-8q18 6 39 7t41 1h37q70 0 116 -17.5t72.5 -44t36.5 -59.5t10 -63q0 -51 -19.5 -95.5t-51 -82t-71.5 -71.5t-81 -63q-92 -66 -181 -110.5t-190 -44.5q-12 0 -29.5 2t-32.5 5t-26.5 8t-11.5 11q-6 18 -6 23zM111 168q4 -8 12 -25.5t24 -17.5t36 4t36 12l109 45 l145 90q0 8 4 13.5t8 5.5l2 -2q16 27 46 42t47 44l53 90q0 10 8 36.5t8 39.5q0 16 -8 37.5t-24.5 40t-40 32t-54.5 13.5q-45 0 -83 -13.5t-70.5 -30t-61 -29.5t-55.5 -13q-14 0 -25.5 1t-15.5 1l-18 -47v-336q-6 -33 -54 -33h-28zM219 651q31 18 49.5 49t38.5 60l21 31 q0 4 6 19t12 33.5t12.5 34t6.5 19.5v115q0 4 -5.5 12t-11.5 10q-16 0 -38.5 -46t-42 -106.5t-34 -120t-14.5 -87.5v-23z" />
<glyph unicode="C" horiz-adv-x="604" d="M57 422v24v19.5t1 26t1 22.5v12l9 42q8 42 23 104.5t39 135.5t56.5 135.5t75.5 104.5t94 42q102 0 103 -115q0 -66 -10.5 -132.5t-18.5 -131.5v-9q-4 -39 -8 -79.5t-27 -75.5l-71 -92v18q12 117 32.5 232.5t20.5 232.5v49l-10 19q-6 -2 -18.5 -10.5t-25 -19.5 t-20.5 -23.5t-8 -20.5q-70 -111 -107.5 -242t-37.5 -264q0 -61 17 -110.5t64 -90.5q12 -10 27 -10h14q39 0 85 27.5t87 59.5t73 59.5t44 27.5q6 0 6 -8v-19q0 -10 -10 -28q-23 -35 -52.5 -71t-63 -65.5t-73.5 -48t-85 -18.5q-43 0 -83 18.5t-71 49t-50.5 70.5t-19.5 85v12 q0 11 -1 26.5t-1 29.5z" />
<glyph unicode="D" horiz-adv-x="720" d="M25 106q4 8 10 18.5t10 10.5q18 0 33.5 -10t32.5 -10h10q16 6 38.5 12t22.5 14v324q0 4 1 17.5t3 27.5t4.5 26.5t2.5 16.5l24 281q0 4 1 19t3 33.5t3 33t1 18.5v72q-37 12 -59.5 19t-36.5 12.5t-23.5 11.5t-19.5 16v8q0 23 12.5 30t30.5 7q23 0 43.5 -9t42.5 -9 q10 0 14 7t7.5 15t7.5 15.5t14 7.5h2q31 -8 48.5 -22.5t17.5 -45.5q0 -16 8 -27.5t49 -35.5l25 -15q45 -27 90 -58.5t80.5 -72.5t57 -91t21.5 -114q0 -78 -24.5 -144t-62.5 -124.5t-85 -110t-92 -96.5l-80 -59l-10 -10t-6 -9l-10 -26q0 -4 -20.5 -9t-49.5 -9.5t-57.5 -6.5 t-46.5 -2q-10 0 -25.5 2t-30 8.5t-23.5 16.5t-9 26zM270 256q0 -6 3 -26.5t6 -26.5q59 35 111 90t90 117.5t59.5 129t21.5 124.5q0 10 -1 31.5t-1 23.5q0 39 -28.5 78t-66.5 71.5t-76 56t-56 31.5h-8q-2 0 -5.5 -20.5t-5.5 -30.5v-18q0 -4 -1 -18.5t-2 -31t-3 -30.5t-2 -16 v-9q0 -4 -4 -22.5t-4 -22.5l-10 -139q-8 -78 -12.5 -154.5t-4.5 -154.5v-33z" />
<glyph unicode="E" horiz-adv-x="602" d="M45 395q0 16 9 24.5t21.5 14.5t24 12.5t17.5 18.5q0 4 5 24.5t9 51t8 65.5t4 66v10l-8 2q-18 10 -36.5 24.5t-18.5 39.5q0 16 13 29.5t30.5 25.5t31 25.5t13.5 31.5q12 55 15 95t6.5 64.5t10.5 37t25 12.5q25 0 45.5 -16.5t20.5 -46.5q0 -29 -8.5 -58.5t-8.5 -58.5h9 q20 10 44.5 20.5t47 18.5t40 13t23.5 5t20.5 -2t14.5 -12q0 -14 -13.5 -30.5t-21.5 -20.5l-61 -39q-35 -23 -75 -45.5t-46 -38.5q-4 -4 -9 -28.5t-11.5 -59.5t-10.5 -74t-4 -72q4 0 9.5 -2t9.5 -2q0 2 31.5 17.5t75.5 35t92 39t83 31.5q8 -4 14.5 -13t6.5 -14 q0 -10 -5.5 -22t-15.5 -16l-86 -41l-188 -119q-16 -10 -26.5 -18.5t-10.5 -43.5q0 -29 5 -59.5t18.5 -56t35 -43t54.5 -17.5q57 0 104 37t84 78l10 12h6q14 0 18.5 -19.5t4.5 -29.5v-8q0 -18 -10 -31q-29 -37 -55.5 -61.5t-54.5 -39t-57.5 -21.5t-66.5 -9l-16 10 q-88 43 -130 101.5t-44 142.5q-23 4 -47.5 15.5t-24.5 37.5z" />
<glyph unicode="F" horiz-adv-x="712" d="M16 379q0 8 4.5 18.5t16.5 16.5l98 39l8 8v399q0 2 8.5 3t12.5 3h12q18 0 42 -7t24 -17v-293l12 -47q63 12 112.5 20t88.5 14.5t70.5 9.5t64.5 3q16 0 36.5 -4t20.5 -25v-12q-59 -16 -118.5 -24.5t-118.5 -22.5q-10 -2 -32 -8.5t-28 -6.5l-67 -24l-17.5 -7t-11.5 -9 q0 -6 -1 -21.5t-1 -34t-1 -35t-1 -22.5q0 -10 1 -27.5t1 -36t1 -32t1 -15.5q0 -47 19.5 -92t19.5 -88q0 -16 -6 -25.5t-29 -9.5q-43 0 -65.5 38t-32.5 92.5t-12.5 114.5t-4.5 105v31l-67 -14q-14 0 -37 14t-23 31zM86 1075q0 2 7 13.5t11 17.5q66 96 185 156.5t254 60.5 q29 0 63.5 -4t65 -16.5t52 -34t21.5 -56.5q0 -14 -3 -21t-23 -7t-31.5 11t-25 25.5t-34 25.5t-57.5 11q-96 0 -183 -38.5t-146 -104.5l-47 -72q-10 -4 -21.5 -9t-19.5 -5q-4 0 -18.5 5t-22.5 9l-19 15l-5 10t-3 8z" />
<glyph unicode="G" horiz-adv-x="987" d="M47 608v16.5t1 31t1 31.5v22q0 27 10.5 59.5t26.5 67t35.5 69.5t38.5 66l8 10q0 2 4 10t4 10q27 41 66 84t83 79t91 58.5t92 22.5l18 -1q17 -1 37.5 -5t37.5 -12t17 -21v-10q-4 -23 -11 -32t-29 -9q-12 0 -22.5 6t-27.5 6q-37 0 -72.5 -24.5t-64.5 -48.5l-6 -7 q-51 -43 -97 -94t-82 -108.5t-56.5 -124t-20.5 -139.5q0 -66 19.5 -122.5t54.5 -98.5t86 -66.5t114 -24.5q16 0 46 8.5t53 20.5l37 18q8 4 25.5 16.5t33.5 28t28.5 32t12.5 30.5v10q-4 8 -7 22.5t-3 12.5q0 4 1 11t1 11q-6 0 -24.5 1t-31.5 1q-47 0 -92 -15t-92 -15h-2 q-6 0 -20.5 4t-29.5 11t-26.5 20.5t-11.5 35.5q0 23 22.5 33t43.5 15h71q98 8 199.5 29.5t200.5 39.5q10 2 34.5 6t28.5 4h90q4 -4 10.5 -10t8.5 -10v-12q-14 -25 -29.5 -34t-34.5 -13l-180 -52q-10 -2 -11 -6t-1 -10t6 -17.5t6 -23.5l-10 -16q0 -35 7 -85.5t15 -104.5 t15.5 -104t7.5 -83q0 -8 -13.5 -16.5t-21.5 -8.5q-18 0 -32.5 18.5t-25 44t-16.5 53.5t-8 48l-10 90h-8q-57 -72 -123 -95.5t-168 -23.5q-66 0 -125.5 29t-104.5 79t-71.5 119.5t-26.5 151.5z" />
<glyph unicode="H" horiz-adv-x="692" d="M45 487q0 10 11.5 15.5t23.5 8.5t23.5 8t11.5 18v417q0 8 20.5 16.5t34.5 12.5q29 -10 36 -28.5t7 -51.5v-401l195 -21q8 0 23 1t30.5 2t29 2t17.5 1v287q-2 8 -5 30.5t-3 33.5v6q0 14 13 23.5t32 9.5q37 0 49 -37t12 -84v-400q0 -31 16.5 -90t28.5 -151v-9 q0 -8 -2 -30.5t-14 -22.5h-64q-10 55 -23 107.5t-22 105.5q-6 39 -7 76t-11 72q-59 6 -118.5 13t-119.5 7h-26.5t-26.5 -2q0 -10 -2 -38.5t-2 -37.5q0 -4 4 -21.5t6 -19.5q0 -57 14.5 -97t14.5 -87q0 -45 -53 -45q-12 0 -20.5 15.5t-14.5 39t-9 49t-3 43.5v9l-5 8 q-4 8 -4 12v12q0 4 -3 16.5t-6 27t-6 26.5t-3 16v13q0 16 -4 30.5t-4 30.5q0 8 -11.5 12.5t-24.5 8.5t-24.5 10t-11.5 22z" />
<glyph unicode="I" horiz-adv-x="258" d="M63 629q0 33 7.5 56.5t35.5 23.5q23 0 41.5 -11.5t24.5 -31.5q-2 -35 -2 -70v-70q0 -98 5 -191t18 -188v-4q8 -18 14 -40.5t6 -43.5q0 -30 -33 -30h-2q-29 0 -46 17t-27.5 41t-14.5 47.5t-4 37.5l-18 256v18.5t-1 37t-1 42v33.5q0 14 -1.5 32.5t-1.5 37.5z" />
<glyph unicode="J" horiz-adv-x="358" d="M-184 -430q0 88 23.5 155.5t63.5 120t94 92t118 76.5q10 121 11 238t9 235q0 6 1 24.5t1 40t1 40t1 24.5v9q0 10 2 37.5t4 59.5t4.5 60.5t2.5 40.5q6 8 16 9.5t20 1.5q23 0 41.5 -17.5t18.5 -42.5v-16q0 -55 -6 -111.5t-13 -109.5v-11q-4 -119 -10 -233.5t-6 -231.5 q27 0 52.5 5.5t49.5 5.5q6 0 15.5 -1t13.5 -1l-16 -9q2 0 12 -3t14 -5v-12q-12 -16 -35.5 -28.5t-47 -19.5t-41 -12.5t-17.5 -9.5l-18 -290q-16 -117 -19.5 -232t-4.5 -205t-8 -145t-28 -55h-35q-51 0 -80.5 27.5t-64.5 62.5q-20 23 -38.5 46t-41.5 83q-39 76 -49 147.5 t-10 159.5zM-98 -444q0 -55 8 -113.5t27.5 -115t50 -106.5t73.5 -87q16 59 16 122l-1 18q0 57 4 116q6 104 16 208.5t10 208.5v107q-104 -61 -154 -154t-50 -204z" />
<glyph unicode="K" horiz-adv-x="776" d="M57 51v125q0 78 3 155t14 154l10 43q0 55 8 121t17.5 137.5t17.5 143t8 139.5q0 12 -1 25.5t-1 25.5q10 33 43 33q14 0 24.5 -10t15.5 -23.5t7 -28t2 -22.5q0 -135 -19.5 -262t-29.5 -262v-8l90 81l125 125q4 4 17.5 13.5t17.5 13.5l192 193h21q27 0 40 -10.5t13 -39.5 v-10q0 -4 -6 -13t-10 -11q-55 -57 -114.5 -104.5t-119.5 -106.5l-127 -115q-4 -6 -22.5 -24.5t-39 -42t-37.5 -46t-17 -34.5q0 -35 37.5 -80t93 -88t120 -78t117.5 -49q23 -8 54.5 -12.5t60.5 -8.5t49.5 -11.5t20.5 -19.5q0 -23 -31 -28.5t-66 -5.5q-10 0 -62 7t-110 36 l-116 59q-2 0 -11.5 6t-13.5 10q-53 37 -100 82t-92 92q-4 -70 -10.5 -139t-6.5 -141v-37q-10 -18 -31 -18q-31 0 -38 23.5t-7 45.5z" />
<glyph unicode="L" horiz-adv-x="530" d="M49 244v39q0 141 24.5 276t51.5 272l18 132q2 12 5.5 36.5t3.5 26.5v27q0 20 7 34.5t23 14.5h11q18 0 39.5 -8.5t21.5 -32.5q0 -35 -8 -88t-20.5 -117.5t-27 -134.5t-28.5 -135v-11q-12 -74 -19.5 -146.5t-7.5 -145.5q0 -49 3.5 -88t18.5 -68t47 -44t87 -15q25 0 48.5 7 t46 16t45 17.5t46.5 8.5q12 0 15.5 -13.5t3.5 -23.5q0 -18 -20.5 -34.5t-50.5 -28t-62.5 -17.5t-57.5 -6q-51 0 -99 9t-85 36t-58.5 76t-21.5 129z" />
<glyph unicode="M" horiz-adv-x="837" d="M80 55v76q0 98 6 193.5t10 193.5q6 119 7 189.5t1 113.5t1 67.5t8 53.5v143q2 8 18 9h29q12 -4 26.5 -12.5t14.5 -20.5v-64q0 -27 -4 -63.5t-4 -61.5q0 -31 8 -30q4 0 8 6t8 6l16 25q0 2 9 10l6 6q55 0 77.5 -39t33 -110.5t19.5 -172t38 -223.5l16 -102q0 -4 3 -13.5 t5 -11.5q0 6 1 19.5t2 29t2 28.5t1 19v60q0 20 3.5 47t8.5 50.5t9 42t4 24.5l-2 26l35 142q4 16 11 29.5t30 25.5h8q8 -2 26.5 -8t20.5 -8l16 -25q4 -8 13.5 -38t18.5 -71t20.5 -87t20.5 -83.5t14.5 -63.5t7.5 -26v2l41 -143q10 -33 21 -65.5t11 -67.5q0 -43 -49 -43h-8 l-63 192q-23 61 -36.5 123t-27.5 125l-25 105q-4 12 -6 24.5t-8 22.5q-20 -66 -27.5 -134.5t-11.5 -136.5q0 -104 -17.5 -202.5t-17.5 -198.5q-4 -25 -8 -38t-9 -19t-14.5 -6h-21.5h-18q-10 2 -16.5 16t-8.5 22l-16 121q-2 66 -12.5 120t-18.5 112l-6 43 q-16 113 -31.5 223.5t-42.5 220.5l-8 -8q0 -2 -3 -14.5t-5 -18.5q-23 -115 -29 -230.5t-18 -232.5q0 -10 -3 -25.5t-6.5 -30.5t-5.5 -28.5t-2 -17.5q0 -16 -1 -41t-6 -46.5t-15 -36.5t-29 -15q-16 0 -34.5 5t-18.5 21z" />
<glyph unicode="N" horiz-adv-x="628" d="M37 772q0 16 14.5 25.5t30.5 9.5q41 0 54.5 -39t21.5 -88l18 -111q18 33 23.5 83t13.5 104.5t26.5 105.5t61.5 82h31q39 0 66.5 -21.5t46 -54t29.5 -71.5t22 -72l4 -12q23 -92 38 -184.5t29 -188.5q6 -53 9.5 -103.5t17.5 -101.5q-27 -16 -62 -16q-25 0 -32.5 25.5 t-12.5 54.5q-10 78 -18 155.5t-19.5 155.5t-30 154.5t-48.5 150.5l-17 33l-4 4q-2 0 -2 1t-2 1t-2 2q-2 0 -4 -4t-4 -4l-17 -33q-33 -66 -39 -135.5t-14 -138.5l-6 -58q-6 -53 -13 -128.5t-14 -166.5v-6q0 -4 4.5 -23.5t4.5 -23.5v-12q0 -12 -8.5 -28.5t-24.5 -16.5 q-12 0 -37 5t-33 36q-12 53 -14 106.5t-8 106.5l-35 278q-8 41 -17.5 75t-21.5 71z" />
<glyph unicode="O" d="M53 477q0 78 22.5 182.5t62.5 198.5t97.5 159.5t129.5 65.5h16q27 0 49 -10l10 -8q10 -16 28.5 -29.5t35.5 -31.5q53 -61 75.5 -137t22.5 -150q0 -53 -9 -106.5t-32 -102.5q-16 -35 -48 -78t-74 -80t-90 -61.5t-97 -24.5q-55 0 -93 18.5t-61.5 48t-34 67.5t-10.5 79z M156 492q2 -37 5 -61.5t9 -41t17.5 -27t29.5 -20.5h16q25 0 50.5 11.5t44.5 25.5q98 74 137 167t39 202q0 39 -9.5 76.5t-24.5 68.5t-33.5 53.5t-37.5 30.5h-10l-49 -25l-53 -43l-41 -69q-45 -78 -63.5 -163t-26.5 -169v-16z" />
<glyph unicode="P" horiz-adv-x="604" d="M70 465q2 31 2 77t4 72l2 13q0 2 2 26.5t8 59.5l12 80q10 63 20.5 116.5t22.5 65.5q8 20 16.5 38.5t39.5 37.5l12 12q25 14 48.5 22.5t51.5 8.5q8 0 16.5 -1t16.5 -1h8q12 -4 35 -13.5t45.5 -22t38.5 -24.5t16 -24l21 -21q10 -10 19.5 -42t31.5 -122l-4 -10q0 -6 2 -8 l-6 -90q-10 -29 -16.5 -55.5t-14.5 -53.5q-8 -16 -22.5 -40.5t-28.5 -47t-27.5 -39t-19.5 -16.5l-4 -8l-96 -76q-20 -6 -34 -18.5t-30 -18.5q-20 0 -26.5 -19.5t-6.5 -46.5v-24q0 -20 2 -25l4 -43q-2 -2 -2 -12v-4q2 -16 3 -32.5t1 -33.5v-82q0 -25 5.5 -50t5.5 -52 q-2 -2 -2 -20q0 -27 2 -29l4 -12q2 -12 5 -24.5t5 -25.5v-2q0 -18 6 -28t6 -31q0 -20 -24 -20h-3q-42 0 -59 32q-12 59 -28.5 107.5t-26.5 101.5l-43 242q0 6 -3 46t-6 86t-5 84t-2 40zM143 446l4 -45h5q2 0 3 28t3 67t4 82t6 73l2 72q0 18 6 47t21 33q29 0 51 -14.5 t22 -47.5q0 -29 -5 -66.5t-11 -72.5t-11 -62.5t-5 -37.5l2 -6l2 2v-11q0 -12 -1 -30.5t-1 -26.5l4 -2l12 14q2 0 10 6.5t8 10.5l17 14q39 27 72.5 66t58 84t38 95t13.5 101q0 8 -1 33t-9 53.5t-25.5 56t-48.5 39.5q-2 2 -5 2.5t-7 4.5l-6 4q-2 2 -23 2l-39 -2q-4 -4 -8 -4 h-10l-33 -19l-39 -41q-8 -12 -17 -39.5t-16.5 -53.5t-12.5 -45t-5 -17l-18 -121q-2 -18 -3.5 -28.5t-1.5 -16.5l2 -6q-2 -10 -3 -18.5t-1 -16.5v-29l4 -18q0 -27 -2 -48.5t-2 -44.5z" />
<glyph unicode="Q" horiz-adv-x="729" d="M63 250q0 59 7.5 114.5t21.5 110.5q18 51 26.5 103.5t24.5 109.5q16 55 42 122t60 124t73.5 96t84.5 39h19l51 -25q35 -23 49.5 -76t18.5 -112v-8q0 -14 -16.5 -21.5t-26.5 -11.5h-2q-23 0 -31 27.5t-13.5 61.5t-10.5 61.5t-19 27.5h-16q-2 0 -21.5 -19.5t-30.5 -31.5 q-49 -57 -86 -150.5t-61.5 -195.5t-36.5 -198.5t-12 -159.5q0 -23 2 -46.5t9 -42t21.5 -29.5t40.5 -11q6 0 16.5 1t12.5 1l59 24l27 17v2q0 2 1 2t1 2q-2 2 -2 4l-51 67q-8 0 -9 9.5t-1 21.5q0 10 7 28.5t27 18.5q41 -14 55.5 -38.5t39.5 -47.5q59 59 94 135t59 154l8 35 q2 10 5.5 32.5t3.5 24.5q0 6 -1 19.5t-2 29t-3.5 28.5t-2.5 17l-16 35l-78 43q18 6 28.5 15.5t41.5 9.5q37 0 64.5 -31t43.5 -72v-151q-4 -43 -17 -93.5t-32 -86.5l-35 -68l-69 -102q-4 -6 -20.5 -25.5t-20.5 -26.5q25 -29 55.5 -58.5t59 -57t52 -49t36.5 -29.5l34 -17 q4 -2 13.5 -6t11.5 -4q8 0 17.5 1t19.5 1q14 0 23.5 -5t9.5 -23q0 -14 -9.5 -22.5t-21.5 -12.5t-26.5 -5t-24.5 -1q-4 0 -16.5 1t-14.5 1q-18 0 -48 20.5t-64.5 51t-71.5 68.5t-70 73l-24 16h-9l-43 -27q-16 0 -40.5 -13t-77.5 -13q-47 0 -80 18.5t-53.5 49t-30 69.5 t-9.5 80z" />
<glyph unicode="R" horiz-adv-x="632" d="M61 328v168v41.5t1 61.5t1 60.5v40.5l9 33q23 72 37 154t55 149q45 74 120.5 129.5t168.5 55.5q63 0 101 -49.5t38 -110.5q0 -80 -26.5 -156t-68.5 -146.5t-92.5 -135t-97.5 -123.5v-8q0 -2 3 -7.5t5 -9.5q39 -68 86.5 -124t114.5 -118q8 -8 24.5 -15t31 -13t25.5 -14.5 t11 -20.5q0 -23 -20.5 -26t-38.5 -3h-25l-43 25q-8 4 -40.5 31.5t-72.5 67.5t-75 83t-45 78l-25 41q-18 27 -18 43t12 26.5t23 22.5l59 68q33 39 68.5 89t65.5 107.5t48.5 120t18.5 123.5q0 29 -5.5 53.5t-29.5 24.5q-55 -6 -88 -15.5t-53.5 -22.5t-35 -31.5t-30.5 -45.5 q-16 -35 -32.5 -63.5t-26.5 -65.5q-29 -104 -36 -208.5t-7 -211.5v-106q0 -45 3 -90t6 -86t6 -76t3 -60q0 -32 -37 -32h-2h-8q-23 0 -36 22.5t-19 62.5t-8.5 94t-2.5 118z" />
<glyph unicode="S" horiz-adv-x="608" d="M37 688v29q61 68 119.5 115t105.5 90q16 16 45 44.5t57.5 56.5t50 48.5t25.5 20.5q35 0 55.5 -20.5t20.5 -51.5q0 -2 -1 -10.5t-1 -12.5q-25 -14 -53.5 -40.5t-56 -52t-51 -45t-36.5 -19.5l-45 -39q-8 -6 -25.5 -23.5t-37 -38t-35.5 -38t-22 -23.5l-2 -2q0 -6 15 -13.5 t36.5 -14.5t41 -14t29.5 -11l131 -66q0 -6 11 -10q25 -20 52.5 -44t51 -52.5t38.5 -60.5t15 -66q0 -6 -7 -23.5t-11 -24.5q-23 -37 -58.5 -64.5t-76.5 -43.5t-84 -24.5t-82 -8.5q-29 0 -60.5 3t-57 15.5t-43 36t-17.5 64.5q0 16 2 29.5t18 13.5l8 -2l66 -66l18 -10h105 l57 21q14 6 34.5 15t37 22.5t29 32t12.5 40.5q0 33 -20.5 61.5t-51.5 51t-67.5 41t-69.5 35.5l-131 47q-33 14 -58.5 38.5t-25.5 63.5z" />
<glyph unicode="T" horiz-adv-x="858" d="M8 848q0 16 13.5 31.5t39.5 15.5h33l60 10q66 10 134 14.5t136 20.5l10 88q0 14 10.5 19.5t32.5 9.5h10q10 -16 25.5 -32.5t15.5 -33.5q0 -8 -2 -17t-2 -20h299q14 0 21.5 -14t7.5 -25q0 -20 -16.5 -23t-28.5 -3q-8 -4 -81 -14.5t-198 -14.5h-10l-8 -12q-23 -80 -27 -164 t-14 -166q-8 -72 -17.5 -141.5t-9.5 -145.5v-14q0 -6 1 -32.5t3.5 -57.5t3.5 -57.5t1 -32.5v-19q-4 -10 -17.5 -19t-23.5 -9h-2q-8 0 -24 12t-28 16v232q0 59 5.5 116.5t11.5 114.5l18 170q0 2 1 17.5t3 33t3 33t1 19.5l9 75q0 8 -24 9.5t-36 1.5q-72 -6 -139.5 -27.5 t-138.5 -21.5q-23 0 -42.5 14t-19.5 43z" />
<glyph unicode="U" horiz-adv-x="688" d="M51 365q0 49 1 69.5t9 44.5q6 45 10.5 84t10.5 80t14 87t21 106q2 16 3 38.5t5 44t13 37t32 15.5h16q14 -10 26.5 -24.5t12.5 -31.5v-10q0 -25 -8 -48t-12 -48q-8 -35 -14.5 -63.5t-12.5 -58.5t-11 -65.5t-7 -84.5q-4 -47 -10.5 -91.5t-6.5 -89.5v-20q0 -23 9 -29 q31 8 56 31.5t42 46.5l45 61l53 91q4 4 10.5 15t8.5 15q18 23 23 33t9 22.5t12.5 34t30.5 68.5q4 18 18.5 45t35.5 94q6 25 7 54.5t17 52.5l19 12q4 4 10 7t8 3l37 -16q4 -2 10 -8l8 -8v-56q0 -2 -4 -19.5t-6 -21.5q-16 -86 -21 -172t-6 -178q0 -102 5.5 -207.5t40.5 -204.5 q4 -14 12 -29.5t8 -19.5t-1 -10t-9 -6h-64q-10 0 -20 21.5t-19.5 53t-16.5 68.5t-12 70t-9.5 54.5t-4.5 23.5v16q0 14 -1 49t-2 74t-2 73.5t-1 49.5l-22 -35q-23 -43 -52.5 -99.5t-66.5 -107.5t-82 -87t-96 -36q-63 0 -86 38t-23 102z" />
<glyph unicode="V" horiz-adv-x="487" d="M57 629q0 35 1 70.5t4.5 64.5t7.5 48t8 22h20q35 0 56.5 -11.5t21.5 -52.5q0 -18 -5 -35.5t-5 -29.5l2 -17q0 -10 -4 -23.5t-4 -25.5q-6 -45 -6 -89t-2 -91q0 -12 3 -28.5t3 -33.5q0 -14 -1 -27.5t-1 -27.5q0 -43 4 -88t14 -88l8 -35q0 -4 4 -10t4 -10h3q2 0 7 12t9 29 l14 53q0 4 3 9t3 9q8 31 14.5 50.5t10.5 41t9 51t11 83.5l58 274l2 29q8 47 20.5 88t24.5 84q0 2 1 6t1 6l41 2l27 -27q2 -2 6 -2l6 -12q0 -2 1 -5t1 -5q-12 -31 -19.5 -63.5t-11.5 -61.5l-67 -356q-16 -96 -31 -177.5t-29 -139.5t-32.5 -90t-45.5 -32q-35 0 -61.5 23.5 t-45 57.5t-28.5 71.5t-14 66.5l-4 15q-4 10 -4 20t-2 17v8q-6 29 -6.5 55.5t-2.5 40.5v207q0 18 -1 37.5t-1 42.5z" />
<glyph unicode="W" horiz-adv-x="862" d="M80 918v10q8 37 18.5 40t26.5 3q18 0 32.5 -10.5t26.5 -24.5v-356v-13q0 -14 1 -34.5t2 -40t3.5 -38t2.5 -28.5l8 -111q4 -49 6 -85.5t18 -36.5h11q4 10 8 18t5 15t3 12l4 6q10 31 17.5 54.5t13.5 49t10 60t8 88.5v16q2 37 5 58.5t7.5 33.5t11.5 18.5t19 12.5h4 q16 0 40 -14.5t34 -30.5l35 -86q4 -20 14 -50t20.5 -62t21.5 -61.5t20 -49.5l34 -70q6 -12 18.5 -35.5t29 -45t37 -38t42.5 -16.5v21.5t1 32.5t1 32.5v21.5q0 4 -3 28t-5 34q-25 131 -59.5 256t-79.5 252v45q4 4 8 10q4 4 6 7t4 7l9 8h45q4 0 13 -7t11 -9v-43 q4 -43 22.5 -92t28.5 -90l37 -131q25 -86 47.5 -171t22.5 -177q0 -70 -27.5 -97.5t-79.5 -27.5q-39 0 -74.5 24.5t-65.5 60t-52.5 73.5t-34.5 65l-4 10q-23 49 -42.5 104.5t-37.5 102.5q-4 -37 -13 -93.5t-23.5 -109.5t-35 -92t-47.5 -41h-77q-49 37 -68 99.5t-24 133 t-5 138t-8 112.5v17q0 12 -1 60t-2 103.5t-3 103.5t-2 61z" />
<glyph unicode="X" horiz-adv-x="724" d="M27 772q0 39 43 39q53 0 73 -49q31 -76 60.5 -143.5t81.5 -133.5l39 125q67 212 67 436v7q0 16 -1 30.5t-1 30.5q10 10 29 10h10q33 0 54.5 -23.5t21.5 -58.5q0 -145 -36 -279t-79 -288l-18 -65v-39l28 -39q119 -125 228 -199q27 -18 42 -26.5t23 -13.5t11.5 -9t3.5 -14 q0 -16 -20.5 -24.5t-29.5 -8.5h-10q-43 10 -85 33.5t-81 54.5t-73.5 64.5t-65.5 68.5h-10q-14 -53 -27.5 -94t-33 -68.5t-47 -43t-68.5 -15.5q-8 0 -15.5 2t-7.5 14q0 18 18.5 41t28.5 39q27 45 42.5 96.5t25.5 102.5v30l-115 181q-12 18 -29.5 56t-35 75t-29.5 65.5 t-12 32.5z" />
<glyph unicode="Y" horiz-adv-x="684" d="M45 551v14q0 66 10.5 126.5t24.5 123.5q12 49 22.5 76t22.5 39t26.5 14t32.5 2q10 0 17.5 -2t15.5 -14l21 -25q0 -18 -19.5 -33.5t-25.5 -31.5q-10 -23 -18.5 -50.5t-16.5 -54t-12.5 -51.5t-4.5 -39v-174q0 -43 32 -80t83 -37q23 0 45.5 11.5t44 28t39.5 34.5t31 35 q37 35 54 85t34 91v156q0 41 7 77.5t42 36.5q23 0 37 -13t18 -32l-10 -164v-118q0 -158 16.5 -309.5t16.5 -309.5v-39q0 -137 -5 -280.5t-10 -302.5v-9q-8 -31 -9 -64.5t-6 -61t-21.5 -46t-57.5 -18.5q-14 0 -17 8.5t-3 18.5q0 25 8 48t10 48q0 6 2 24.5t3 39t2 40t1 27.5 v84q0 6 2 33.5t3.5 58.5t3.5 57.5t2 32.5v117q0 6 1 31.5t2 53t2 52.5t1 31v8q0 6 -1 34.5t-2 61.5t-2 61.5t-1 34.5v62l-27 227h-2q-2 0 -3 1t-3 1q-41 -55 -101.5 -105t-142.5 -50h-35q-10 0 -38.5 9t-36.5 15l-62 58l-25 41q-14 33 -16 71.5t-2 73.5z" />
<glyph unicode="Z" horiz-adv-x="718" d="M53 37l8 24q6 6 23.5 21.5t37 34t37 36l23.5 23.5l51 64q0 2 5.5 10t12.5 17t13 17.5t8 8.5q27 37 54.5 82t54.5 95t49.5 103.5t36.5 102.5v8q4 29 10 56.5t6 56.5t-4 60.5t-16 57t-34.5 42t-57.5 16.5q-41 0 -76 -18.5t-59.5 -46t-39 -59.5t-14.5 -61q0 -18 2 -30.5 t9.5 -24.5t19.5 -25.5t35 -31.5q16 -16 36.5 -26.5t20.5 -39.5q0 -16 -18.5 -18t-28.5 -2h-18l-39 24q-51 31 -83 82.5t-32 110.5v16q6 43 32.5 83t63.5 71t80 49t82 18h76q2 0 17.5 -6t21.5 -10q59 -29 86.5 -90t27.5 -121q0 -86 -26.5 -173t-70.5 -173t-99 -167t-113 -150 l-39 -48q-4 -2 -6 -7t-4 -9q39 10 77 15.5t79 9.5h8q4 0 19.5 1t33 2t32.5 2t19 1h9q25 6 39 9t23 5t15 3t17 1q31 0 52 -17.5t21 -33.5q0 -6 -2 -10v-2q-4 -23 -30.5 -31t-59.5 -8q-16 0 -31.5 2t-25.5 6q-94 0 -188 -16q-14 -2 -47 -8.5t-66 -13.5t-59 -12l-25 -5h-6 q-18 0 -42 11t-24 36z" />
<glyph unicode="[" horiz-adv-x="585" d="M37 1012v20.5t4 20.5q2 18 22.5 30.5t51 19.5t68.5 10t79 3q47 0 101.5 -2t100.5 -9t75.5 -21.5t29.5 -39.5v-4q-4 -14 -9 -15t-21 -1q-25 0 -46.5 10t-43.5 10h-27q-31 0 -71 4.5t-77 4.5q-80 0 -115.5 -13.5t-35.5 -60.5q0 -45 12 -88t17 -90q4 -70 7 -139.5t3 -141.5 v-12q0 -35 -1 -74t-1 -80q0 -61 4 -109t16.5 -82t38 -51.5t68.5 -17.5q45 0 89 8.5t87 8.5q23 0 44 -5.5t21 -25.5v-4q-2 -10 -32.5 -19.5t-71.5 -15.5t-86 -9t-76 -3q-63 0 -98 18.5t-51.5 46t-20.5 62t-6 65.5q-4 47 -6 94t-2 95v106q0 80 -2 160t-13 160q-6 43 -16 87 t-10 89z" />
<glyph unicode="\" horiz-adv-x="411" d="M49 1139l4 12q6 12 26.5 27.5t43.5 15.5q10 0 17 -10t18 -21l12 -176q16 -123 41 -238.5t55 -228.5q57 -168 72.5 -280.5t15.5 -163.5q0 -10 -1 -17.5t-1 -11.5v-10l-18 -31q-18 12 -26.5 34.5t-13.5 52.5t-14.5 65t-29.5 69q-41 147 -81 291t-69 291q-16 82 -26.5 165 t-24.5 165z" />
<glyph unicode="]" horiz-adv-x="583" d="M16 1040v4q0 25 30 39.5t76 21.5t100 9t102 2q41 0 78.5 -3t68.5 -10t50.5 -19.5t23.5 -30.5q4 -10 4 -20.5v-20.5q-2 -45 -12.5 -89t-14.5 -87q-10 -80 -12 -160t-2 -160v-106q0 -96 -6 -189q-2 -31 -7.5 -65.5t-22.5 -62t-52 -46t-96 -18.5q-31 0 -76 3t-86 9t-71 15.5 t-32 19.5v4q0 20 21.5 25.5t44.5 5.5q43 0 87 -8.5t87 -8.5t68.5 17.5t38 51.5t16.5 82t4 109q0 41 -1 80t-1 74v12q0 72 4 141.5t8 139.5q2 47 14.5 90t12.5 88q0 47 -40 60.5t-126 13.5q-35 0 -71 -4.5t-62 -4.5h-27q-27 -4 -48 -12t-50 -8q-10 0 -14.5 2t-8.5 14z" />
<glyph unicode="^" horiz-adv-x="620" d="M33 807q0 51 19.5 66.5t35.5 15.5h25q10 8 34.5 42t40.5 68l60 121q20 41 36.5 94.5t32.5 112.5q6 23 7.5 44.5t3.5 38.5t7 27.5t21 10.5q20 0 32.5 -11.5t25.5 -35.5v-12q0 -147 26.5 -254t58 -176.5t58.5 -106.5t27 -45q0 -29 -17 -47h-51q-66 66 -100.5 162t-59.5 206 q-2 0 -6 -2t-4 -6l-63 -147q-12 -29 -32 -69t-44.5 -75.5t-53 -61.5t-59.5 -26h-4q-16 0 -36.5 16.5t-20.5 49.5z" />
<glyph unicode="_" horiz-adv-x="620" d="M-195 -160q0 18 3.5 24.5t21.5 14.5q14 -2 26.5 -2h24.5q203 0 407 7t410 34q8 2 17.5 2h17.5q63 0 82 -14q0 -25 -51 -37t-129 -18.5t-168 -10.5t-168 -10q-104 -10 -205.5 -21.5t-206.5 -11.5h-65q-4 0 -10.5 6.5t-6.5 10.5v26z" />
<glyph unicode="`" horiz-adv-x="397" d="M66 1337q0 12 9 21.5t25 9.5q4 0 21.5 -9t41 -24.5t50.5 -34t49 -36.5l23 -19q18 -16 31.5 -37.5t15.5 -31.5q0 -18 -17 -23h-4q-14 0 -26 12l-47 43l-136 74q-10 6 -20 17.5t-14 23.5q-2 6 -2 14z" />
<glyph unicode="a" horiz-adv-x="786" d="M20 373v8q8 12 24.5 22.5t25.5 10.5q18 0 27 -4t38 -4q35 0 42 26.5t7 52.5v27l4 12l5 15q12 4 23 58t22.5 132t26 168t33.5 167t43.5 127t59.5 50h5q18 0 36.5 -6t28.5 -18q35 -86 51.5 -174.5t32.5 -178.5q25 -139 48.5 -275t68.5 -272l90 -272q4 -4 6 -18.5t2 -18.5 v-6q0 -2 -2 -6t-6 -4h-31q-33 0 -46 9t-18 23.5t-5 34t-7 37.5l-73 230q-6 16 -14.5 43.5t-12.5 27.5q-72 -23 -144.5 -37t-146.5 -24q-6 -29 -7 -72t-4 -83t-13 -67.5t-31 -27.5q-8 0 -29.5 5t-21.5 15v211q-23 0 -47.5 2.5t-44 7.5t-33 16t-13.5 30zM274 424h9 q68 0 132 14.5t132 14.5q-2 2 -2 4v2l-17 80q-29 141 -49 283.5t-59 279.5q-20 -20 -26.5 -43t-12.5 -45l-43 -176q-25 -102 -42 -207t-22 -207z" />
<glyph unicode="b" horiz-adv-x="796" d="M41 119q0 2 8 23.5t37 43.5q-2 6 -2 24.5v41.5q0 78 9 136t9 124q0 156 -24 309l-21 99q0 4 -4 19t-6 19v27q0 8 4 13.5t29 5.5q39 0 52 -13.5t24 -70.5l12 -80q0 10 6 30.5t10 26.5l27 76q16 66 53 101.5t68 35.5h18q53 0 77 -26.5t36 -79.5v-50q0 -78 -27 -151l-18 -37 l-29 -45v-8q18 6 39 7t41 1h37q70 0 116 -17.5t72.5 -44t36.5 -59.5t10 -63q0 -51 -19.5 -95.5t-51 -82t-71.5 -71.5t-81 -63q-92 -66 -181 -110.5t-190 -44.5q-12 0 -29.5 2t-32.5 5t-26.5 8t-11.5 11q-6 18 -6 23zM111 168q4 -8 12 -25.5t24 -17.5t36 4t36 12l109 45 l145 90q0 8 4 13.5t8 5.5l2 -2q16 27 46 42t47 44l53 90q0 10 8 36.5t8 39.5q0 16 -8 37.5t-24.5 40t-40 32t-54.5 13.5q-45 0 -83 -13.5t-70.5 -30t-61 -29.5t-55.5 -13q-14 0 -25.5 1t-15.5 1l-18 -47v-336q-6 -33 -54 -33h-28zM219 651q31 18 49.5 49t38.5 60l21 31 q0 4 6 19t12 33.5t12.5 34t6.5 19.5v115q0 4 -5.5 12t-11.5 10q-16 0 -38.5 -46t-42 -106.5t-34 -120t-14.5 -87.5v-23z" />
<glyph unicode="c" horiz-adv-x="604" d="M57 422v24v19.5t1 26t1 22.5v12l9 42q8 42 23 104.5t39 135.5t56.5 135.5t75.5 104.5t94 42q102 0 103 -115q0 -66 -10.5 -132.5t-18.5 -131.5v-9q-4 -39 -8 -79.5t-27 -75.5l-71 -92v18q12 117 32.5 232.5t20.5 232.5v49l-10 19q-6 -2 -18.5 -10.5t-25 -19.5 t-20.5 -23.5t-8 -20.5q-70 -111 -107.5 -242t-37.5 -264q0 -61 17 -110.5t64 -90.5q12 -10 27 -10h14q39 0 85 27.5t87 59.5t73 59.5t44 27.5q6 0 6 -8v-19q0 -10 -10 -28q-23 -35 -52.5 -71t-63 -65.5t-73.5 -48t-85 -18.5q-43 0 -83 18.5t-71 49t-50.5 70.5t-19.5 85v12 q0 11 -1 26.5t-1 29.5z" />
<glyph unicode="d" horiz-adv-x="720" d="M25 106q4 8 10 18.5t10 10.5q18 0 33.5 -10t32.5 -10h10q16 6 38.5 12t22.5 14v324q0 4 1 17.5t3 27.5t4.5 26.5t2.5 16.5l24 281q0 4 1 19t3 33.5t3 33t1 18.5v72q-37 12 -59.5 19t-36.5 12.5t-23.5 11.5t-19.5 16v8q0 23 12.5 30t30.5 7q23 0 43.5 -9t42.5 -9 q10 0 14 7t7.5 15t7.5 15.5t14 7.5h2q31 -8 48.5 -22.5t17.5 -45.5q0 -16 8 -27.5t49 -35.5l25 -15q45 -27 90 -58.5t80.5 -72.5t57 -91t21.5 -114q0 -78 -24.5 -144t-62.5 -124.5t-85 -110t-92 -96.5l-80 -59l-10 -10t-6 -9l-10 -26q0 -4 -20.5 -9t-49.5 -9.5t-57.5 -6.5 t-46.5 -2q-10 0 -25.5 2t-30 8.5t-23.5 16.5t-9 26zM270 256q0 -6 3 -26.5t6 -26.5q59 35 111 90t90 117.5t59.5 129t21.5 124.5q0 10 -1 31.5t-1 23.5q0 39 -28.5 78t-66.5 71.5t-76 56t-56 31.5h-8q-2 0 -5.5 -20.5t-5.5 -30.5v-18q0 -4 -1 -18.5t-2 -31t-3 -30.5t-2 -16 v-9q0 -4 -4 -22.5t-4 -22.5l-10 -139q-8 -78 -12.5 -154.5t-4.5 -154.5v-33z" />
<glyph unicode="e" horiz-adv-x="602" d="M45 395q0 16 9 24.5t21.5 14.5t24 12.5t17.5 18.5q0 4 5 24.5t9 51t8 65.5t4 66v10l-8 2q-18 10 -36.5 24.5t-18.5 39.5q0 16 13 29.5t30.5 25.5t31 25.5t13.5 31.5q12 55 15 95t6.5 64.5t10.5 37t25 12.5q25 0 45.5 -16.5t20.5 -46.5q0 -29 -8.5 -58.5t-8.5 -58.5h9 q20 10 44.5 20.5t47 18.5t40 13t23.5 5t20.5 -2t14.5 -12q0 -14 -13.5 -30.5t-21.5 -20.5l-61 -39q-35 -23 -75 -45.5t-46 -38.5q-4 -4 -9 -28.5t-11.5 -59.5t-10.5 -74t-4 -72q4 0 9.5 -2t9.5 -2q0 2 31.5 17.5t75.5 35t92 39t83 31.5q8 -4 14.5 -13t6.5 -14 q0 -10 -5.5 -22t-15.5 -16l-86 -41l-188 -119q-16 -10 -26.5 -18.5t-10.5 -43.5q0 -29 5 -59.5t18.5 -56t35 -43t54.5 -17.5q57 0 104 37t84 78l10 12h6q14 0 18.5 -19.5t4.5 -29.5v-8q0 -18 -10 -31q-29 -37 -55.5 -61.5t-54.5 -39t-57.5 -21.5t-66.5 -9l-16 10 q-88 43 -130 101.5t-44 142.5q-23 4 -47.5 15.5t-24.5 37.5z" />
<glyph unicode="f" horiz-adv-x="716" d="M20 283v30q0 2 4.5 6.5t6.5 4.5l37 16q16 0 39.5 12.5t23.5 14.5v299q-4 0 -16.5 -5.5t-20.5 -5.5q-8 4 -16 13q-16 16 -21 24v19q0 14 11 22q66 68 144.5 118t156 84t144.5 51.5t108 17.5q53 0 84.5 -20.5t31.5 -37.5q0 -12 -33.5 -22.5t-109.5 -10.5q-25 0 -76 -16 t-109.5 -42t-112.5 -57.5t-83 -64.5v-350q141 25 283 25h98q25 0 45 -8.5t20 -32.5q0 -10 -30.5 -17.5t-77.5 -13.5t-102.5 -11.5t-105.5 -11.5t-88 -14t-50 -18v-369q0 -39 3 -88t6 -95t6 -85t3 -58v-12q0 -16 -6 -30.5t-29 -14.5h-12q-4 0 -14 10.5t-10 14.5 q-12 88 -16.5 179t-4.5 179q0 20 -2 36.5t-3 38t-3 50.5t-2 76v79.5t2 53.5q-4 -2 -18.5 -5t-18.5 -3h-18l-37 16q-6 6 -8.5 14t-2.5 15z" />
<glyph unicode="g" horiz-adv-x="651" d="M37 289v51q0 37 16.5 74t30.5 73q37 92 78 176.5t108 167.5l15 19q18 23 38.5 46.5t44 41.5t53.5 30.5t71 12.5h4q12 -2 23 -3t22 -11l26 -21v-4l2 -4q0 -12 -12 -20.5t-29 -8.5h-24q-37 -4 -64.5 -28.5t-48.5 -44.5l-31 -31q-45 -57 -87 -127t-74.5 -141.5t-52 -139 t-19.5 -118.5q0 -23 9 -49.5t44 -26.5q27 0 64 22.5t75.5 54t73.5 68.5t58 68l45 71q12 25 17 59t28 62h53q4 -4 14 -11t13 -11v-31q-29 -68 -43.5 -129t-21.5 -120.5t-9 -117t-6 -118.5q0 -4 -2 -24.5t-3 -44.5t-3.5 -44t-2.5 -27v-254q0 -23 4.5 -50t10.5 -50 q6 -27 14 -55q0 -4 -6 -11.5t-23 -17.5h-2q-35 0 -51 15.5t-24.5 37t-9.5 47t-3 43.5q0 6 -2 18.5t-3 25t-2 22.5l-1 10v99q0 104 9.5 207.5t9.5 207.5v66l-162 -131q-8 0 -29.5 -9.5t-34.5 -9.5h-69l-37 15q-29 12 -45.5 26.5t-24.5 31.5t-10 36.5t-2 38.5z" />
<glyph unicode="h" horiz-adv-x="595" d="M45 551q0 20 10 22l86 9q16 10 20.5 21t6.5 36v373q4 33 7 70.5t8 69.5t13.5 52.5t20.5 20.5q31 0 57.5 -13.5t26.5 -50.5v-6q-8 -59 -17.5 -118.5t-11.5 -118.5v-308q45 10 75 27.5t30 32.5q12 84 25.5 122.5t50.5 38.5q16 0 36.5 -15t20.5 -34q0 -4 -5 -23.5t-5 -23.5 v-20q2 0 4 1t6 1q10 -6 14 -19.5t4 -23.5v-6q-10 -23 -20 -38.5t-29 -27.5v-125q0 -59 7.5 -116.5t23.5 -110.5l18 -57l37 -50v-8q0 -12 -4 -22.5t-29 -10.5q-53 0 -83.5 49.5t-48 120t-24.5 145.5t-9 128q-27 -8 -51.5 -18.5t-53.5 -20.5q0 -16 1 -51t1 -78t1 -87t1 -75 q0 -57 -10 -89t-47 -32q-12 0 -21.5 1t-19.5 9q0 6 1 26t1 40q0 14 -1 50t-3 82t-3 95t-3 90q-4 -2 -11.5 -2h-17.5q-41 0 -63.5 15.5t-22.5 50.5z" />
<glyph unicode="i" horiz-adv-x="258" d="M63 629q0 33 7.5 56.5t35.5 23.5q23 0 41.5 -11.5t24.5 -31.5q-2 -35 -2 -70v-70q0 -98 5 -191t18 -188v-4q8 -18 14 -40.5t6 -43.5q0 -30 -33 -30h-2q-29 0 -46 17t-27.5 41t-14.5 47.5t-4 37.5l-18 256v18.5t-1 37t-1 42v33.5q0 14 -1.5 32.5t-1.5 37.5zM78 1182v43 q6 12 22.5 18t34.5 6q16 0 27.5 -10t21.5 -22q10 -14 19 -33q0 -23 -12.5 -30t-36.5 -7q-14 0 -44 12t-32 23z" />
<glyph unicode="j" horiz-adv-x="358" d="M-184 -430q0 88 23.5 155.5t63.5 120t94 92t118 76.5q10 121 11 238t9 235q0 6 1 24.5t1 40t1 40t1 24.5v9q0 10 2 37.5t4 59.5t4.5 60.5t2.5 40.5q6 8 16 9.5t20 1.5q23 0 41.5 -17.5t18.5 -42.5v-16q0 -55 -6 -111.5t-13 -109.5v-11q-4 -119 -10 -233.5t-6 -231.5 q27 0 52.5 5.5t49.5 5.5q6 0 15.5 -1t13.5 -1l-16 -9q2 0 12 -3t14 -5v-12q-12 -16 -35.5 -28.5t-47 -19.5t-41 -12.5t-17.5 -9.5l-18 -290q-16 -117 -19.5 -232t-4.5 -205t-8 -145t-28 -55h-35q-51 0 -80.5 27.5t-64.5 62.5q-20 23 -38.5 46t-41.5 83q-39 76 -49 147.5 t-10 159.5zM-98 -444q0 -55 8 -113.5t27.5 -115t50 -106.5t73.5 -87q16 59 16 122l-1 18q0 57 4 116q6 104 16 208.5t10 208.5v107q-104 -61 -154 -154t-50 -204zM131 1079v31q0 23 18.5 42t43.5 19q27 0 45 -10t27 -24.5t13.5 -26.5t4.5 -14v-2q0 -43 -5.5 -56.5 t-35.5 -25.5h-37q-2 0 -2 -2t-2 -2q-10 0 -21.5 8t-23 19.5t-18.5 23.5t-7 20z" />
<glyph unicode="k" horiz-adv-x="776" d="M57 51v125q0 78 3 155t14 154l10 43q0 55 8 121t17.5 137.5t17.5 143t8 139.5q0 12 -1 25.5t-1 25.5q10 33 43 33q14 0 24.5 -10t15.5 -23.5t7 -28t2 -22.5q0 -135 -19.5 -262t-29.5 -262v-8l90 81l125 125q4 4 17.5 13.5t17.5 13.5l192 193h21q27 0 40 -10.5t13 -39.5 v-10q0 -4 -6 -13t-10 -11q-55 -57 -114.5 -104.5t-119.5 -106.5l-127 -115q-4 -6 -22.5 -24.5t-39 -42t-37.5 -46t-17 -34.5q0 -35 37.5 -80t93 -88t120 -78t117.5 -49q23 -8 54.5 -12.5t60.5 -8.5t49.5 -11.5t20.5 -19.5q0 -23 -31 -28.5t-66 -5.5q-10 0 -62 7t-110 36 l-116 59q-2 0 -11.5 6t-13.5 10q-53 37 -100 82t-92 92q-4 -70 -10.5 -139t-6.5 -141v-37q-10 -18 -31 -18q-31 0 -38 23.5t-7 45.5z" />
<glyph unicode="l" horiz-adv-x="530" d="M49 244v39q0 141 24.5 276t51.5 272l18 132q2 12 5.5 36.5t3.5 26.5v27q0 20 7 34.5t23 14.5h11q18 0 39.5 -8.5t21.5 -32.5q0 -35 -8 -88t-20.5 -117.5t-27 -134.5t-28.5 -135v-11q-12 -74 -19.5 -146.5t-7.5 -145.5q0 -49 3.5 -88t18.5 -68t47 -44t87 -15q25 0 48.5 7 t46 16t45 17.5t46.5 8.5q12 0 15.5 -13.5t3.5 -23.5q0 -18 -20.5 -34.5t-50.5 -28t-62.5 -17.5t-57.5 -6q-51 0 -99 9t-85 36t-58.5 76t-21.5 129z" />
<glyph unicode="m" horiz-adv-x="837" d="M80 55v76q0 98 6 193.5t10 193.5q6 119 7 189.5t1 113.5t1 67.5t8 53.5v143q2 8 18 9h29q12 -4 26.5 -12.5t14.5 -20.5v-64q0 -27 -4 -63.5t-4 -61.5q0 -31 8 -30q4 0 8 6t8 6l16 25q0 2 9 10l6 6q55 0 77.5 -39t33 -110.5t19.5 -172t38 -223.5l16 -102q0 -4 3 -13.5 t5 -11.5q0 6 1 19.5t2 29t2 28.5t1 19v60q0 20 3.5 47t8.5 50.5t9 42t4 24.5l-2 26l35 142q4 16 11 29.5t30 25.5h8q8 -2 26.5 -8t20.5 -8l16 -25q4 -8 13.5 -38t18.5 -71t20.5 -87t20.5 -83.5t14.5 -63.5t7.5 -26v2l41 -143q10 -33 21 -65.5t11 -67.5q0 -43 -49 -43h-8 l-63 192q-23 61 -36.5 123t-27.5 125l-25 105q-4 12 -6 24.5t-8 22.5q-20 -66 -27.5 -134.5t-11.5 -136.5q0 -104 -17.5 -202.5t-17.5 -198.5q-4 -25 -8 -38t-9 -19t-14.5 -6h-21.5h-18q-10 2 -16.5 16t-8.5 22l-16 121q-2 66 -12.5 120t-18.5 112l-6 43 q-16 113 -31.5 223.5t-42.5 220.5l-8 -8q0 -2 -3 -14.5t-5 -18.5q-23 -115 -29 -230.5t-18 -232.5q0 -10 -3 -25.5t-6.5 -30.5t-5.5 -28.5t-2 -17.5q0 -16 -1 -41t-6 -46.5t-15 -36.5t-29 -15q-16 0 -34.5 5t-18.5 21z" />
<glyph unicode="n" horiz-adv-x="628" d="M37 772q0 16 14.5 25.5t30.5 9.5q41 0 54.5 -39t21.5 -88l18 -111q18 33 23.5 83t13.5 104.5t26.5 105.5t61.5 82h31q39 0 66.5 -21.5t46 -54t29.5 -71.5t22 -72l4 -12q23 -92 38 -184.5t29 -188.5q6 -53 9.5 -103.5t17.5 -101.5q-27 -16 -62 -16q-25 0 -32.5 25.5 t-12.5 54.5q-10 78 -18 155.5t-19.5 155.5t-30 154.5t-48.5 150.5l-17 33l-4 4q-2 0 -2 1t-2 1t-2 2q-2 0 -4 -4t-4 -4l-17 -33q-33 -66 -39 -135.5t-14 -138.5l-6 -58q-6 -53 -13 -128.5t-14 -166.5v-6q0 -4 4.5 -23.5t4.5 -23.5v-12q0 -12 -8.5 -28.5t-24.5 -16.5 q-12 0 -37 5t-33 36q-12 53 -14 106.5t-8 106.5l-35 278q-8 41 -17.5 75t-21.5 71z" />
<glyph unicode="o" d="M53 477q0 78 22.5 182.5t62.5 198.5t97.5 159.5t129.5 65.5h16q27 0 49 -10l10 -8q10 -16 28.5 -29.5t35.5 -31.5q53 -61 75.5 -137t22.5 -150q0 -53 -9 -106.5t-32 -102.5q-16 -35 -48 -78t-74 -80t-90 -61.5t-97 -24.5q-55 0 -93 18.5t-61.5 48t-34 67.5t-10.5 79z M156 492q2 -37 5 -61.5t9 -41t17.5 -27t29.5 -20.5h16q25 0 50.5 11.5t44.5 25.5q98 74 137 167t39 202q0 39 -9.5 76.5t-24.5 68.5t-33.5 53.5t-37.5 30.5h-10l-49 -25l-53 -43l-41 -69q-45 -78 -63.5 -163t-26.5 -169v-16z" />
<glyph unicode="p" horiz-adv-x="604" d="M70 465q2 31 2 77t4 72l2 13q0 2 2 26.5t8 59.5l12 80q10 63 20.5 116.5t22.5 65.5q8 20 16.5 38.5t39.5 37.5l12 12q25 14 48.5 22.5t51.5 8.5q8 0 16.5 -1t16.5 -1h8q12 -4 35 -13.5t45.5 -22t38.5 -24.5t16 -24l21 -21q10 -10 19.5 -42t31.5 -122l-4 -10q0 -6 2 -8 l-6 -90q-10 -29 -16.5 -55.5t-14.5 -53.5q-8 -16 -22.5 -40.5t-28.5 -47t-27.5 -39t-19.5 -16.5l-4 -8l-96 -76q-20 -6 -34 -18.5t-30 -18.5q-20 0 -26.5 -19.5t-6.5 -46.5v-24q0 -20 2 -25l4 -43q-2 -2 -2 -12v-4q2 -16 3 -32.5t1 -33.5v-82q0 -25 5.5 -50t5.5 -52 q-2 -2 -2 -20q0 -27 2 -29l4 -12q2 -12 5 -24.5t5 -25.5v-2q0 -18 6 -28t6 -31q0 -20 -24 -20h-3q-42 0 -59 32q-12 59 -28.5 107.5t-26.5 101.5l-43 242q0 6 -3 46t-6 86t-5 84t-2 40zM143 446l4 -45h5q2 0 3 28t3 67t4 82t6 73l2 72q0 18 6 47t21 33q29 0 51 -14.5 t22 -47.5q0 -29 -5 -66.5t-11 -72.5t-11 -62.5t-5 -37.5l2 -6l2 2v-11q0 -12 -1 -30.5t-1 -26.5l4 -2l12 14q2 0 10 6.5t8 10.5l17 14q39 27 72.5 66t58 84t38 95t13.5 101q0 8 -1 33t-9 53.5t-25.5 56t-48.5 39.5q-2 2 -5 2.5t-7 4.5l-6 4q-2 2 -23 2l-39 -2q-4 -4 -8 -4 h-10l-33 -19l-39 -41q-8 -12 -17 -39.5t-16.5 -53.5t-12.5 -45t-5 -17l-18 -121q-2 -18 -3.5 -28.5t-1.5 -16.5l2 -6q-2 -10 -3 -18.5t-1 -16.5v-29l4 -18q0 -27 -2 -48.5t-2 -44.5z" />
<glyph unicode="q" horiz-adv-x="1060" d="M6 213q0 27 19.5 45t46 29.5t56.5 16.5t48 9h6l-8 15v63q-2 14 -3 30.5t-1 33.5q0 117 51 211t128 160.5t166 101.5t165 35q8 0 44 -3.5t74 -16.5t68.5 -41t30.5 -75v-20l33 -53q35 -59 48 -111.5t13 -105.5q0 -37 -4 -70t-8 -61q-6 -31 -14.5 -61t-26.5 -61.5t-50 -68.5 t-87 -82q25 -29 58.5 -45t62.5 -35l110 -80q2 0 11.5 -8t20.5 -17t23.5 -18.5t18.5 -15.5l51 -43q45 -45 81 -79t42 -68l18 -48l-2 -10q-4 -8 -10 -8q-4 2 -16.5 8t-12.5 10q-135 117 -267 220.5t-290 181.5l-8 2q-68 -23 -135 -23q-29 0 -61.5 2t-68.5 12.5t-73 32 t-73 60.5l-41 43l-19 2q-20 -2 -42.5 -9t-44 -16.5t-41 -16.5t-34.5 -7q-16 0 -34.5 15t-18.5 38zM236 422q0 -12 6 -25l10 -65l6 -15q8 2 25 2q8 0 40.5 -5t68.5 -12t67 -15.5t37 -12.5q16 -4 40.5 -15t52 -26.5t57.5 -29t59 -19.5h8q14 0 45 21q33 27 57.5 49t43 46 t32.5 51.5t29 64.5l2 71q0 82 -17.5 144.5t-57.5 105.5t-105.5 65.5t-161.5 22.5q-102 0 -169 -48t-106 -113.5t-54 -133t-15 -108.5zM356 211q0 -8 12.5 -17.5t24.5 -9.5l160 -39q-4 8 -22.5 17.5t-43 17.5t-48 14.5t-38.5 8.5z" />
<glyph unicode="r" horiz-adv-x="632" d="M61 328v168v41.5t1 61.5t1 60.5v40.5l9 33q23 72 37 154t55 149q45 74 120.5 129.5t168.5 55.5q63 0 101 -49.5t38 -110.5q0 -80 -26.5 -156t-68.5 -146.5t-92.5 -135t-97.5 -123.5v-8q0 -2 3 -7.5t5 -9.5q39 -68 86.5 -124t114.5 -118q8 -8 24.5 -15t31 -13t25.5 -14.5 t11 -20.5q0 -23 -20.5 -26t-38.5 -3h-25l-43 25q-8 4 -40.5 31.5t-72.5 67.5t-75 83t-45 78l-25 41q-18 27 -18 43t12 26.5t23 22.5l59 68q33 39 68.5 89t65.5 107.5t48.5 120t18.5 123.5q0 29 -5.5 53.5t-29.5 24.5q-55 -6 -88 -15.5t-53.5 -22.5t-35 -31.5t-30.5 -45.5 q-16 -35 -32.5 -63.5t-26.5 -65.5q-29 -104 -36 -208.5t-7 -211.5v-106q0 -45 3 -90t6 -86t6 -76t3 -60q0 -32 -37 -32h-2h-8q-23 0 -36 22.5t-19 62.5t-8.5 94t-2.5 118z" />
<glyph unicode="s" horiz-adv-x="608" d="M37 688v29q61 68 119.5 115t105.5 90q16 16 45 44.5t57.5 56.5t50 48.5t25.5 20.5q35 0 55.5 -20.5t20.5 -51.5q0 -2 -1 -10.5t-1 -12.5q-25 -14 -53.5 -40.5t-56 -52t-51 -45t-36.5 -19.5l-45 -39q-8 -6 -25.5 -23.5t-37 -38t-35.5 -38t-22 -23.5l-2 -2q0 -6 15 -13.5 t36.5 -14.5t41 -14t29.5 -11l131 -66q0 -6 11 -10q25 -20 52.5 -44t51 -52.5t38.5 -60.5t15 -66q0 -6 -7 -23.5t-11 -24.5q-23 -37 -58.5 -64.5t-76.5 -43.5t-84 -24.5t-82 -8.5q-29 0 -60.5 3t-57 15.5t-43 36t-17.5 64.5q0 16 2 29.5t18 13.5l8 -2l66 -66l18 -10h105 l57 21q14 6 34.5 15t37 22.5t29 32t12.5 40.5q0 33 -20.5 61.5t-51.5 51t-67.5 41t-69.5 35.5l-131 47q-33 14 -58.5 38.5t-25.5 63.5z" />
<glyph unicode="t" horiz-adv-x="761" d="M0 578q0 23 45 44t96 23h11q68 4 103.5 11.5t59.5 7.5v337l-10 146q-2 20 14.5 34.5t34.5 14.5q10 0 21.5 -7t21 -17.5t14.5 -19.5t5 -15v-461q51 4 91 6t75 2q102 0 139 -16t37 -31q0 -16 -29 -21l-203 -20q-35 -4 -55 -6t-31.5 -7t-15.5 -16.5t-4 -31.5q0 -59 5 -118 t13 -118q6 -47 19.5 -101.5t13.5 -103.5t-47 -49q-23 0 -33 23q-27 125 -43 248.5t-24 252.5h-78q-14 0 -43 -5t-109 -23q-53 4 -73.5 13t-20.5 24z" />
<glyph unicode="u" horiz-adv-x="688" d="M51 365q0 49 1 69.5t9 44.5q6 45 10.5 84t10.5 80t14 87t21 106q2 16 3 38.5t5 44t13 37t32 15.5h16q14 -10 26.5 -24.5t12.5 -31.5v-10q0 -25 -8 -48t-12 -48q-8 -35 -14.5 -63.5t-12.5 -58.5t-11 -65.5t-7 -84.5q-4 -47 -10.5 -91.5t-6.5 -89.5v-20q0 -23 9 -29 q31 8 56 31.5t42 46.5l45 61l53 91q4 4 10.5 15t8.5 15q18 23 23 33t9 22.5t12.5 34t30.5 68.5q4 18 18.5 45t35.5 94q6 25 7 54.5t17 52.5l19 12q4 4 10 7t8 3l37 -16q4 -2 10 -8l8 -8v-56q0 -2 -4 -19.5t-6 -21.5q-16 -86 -21 -172t-6 -178q0 -102 5.5 -207.5t40.5 -204.5 q4 -14 12 -29.5t8 -19.5t-1 -10t-9 -6h-64q-10 0 -20 21.5t-19.5 53t-16.5 68.5t-12 70t-9.5 54.5t-4.5 23.5v16q0 14 -1 49t-2 74t-2 73.5t-1 49.5l-22 -35q-23 -43 -52.5 -99.5t-66.5 -107.5t-82 -87t-96 -36q-63 0 -86 38t-23 102z" />
<glyph unicode="v" horiz-adv-x="487" d="M57 629q0 35 1 70.5t4.5 64.5t7.5 48t8 22h20q35 0 56.5 -11.5t21.5 -52.5q0 -18 -5 -35.5t-5 -29.5l2 -17q0 -10 -4 -23.5t-4 -25.5q-6 -45 -6 -89t-2 -91q0 -12 3 -28.5t3 -33.5q0 -14 -1 -27.5t-1 -27.5q0 -43 4 -88t14 -88l8 -35q0 -4 4 -10t4 -10h3q2 0 7 12t9 29 l14 53q0 4 3 9t3 9q8 31 14.5 50.5t10.5 41t9 51t11 83.5l58 274l2 29q8 47 20.5 88t24.5 84q0 2 1 6t1 6l41 2l27 -27q2 -2 6 -2l6 -12q0 -2 1 -5t1 -5q-12 -31 -19.5 -63.5t-11.5 -61.5l-67 -356q-16 -96 -31 -177.5t-29 -139.5t-32.5 -90t-45.5 -32q-35 0 -61.5 23.5 t-45 57.5t-28.5 71.5t-14 66.5l-4 15q-4 10 -4 20t-2 17v8q-6 29 -6.5 55.5t-2.5 40.5v207q0 18 -1 37.5t-1 42.5z" />
<glyph unicode="w" horiz-adv-x="862" d="M80 918v10q8 37 18.5 40t26.5 3q18 0 32.5 -10.5t26.5 -24.5v-356v-13q0 -14 1 -34.5t2 -40t3.5 -38t2.5 -28.5l8 -111q4 -49 6 -85.5t18 -36.5h11q4 10 8 18t5 15t3 12l4 6q10 31 17.5 54.5t13.5 49t10 60t8 88.5v16q2 37 5 58.5t7.5 33.5t11.5 18.5t19 12.5h4 q16 0 40 -14.5t34 -30.5l35 -86q4 -20 14 -50t20.5 -62t21.5 -61.5t20 -49.5l34 -70q6 -12 18.5 -35.5t29 -45t37 -38t42.5 -16.5v21.5t1 32.5t1 32.5v21.5q0 4 -3 28t-5 34q-25 131 -59.5 256t-79.5 252v45q4 4 8 10q4 4 6 7t4 7l9 8h45q4 0 13 -7t11 -9v-43 q4 -43 22.5 -92t28.5 -90l37 -131q25 -86 47.5 -171t22.5 -177q0 -70 -27.5 -97.5t-79.5 -27.5q-39 0 -74.5 24.5t-65.5 60t-52.5 73.5t-34.5 65l-4 10q-23 49 -42.5 104.5t-37.5 102.5q-4 -37 -13 -93.5t-23.5 -109.5t-35 -92t-47.5 -41h-77q-49 37 -68 99.5t-24 133 t-5 138t-8 112.5v17q0 12 -1 60t-2 103.5t-3 103.5t-2 61z" />
<glyph unicode="x" horiz-adv-x="724" d="M27 772q0 39 43 39q53 0 73 -49q31 -76 60.5 -143.5t81.5 -133.5l39 125q67 212 67 436v7q0 16 -1 30.5t-1 30.5q10 10 29 10h10q33 0 54.5 -23.5t21.5 -58.5q0 -145 -36 -279t-79 -288l-18 -65v-39l28 -39q119 -125 228 -199q27 -18 42 -26.5t23 -13.5t11.5 -9t3.5 -14 q0 -16 -20.5 -24.5t-29.5 -8.5h-10q-43 10 -85 33.5t-81 54.5t-73.5 64.5t-65.5 68.5h-10q-14 -53 -27.5 -94t-33 -68.5t-47 -43t-68.5 -15.5q-8 0 -15.5 2t-7.5 14q0 18 18.5 41t28.5 39q27 45 42.5 96.5t25.5 102.5v30l-115 181q-12 18 -29.5 56t-35 75t-29.5 65.5 t-12 32.5z" />
<glyph unicode="y" horiz-adv-x="684" d="M45 551v14q0 66 10.5 126.5t24.5 123.5q12 49 22.5 76t22.5 39t26.5 14t32.5 2q10 0 17.5 -2t15.5 -14l21 -25q0 -18 -19.5 -33.5t-25.5 -31.5q-10 -23 -18.5 -50.5t-16.5 -54t-12.5 -51.5t-4.5 -39v-174q0 -43 32 -80t83 -37q23 0 45.5 11.5t44 28t39.5 34.5t31 35 q37 35 54 85t34 91v156q0 41 7 77.5t42 36.5q23 0 37 -13t18 -32l-10 -164v-118q0 -158 16.5 -309.5t16.5 -309.5v-39q0 -137 -5 -280.5t-10 -302.5v-9q-8 -31 -9 -64.5t-6 -61t-21.5 -46t-57.5 -18.5q-14 0 -17 8.5t-3 18.5q0 25 8 48t10 48q0 6 2 24.5t3 39t2 40t1 27.5 v84q0 6 2 33.5t3.5 58.5t3.5 57.5t2 32.5v117q0 6 1 31.5t2 53t2 52.5t1 31v8q0 6 -1 34.5t-2 61.5t-2 61.5t-1 34.5v62l-27 227h-2q-2 0 -3 1t-3 1q-41 -55 -101.5 -105t-142.5 -50h-35q-10 0 -38.5 9t-36.5 15l-62 58l-25 41q-14 33 -16 71.5t-2 73.5z" />
<glyph unicode="z" horiz-adv-x="718" d="M53 37l8 24q6 6 23.5 21.5t37 34t37 36l23.5 23.5l51 64q0 2 5.5 10t12.5 17t13 17.5t8 8.5q27 37 54.5 82t54.5 95t49.5 103.5t36.5 102.5v8q4 29 10 56.5t6 56.5t-4 60.5t-16 57t-34.5 42t-57.5 16.5q-41 0 -76 -18.5t-59.5 -46t-39 -59.5t-14.5 -61q0 -18 2 -30.5 t9.5 -24.5t19.5 -25.5t35 -31.5q16 -16 36.5 -26.5t20.5 -39.5q0 -16 -18.5 -18t-28.5 -2h-18l-39 24q-51 31 -83 82.5t-32 110.5v16q6 43 32.5 83t63.5 71t80 49t82 18h76q2 0 17.5 -6t21.5 -10q59 -29 86.5 -90t27.5 -121q0 -86 -26.5 -173t-70.5 -173t-99 -167t-113 -150 l-39 -48q-4 -2 -6 -7t-4 -9q39 10 77 15.5t79 9.5h8q4 0 19.5 1t33 2t32.5 2t19 1h9q25 6 39 9t23 5t15 3t17 1q31 0 52 -17.5t21 -33.5q0 -6 -2 -10v-2q-4 -23 -30.5 -31t-59.5 -8q-16 0 -31.5 2t-25.5 6q-94 0 -188 -16q-14 -2 -47 -8.5t-66 -13.5t-59 -12l-25 -5h-6 q-18 0 -42 11t-24 36z" />
<glyph unicode="{" horiz-adv-x="593" d="M25 803q0 23 14 45t35.5 41.5t45 35t42.5 25.5q35 18 73.5 41t80.5 42.5t85 31.5t86 12q14 0 22.5 -1t20.5 -7v-18q0 -12 -5 -22.5t-38 -10.5q-12 0 -27.5 1t-19.5 1q-2 0 -10 -3t-12 -7l-43 -15q-23 -8 -55.5 -22.5t-51.5 -26.5l-49 -33q-4 0 -16.5 -9t-16.5 -13 l-47 -35q-14 -10 -24.5 -23.5t-10.5 -29.5t15.5 -28.5t36 -19.5t43 -11.5t37.5 -4.5l2 2q8 0 48 -8t83 -23.5t77.5 -38t34.5 -53.5v-8l-16 -32l-41 -39q-59 -49 -131 -86t-137 -78q8 -10 19 -15.5t22 -13.5l155 -72q53 -25 98.5 -63.5t86.5 -71.5q8 -4 21 -5t24.5 -5 t19.5 -11t8 -20q0 -14 -20.5 -16t-30.5 -2q-33 0 -58.5 12t-47 28.5t-42 36t-44.5 36.5l-82 43l-164 73q-14 4 -40 25t-26 39q0 16 22.5 30.5t35.5 24.5q45 29 95 54.5t90 48t66.5 43t26.5 38.5v6l-16 17q-23 16 -51.5 24.5t-57.5 16.5l-10 2q-27 0 -65.5 5t-75.5 18.5 t-63.5 38t-26.5 63.5z" />
<glyph unicode="|" horiz-adv-x="260" d="M76 799q0 35 1 69.5t3 69.5q-2 6 -2 32.5v33.5l2 8q4 14 10 24.5t35 10.5h14q23 -2 29 -26t6 -58q0 -41 -4 -84t-4 -70v-332q4 -41 7 -83t3 -85q0 -55 -9 -112.5t-58 -96.5q-6 -6 -11 -6q-10 10 -12 20.5t-2 26.5q0 12 2 27.5t2 40.5v82q2 10 2 28q0 119 -7 238t-7 242z " />
<glyph unicode="}" horiz-adv-x="591" d="M-12 98q0 12 8 19.5t19.5 11.5t23.5 5t22 5q41 33 86.5 72t98.5 63l155 72q10 8 21.5 13.5t19.5 15.5q-66 41 -137.5 77.5t-130.5 86.5l-41 39l-16 32v8q0 31 34.5 53.5t77.5 38t82 23.5t49 8q2 0 2 -2q14 0 37 4.5t43.5 11.5t36 19t15.5 29q0 16 -10.5 29.5t-24.5 23.5 l-47 35q-4 4 -16.5 13t-16.5 9l-49 33q-23 12 -54.5 27.5t-52.5 21.5l-43 15q-4 4 -12 7t-10 3q-4 0 -19.5 -1t-27.5 -1q-33 0 -38 10t-5 23v18q12 6 20 7t23 1q43 0 86 -12t84 -31.5t80.5 -42t74.5 -41.5q18 -10 42 -25.5t45.5 -35t35.5 -42t14 -44.5q0 -39 -26.5 -63.5 t-63.5 -38t-75.5 -18.5t-65.5 -5l-10 -2q-29 -8 -57.5 -16.5t-51.5 -24.5l-16 -17v-6q0 -18 26.5 -38.5t66.5 -43t89 -48t96 -54.5q12 -10 35 -24.5t23 -30.5q0 -18 -25.5 -39t-40.5 -25l-164 -73l-82 -43q-25 -16 -45 -36t-41.5 -36.5t-47 -28.5t-58.5 -12q-10 0 -30.5 2 t-20.5 16z" />
<glyph unicode="&#xa1;" horiz-adv-x="296" d="M72 848v4q8 29 17 42t20.5 19.5t22.5 7.5t26 3h14q25 0 39 -20.5t14 -45.5q0 -16 -11 -30.5t-26.5 -24.5t-33 -16.5t-29.5 -6.5q-25 0 -39 19.5t-14 48.5zM106 424q0 55 9.5 112.5t58.5 98.5q6 6 10 6q10 -10 12.5 -21.5t2.5 -25.5q0 -12 -2 -28.5t-2 -39.5v-84 q-2 -10 -2 -26q0 -119 7 -239t7 -240q0 -35 -1 -71t-3 -71q0 -2 1 -11t1 -20.5v-20.5v-11l-2 -11q-4 -14 -10.5 -24t-34.5 -10h-15q-23 2 -28.5 26.5t-5.5 59.5q0 41 4 84t4 67v334q-4 41 -7.5 82t-3.5 84z" />
<glyph unicode="&#xa2;" horiz-adv-x="604" d="M57 621q0 12 1 35.5t1 27.5l11 42q10 42 29.5 100.5t50 123t71.5 109.5l4 65q0 2 -1 12.5t-1 21.5v20.5v11.5l2 10q4 12 11.5 22.5t37.5 10.5h15q23 -2 29 -26.5t6 -59.5v-29q16 4 24 4q100 0 101 -90q0 -53 -10.5 -103t-16.5 -102v-6q-6 -31 -10 -63.5t-25 -57.5 l-68 -69q6 -68 7 -137v-39q35 12 69.5 32.5t65.5 41t53.5 35t32.5 14.5q6 0 6 -9v-12q0 -23 -25.5 -51.5t-62.5 -54t-78 -45t-72 -25.5q-4 -10 -11 -28.5t-16 -35t-20.5 -29t-21.5 -12.5q-10 10 -13.5 21.5t-3.5 26.5q0 10 2 24t5 33q-53 8 -88 30.5t-54.5 54.5t-28 72 t-8.5 83zM147 606q0 -43 16.5 -91t72.5 -71v31q2 10 2 29q0 98 -6.5 196.5t-10.5 198.5q-35 -70 -54.5 -144.5t-19.5 -148.5zM315 651q14 88 34 175.5t20 177.5v38l-11 15q-18 -8 -30.5 -17.5t-12.5 -44.5v-344z" />
<glyph unicode="&#xa3;" horiz-adv-x="925" d="M-20 348q0 25 39.5 32t91 11t97.5 12.5t58 34.5q2 80 7.5 137.5t12.5 109.5t18 107.5t28 129.5q12 55 37.5 107t65.5 94t93.5 68t122.5 26q6 0 28.5 -1.5t29.5 -1.5q-2 2 -2 3q4 0 24.5 -6.5t43 -20.5t41 -35.5t18.5 -52.5q0 -12 -7.5 -22.5t-19.5 -10.5 q-20 0 -30.5 13.5t-21 29.5t-24.5 29.5t-41 13.5q-76 0 -131 -37t-94 -96t-62.5 -133t-37 -147.5t-17.5 -139t-4 -106.5q0 -20 4 -32.5t21 -12.5l200 38q8 0 29 5q8 2 16 2t30 -5.5t34 -23.5q-8 -10 -21.5 -15.5t-23.5 -7.5l-96 -22q-25 -6 -58 -13.5t-61.5 -15.5t-48 -14 t-19.5 -12q0 -55 9.5 -107.5t9.5 -109.5q0 -23 -2 -41.5t-9 -40.5h11q8 0 18 3t33.5 7t64.5 7t109 5l262 -8q12 -4 19.5 -12.5t11.5 -16.5q0 -25 -64.5 -29t-169.5 -4h-39h-88t-57 3q-25 -2 -45.5 -13.5t-39.5 -24t-36.5 -21.5t-34.5 -9q-27 0 -41 9t-14 36q0 16 6 32.5 t10 35.5q8 41 12.5 61.5t4.5 40.5q0 47 -5 92t-12 90h-12q-25 0 -52.5 -7t-57 -15t-60.5 -15.5t-59 -7.5q-23 0 -38 9.5t-15 31.5z" />
<glyph unicode="&#xa5;" horiz-adv-x="802" d="M-4 422v10q0 2 10 9.5t14 11.5l25 12q12 6 39 17.5t54.5 23.5t52 21.5t34.5 11.5l58 22q14 0 41.5 10.5t31.5 14.5l9 8l4 16q2 6 2 13.5t2 11.5v8q-6 0 -27.5 -2t-34.5 -2q-41 0 -71.5 16.5t-50 40t-28.5 51t-9 52.5q0 51 10 117.5t28.5 126t46 100.5t62.5 41 q27 0 27 -25q0 -6 -14.5 -43t-32 -89t-32 -112.5t-14.5 -111.5v-21l17 -41q12 -23 32.5 -28.5t49.5 -5.5q25 0 35 1t14 5t4 11t4 21l35 164q10 23 21.5 35t33.5 12q16 0 29.5 -10t13.5 -24l-24 -88q0 -2 -2 -12.5t-5.5 -22t-6.5 -22.5t-5 -17l8 -2q23 0 46.5 16.5t37.5 24.5 l113 94q10 10 10 16v6q8 12 22.5 31t28 35t24.5 28.5t15 12.5q6 0 8.5 -5t2.5 -9q-4 -106 -73 -177t-192 -131l-67 -32q0 -4 -3 -20.5t-3 -20.5v-6q49 0 94 14t94 14h33q4 -4 15.5 -9t11.5 -11v-2q-12 -10 -20.5 -16.5t-31.5 -10.5l-180 -39q-16 -6 -27 -14 q-6 -55 -14 -112.5t-8 -117.5h22q4 0 16.5 1t27 2.5t25.5 2.5t15 1h41q2 0 12.5 2t20.5 3t20.5 2t12.5 1h10q8 0 20.5 -4t12.5 -13l-2 -2q-8 -10 -34 -18t-40 -10l-131 -21q-8 -2 -24.5 -4t-18.5 -2q-18 0 -29.5 -38t-17.5 -89t-8 -102.5t-2 -75.5q0 -74 20.5 -142.5 t44.5 -134.5q0 -10 -7 -20t-17 -10q-4 0 -8.5 1t-8.5 1h-24q-6 0 -19.5 30.5t-28 77.5t-24.5 104.5t-10 110.5q0 41 3 70t8 56.5t12.5 58t17.5 73.5q0 10 -40 11.5t-87 2.5t-87 7t-40 24q0 10 12 21.5t21 17.5h14q27 0 51.5 -4t50.5 -4h39q8 0 34 3t32 5q6 12 10 34t7 45.5 t5 43t2 27.5q0 12 -1 31.5t-1 25.5h-4l-14 -5t-32.5 -13t-38 -15.5t-32.5 -13.5q-23 -10 -48 -24.5t-49.5 -30t-49.5 -25.5t-43 -10q-4 0 -25.5 5t-21.5 34z" />
<glyph unicode="&#xa8;" horiz-adv-x="499" d="M66 1214q0 23 10 46.5t33 23.5q27 0 45 -24.5t18 -57.5q0 -37 -11 -44t-38 -7q-57 0 -57 63zM309 1208v13q0 25 13.5 44t42.5 19q18 0 43.5 -27.5t25.5 -56.5q0 -20 -18.5 -36.5t-42.5 -16.5q-20 0 -32.5 7t-20 17.5t-9.5 20.5t-2 16z" />
<glyph unicode="&#xa9;" horiz-adv-x="921" d="M66 805q0 68 21.5 144.5t65.5 144t108.5 117t150.5 61.5q2 0 15 1t29.5 2t32 2t23.5 3h23q23 0 62.5 -5t79.5 -18.5t69.5 -35t29.5 -54.5q-39 0 -65.5 7.5t-52 16.5t-53 16t-68.5 7q-6 0 -18.5 -1t-27 -2t-27.5 -3t-18 -2q31 -16 66 -15t66 -9q61 -20 112 -57.5t88 -87.5 t57.5 -108.5t20.5 -121.5q0 -74 -32.5 -144.5t-89 -127t-130.5 -91t-155 -34.5q-90 0 -161 32.5t-120 87t-75.5 126t-26.5 149.5zM143 758q6 -53 28 -103.5t56.5 -91.5t81.5 -65.5t107 -24.5q72 0 135 24.5t111.5 70.5t79 110.5t36.5 144.5v8q0 74 -25.5 130.5t-68.5 94.5 t-98.5 58.5t-114.5 20.5q-47 0 -103.5 -22.5t-106.5 -69t-84 -117t-34 -168.5zM287 791q0 2 3 11t5 13q45 86 98 129t111 43q18 0 38.5 -19.5t20.5 -29.5t-8 -17.5t-19.5 -11.5t-22.5 -7t-17 -5q-59 -23 -85 -61.5t-26 -73.5t23.5 -44t54.5 -9l108 32l15 9l10 -31v-17 l-35 -26q-51 -39 -112 -39q-63 0 -112.5 39t-49.5 115z" />
<glyph unicode="&#xaa;" horiz-adv-x="616" d="M16 743v5q6 8 19.5 14t19.5 6q16 0 22.5 -3t28.5 -3q29 0 35 15.5t6 31.5v16q0 4 3 9l4 8q10 2 18 34.5t17.5 78.5t20.5 99.5t26.5 99.5t35.5 76t47 30h3q16 0 29.5 -3.5t23.5 -11.5q33 -61 51 -127.5t32.5 -135.5t31 -137.5t45.5 -133.5l71 -164q2 -2 4 -9.5t2 -11.5v-4 q0 -6 -6 -6h-24q-27 0 -38.5 5t-14.5 14.5t-4 19.5t-5 23l-57 137q-4 10 -11.5 26.5t-11.5 16.5q-55 -14 -112.5 -22.5t-116.5 -14.5q-4 -18 -6 -44t-5 -49.5t-10.5 -40t-23.5 -16.5q-6 0 -23.5 4.5t-17.5 8.5v127q-18 0 -36.5 1t-35 4t-27 9t-10.5 18zM219 774h6 q53 0 104.5 8.5t104.5 8.5l-14 51q-23 84 -39 169t-47 167q-16 -12 -21.5 -25.5t-9.5 -28.5l-35 -104q-20 -61 -33.5 -123.5t-15.5 -122.5z" />
<glyph unicode="&#xab;" horiz-adv-x="509" d="M29 416v8l24 22q14 12 26.5 22.5t26 23t30 32t40.5 54.5l2 8l25 22q18 18 36.5 44t34.5 48l35 50q8 8 13 8h2q16 -4 16 -21v-4q-39 -66 -88 -119t-96 -106l-74 -84q0 -4 4 -4l92 -78q14 -12 42 -28.5t55.5 -32t48 -28.5t22.5 -20v-6q-6 -8 -14 -8l-15 2q-14 2 -27.5 8.5 t-29.5 14.5q-35 18 -59.5 37.5t-46 39t-44 37t-49.5 29.5q-8 4 -20 8t-12 21zM168 422v8l25 23q14 12 25 22t23.5 23.5t30 33t41.5 52.5l2 8l25 22q14 23 35.5 45.5t38.5 47.5l32 51q4 4 6.5 6t6.5 2h4q14 -8 14 -23v-2q0 -8 -6 -8q-37 -61 -85 -114.5t-93 -104.5l-74 -84 l2 -2q0 -2 2 -2l29 -20l63 -58q14 -12 42 -27.5t56.5 -31t49 -28.5t20.5 -21v-7q-6 -8 -14 -8l-14 2q-14 2 -27 9.5t-31 13.5q-35 18 -59.5 37.5t-46 39t-43 37t-47.5 29.5q-10 4 -21.5 8.5t-11.5 20.5z" />
<glyph unicode="&#xad;" horiz-adv-x="610" d="M45 520q0 25 51 40t122 22.5t147.5 9.5t128.5 2q27 0 49 -4t22 -19v-4q-16 -20 -21 -25t-32 -10l-53 -8q-59 -10 -118.5 -14t-117.5 -18q-33 -8 -61.5 -18.5t-63.5 -10.5q-23 0 -34 14t-19 43z" />
<glyph unicode="&#xae;" horiz-adv-x="899" d="M66 707v14q0 55 14 109.5t31 109.5l8 31q14 55 50 96t83 72.5t101.5 55.5t107.5 42l33 12q41 16 78.5 24.5t86.5 8.5q12 0 32 -1t22 -1q37 0 59.5 -19.5t36.5 -47t19.5 -58.5t5.5 -53q0 -86 -24 -179.5t-62 -172.5l-9 -17q-39 -55 -81 -110.5t-93 -99.5t-114.5 -71.5 t-143.5 -27.5q-72 0 -118 27.5t-73.5 69.5t-38.5 92.5t-11 93.5zM152 686q0 -59 13 -97t35.5 -59.5t52.5 -28.5t64 -7q31 0 75 17t87 43t77 57.5t46 60.5h-8q-25 0 -50.5 -4t-51.5 -4q-45 0 -76 9t-68 29q0 -12 -10 -26t-22.5 -24.5t-23.5 -17.5l-11 -7q-16 0 -30.5 10 t-14.5 27q0 4 1 5t1 3l24 92q0 2 1 14.5t1 18.5q0 20 -4 38.5t-4 36.5q0 45 17.5 88.5t48 77t72.5 53t89 19.5q41 0 72 -22.5t31 -63.5q0 -37 -20.5 -69.5t-50.5 -61.5t-60.5 -56.5t-48.5 -56.5l-5.5 -11t-3.5 -11q2 -4 6 -8q8 -8 13 -9l43 -8l151 -8q12 -4 9 -10t10 -13 q57 92 93 182.5t36 217.5v15t-1 23.5t-1 24v17.5q-20 27 -44 32t-40 5h-35q23 -6 46.5 -22.5t23.5 -39.5q0 -10 -10.5 -13t-20.5 -3q-27 0 -50.5 10t-47.5 14h-84q-66 -16 -116 -42.5t-97 -65.5l-11 -8q-72 -74 -95 -170.5t-23 -192.5zM356 907q0 -14 2 -24.5t7 -26.5 q14 12 37.5 32.5t46 46.5t39 52.5t16.5 48.5q-29 0 -54.5 -11t-47 -28.5t-34 -41t-12.5 -48.5z" />
<glyph unicode="&#xaf;" horiz-adv-x="544" d="M68 1225v10q0 20 14 33l22 6l23 -4q4 0 18.5 2t34 3t42 3t42.5 2q25 0 61.5 -1t70.5 -5t58.5 -10.5t24.5 -14.5q0 -6 -3 -15t-5 -9l-25 -17q-18 -12 -29 -13t-34 -3q-74 -8 -146.5 -15.5t-146.5 -23.5q-10 18 -16 34.5t-6 37.5z" />
<glyph unicode="&#xb0;" horiz-adv-x="485" d="M72 1067q0 68 50 118t116 62h57q29 -6 50.5 -28.5t36.5 -51t23.5 -59.5t8.5 -53q0 -80 -50.5 -121t-115.5 -41q-176 0 -176 174zM139 1014q10 -23 37 -33t51 -10q45 0 80 22.5t47 69.5v4q0 35 -22.5 54.5t-50.5 23.5h-21q-4 8 -13 9t-20 1q-33 0 -55 -22.5t-33 -53.5v-65 z" />
<glyph unicode="&#xb1;" horiz-adv-x="729" d="M33 70v6q4 6 15 15t22 11h184q10 0 25.5 2t30 5.5t25.5 5.5t13 4l8 6v586l-172 -35q-4 -2 -12 -2t-14 -2q-8 -2 -17 -4q-20 0 -36.5 16t-16.5 31q0 27 19.5 34t39.5 7q10 0 17.5 -1t11.5 -1t21.5 3t21.5 5l92 14q14 2 27.5 4t23.5 11q-4 59 -5 109t-9 97v9q0 10 14.5 23 t26.5 13l37 -38q4 -49 7 -98.5t7 -100.5h152q2 0 15.5 -3t19.5 -3l14 -8v-9q-2 -4 -4 -11t-2 -9l-17 -8q-20 -6 -45.5 -8.5t-51 -3.5t-48 -5t-39.5 -12v-592h29q43 0 86 3t88 3h68q8 -4 8 -14l-4 -14v6q0 8 -4 8t-5 -8q0 -6 5 -6h4q-10 -10 -23.5 -14.5t-23.5 -8.5h-7 q-23 -2 -40 -5t-37 -7q-6 -2 -30 -4t-28 -4l-100 -15q-4 0 -15.5 -3t-15.5 -5h-20q-4 0 -18.5 -3t-18.5 -3q-47 -8 -98.5 -11t-100.5 -3h-57q-20 4 -31.5 12t-11.5 33z" />
<glyph unicode="&#xb2;" horiz-adv-x="616" d="M72 672q0 35 24.5 64.5t46.5 58.5v2l13 13q14 13 29.5 29.5t28.5 31t13 20.5l25 16l55 70l49 49q41 41 70 92t31 105q0 10 -5.5 16t-21.5 6q-25 0 -54.5 -6t-55 -18.5t-43 -31t-17.5 -44.5q0 -2 4 -9.5t4 -9.5v-10q0 -12 -6 -14t-22 -2q-29 0 -49.5 14t-28.5 37v18 q10 33 35.5 58.5t59.5 44t72 28t74 9.5q51 0 96.5 -27t45.5 -78q0 -53 -35 -105t-87 -107.5t-111.5 -116t-110.5 -127.5l-31 -52q-8 -14 -8 -24q0 -23 21.5 -27t43.5 -4q18 0 59.5 7t84.5 15.5t75.5 16.5t32.5 10q0 4 4 4t12.5 -10t8.5 -14v-4q-55 -39 -133 -60.5 t-144 -21.5q-55 0 -105 20.5t-50 67.5z" />
<glyph unicode="&#xb3;" horiz-adv-x="616" d="M72 952q0 4 6 15.5t18 15.5l27 6q41 10 72.5 28.5t64.5 41.5q72 47 112 79.5t48 71.5l-6 7l-27 10h-18q-35 0 -44.5 -12.5t-12.5 -25.5t-6 -25.5t-23 -12.5q-16 0 -31.5 9t-15.5 26v8q0 31 13 48.5t30.5 25.5t36 10t28.5 2q51 0 82 -11.5t66 -51.5v-13q0 -16 -5.5 -27.5 t-15.5 -23.5l-18 -27q-41 -35 -93.5 -73.5t-105.5 -63.5q20 -12 45 -14t47 -6q33 -8 68 -20.5t63.5 -30t48 -41t19.5 -52.5v-26q0 -10 -9.5 -21.5t-17.5 -19.5q-25 -29 -61.5 -55.5t-77.5 -46t-83 -31t-81 -11.5q-35 0 -70.5 14.5t-35.5 49.5q0 6 3 14t11 13v-9q2 -2 4 -2h2 q8 0 14 6q23 -27 34 -32.5t36 -5.5q45 0 85 19t75 40q63 29 81.5 61.5t18.5 51.5q0 29 -28.5 48t-70.5 31.5t-87 18.5t-76 6q-39 0 -57.5 -3t-38.5 -3q-14 0 -25 4z" />
<glyph unicode="&#xb4;" horiz-adv-x="471" d="M66 1196q0 4 12 15.5t30.5 24.5t42 28.5t46.5 27.5l20 11q76 41 110.5 59t63.5 18h2q2 -2 4 -3t4 -3l5 -4q0 -10 -7 -16v-11q-70 -35 -133 -80.5t-123 -95.5q-6 -2 -16 -8t-18 -6q-23 0 -33 13.5t-10 29.5z" />
<glyph unicode="&#xb7;" horiz-adv-x="296" d="M72 602q0 16 11 30.5t26.5 25t33 16.5t29.5 6q25 0 39 -19.5t14 -48.5v-4q-8 -29 -17 -42t-20.5 -19t-22.5 -7t-26 -3h-14q-25 0 -39 20t-14 45z" />
<glyph unicode="&#xb8;" horiz-adv-x="399" d="M-29 -295q0 16 12.5 30.5t26.5 24.5l4 2q16 10 29.5 21.5t32.5 11.5q16 0 16 -12q0 -4 -4 -8l-10 -6q-16 -2 -29.5 -20.5t-13.5 -31.5q0 -4 4 -14t24 -27l15 -16q12 -8 21.5 -16.5t19.5 -16.5q18 -8 39.5 -13t36.5 -13h6q25 -6 31 -9.5t18 -3.5h41q4 0 16 3t17 8l2 2 q0 2 3 7t3 7l2 8q-4 27 -11.5 53.5t-23.5 55.5l-33 59q-10 20 -22.5 37.5t-16.5 36.5v4q-2 8 -8 16.5t-8 18.5l-12 51q0 4 -2 6l-2 8h6v27q0 4 4 8h4q14 0 17 -9t10 -20l22 -47q8 -10 12 -20t13 -25l4 -10q4 -8 4 -16.5t8 -16.5l4 -2q2 -6 7 -17t12 -16l26 -49v-4l4 -4 l17 -29q6 -8 8 -19t4 -17l6 -15q0 -8 4 -15t4 -9q0 -18 -20.5 -46t-42.5 -28l-4 -4q-12 0 -33 -6t-47 -6q-51 0 -99.5 15t-87.5 38l-24 22q-2 0 -6 3t-4 6l-4 4q-4 0 -5 4l-32 35q0 2 -2 4h-4q-8 14 -9 20z" />
<glyph unicode="&#xb9;" horiz-adv-x="282" d="M72 848q0 96 19.5 189t29.5 190q0 10 -1 17t-1 18q0 16 8 30h23q33 0 47 -11t14 -19v-11q-16 -82 -29.5 -162.5t-23.5 -162.5l-8 -66v-41l22 -102v-4l2 -4q0 -10 -9 -12.5t-22 -4.5h-6q-25 0 -38 18.5t-19 44t-7 52.5t-1 41z" />
<glyph unicode="&#xba;" horiz-adv-x="585" d="M49 842q0 53 20.5 125.5t58.5 138t91 111t119 45.5h14q20 0 45 -7l11 -6q10 -10 26.5 -19t32.5 -24q47 -41 68.5 -95t21.5 -103q0 -39 -8 -75t-29 -71q-16 -25 -46 -54.5t-68.5 -55t-82.5 -43t-90 -17.5q-102 0 -143 46.5t-41 103.5zM143 850q2 -53 13.5 -70.5 t44.5 -31.5h14q23 0 47.5 7t40.5 17q90 53 127 117.5t37 138.5q0 27 -9 53.5t-23.5 48t-32 37t-33.5 21.5h-9l-45 -17l-49 -30l-39 -49q-41 -53 -58 -112.5t-26 -117.5v-12z" />
<glyph unicode="&#xbb;" horiz-adv-x="509" d="M29 233v7q0 8 10 15t22.5 13t23.5 10.5t13 4.5q27 14 51.5 30.5t47.5 34.5l63 58l33 24l-74 84q-45 51 -93 104.5t-85 114.5q-4 0 -4 8v2q0 16 14 23h2q4 0 13 -8l34 -51q16 -23 33 -48.5t39 -44.5l25 -22l4 -8q25 -35 41 -54.5t28.5 -32t24.5 -21.5t27 -23l24 -23v-8 q0 -16 -12 -20.5t-21 -8.5q-27 -12 -48 -29.5t-43.5 -37t-48 -39t-62.5 -37.5q-14 -6 -25.5 -13.5t-28.5 -9.5l-12 -2q-10 0 -16 8zM168 227v6q0 8 10 15.5t22.5 13.5t23.5 10l12 4q27 12 51 30t47 36l94 78q2 0 2 4l-74 84q-47 53 -96 106.5t-86 118.5v4q0 18 14 21h5 q4 0 10 -8l35 -50q16 -23 33.5 -48t37.5 -44l25 -22l4 -8q25 -35 41 -54.5t29.5 -32t24.5 -22.5t26 -23l24 -22v-8q0 -16 -11 -20.5t-21 -8.5q-27 -12 -48.5 -29.5t-44 -37t-48 -40t-60.5 -38.5q-16 -6 -27.5 -12.5t-27.5 -8.5l-13 -2q-12 0 -14 8z" />
<glyph unicode="&#xbc;" horiz-adv-x="819" d="M29 719q0 94 23.5 187t37.5 188q0 10 -1 18t-1 16q0 18 10 31h29q41 0 59.5 -11t18.5 -20v-8q-18 -82 -36.5 -162.5t-31.5 -160.5l-10 -68v-39l18 -76l11 -24v-4q0 -2 1 -3t1 -3q0 -10 -11.5 -12.5t-27.5 -4.5h-6q-31 0 -48.5 18.5t-25.5 44t-9 52.5t-1 41zM160 76 q0 51 15 163.5t75 280.5q29 113 53.5 228.5t40.5 238.5l14 176q8 10 16.5 20.5t18.5 10.5q23 0 42.5 -15.5t25.5 -27.5l6 -12q-16 -82 -25.5 -165t-25.5 -165q-29 -147 -69 -290.5t-81 -291.5q-23 -35 -32 -69.5t-14 -64.5t-13 -52.5t-27 -34.5l-16 31q-4 0 -4 39zM381 389 v29q0 33 11 68.5t27.5 71.5t38 72t40.5 70q14 41 23 57.5t32 16.5q10 0 28.5 -11t18.5 -28v-8l-22 -31q-4 -18 -23.5 -50t-41 -69.5t-40 -79.5t-18.5 -85q0 -27 4 -41.5t24 -22.5h21q35 0 76 15.5t67 42.5q12 14 14.5 29.5t6.5 31.5q0 6 11 28.5t23 65.5q4 12 7.5 31.5 t9.5 38t16 32t29 13.5q18 0 29.5 -13.5t11.5 -25.5q0 -10 -8.5 -30.5t-19.5 -46t-21.5 -52.5t-12.5 -47l-28 -113q-10 -41 -19.5 -81t-13.5 -81v-6q-4 -10 -5 -24.5t-2 -27.5t-1 -21.5t0 -6.5v-37q0 -16 -4 -27t-29 -11q-10 0 -21.5 3t-11.5 13q0 6 -1 30.5t-1 30.5v41.5 t1 29.5t2 25.5t3 28.5l15 64q0 2 3 12t5 12v13q-20 -10 -47 -20.5t-37 -10.5h-35q-18 0 -41.5 4t-44 14.5t-35 27.5t-14.5 46z" />
<glyph unicode="&#xbd;" horiz-adv-x="749" d="M35 698q0 104 22.5 206t34.5 206q0 10 -1 18.5t-1 18.5q0 20 10 33h27q39 0 57.5 -11.5t18.5 -21.5v-10l-35.5 -177.5t-30.5 -175.5l-10 -73v-43l18 -84l11 -27v-4q0 -2 1 -3t1 -3q0 -10 -11.5 -12.5t-27.5 -6.5h-4q-31 0 -46.5 20.5t-23.5 48.5t-9 56.5t-1 44.5zM141 76 q0 51 15.5 163.5t74.5 280.5q29 113 53.5 228.5t41.5 238.5l14 176q8 10 16.5 20.5t18.5 10.5q23 0 42 -15.5t25 -27.5l7 -12q-16 -82 -25.5 -165t-26.5 -165q-29 -147 -68.5 -290.5t-80.5 -291.5q-23 -35 -32 -69.5t-14 -64.5t-13.5 -52.5t-26.5 -34.5l-17 31q-4 0 -4 39z M330 147q0 35 21.5 64t39.5 57v2l11 14q12 13 25 28.5t24.5 29.5t11.5 20l20 19q2 2 9.5 12t14.5 21.5t14 20.5t9 14l43 49q35 41 58.5 90t25.5 102q0 10 -3 16.5t-19 6.5q-23 0 -47.5 -6.5t-46 -18.5t-35.5 -30.5t-14 -45.5q0 -4 2 -8l4 -8v-10q0 -12 -6.5 -14.5 t-18.5 -2.5q-25 0 -42 14.5t-25 37.5v18q8 33 30.5 57.5t51 42t61.5 26.5t63 9q43 0 81 -25.5t38 -76.5t-29.5 -102.5t-72.5 -106.5t-94.5 -114.5t-94.5 -127.5l-26 -49q-8 -14 -8 -25q0 -23 19 -26.5t38 -3.5q14 0 49 8t72 17.5t65.5 17.5t30.5 8q4 0 11 -9.5t7 -15.5v-2 q-47 -39 -113.5 -60.5t-121.5 -21.5q-47 0 -90 20.5t-43 67.5z" />
<glyph unicode="&#xbe;" horiz-adv-x="1001" d="M16 868q0 4 5.5 15.5t15.5 15.5l22 6q45 12 88 41t78 61.5t56.5 63.5t25.5 47l-4 6l-22 9h-17q-29 0 -36 -11.5t-9 -25t-5 -24.5t-21 -11q-16 0 -27.5 8t-11.5 25v10q0 29 10 45t25.5 24.5t29.5 10.5t25 2q43 0 69.5 -10.5t55.5 -51.5v-12q0 -16 -4.5 -26.5t-14.5 -24.5 l-14 -25q-35 -35 -78 -71.5t-90 -59.5q18 -14 59 -22.5t83 -22.5t73 -39.5t31 -75.5v-24q0 -29 -32 -60.5t-76 -57t-91 -43t-80 -17.5q-29 0 -58.5 13t-29.5 48q0 6 2 13.5t10 11.5v-8l4 -3q6 0 13 7q18 -25 27.5 -31t29.5 -6q37 0 72 18.5t63 38.5q53 29 68.5 60.5 t15.5 48.5q0 27 -24.5 46t-59.5 31.5t-71.5 17.5t-63.5 5q-33 0 -49 -3t-33 -3q-10 0 -20 4zM324 76q0 51 15 163.5t75 280.5q29 113 53.5 228.5t40.5 238.5l14 176q8 10 16.5 20.5t18.5 10.5q23 0 42 -15.5t26 -27.5l6 -12q-16 -82 -25.5 -165t-25.5 -165 q-29 -147 -69 -290.5t-81 -291.5q-23 -35 -32 -69.5t-14 -64.5t-13.5 -52.5t-26.5 -34.5l-16 31q-4 0 -4 39zM543 401v29q0 33 11 69t29.5 72.5t40 72.5t40.5 71q16 41 26 57t33 16q10 0 29.5 -11t19.5 -27v-9l-22 -30q-6 -20 -27 -52t-44.5 -71t-40.5 -81t-17 -83 q0 -27 4 -41t26 -23h21q35 0 79 15.5t70 42.5q14 14 16.5 30.5t6.5 32.5q0 4 12 27.5t25 64.5q4 12 7 32t10 38.5t18.5 31.5t29.5 13t30.5 -12t12.5 -25q0 -6 -8 -27.5t-18.5 -49t-21.5 -54t-17 -45.5l-29 -115q-10 -41 -22.5 -80.5t-12.5 -80.5v-6q-6 -23 -8 -53.5 t-2 -28.5q0 -10 1 -18.5t1 -18.5q0 -16 -5 -27.5t-32 -11.5q-10 0 -21.5 3t-13.5 13q0 8 -1 31.5t-1 32.5q0 47 2 68.5t6 56.5l17 61q0 4 2 14.5t4 12.5v12q-20 -10 -48 -21.5t-40 -11.5h-35q-20 0 -45 4t-46.5 14.5t-36.5 29t-15 46.5z" />
<glyph unicode="&#xbf;" horiz-adv-x="768" d="M35 -47q0 16 4 39.5t8 25.5q35 63 50.5 92t23.5 43.5t15 24.5t24 35l153 213q8 8 22.5 32.5t41.5 67.5l69 113q20 33 37 53.5t31 20.5q2 -2 8 -2l2 -2q2 -2 2 -7v-8q-2 -6 -10 -51t-55 -149q-8 -20 -47 -72q-18 -43 -61.5 -104.5t-89.5 -126t-84 -126t-46 -106.5 q-4 -23 -7 -37t-3 -20q0 -8 1 -10.5t1 -6.5l25 -24q16 -12 46.5 -21.5t57.5 -9.5t63.5 6t72.5 15.5t65.5 20.5t42.5 22l77 71q41 39 53.5 53.5t12.5 28.5q0 16 -8 35.5t-19.5 38t-19.5 31t-8 14.5l-2 4q-2 2 -2 10q0 33 26 33q18 0 40 -23.5t39.5 -57.5t28.5 -68.5t11 -57.5 q0 -37 -22 -65l-48 -41q-88 -92 -179 -122t-189 -30q-16 4 -38 6t-45.5 8.5t-49 18.5t-52.5 37q-47 41 -57 75.5t-12 59.5zM442 868v4q8 27 17.5 41.5t21 20.5t23.5 7t24 3h15q25 0 39 -20t14 -47q0 -16 -11.5 -29.5t-26.5 -24t-32.5 -16.5t-29.5 -6q-25 0 -39.5 19.5 t-14.5 47.5z" />
<glyph unicode="&#xc0;" horiz-adv-x="749" d="M29 477v4q0 25 16 30t41 5h33q31 -14 64.5 -20.5t66.5 -10.5l12 15q4 8 10.5 21.5t6.5 15.5v8q2 0 4 4q2 2 3 5t3 7l8 17v24l8 6q4 8 6 16.5t11 14.5q-2 0 -5 2q-2 0 -2 2t3.5 8t5.5 8q6 0 8 6.5t2 15.5t1 16.5t7 11.5v8l18 41v16q4 18 13.5 37.5t13.5 42.5v20l16 23 q-8 0 -8 6q0 2 4 10.5t4 10.5v22q4 18 9.5 35.5t9.5 36.5v20q2 4 6 18.5t4 18.5v101q4 18 22.5 21t41.5 3q4 0 13 -1t11 -1l10 -6v-111q0 -98 17 -192q0 -4 2 -15.5t3 -24.5t3 -24.5t2 -13.5v-53q8 -66 16.5 -132.5t18.5 -131.5q10 -78 21.5 -160t41.5 -158l35 -86l27 -43 v-4l2 -4q0 -10 -21.5 -15.5t-33.5 -5.5q-8 2 -21.5 4.5t-13.5 4.5q-8 0 -42 26.5t-78 64.5t-90 80t-77 72l-53 52q-6 6 -10 6q-23 -49 -43.5 -97.5t-45.5 -97.5l-26 -22l-37 -15q-12 0 -24.5 7.5t-20.5 15.5v28l27 37q12 16 28.5 45t31.5 57.5t26.5 53.5t11.5 31v10l-64 47 l-34 14l-72 21q-8 4 -8 14zM305 391l64 -57l63 -51l62 -58q4 -4 13 -11t19 -13q10 -8 21 -17h10q-20 37 -32.5 91.5t-21.5 119t-15.5 132t-12.5 132.5q-4 33 -5 68t-11 70q-18 -59 -35.5 -114.5t-42.5 -115.5l-31 -73v-15l37 -8q10 -2 25.5 -3t29 -2t23.5 -5t10 -12 q0 -10 -12 -15.5t-28.5 -8.5t-35 -3h-30.5h-45q-10 -4 -13.5 -13.5t-5.5 -17.5zM326 1432q0 12 9 21t25 9t26.5 -10t25.5 -20q4 -4 20.5 -14.5t34.5 -23t34.5 -22.5t20.5 -14l23 -19q18 -16 31.5 -36.5t15.5 -32.5q0 -20 -14 -21h-7q-8 0 -14 3t-12 8l-47 43q-2 4 -16.5 12 t-18.5 10l-101 53q-10 6 -20 17.5t-14 23.5q-2 4 -2 13z" />
<glyph unicode="&#xc1;" horiz-adv-x="749" d="M29 477v4q0 25 16 30t41 5h33q31 -14 64.5 -20.5t66.5 -10.5l12 15q4 8 10.5 21.5t6.5 15.5v8q2 0 4 4q2 2 3 5t3 7l8 17v24l8 6q4 8 6 16.5t11 14.5q-2 0 -5 2q-2 0 -2 2t3.5 8t5.5 8q6 0 8 6.5t2 15.5t1 16.5t7 11.5v8l18 41v16q4 18 13.5 37.5t13.5 42.5v20l16 23 q-8 0 -8 6q0 2 4 10.5t4 10.5v22q4 18 9.5 35.5t9.5 36.5v20q2 4 6 18.5t4 18.5v101q4 18 22.5 21t41.5 3q4 0 13 -1t11 -1l10 -6v-111q0 -98 17 -192q0 -4 2 -15.5t3 -24.5t3 -24.5t2 -13.5v-53q8 -66 16.5 -132.5t18.5 -131.5q10 -78 21.5 -160t41.5 -158l35 -86l27 -43 v-4l2 -4q0 -10 -21.5 -15.5t-33.5 -5.5q-8 2 -21.5 4.5t-13.5 4.5q-8 0 -42 26.5t-78 64.5t-90 80t-77 72l-53 52q-6 6 -10 6q-23 -49 -43.5 -97.5t-45.5 -97.5l-26 -22l-37 -15q-12 0 -24.5 7.5t-20.5 15.5v28l27 37q12 16 28.5 45t31.5 57.5t26.5 53.5t11.5 31v10l-64 47 l-34 14l-72 21q-8 4 -8 14zM279 1274q0 4 12 15t30.5 25.5t42 30t46.5 27.5l20 8q76 41 110.5 59.5t63.5 18.5h2q2 -2 4 -3t4 -3l4 -4q0 -2 -2 -8t-4 -8v-11q-70 -35 -133 -81t-123 -93q-6 -4 -16 -9t-18 -5q-23 0 -33 12.5t-10 28.5zM305 391l64 -57l63 -51l62 -58 q4 -4 13 -11t19 -13q10 -8 21 -17h10q-20 37 -32.5 91.5t-21.5 119t-15.5 132t-12.5 132.5q-4 33 -5 68t-11 70q-18 -59 -35.5 -114.5t-42.5 -115.5l-31 -73v-15l37 -8q10 -2 25.5 -3t29 -2t23.5 -5t10 -12q0 -10 -12 -15.5t-28.5 -8.5t-35 -3h-30.5h-45q-10 -4 -13.5 -13.5 t-5.5 -17.5z" />
<glyph unicode="&#xc2;" horiz-adv-x="749" d="M29 477v4q0 25 16 30t41 5h33q31 -14 64.5 -20.5t66.5 -10.5l12 15q4 8 10.5 21.5t6.5 15.5v8q2 0 4 4q2 2 3 5t3 7l8 17v24l8 6q4 8 6 16.5t11 14.5q-2 0 -5 2q-2 0 -2 2t3.5 8t5.5 8q6 0 8 6.5t2 15.5t1 16.5t7 11.5v8l18 41v16q4 18 13.5 37.5t13.5 42.5v20l16 23 q-8 0 -8 6q0 2 4 10.5t4 10.5v22q4 18 9.5 35.5t9.5 36.5v20q2 4 6 18.5t4 18.5v101q4 18 22.5 21t41.5 3q4 0 13 -1t11 -1l10 -6v-111q0 -98 17 -192q0 -4 2 -15.5t3 -24.5t3 -24.5t2 -13.5v-53q8 -66 16.5 -132.5t18.5 -131.5q10 -78 21.5 -160t41.5 -158l35 -86l27 -43 v-4l2 -4q0 -10 -21.5 -15.5t-33.5 -5.5q-8 2 -21.5 4.5t-13.5 4.5q-8 0 -42 26.5t-78 64.5t-90 80t-77 72l-53 52q-6 6 -10 6q-23 -49 -43.5 -97.5t-45.5 -97.5l-26 -22l-37 -15q-12 0 -24.5 7.5t-20.5 15.5v28l27 37q12 16 28.5 45t31.5 57.5t26.5 53.5t11.5 31v10l-64 47 l-34 14l-72 21q-8 4 -8 14zM233 1241q0 23 14.5 29t31.5 6h20q4 4 24.5 18.5t34.5 30.5l50 55q16 18 32.5 42t26.5 48q8 20 9 38t24 18q29 0 45 -23v-4q0 -66 21.5 -114t48 -78.5t48 -47t21.5 -18.5q0 -16 -12 -20h-43q-53 29 -81 70.5t-50 92.5q-2 0 -2 -1t-2 -1l-2 -2 l-54 -65q-10 -14 -26.5 -32.5t-37 -34t-45 -27t-48.5 -11.5q-12 0 -30 8.5t-18 22.5zM305 391l64 -57l63 -51l62 -58q4 -4 13 -11t19 -13q10 -8 21 -17h10q-20 37 -32.5 91.5t-21.5 119t-15.5 132t-12.5 132.5q-4 33 -5 68t-11 70q-18 -59 -35.5 -114.5t-42.5 -115.5 l-31 -73v-15l37 -8q10 -2 25.5 -3t29 -2t23.5 -5t10 -12q0 -10 -12 -15.5t-28.5 -8.5t-35 -3h-30.5h-45q-10 -4 -13.5 -13.5t-5.5 -17.5z" />
<glyph unicode="&#xc3;" horiz-adv-x="749" d="M29 477v4q0 25 16 30t41 5h33q31 -14 64.5 -20.5t66.5 -10.5l12 15q4 8 10.5 21.5t6.5 15.5v8q2 0 4 4q2 2 3 5t3 7l8 17v24l8 6q4 8 6 16.5t11 14.5q-2 0 -5 2q-2 0 -2 2t3.5 8t5.5 8q6 0 8 6.5t2 15.5t1 16.5t7 11.5v8l18 41v16q4 18 13.5 37.5t13.5 42.5v20l16 23 q-8 0 -8 6q0 2 4 10.5t4 10.5v22q4 18 9.5 35.5t9.5 36.5v20q2 4 6 18.5t4 18.5v101q4 18 22.5 21t41.5 3q4 0 13 -1t11 -1l10 -6v-111q0 -98 17 -192q0 -4 2 -15.5t3 -24.5t3 -24.5t2 -13.5v-53q8 -66 16.5 -132.5t18.5 -131.5q10 -78 21.5 -160t41.5 -158l35 -86l27 -43 v-4l2 -4q0 -10 -21.5 -15.5t-33.5 -5.5q-8 2 -21.5 4.5t-13.5 4.5q-8 0 -42 26.5t-78 64.5t-90 80t-77 72l-53 52q-6 6 -10 6q-23 -49 -43.5 -97.5t-45.5 -97.5l-26 -22l-37 -15q-12 0 -24.5 7.5t-20.5 15.5v28l27 37q12 16 28.5 45t31.5 57.5t26.5 53.5t11.5 31v10l-64 47 l-34 14l-72 21q-8 4 -8 14zM299 1337q0 2 1 12.5t3 14.5l6 16q29 37 47.5 47.5t51.5 10.5q27 0 46 -14.5t35.5 -34l33 -39t38.5 -29.5q23 23 23 76q0 10 -1 17t-1 11q12 16 28 17q31 0 37 -21.5t6 -31.5t-3 -32t-12 -42.5t-25.5 -35.5t-43.5 -15q-33 0 -53 18t-37.5 39.5 t-34 40t-43.5 18.5h-4q-41 -12 -41 -55q0 -14 4.5 -21.5t4.5 -17.5q0 -16 -8.5 -19t-16.5 -3q-12 0 -20.5 10t-12.5 22.5t-6 24.5t-2 16zM305 391l64 -57l63 -51l62 -58q4 -4 13 -11t19 -13q10 -8 21 -17h10q-20 37 -32.5 91.5t-21.5 119t-15.5 132t-12.5 132.5q-4 33 -5 68 t-11 70q-18 -59 -35.5 -114.5t-42.5 -115.5l-31 -73v-15l37 -8q10 -2 25.5 -3t29 -2t23.5 -5t10 -12q0 -10 -12 -15.5t-28.5 -8.5t-35 -3h-30.5h-45q-10 -4 -13.5 -13.5t-5.5 -17.5z" />
<glyph unicode="&#xc4;" horiz-adv-x="749" d="M29 477v4q0 25 16 30t41 5h33q31 -14 64.5 -20.5t66.5 -10.5l12 15q4 8 10.5 21.5t6.5 15.5v8q2 0 4 4q2 2 3 5t3 7l8 17v24l8 6q4 8 6 16.5t11 14.5q-2 0 -5 2q-2 0 -2 2t3.5 8t5.5 8q6 0 8 6.5t2 15.5t1 16.5t7 11.5v8l18 41v16q4 18 13.5 37.5t13.5 42.5v20l16 23 q-8 0 -8 6q0 2 4 10.5t4 10.5v22q4 18 9.5 35.5t9.5 36.5v20q2 4 6 18.5t4 18.5v101q4 18 22.5 21t41.5 3q4 0 13 -1t11 -1l10 -6v-111q0 -98 17 -192q0 -4 2 -15.5t3 -24.5t3 -24.5t2 -13.5v-53q8 -66 16.5 -132.5t18.5 -131.5q10 -78 21.5 -160t41.5 -158l35 -86l27 -43 v-4l2 -4q0 -10 -21.5 -15.5t-33.5 -5.5q-8 2 -21.5 4.5t-13.5 4.5q-8 0 -42 26.5t-78 64.5t-90 80t-77 72l-53 52q-6 6 -10 6q-23 -49 -43.5 -97.5t-45.5 -97.5l-26 -22l-37 -15q-12 0 -24.5 7.5t-20.5 15.5v28l27 37q12 16 28.5 45t31.5 57.5t26.5 53.5t11.5 31v10l-64 47 l-34 14l-72 21q-8 4 -8 14zM291 1352q0 23 9 46t32 23q29 0 47 -24.5t18 -57.5q0 -37 -12 -44t-37 -7q-57 1 -57 64zM305 391l64 -57l63 -51l62 -58q4 -4 13 -11t19 -13q10 -8 21 -17h10q-20 37 -32.5 91.5t-21.5 119t-15.5 132t-12.5 132.5q-4 33 -5 68t-11 70 q-18 -59 -35.5 -114.5t-42.5 -115.5l-31 -73v-15l37 -8q10 -2 25.5 -3t29 -2t23.5 -5t10 -12q0 -10 -12 -15.5t-28.5 -8.5t-35 -3h-30.5h-45q-10 -4 -13.5 -13.5t-5.5 -17.5zM535 1346v12q0 25 13 44t40 19q10 0 22.5 -7t23.5 -19.5t18 -27.5t7 -30q0 -20 -18 -36.5 t-45 -16.5q-20 0 -32.5 7t-18.5 17.5t-8 20.5t-2 17z" />
<glyph unicode="&#xc5;" horiz-adv-x="749" d="M29 477v4q0 25 16 30t41 5h33q31 -14 64.5 -20.5t66.5 -10.5l12 15q4 8 10.5 21.5t6.5 15.5v8q2 0 4 4q2 2 3 5t3 7l8 17v24l8 6q4 8 6 16.5t11 14.5q-2 0 -5 2q-2 0 -2 2t3.5 8t5.5 8q6 0 8 6.5t2 15.5t1 16.5t7 11.5v8l18 41v16q4 18 13.5 37.5t13.5 42.5v20l16 23 q-8 0 -8 6q0 2 4 10.5t4 10.5v22q4 18 9.5 35.5t9.5 36.5v20q2 4 6 18.5t4 18.5v101q4 18 22.5 21t41.5 3q4 0 13 -1t11 -1l10 -6v-111q0 -98 17 -192q0 -4 2 -15.5t3 -24.5t3 -24.5t2 -13.5v-53q8 -66 16.5 -132.5t18.5 -131.5q10 -78 21.5 -160t41.5 -158l35 -86l27 -43 v-4l2 -4q0 -10 -21.5 -15.5t-33.5 -5.5q-8 2 -21.5 4.5t-13.5 4.5q-8 0 -42 26.5t-78 64.5t-90 80t-77 72l-53 52q-6 6 -10 6q-23 -49 -43.5 -97.5t-45.5 -97.5l-26 -22l-37 -15q-12 0 -24.5 7.5t-20.5 15.5v28l27 37q12 16 28.5 45t31.5 57.5t26.5 53.5t11.5 31v10l-64 47 l-34 14l-72 21q-8 4 -8 14zM305 391l64 -57l63 -51l62 -58q4 -4 13 -11t19 -13q10 -8 21 -17h10q-20 37 -32.5 91.5t-21.5 119t-15.5 132t-12.5 132.5q-4 33 -5 68t-11 70q-18 -59 -35.5 -114.5t-42.5 -115.5l-31 -73v-15l37 -8q10 -2 25.5 -3t29 -2t23.5 -5t10 -12 q0 -10 -12 -15.5t-28.5 -8.5t-35 -3h-30.5h-45q-10 -4 -13.5 -13.5t-5.5 -17.5zM360 1386q0 51 39 88t88 48h45q20 -4 38 -21.5t29 -39t17.5 -45t6.5 -40.5q0 -59 -39 -89t-88 -30q-136 0 -136 129zM412 1346q10 -16 29.5 -23.5t37.5 -7.5q35 0 61.5 16.5t37.5 50.5v4 q0 25 -17.5 40.5t-40.5 19.5h-14q-8 8 -27 8q-25 0 -42 -17.5t-25 -39.5v-51z" />
<glyph unicode="&#xc6;" horiz-adv-x="978" d="M29 477v4q0 25 16 30t41 5h33q31 -14 64.5 -20.5t66.5 -10.5l12 15q4 8 10.5 21.5t6.5 15.5v8q2 0 4 4q2 2 3 5t3 7l8 17v24l8 6q4 8 6 16.5t11 14.5q-2 0 -5 2q-2 0 -2 2t3.5 8t5.5 8q6 0 8 6.5t2 15.5t1 16.5t7 11.5v8l18 41v16q4 18 13.5 37.5t13.5 42.5v20l16 23 q-8 0 -8 6q0 2 4 10.5t4 10.5v22q4 18 9.5 35.5t9.5 36.5v20q2 4 6 18.5t4 18.5v101q4 18 22.5 21t41.5 3q4 0 13 -1t11 -1l10 -6v-111q0 -98 17 -192q0 -4 2 -15.5t3 -24.5t3 -24.5t2 -13.5v-12q18 18 18 37q12 55 15.5 95t6.5 64.5t10 36.5t26 12q25 0 44 -16t19 -47 q0 -29 -8 -58.5t-8 -58.5h8q20 10 45 20.5t47.5 18.5t40 13.5t23.5 5.5t21.5 -2t15.5 -13q0 -14 -13.5 -30.5t-23.5 -20.5l-62 -39q-35 -23 -74.5 -45t-45.5 -39q-4 -4 -9.5 -28.5t-11.5 -59.5t-10 -74t-4 -71q4 0 10 -2t8 -2q0 2 32 17t77 34.5t93 39t83 31.5q6 -4 12 -13 t6 -13q0 -10 -4 -22.5t-14 -16.5l-88 -41l-189 -119q-16 -10 -25.5 -18t-9.5 -43v-25q4 -25 10.5 -52.5t18.5 -49t31.5 -35.5t52.5 -14q57 0 103.5 36.5t85.5 77.5l10 13h4q16 0 19 -19.5t3 -30.5v-8q0 -18 -10 -30q-29 -37 -55.5 -61.5t-54 -39t-57 -21.5t-64.5 -10l-13 7 l15 -23v-4l2 -4q0 -10 -21.5 -15.5t-33.5 -5.5q-8 2 -21.5 4.5t-13.5 4.5q-8 0 -42 26.5t-78 64.5t-90 80t-77 72l-53 52q-6 6 -10 6q-23 -49 -43.5 -97.5t-45.5 -97.5l-26 -22l-37 -15q-12 0 -24.5 7.5t-20.5 15.5v28l27 37q12 16 28.5 45t31.5 57.5t26.5 53.5t11.5 31v10 l-64 47l-34 14l-72 21q-8 4 -8 14zM305 391l64 -57l63 -51l62 -58q4 -4 13 -11t19 -13q10 -8 21 -17h10q-14 25 -23.5 60t-19.5 75q-20 4 -40.5 16.5t-20.5 35.5t15 30t32 17q-8 59 -13.5 120.5t-11.5 120.5q-4 33 -5 68t-11 70q-18 -59 -35.5 -114.5t-42.5 -115.5l-31 -73 v-15l37 -8q10 -2 25.5 -3t29 -2t23.5 -5t10 -12q0 -10 -12 -15.5t-28.5 -8.5t-35 -3h-30.5h-45q-10 -4 -13.5 -13.5t-5.5 -17.5z" />
<glyph unicode="&#xc7;" horiz-adv-x="604" d="M57 422v43q0 14 1 26.5t1 20.5l9 55q6 33 18 84t29.5 109.5t41 117t53.5 105.5t66.5 77t79.5 30q102 0 103 -115q0 -70 -10.5 -134.5t-18.5 -129.5v-9q-6 -37 -8 -80.5t-27 -74.5l-71 -92v18q12 117 32.5 232.5t20.5 232.5v49l-10 19q-6 -2 -18.5 -10.5t-25 -19.5 t-20.5 -23.5t-8 -20.5q-70 -113 -107.5 -242t-37.5 -264q0 -61 17 -110.5t64 -90.5q10 -10 27 -10h14q39 0 85 27.5t87 59.5t73 59.5t44 27.5q6 0 6 -8v-19q0 -10 -2 -12l-8 -16q-20 -27 -44 -56.5t-50.5 -57t-57 -49t-65.5 -32.5l41 -86q0 -4 2 -6l4 -2q2 -8 2 -16.5 t8 -16.5l6 -4q2 -4 7.5 -16t11.5 -17l24 -49q6 -4 7 -8l8 -12q0 -8 6 -15l2 -2q6 -8 8 -19t4 -17l6 -15q0 2 5 -14l4 -8q0 -20 -20.5 -48t-43.5 -28l-4 -4q-14 0 -33.5 -5t-46.5 -5q-51 0 -99 14t-87 37l-25 22q-2 0 -6 4l-8 9q-4 0 -4 4l-33 34q0 2 -2 5l-4 2q-8 8 -8 18 q0 16 12 31.5t27 23.5l4 2q16 10 29.5 21.5t31.5 11.5q16 0 17 -12q0 -4 -5 -8l-10 -6q-18 -2 -30.5 -20.5t-12.5 -31.5q0 -4 4 -13t25 -28l4 -6h4l6 -8q12 -8 21.5 -17.5t19.5 -15.5q18 -10 40 -15t36 -13h4q25 -6 32 -9.5t19 -3.5h39q6 0 18.5 3t16.5 8l2 2q0 2 3 7t3 7 l2 8q-4 31 -12 53.5t-25 55.5l-30 61q-10 18 -22.5 35.5t-16.5 38.5l-29 80v8q0 4 -2 6h-14q-43 0 -83 18.5t-72 49t-50.5 70.5t-18.5 85v11q0 12 -1 26.5t-1 30.5z" />
<glyph unicode="&#xc8;" horiz-adv-x="602" d="M45 395q0 16 9 24.5t21.5 14.5t24 12.5t17.5 18.5q0 4 5 24.5t9 51t8 65.5t4 66v10l-8 2q-18 10 -36.5 24.5t-18.5 39.5q0 16 13 29.5t30.5 25.5t31 25.5t13.5 31.5q12 55 15 95t6.5 64.5t10.5 37t25 12.5q25 0 45.5 -16.5t20.5 -46.5q0 -29 -8.5 -58.5t-8.5 -58.5h9 q20 10 44.5 20.5t47 18.5t40 13t23.5 5t20.5 -2t14.5 -12q0 -14 -13.5 -30.5t-21.5 -20.5l-61 -39q-35 -23 -75 -45.5t-46 -38.5q-4 -4 -9 -28.5t-11.5 -59.5t-10.5 -74t-4 -72q4 0 9.5 -2t9.5 -2q0 2 31.5 17.5t75.5 35t92 39t83 31.5q8 -4 14.5 -13t6.5 -14 q0 -10 -5.5 -22t-15.5 -16l-86 -41l-188 -119q-16 -10 -26.5 -18.5t-10.5 -43.5q0 -29 5 -59.5t18.5 -56t35 -43t54.5 -17.5q57 0 104 37t84 78l10 12h6q14 0 18.5 -19.5t4.5 -29.5v-8q0 -18 -10 -31q-29 -37 -55.5 -61.5t-54.5 -39t-57.5 -21.5t-66.5 -9l-16 10 q-88 43 -130 101.5t-44 142.5q-23 4 -47.5 15.5t-24.5 37.5zM150 1319q0 12 9 21.5t25 9.5q2 0 20.5 -9.5t42 -25t50.5 -33.5t49 -37l23 -18q18 -16 30.5 -37t14.5 -33q0 -20 -15 -22h-4q-8 0 -15 4t-11 8l-47 43l-138 76q-10 6 -19 17.5t-13 23.5q-2 4 -2 12z" />
<glyph unicode="&#xc9;" horiz-adv-x="602" d="M45 395q0 16 9 24.5t21.5 14.5t24 12.5t17.5 18.5q0 4 5 24.5t9 51t8 65.5t4 66v10l-8 2q-18 10 -36.5 24.5t-18.5 39.5q0 16 13 29.5t30.5 25.5t31 25.5t13.5 31.5q12 55 15 95t6.5 64.5t10.5 37t25 12.5q25 0 45.5 -16.5t20.5 -46.5q0 -29 -8.5 -58.5t-8.5 -58.5h9 q20 10 44.5 20.5t47 18.5t40 13t23.5 5t20.5 -2t14.5 -12q0 -14 -13.5 -30.5t-21.5 -20.5l-61 -39q-35 -23 -75 -45.5t-46 -38.5q-4 -4 -9 -28.5t-11.5 -59.5t-10.5 -74t-4 -72q4 0 9.5 -2t9.5 -2q0 2 31.5 17.5t75.5 35t92 39t83 31.5q8 -4 14.5 -13t6.5 -14 q0 -10 -5.5 -22t-15.5 -16l-86 -41l-188 -119q-16 -10 -26.5 -18.5t-10.5 -43.5q0 -29 5 -59.5t18.5 -56t35 -43t54.5 -17.5q57 0 104 37t84 78l10 12h6q14 0 18.5 -19.5t4.5 -29.5v-8q0 -18 -10 -31q-29 -37 -55.5 -61.5t-54.5 -39t-57.5 -21.5t-66.5 -9l-16 10 q-88 43 -130 101.5t-44 142.5q-23 4 -47.5 15.5t-24.5 37.5zM129 1196q0 4 12.5 15.5t30.5 24.5t42 28.5t46 27.5l23 11q74 41 108.5 59t63.5 18h2q2 -2 5 -3t5 -3l4 -4q0 -4 -3 -9t-5 -7v-11q-70 -35 -133.5 -80.5t-120.5 -95.5q-8 -2 -18.5 -8t-18.5 -6q-23 0 -33 13.5 t-10 29.5z" />
<glyph unicode="&#xca;" horiz-adv-x="602" d="M45 395q0 16 9 24.5t21.5 14.5t24 12.5t17.5 18.5q0 4 5 24.5t9 51t8 65.5t4 66v10l-8 2q-18 10 -36.5 24.5t-18.5 39.5q0 16 13 29.5t30.5 25.5t31 25.5t13.5 31.5q12 55 15 95t6.5 64.5t10.5 37t25 12.5q25 0 45.5 -16.5t20.5 -46.5q0 -29 -8.5 -58.5t-8.5 -58.5h9 q20 10 44.5 20.5t47 18.5t40 13t23.5 5t20.5 -2t14.5 -12q0 -14 -13.5 -30.5t-21.5 -20.5l-61 -39q-35 -23 -75 -45.5t-46 -38.5q-4 -4 -9 -28.5t-11.5 -59.5t-10.5 -74t-4 -72q4 0 9.5 -2t9.5 -2q0 2 31.5 17.5t75.5 35t92 39t83 31.5q8 -4 14.5 -13t6.5 -14 q0 -10 -5.5 -22t-15.5 -16l-86 -41l-188 -119q-16 -10 -26.5 -18.5t-10.5 -43.5q0 -29 5 -59.5t18.5 -56t35 -43t54.5 -17.5q57 0 104 37t84 78l10 12h6q14 0 18.5 -19.5t4.5 -29.5v-8q0 -18 -10 -31q-29 -37 -55.5 -61.5t-54.5 -39t-57.5 -21.5t-66.5 -9l-16 10 q-88 43 -130 101.5t-44 142.5q-23 4 -47.5 15.5t-24.5 37.5zM74 1163q0 23 15 30t30 7h20q8 4 27.5 18.5t34.5 30.5l49 54q14 14 27.5 39.5t23.5 48t20.5 40t18.5 17.5q27 0 47 -21v-6q0 -66 21.5 -112.5t48 -77.5t48 -47.5t21.5 -20.5q0 -12 -14 -20h-41q-53 29 -82 71.5 t-49 92.5q-8 0 -8 -4l-53 -66q-12 -14 -27.5 -31.5t-36 -33t-44.5 -26.5t-50 -11q-12 0 -29.5 7t-17.5 21z" />
<glyph unicode="&#xcb;" horiz-adv-x="602" d="M45 395q0 16 9 24.5t21.5 14.5t24 12.5t17.5 18.5q0 4 5 24.5t9 51t8 65.5t4 66v10l-8 2q-18 10 -36.5 24.5t-18.5 39.5q0 16 13 29.5t30.5 25.5t31 25.5t13.5 31.5q12 55 15 95t6.5 64.5t10.5 37t25 12.5q25 0 45.5 -16.5t20.5 -46.5q0 -29 -8.5 -58.5t-8.5 -58.5h9 q20 10 44.5 20.5t47 18.5t40 13t23.5 5t20.5 -2t14.5 -12q0 -14 -13.5 -30.5t-21.5 -20.5l-61 -39q-35 -23 -75 -45.5t-46 -38.5q-4 -4 -9 -28.5t-11.5 -59.5t-10.5 -74t-4 -72q4 0 9.5 -2t9.5 -2q0 2 31.5 17.5t75.5 35t92 39t83 31.5q8 -4 14.5 -13t6.5 -14 q0 -10 -5.5 -22t-15.5 -16l-86 -41l-188 -119q-16 -10 -26.5 -18.5t-10.5 -43.5q0 -29 5 -59.5t18.5 -56t35 -43t54.5 -17.5q57 0 104 37t84 78l10 12h6q14 0 18.5 -19.5t4.5 -29.5v-8q0 -18 -10 -31q-29 -37 -55.5 -61.5t-54.5 -39t-57.5 -21.5t-66.5 -9l-16 10 q-88 43 -130 101.5t-44 142.5q-23 4 -47.5 15.5t-24.5 37.5zM117 1214q0 23 9 46.5t34 23.5q27 0 45 -24.5t18 -57.5q0 -37 -11 -44t-38 -7q-57 0 -57 63zM360 1208v13q0 25 13.5 44t40.5 19q10 0 22.5 -7t23.5 -19.5t18 -28t7 -29.5q0 -20 -18 -36.5t-45 -16.5 q-20 0 -32.5 7t-18.5 17.5t-8.5 20.5t-2.5 16z" />
<glyph unicode="&#xcc;" horiz-adv-x="258" d="M-18 967q0 12 9 21t25 9t26.5 -10t25.5 -20q4 -4 20 -14.5t34.5 -22.5t35 -22.5t20.5 -14.5l23 -19q18 -16 31.5 -36.5t15.5 -32.5q0 -18 -15 -23h-6q-8 0 -14 4.5t-12 8.5l-47 43l-35 22l-101 53q-10 6 -20 17.5t-14 23.5q-2 4 -2 13zM63 629q0 33 7.5 56.5t35.5 23.5 q23 0 41.5 -11.5t24.5 -31.5q-2 -35 -2 -70v-70q0 -98 5 -191t18 -188v-4q8 -18 14 -40.5t6 -43.5q0 -31 -35 -30q-29 0 -46 17t-27.5 41t-14.5 47.5t-4 37.5l-18 256v18.5t-1 37t-1 42v33.5q0 14 -1.5 32.5t-1.5 37.5z" />
<glyph unicode="&#xcd;" horiz-adv-x="258" d="M-29 848q0 4 12.5 14t31 24.5t42 30t45.5 27.5l21 10q76 39 110.5 57.5t63.5 18.5h2q2 -2 4 -3t4 -3l4 -4q0 -2 -2 -8t-4 -8v-9q-72 -37 -134 -83t-122 -93q-8 -4 -18.5 -9t-18.5 -5q-20 0 -30.5 13.5t-10.5 29.5zM63 629q0 33 7.5 56.5t35.5 23.5q23 0 41.5 -11.5 t24.5 -31.5q-2 -35 -2 -70v-70q0 -98 5 -191t18 -188v-4q8 -18 14 -40.5t6 -43.5q0 -31 -35 -30q-29 0 -46 17t-27.5 41t-14.5 47.5t-4 37.5l-18 256v18.5t-1 37t-1 42v33.5q0 14 -1.5 32.5t-1.5 37.5z" />
<glyph unicode="&#xce;" horiz-adv-x="258" d="M-131 893q0 23 15.5 30t29.5 7h20q8 4 28 18.5t34 30.5l49 53q14 14 27.5 40t23.5 48.5t20.5 40t18.5 17.5q27 0 47 -21v-6q0 -66 21.5 -113t48.5 -77.5t48.5 -47t21.5 -20.5q0 -12 -15 -21h-41q-53 29 -81.5 72t-49.5 92q-8 0 -8 -4l-53 -65q-12 -14 -27.5 -31.5 t-36 -33t-44 -27t-50.5 -11.5q-12 0 -29.5 7.5t-17.5 21.5zM63 629q0 33 7.5 56.5t35.5 23.5q23 0 41.5 -11.5t24.5 -31.5q-2 -35 -2 -70v-70q0 -98 5 -191t18 -188v-4q8 -18 14 -40.5t6 -43.5q0 -31 -35 -30q-29 0 -46 17t-27.5 41t-14.5 47.5t-4 37.5l-18 256v18.5t-1 37 t-1 42v33.5q0 14 -1.5 32.5t-1.5 37.5z" />
<glyph unicode="&#xcf;" horiz-adv-x="258" d="M-70 983q0 23 10.5 46.5t32.5 23.5q29 0 46.5 -24.5t17.5 -57.5q0 -37 -11.5 -44t-37.5 -7q-58 0 -58 63zM63 629q0 33 7.5 56.5t35.5 23.5q23 0 41.5 -11.5t24.5 -31.5q-2 -35 -2 -70v-70q0 -98 5 -191t18 -188v-4q8 -18 14 -40.5t6 -43.5q0 -31 -35 -30q-29 0 -46 17 t-27.5 41t-14.5 47.5t-4 37.5l-18 256v18.5t-1 37t-1 42v33.5q0 14 -1.5 32.5t-1.5 37.5zM176 977v12q0 25 12.5 44.5t40.5 19.5q20 0 45 -28t25 -56q0 -20 -17.5 -37t-43.5 -17q-20 0 -32.5 7.5t-19 17.5t-8.5 20.5t-2 16.5z" />
<glyph unicode="&#xd0;" horiz-adv-x="720" d="M25 106q4 8 10 18.5t10 10.5q18 0 33.5 -10t32.5 -10h10q16 6 38.5 12t22.5 14v324q0 6 2 32.5t6 43.5q-18 -8 -34.5 -16.5t-36.5 -8.5q-21 0 -33 57q0 27 33 41.5t80 20.5l18 199q0 4 1 19t3 33.5t3 33t1 18.5v72q-37 12 -59.5 19t-36.5 12.5t-23.5 11.5t-19.5 16v8 q0 23 12.5 30t30.5 7q23 0 43.5 -9t42.5 -9q10 0 14 7t7.5 15t7.5 15.5t14 7.5h2q31 -8 48.5 -22.5t17.5 -45.5q0 -16 8 -27.5t49 -35.5l25 -15q45 -27 90 -58.5t80.5 -72.5t57 -91t21.5 -114q0 -78 -24.5 -144t-62.5 -124.5t-85 -110t-92 -96.5l-80 -59l-10 -10t-6 -9 l-10 -26q0 -4 -20.5 -9t-49.5 -9.5t-57.5 -6.5t-46.5 -2q-10 0 -25.5 2t-30 8.5t-23.5 16.5t-9 26zM270 256q0 -6 3 -26.5t6 -26.5q59 35 111 90t90 117.5t59.5 129t21.5 124.5q0 10 -1 31.5t-1 23.5q0 39 -28.5 78t-66.5 71.5t-76 56t-56 31.5h-8q-2 0 -5.5 -20.5 t-5.5 -30.5v-18q0 -4 -1 -18.5t-2 -31t-3 -30.5t-2 -16v-9q0 -4 -4 -22.5t-4 -22.5l-6 -94q18 2 35.5 2h31.5q16 0 29.5 -3t13.5 -17v-7q-10 -14 -12 -21t-18 -11l-88 -19q-12 -145 -13 -278v-33z" />
<glyph unicode="&#xd1;" horiz-adv-x="628" d="M37 772q0 16 14.5 25.5t30.5 9.5q41 0 54.5 -39t21.5 -88l18 -111q18 33 23.5 83t13.5 104.5t26.5 105.5t61.5 82h31q39 0 66.5 -21.5t46 -54t29.5 -71.5t22 -72l4 -12q23 -92 38 -184.5t29 -188.5q6 -53 9.5 -103.5t17.5 -101.5q-27 -16 -62 -16q-25 0 -32.5 25.5 t-12.5 54.5q-10 78 -18 155.5t-19.5 155.5t-30 154.5t-48.5 150.5l-17 33l-4 4q-2 0 -2 1t-2 1t-2 2q-2 0 -4 -4t-4 -4l-17 -33q-33 -66 -39 -135.5t-14 -138.5l-6 -58q-6 -53 -13 -128.5t-14 -166.5v-6q0 -4 4.5 -23.5t4.5 -23.5v-12q0 -12 -8.5 -28.5t-24.5 -16.5 q-12 0 -37 5t-33 36q-12 53 -14 106.5t-8 106.5l-35 278q-8 41 -17.5 75t-21.5 71zM94 1135q0 2 1 13t3 15l6 17q29 35 47.5 45t51.5 10q27 0 46 -14.5t35.5 -34l33 -39t38.5 -29.5q10 10 16.5 29.5t6.5 48.5q0 10 -1 17.5t-1 11.5q6 6 12 11t17 5q31 0 37 -21.5t6 -31.5 t-3.5 -31.5t-12.5 -43t-25.5 -37t-42.5 -15.5q-33 0 -53.5 18.5t-38 41t-34 41t-42.5 18.5h-4q-41 -12 -41 -56q0 -14 4 -21t4 -18q0 -16 -8.5 -20t-16.5 -4q-12 0 -20.5 10t-12.5 22.5t-6 25t-2 16.5z" />
<glyph unicode="&#xd2;" d="M53 477q0 78 22.5 182.5t62.5 198.5t97.5 159.5t129.5 65.5h16q27 0 49 -10l10 -8q10 -16 28.5 -29.5t35.5 -31.5q53 -61 75.5 -137t22.5 -150q0 -53 -9 -106.5t-32 -102.5q-16 -35 -48 -78t-74 -80t-90 -61.5t-97 -24.5q-55 0 -93 18.5t-61.5 48t-34 67.5t-10.5 79z M156 492q2 -37 5 -61.5t9 -41t17.5 -27t29.5 -20.5h16q25 0 50.5 11.5t44.5 25.5q98 74 137 167t39 202q0 39 -9.5 76.5t-24.5 68.5t-33.5 53.5t-37.5 30.5h-10l-49 -25l-53 -43l-41 -69q-45 -78 -63.5 -163t-26.5 -169v-16zM260 1296q0 12 9.5 21.5t25.5 9.5t26.5 -10 t24.5 -21q4 -4 20.5 -14t35 -22.5t35 -22.5t20.5 -14l22 -19q18 -16 31.5 -37.5t15.5 -31.5q0 -18 -14 -23h-6q-10 0 -27 12l-47 43l-35 23l-100 51q-10 6 -20.5 17.5t-14.5 23.5q-2 6 -2 14z" />
<glyph unicode="&#xd3;" d="M53 477q0 78 22.5 182.5t62.5 198.5t97.5 159.5t129.5 65.5h16q27 0 49 -10l10 -8q10 -16 28.5 -29.5t35.5 -31.5q53 -61 75.5 -137t22.5 -150q0 -53 -9 -106.5t-32 -102.5q-16 -35 -48 -78t-74 -80t-90 -61.5t-97 -24.5q-55 0 -93 18.5t-61.5 48t-34 67.5t-10.5 79z M152 1196q0 4 12 15.5t31.5 24.5t42 28.5t45.5 27.5l22 11q76 41 110 59t64 18q2 -2 5 -3t5 -3l5 -4q0 -4 -3.5 -9t-3.5 -7v-11q-72 -35 -135 -80.5t-121 -95.5q-8 -2 -18 -8t-18 -6q-20 0 -31.5 13.5t-11.5 29.5zM156 492q2 -37 5 -61.5t9 -41t17.5 -27t29.5 -20.5h16 q25 0 50.5 11.5t44.5 25.5q98 74 137 167t39 202q0 39 -9.5 76.5t-24.5 68.5t-33.5 53.5t-37.5 30.5h-10l-49 -25l-53 -43l-41 -69q-45 -78 -63.5 -163t-26.5 -169v-16z" />
<glyph unicode="&#xd4;" d="M53 477q0 78 22.5 182.5t62.5 198.5t97.5 159.5t129.5 65.5h16q27 0 49 -10l10 -8q10 -16 28.5 -29.5t35.5 -31.5q53 -61 75.5 -137t22.5 -150q0 -53 -9 -106.5t-32 -102.5q-16 -35 -48 -78t-74 -80t-90 -61.5t-97 -24.5q-55 0 -93 18.5t-61.5 48t-34 67.5t-10.5 79z M127 1145q0 23 15.5 30t31.5 7h19q8 4 27.5 18t33.5 31l49 53q16 18 32.5 42t26.5 50q8 20 9.5 37t23.5 17q27 0 45 -21v-4q0 -66 21.5 -114t48.5 -78.5t48.5 -47t21.5 -20.5q0 -14 -13 -19h-43q-53 29 -80.5 71t-50.5 93q-6 0 -6 -6l-55 -65q-10 -14 -25.5 -32t-36 -33 t-45 -26.5t-49.5 -11.5q-12 0 -30.5 7.5t-18.5 21.5zM156 492q2 -37 5 -61.5t9 -41t17.5 -27t29.5 -20.5h16q25 0 50.5 11.5t44.5 25.5q98 74 137 167t39 202q0 39 -9.5 76.5t-24.5 68.5t-33.5 53.5t-37.5 30.5h-10l-49 -25l-53 -43l-41 -69q-45 -78 -63.5 -163t-26.5 -169 v-16z" />
<glyph unicode="&#xd5;" d="M53 477q0 78 22.5 182.5t62.5 198.5t97.5 159.5t129.5 65.5h16q27 0 49 -10l10 -8q10 -16 28.5 -29.5t35.5 -31.5q53 -61 75.5 -137t22.5 -150q0 -53 -9 -106.5t-32 -102.5q-16 -35 -48 -78t-74 -80t-90 -61.5t-97 -24.5q-55 0 -93 18.5t-61.5 48t-34 67.5t-10.5 79z M156 492q2 -37 5 -61.5t9 -41t17.5 -27t29.5 -20.5h16q25 0 50.5 11.5t44.5 25.5q98 74 137 167t39 202q0 39 -9.5 76.5t-24.5 68.5t-33.5 53.5t-37.5 30.5h-10l-49 -25l-53 -43l-41 -69q-45 -78 -63.5 -163t-26.5 -169v-16zM190 1219q0 2 1.5 13t3.5 15l6 17q29 35 47 45 t51 10q27 0 46.5 -14.5t35.5 -34t32.5 -39t39.5 -29.5q10 10 16 29.5t6 48.5q0 8 -1 16.5t-1 10.5q12 16 29 16q33 0 38 -20.5t5 -30.5q0 -12 -3 -32.5t-12.5 -42t-25 -37t-41.5 -15.5q-35 0 -55.5 18.5t-37 41t-34 41t-43.5 18.5h-4q-20 -6 -29.5 -21.5t-9.5 -34.5 q0 -14 3 -22t3 -19q0 -14 -8 -18t-17 -4q-12 0 -19 10t-12 22.5t-7.5 25t-2.5 16.5z" />
<glyph unicode="&#xd6;" d="M53 477q0 78 22.5 182.5t62.5 198.5t97.5 159.5t129.5 65.5h16q27 0 49 -10l10 -8q10 -16 28.5 -29.5t35.5 -31.5q53 -61 75.5 -137t22.5 -150q0 -53 -9 -106.5t-32 -102.5q-16 -35 -48 -78t-74 -80t-90 -61.5t-97 -24.5q-55 0 -93 18.5t-61.5 48t-34 67.5t-10.5 79z M156 492q2 -37 5 -61.5t9 -41t17.5 -27t29.5 -20.5h16q25 0 50.5 11.5t44.5 25.5q98 74 137 167t39 202q0 39 -9.5 76.5t-24.5 68.5t-33.5 53.5t-37.5 30.5h-10l-49 -25l-53 -43l-41 -69q-45 -78 -63.5 -163t-26.5 -169v-16zM190 1208q0 23 9.5 46.5t33.5 23.5 q27 0 45.5 -24.5t18.5 -57.5q0 -37 -11.5 -45t-37.5 -8q-58 -1 -58 65zM434 1200v14q0 25 13.5 44.5t39.5 19.5q20 0 46 -27.5t26 -58.5q0 -18 -18.5 -34.5t-44.5 -16.5q-20 0 -32.5 7t-19 17.5t-8.5 20.5t-2 14z" />
<glyph unicode="&#xd7;" horiz-adv-x="694" d="M27 778q0 27 41 27q49 0 69 -33q29 -53 57.5 -99t77.5 -91l37 86q31 74 45.5 149.5t18.5 151.5q0 10 -1 21t-1 22q8 6 26 6h11q29 0 50 -16.5t21 -40.5q0 -98 -33.5 -189.5t-74.5 -196.5l-19 -45v-26l29 -27q55 -41 110.5 -75.5t104.5 -59.5t62.5 -27t13.5 -16 q0 -12 -19.5 -17.5t-27.5 -5.5h-11q-82 16 -156.5 60.5t-131.5 91.5h-11q-12 -37 -25.5 -64.5t-31.5 -47t-44 -30t-64 -10.5q-8 0 -15.5 1.5t-7.5 9.5q0 14 17.5 29.5t27.5 25.5q25 31 39 65.5t25 69.5v21l-109 125q-12 12 -28.5 37.5t-32 51t-27.5 45t-12 21.5z" />
<glyph unicode="&#xd8;" d="M53 477q0 51 10.5 115.5t29 132.5t45 131.5t60 113.5t74.5 80.5t88 32.5l7 80q10 10 17 20.5t17 10.5q23 0 43.5 -15.5t26.5 -27.5l4 -12q-4 -25 -8 -48.5t-8 -48.5q78 -70 110.5 -151.5t32.5 -173.5q0 -53 -9 -107.5t-32 -101.5q-16 -33 -44 -71t-64.5 -73.5 t-79.5 -62.5t-88 -35l-11 -39q-23 -35 -30.5 -69.5t-13 -64.5t-13.5 -52.5t-27 -34.5l-18 31q-4 0 -4 39q0 29 4 78t18 116q-76 20 -106.5 79t-30.5 128zM156 492q2 -35 4 -58.5t8 -39t15.5 -27t25.5 -19.5q8 39 21.5 80t27.5 92q29 104 51.5 214t38.5 222l-61 -47l-41 -69 q-45 -78 -63.5 -163t-26.5 -169v-16zM315 369l13 10q98 74 137 167t39 202q0 53 -18.5 102t-41.5 84q-16 -145 -53 -285.5t-76 -279.5z" />
<glyph unicode="&#xd9;" horiz-adv-x="688" d="M51 365q0 49 1 69.5t9 44.5q6 45 10.5 84t10.5 80t14 87t21 106q2 16 3 38.5t5 44t13 37t32 15.5h16q14 -10 26.5 -24.5t12.5 -31.5v-10q0 -25 -8 -48t-12 -48q-8 -35 -14.5 -63.5t-12.5 -58.5t-11 -65.5t-7 -84.5q-4 -47 -10.5 -91.5t-6.5 -89.5v-20q0 -23 9 -29 q31 8 56 31.5t42 46.5l45 61l53 91q4 4 10.5 15t8.5 15q18 23 23 33t9 22.5t12.5 34t30.5 68.5q4 18 18.5 45t35.5 94q6 25 7 54.5t17 52.5l19 12q4 4 10 7t8 3l37 -16q4 -2 10 -8l8 -8v-56q0 -2 -4 -19.5t-6 -21.5q-16 -86 -21.5 -172t-5.5 -178q0 -102 5.5 -207.5 t40.5 -204.5q4 -14 12 -29.5t8 -19.5t-1 -10t-9 -6h-64q-10 0 -20 21.5t-19.5 53t-16.5 68.5t-12 70t-9.5 54.5t-4.5 23.5v16q0 14 -1 49t-2 74t-2 73.5t-1 49.5l-22 -35q-23 -43 -52.5 -99.5t-66.5 -107.5t-82 -87t-96 -36q-63 0 -86 38t-23 102zM244 1233q0 12 9 21.5 t26 9.5q4 0 22 -9.5t42 -25t49.5 -33.5t47.5 -37l23 -18q18 -16 31.5 -38t15.5 -34q0 -16 -14 -20h-7q-10 0 -26 12l-47 41q-2 4 -16.5 12t-18.5 12l-100 52q-10 6 -20.5 17.5t-14.5 23.5q-2 6 -2 14z" />
<glyph unicode="&#xda;" horiz-adv-x="688" d="M51 365q0 49 1 69.5t9 44.5q6 45 10.5 84t10.5 80t14 87t21 106q2 16 3 38.5t5 44t13 37t32 15.5h16q14 -10 26.5 -24.5t12.5 -31.5v-10q0 -25 -8 -48t-12 -48q-8 -35 -14.5 -63.5t-12.5 -58.5t-11 -65.5t-7 -84.5q-4 -47 -10.5 -91.5t-6.5 -89.5v-20q0 -23 9 -29 q31 8 56 31.5t42 46.5l45 61l53 91q4 4 10.5 15t8.5 15q18 23 23 33t9 22.5t12.5 34t30.5 68.5q4 18 18.5 45t35.5 94q6 25 7 54.5t17 52.5l19 12q4 4 10 7t8 3l37 -16q4 -2 10 -8l8 -8v-56q0 -2 -4 -19.5t-6 -21.5q-16 -86 -21.5 -172t-5.5 -178q0 -102 5.5 -207.5 t40.5 -204.5q4 -14 12 -29.5t8 -19.5t-1 -10t-9 -6h-64q-10 0 -20 21.5t-19.5 53t-16.5 68.5t-12 70t-9.5 54.5t-4.5 23.5v16q0 14 -1 49t-2 74t-2 73.5t-1 49.5l-22 -35q-23 -43 -52.5 -99.5t-66.5 -107.5t-82 -87t-96 -36q-63 0 -86 38t-23 102zM182 1133q0 4 12.5 14 t31 24.5t42 30t45.5 27.5l21 10q76 39 110.5 57.5t63.5 18.5h2q4 0 8 -4l4 -4q0 -4 -2 -10.5t-4 -6.5v-10q-72 -35 -134.5 -82t-121.5 -94q-8 -2 -18.5 -8t-16.5 -6q-23 0 -33 13.5t-10 29.5z" />
<glyph unicode="&#xdb;" horiz-adv-x="688" d="M51 365q0 49 1 69.5t9 44.5q6 45 10.5 84t10.5 80t14 87t21 106q2 16 3 38.5t5 44t13 37t32 15.5h16q14 -10 26.5 -24.5t12.5 -31.5v-10q0 -25 -8 -48t-12 -48q-8 -35 -14.5 -63.5t-12.5 -58.5t-11 -65.5t-7 -84.5q-4 -47 -10.5 -91.5t-6.5 -89.5v-20q0 -23 9 -29 q31 8 56 31.5t42 46.5l45 61l53 91q4 4 10.5 15t8.5 15q18 23 23 33t9 22.5t12.5 34t30.5 68.5q4 18 18.5 45t35.5 94q6 25 7 54.5t17 52.5l19 12q4 4 10 7t8 3l37 -16q4 -2 10 -8l8 -8v-56q0 -2 -4 -19.5t-6 -21.5q-16 -86 -21.5 -172t-5.5 -178q0 -102 5.5 -207.5 t40.5 -204.5q4 -14 12 -29.5t8 -19.5t-1 -10t-9 -6h-64q-10 0 -20 21.5t-19.5 53t-16.5 68.5t-12 70t-9.5 54.5t-4.5 23.5v16q0 14 -1 49t-2 74t-2 73.5t-1 49.5l-22 -35q-23 -43 -52.5 -99.5t-66.5 -107.5t-82 -87t-96 -36q-63 0 -86 38t-23 102zM143 1118q0 25 14.5 31 t30.5 6h21q6 4 25.5 18.5t33.5 30.5l49 53q33 37 60 93q8 20 9 37.5t24 17.5q27 0 45 -23v-4q0 -66 21.5 -113.5t48 -78.5t48 -47.5t21.5 -20.5q0 -14 -12 -18h-43q-53 29 -81 70.5t-50 93.5q-6 0 -7 -7l-53 -65q-12 -14 -28.5 -31.5t-36 -33t-43 -26.5t-50.5 -11 q-12 0 -29.5 8t-17.5 20z" />
<glyph unicode="&#xdc;" horiz-adv-x="688" d="M51 365q0 49 1 69.5t9 44.5q6 45 10.5 84t10.5 80t14 87t21 106q2 16 3 38.5t5 44t13 37t32 15.5h16q14 -10 26.5 -24.5t12.5 -31.5v-10q0 -25 -8 -48t-12 -48q-8 -35 -14.5 -63.5t-12.5 -58.5t-11 -65.5t-7 -84.5q-4 -47 -10.5 -91.5t-6.5 -89.5v-20q0 -23 9 -29 q31 8 56 31.5t42 46.5l45 61l53 91q4 4 10.5 15t8.5 15q18 23 23 33t9 22.5t12.5 34t30.5 68.5q4 18 18.5 45t35.5 94q6 25 7 54.5t17 52.5l19 12q4 4 10 7t8 3l37 -16q4 -2 10 -8l8 -8v-56q0 -2 -4 -19.5t-6 -21.5q-16 -86 -21.5 -172t-5.5 -178q0 -102 5.5 -207.5 t40.5 -204.5q4 -14 12 -29.5t8 -19.5t-1 -10t-9 -6h-64q-10 0 -20 21.5t-19.5 53t-16.5 68.5t-12 70t-9.5 54.5t-4.5 23.5v16q-4 14 -5 49t-1 74v73.5v49.5l-22 -35q-23 -43 -52.5 -99.5t-66.5 -107.5t-82 -87t-96 -36q-63 0 -86 38t-23 102zM215 1184q0 23 9 47t34 24 q27 0 45.5 -24.5t18.5 -56.5q0 -37 -11.5 -45.5t-38.5 -8.5q-57 1 -57 64zM459 1178v14q0 25 13 44t40 19q10 0 22.5 -8t23.5 -20.5t18.5 -27.5t7.5 -30q0 -20 -18.5 -35.5t-45.5 -15.5q-20 0 -32.5 7.5t-18.5 17.5t-8 20.5t-2 14.5z" />
<glyph unicode="&#xdd;" horiz-adv-x="684" d="M45 551v14q0 66 10.5 126.5t24.5 123.5q12 49 22.5 76t22.5 39t26.5 14t32.5 2q10 0 17.5 -2t15.5 -14l21 -25q0 -18 -19.5 -33.5t-25.5 -31.5q-10 -23 -18.5 -50.5t-16.5 -54t-12.5 -51.5t-4.5 -39v-174q0 -43 32 -80t83 -37q23 0 45.5 11.5t44 28t39.5 34.5t31 35 q37 35 54 85t34 91v156q0 41 7 77.5t42 36.5q23 0 37 -13t18 -32l-10 -164v-118q0 -158 16.5 -309.5t16.5 -309.5v-39q0 -137 -5 -280.5t-10 -302.5v-9q-8 -31 -9 -64.5t-6 -61t-21.5 -46t-57.5 -18.5q-14 0 -17 8.5t-3 18.5q0 25 8 48t10 48q0 6 2 24.5t3 39t2 40t1 27.5 v84q0 6 2 33.5t3.5 58.5t3.5 57.5t2 32.5v117q0 6 1 31.5t2 53t2 52.5t1 31v8q0 6 -1 34.5t-2 61.5t-2 61.5t-1 34.5v62l-27 227h-2q-2 0 -3 1t-3 1q-41 -55 -101.5 -105t-142.5 -50h-35q-10 0 -38.5 9t-36.5 15l-62 58l-25 41q-14 33 -16 71.5t-2 73.5zM176 1094 q0 4 12.5 15t31 25.5t42 30t45.5 27.5l21 8q76 41 110.5 59.5t63.5 18.5h2q2 -2 4 -3t4 -3l4 -4q0 -2 -2 -8.5t-4 -8.5v-10q-72 -35 -134.5 -81t-121.5 -93q-8 -4 -18.5 -9t-18.5 -5q-20 0 -30.5 12.5t-10.5 28.5z" />
<glyph unicode="&#xde;" horiz-adv-x="555" d="M4 311v13q0 4 6 4q8 0 23.5 -6.5t36.5 -16.5q0 14 1 26.5t3 24.5v383q0 29 -5.5 79t-5.5 95q0 41 8.5 70t37.5 29h18q37 0 46 -11.5t11 -27.5l6 -10v-14.5t-1 -23t-2 -23.5t-3 -13q4 -37 6.5 -75t2.5 -77q8 0 15 1t17 1q74 0 128.5 -44t92 -100t58 -109.5t26.5 -71.5 q4 -4 5.5 -18.5t1.5 -35.5q0 -12 -1 -32.5t-1 -22.5q0 -25 -20.5 -48.5t-53.5 -41.5t-75 -28.5t-85 -10.5q-70 0 -127 23v-23q0 -23 2 -33v-96q0 -27 3 -45t3 -33q0 -16 -4 -29.5t-16 -25.5q-2 0 -6 3t-6 5q-33 23 -50.5 51.5t-25.5 60.5t-10.5 64.5t-2.5 65.5q0 23 1 45 t4 45q-20 16 -41 31.5t-21 25.5zM176 258q33 -14 68 -23.5t69 -9.5h15q33 0 54 14.5t33.5 34t17.5 41t5 33.5q0 78 -40 156t-111 143q0 4 -8.5 11.5t-20.5 13.5t-25.5 11t-21.5 7l-8 -12v-27q0 -70 20.5 -138.5t34.5 -135.5v-12l-76 57q-6 -84 -6 -164z" />
<glyph unicode="&#xdf;" horiz-adv-x="759" d="M49 508v12q4 61 15.5 145.5t38 169.5t72.5 159.5t120 115.5l55 23h37q41 0 83 -14.5t76 -39t56.5 -54.5t24.5 -60l2 -27q0 -6 1 -12t1 -13q0 -41 -14.5 -77.5t-37 -70.5t-51 -65.5t-57.5 -62.5l-8 -8q0 -4 8 -8.5t19.5 -9.5t21.5 -10t16 -7l39 -25q35 -23 63.5 -52.5 t50 -61t33 -63.5t11.5 -58q0 -51 -29.5 -98.5t-75 -85t-97.5 -65.5t-97 -40q-51 -18 -106.5 -22.5t-126.5 -10.5l4 -41q2 -20 7 -46.5t12 -52.5t19.5 -47.5t30.5 -33.5v-16q-2 -4 -12 -13.5t-12 -11.5h-41l-13 8l-47 64q-29 45 -37 94t-20 96q-12 131 -18.5 208t-9.5 117 t-3 54.5v20.5v2q0 25 -2 47t-2 47zM135 494q0 -57 3 -114.5t7 -113.5l13 -110l18 -62q0 -6 17.5 -11t31.5 -5l117 16l113 45l49 33q31 27 51 45.5t32.5 34.5t18.5 31.5t8 38.5l-4 40q-4 37 -25.5 75t-52 66.5t-68.5 47t-73 18.5q-25 0 -41 -8t-37 -8q-29 0 -50 16.5 t-23 40.5l34 23l74 31q20 8 50 34.5t57.5 61.5t46 73.5t18.5 73.5q0 10 -2 37t-11 54.5t-31.5 49t-61.5 21.5q-37 0 -69 -20.5t-50 -44.5l-43 -56l-41 -78q-47 -86 -61.5 -182t-14.5 -194z" />
<glyph unicode="&#xe0;" horiz-adv-x="786" d="M20 373v8q8 12 24.5 22.5t25.5 10.5q18 0 27 -4t38 -4q35 0 42 26.5t7 52.5v27l4 12l5 15q12 4 23 58t22.5 132t26 168t33.5 167t43.5 127t59.5 50h5q18 0 36.5 -6t28.5 -18q35 -86 51.5 -174.5t32.5 -178.5q25 -139 48.5 -275t68.5 -272l90 -272q4 -4 6 -18.5t2 -18.5 v-6q0 -2 -2 -6t-6 -4h-31q-33 0 -46 9t-18 23.5t-5 34t-7 37.5l-73 230q-6 16 -14.5 43.5t-12.5 27.5q-72 -23 -144.5 -37t-146.5 -24q-6 -29 -7 -72t-4 -83t-13.5 -67.5t-30.5 -27.5q-8 0 -29.5 5t-21.5 15v211q-23 0 -47.5 2.5t-44 7.5t-33 16t-13.5 30zM274 424h9 q68 0 132 14.5t132 14.5q-2 2 -2 4v2l-17 80q-29 141 -49 283.5t-59 279.5q-20 -20 -26.5 -43t-12.5 -45l-43 -176q-25 -102 -42 -207t-22 -207zM285 1438q0 12 9 22t25 10t26.5 -11t25.5 -21q4 -4 20.5 -14.5t34.5 -22.5t34.5 -22.5t20.5 -14.5l23 -16q18 -18 32.5 -38 t14.5 -34q0 -16 -14 -21h-7q-8 0 -14 3.5t-12 7.5l-47 43q-2 4 -16.5 12t-18.5 10l-100 53q-10 6 -20.5 17.5t-14.5 23.5q-2 4 -2 13z" />
<glyph unicode="&#xe1;" horiz-adv-x="786" d="M20 373v8q8 12 24.5 22.5t25.5 10.5q18 0 27 -4t38 -4q35 0 42 26.5t7 52.5v27l4 12l5 15q12 4 23 58t22.5 132t26 168t33.5 167t43.5 127t59.5 50h5q18 0 36.5 -6t28.5 -18q35 -86 51.5 -174.5t32.5 -178.5q25 -139 48.5 -275t68.5 -272l90 -272q4 -4 6 -18.5t2 -18.5 v-6q0 -2 -2 -6t-6 -4h-31q-33 0 -46 9t-18 23.5t-5 34t-7 37.5l-73 230q-6 16 -14.5 43.5t-12.5 27.5q-72 -23 -144.5 -37t-146.5 -24q-6 -29 -7 -72t-4 -83t-13.5 -67.5t-30.5 -27.5q-8 0 -29.5 5t-21.5 15v211q-23 0 -47.5 2.5t-44 7.5t-33 16t-13.5 30zM227 1276 q0 4 12.5 15.5t31 24.5t42 28.5t45.5 27.5l23 10q74 41 108.5 59.5t63.5 18.5h2q2 -2 5 -3t5 -3l4 -4q0 -4 -3 -9t-5 -7v-11q-70 -35 -133 -81t-121 -93q-8 -4 -18 -10t-19 -6q-23 0 -33 13.5t-10 29.5zM274 424h9q68 0 132 14.5t132 14.5q-2 2 -2 4v2l-17 80 q-29 141 -49 283.5t-59 279.5q-20 -20 -26.5 -43t-12.5 -45l-43 -176q-25 -102 -42 -207t-22 -207z" />
<glyph unicode="&#xe2;" horiz-adv-x="786" d="M20 373v8q8 12 24.5 22.5t25.5 10.5q18 0 27 -4t38 -4q35 0 42 26.5t7 52.5v27l4 12l5 15q12 4 23 58t22.5 132t26 168t33.5 167t43.5 127t59.5 50h5q18 0 36.5 -6t28.5 -18q35 -86 51.5 -174.5t32.5 -178.5q25 -139 48.5 -275t68.5 -272l90 -272q4 -4 6 -18.5t2 -18.5 v-6q0 -2 -2 -6t-6 -4h-31q-33 0 -46 9t-18 23.5t-5 34t-7 37.5l-73 230q-6 16 -14.5 43.5t-12.5 27.5q-72 -23 -144.5 -37t-146.5 -24q-6 -29 -7 -72t-4 -83t-13.5 -67.5t-30.5 -27.5q-8 0 -29.5 5t-21.5 15v211q-23 0 -47.5 2.5t-44 7.5t-33 16t-13.5 30zM164 1257 q0 25 15.5 31t29.5 6h20q8 4 27.5 18.5t34.5 30.5l49 54q14 16 27.5 40.5t24.5 48t20.5 41t17.5 17.5q16 0 26.5 -6t20.5 -16v-4q0 -66 21.5 -114t48 -79t48 -47t21.5 -21q0 -12 -14 -18h-41q-53 29 -81.5 71t-49.5 93q-8 0 -8 -6l-53 -66q-12 -14 -27.5 -31.5t-36 -33 t-44 -26.5t-50.5 -11q-12 0 -29.5 8t-17.5 20zM274 424h9q68 0 132 14.5t132 14.5q-2 2 -2 4v2l-17 80q-29 141 -49 283.5t-59 279.5q-20 -20 -26.5 -43t-12.5 -45l-43 -176q-25 -102 -42 -207t-22 -207z" />
<glyph unicode="&#xe3;" horiz-adv-x="786" d="M20 373v8q8 12 24.5 22.5t25.5 10.5q18 0 27 -4t38 -4q35 0 42 26.5t7 52.5v27l4 12l5 15q12 4 23 58t22.5 132t26 168t33.5 167t43.5 127t59.5 50h5q18 0 36.5 -6t28.5 -18q35 -86 51.5 -174.5t32.5 -178.5q25 -139 48.5 -275t68.5 -272l90 -272q4 -4 6 -18.5t2 -18.5 v-6q0 -2 -2 -6t-6 -4h-31q-33 0 -46 9t-18 23.5t-5 34t-7 37.5l-73 230q-6 16 -14.5 43.5t-12.5 27.5q-72 -23 -144.5 -37t-146.5 -24q-6 -29 -7 -72t-4 -83t-13.5 -67.5t-30.5 -27.5q-8 0 -29.5 5t-21.5 15v211q-23 0 -47.5 2.5t-44 7.5t-33 16t-13.5 30zM229 1364 q0 2 2 13.5t2 15.5l9 16q27 35 45 45t53 10q27 0 46.5 -14t34.5 -33.5t31.5 -39t39.5 -29.5q10 10 16 29.5t6 47.5q0 10 -1 17.5t-1 11.5q6 6 12 11t17 5q16 0 25 -6t13.5 -15t5.5 -18.5t1 -13.5q0 -10 -3 -31.5t-12.5 -43t-26 -37t-42.5 -15.5q-33 0 -53.5 18.5t-38 41 t-35 41t-43.5 18.5h-4q-39 -12 -39 -55q0 -14 3 -21.5t3 -17.5q0 -16 -7 -20.5t-18 -4.5q-12 0 -19 10.5t-12.5 22.5t-7.5 24.5t-2 16.5zM274 424h9q68 0 132 14.5t132 14.5q-2 2 -2 4v2l-17 80q-29 141 -49 283.5t-59 279.5q-20 -20 -26.5 -43t-12.5 -45l-43 -176 q-25 -102 -42 -207t-22 -207z" />
<glyph unicode="&#xe4;" horiz-adv-x="786" d="M20 373v8q8 12 24.5 22.5t25.5 10.5q18 0 27 -4t38 -4q35 0 42 26.5t7 52.5v27l4 12l5 15q12 4 23 58t22.5 132t26 168t33.5 167t43.5 127t59.5 50h5q18 0 36.5 -6t28.5 -18q35 -86 51.5 -174.5t32.5 -178.5q25 -139 48.5 -275t68.5 -272l90 -272q4 -4 6 -18.5t2 -18.5 v-6q0 -2 -2 -6t-6 -4h-31q-33 0 -46 9t-18 23.5t-5 34t-7 37.5l-73 230q-6 16 -14.5 43.5t-12.5 27.5q-72 -23 -144.5 -37t-146.5 -24q-6 -29 -7 -72t-4 -83t-13.5 -67.5t-30.5 -27.5q-8 0 -29.5 5t-21.5 15v211q-23 0 -47.5 2.5t-44 7.5t-33 16t-13.5 30zM240 1372 q0 23 9 46.5t34 23.5q27 0 45 -24.5t18 -57.5q0 -37 -11 -45t-38 -8q-57 -1 -57 65zM274 424h9q68 0 132 14.5t132 14.5q-2 2 -2 4v2l-17 80q-29 141 -49 283.5t-59 279.5q-20 -20 -26.5 -43t-12.5 -45l-43 -176q-25 -102 -42 -207t-22 -207zM483 1364v14q0 25 13.5 44.5 t40.5 19.5q20 0 45.5 -28t25.5 -58q0 -18 -18.5 -34.5t-44.5 -16.5q-20 0 -32.5 7t-19 17t-8.5 20.5t-2 14.5z" />
<glyph unicode="&#xe5;" horiz-adv-x="786" d="M20 373v8q8 12 24.5 22.5t25.5 10.5q18 0 27 -4t38 -4q35 0 42 26.5t7 52.5v27l4 12l5 15q12 4 23 58t22.5 132t26 168t33.5 167t43.5 127t59.5 50h5q18 0 36.5 -6t28.5 -18q35 -86 51.5 -174.5t32.5 -178.5q25 -139 48.5 -275t68.5 -272l90 -272q4 -4 6 -18.5t2 -18.5 v-6q0 -2 -2 -6t-6 -4h-31q-33 0 -46 9t-18 23.5t-5 34t-7 37.5l-73 230q-6 16 -14.5 43.5t-12.5 27.5q-72 -23 -144.5 -37t-146.5 -24q-6 -29 -7 -72t-4 -83t-13.5 -67.5t-30.5 -27.5q-8 0 -29.5 5t-21.5 15v211q-23 0 -47.5 2.5t-44 7.5t-33 16t-13.5 30zM274 424h9 q68 0 132 14.5t132 14.5q-2 2 -2 4v2l-17 80q-29 141 -49 283.5t-59 279.5q-20 -20 -26.5 -43t-12.5 -45l-43 -176q-25 -102 -42 -207t-22 -207zM283 1415q0 53 39.5 90t89.5 47h43q20 -6 37.5 -22.5t28.5 -39t17.5 -45t6.5 -40.5q0 -59 -38 -89t-87 -30q-137 0 -137 129z M334 1374q10 -14 29.5 -22.5t37.5 -8.5q35 0 61.5 17.5t37.5 52.5v2q0 25 -17.5 40t-40.5 20h-12q-10 8 -27 8q-25 0 -43 -17.5t-26 -40.5v-51z" />
<glyph unicode="&#xe6;" horiz-adv-x="1036" d="M20 373v8q8 12 24.5 22.5t25.5 10.5q18 0 27 -4t38 -4q35 0 42 26.5t7 52.5v27l4 12l5 15q12 4 23 58t22.5 132t26 168t33.5 167t43.5 127t59.5 50h5q18 0 36.5 -6t28.5 -18q35 -86 51.5 -174.5t32.5 -178.5l10 -59q20 18 45 35.5t25 42.5q12 55 15 95t6 64.5t10.5 37 t25.5 12.5q25 0 44.5 -16.5t19.5 -47.5q0 -29 -8.5 -58.5t-8.5 -58.5h9q20 10 44.5 20.5t47 20t40 14.5t23.5 5t20.5 -2t14.5 -15q0 -14 -13.5 -30.5t-21.5 -20.5l-61 -39q-35 -23 -75 -45t-46 -39q-4 -4 -9 -28.5t-11.5 -59.5t-10.5 -73.5t-4 -71.5q4 0 9 -1t10 -1 q0 2 31.5 17.5t75.5 34.5t92 38.5t83 32.5q8 -4 14.5 -14.5t6.5 -14.5q0 -10 -5.5 -21.5t-15.5 -15.5l-86 -43l-188 -119q-16 -10 -26.5 -18t-10.5 -41q0 -29 5 -59.5t18.5 -57t35 -44t56.5 -17.5q55 0 102 38t86 76l8 13h6q14 0 18.5 -19.5t4.5 -29.5v-9q0 -18 -10 -30 q-29 -37 -55.5 -61.5t-54.5 -39t-57.5 -21.5t-64.5 -9l-18 10q-4 0 -10.5 2t-12.5 4l29 -82q4 -4 6 -18.5t2 -18.5v-6q0 -2 -2 -6t-6 -4h-31q-33 0 -46 9t-18 23.5t-5 34t-7 37.5l-73 230q-4 8 -6.5 20t-6.5 23q-29 8 -45 20q-66 -18 -130 -30.5t-130 -22.5q-6 -29 -7 -72 t-4 -83t-13.5 -67.5t-30.5 -27.5q-8 0 -29.5 5t-21.5 15v211q-23 0 -47.5 2.5t-44 7.5t-33 16t-13.5 30zM274 424h9q63 0 123.5 12.5t125.5 16.5l13 6l-17 80q-29 141 -49 283.5t-59 279.5q-23 -20 -28 -43t-11 -45l-43 -176q-25 -102 -43.5 -207t-20.5 -207zM580 717 q4 -29 10 -57.5t12 -57.5q2 23 4 46.5t2 45.5v11z" />
<glyph unicode="&#xe7;" horiz-adv-x="604" d="M57 422v43q0 14 1 26.5t1 20.5l9 55q6 33 18 84t29.5 109.5t41 117t53.5 105.5t66.5 77t79.5 30q102 0 103 -115q0 -70 -10.5 -134.5t-18.5 -129.5v-9q-6 -37 -8 -80.5t-27 -74.5l-71 -92v18q12 117 32.5 232.5t20.5 232.5v49l-10 19q-6 -2 -18.5 -10.5t-25 -19.5 t-20.5 -23.5t-8 -20.5q-70 -113 -107.5 -242t-37.5 -264q0 -61 17 -110.5t64 -90.5q10 -10 27 -10h14q39 0 85 27.5t87 59.5t73 59.5t44 27.5q6 0 6 -8v-19q0 -10 -2 -12l-8 -16q-20 -27 -44 -56.5t-50.5 -57t-57 -49t-65.5 -32.5l41 -86q0 -4 2 -6l4 -2q2 -8 2 -16.5 t8 -16.5l6 -4q2 -4 7.5 -16t11.5 -17l24 -49q6 -4 7 -8l8 -12q0 -8 6 -15l2 -2q6 -8 8 -19t4 -17l6 -15q0 2 5 -14l4 -8q0 -20 -20.5 -48t-43.5 -28l-4 -4q-14 0 -33.5 -5t-46.5 -5q-51 0 -99 14t-87 37l-25 22q-2 0 -6 4l-8 9q-4 0 -4 4l-33 34q0 2 -2 5l-4 2q-8 8 -8 18 q0 16 12 31.5t27 23.5l4 2q16 10 29.5 21.5t31.5 11.5q16 0 17 -12q0 -4 -5 -8l-10 -6q-18 -2 -30.5 -20.5t-12.5 -31.5q0 -4 4 -13t25 -28l4 -6h4l6 -8q12 -8 21.5 -17.5t19.5 -15.5q18 -10 40 -15t36 -13h4q25 -6 32 -9.5t19 -3.5h39q6 0 18.5 3t16.5 8l2 2q0 2 3 7t3 7 l2 8q-4 31 -12 53.5t-25 55.5l-30 61q-10 18 -22.5 35.5t-16.5 38.5l-29 80v8q0 4 -2 6h-14q-43 0 -83 18.5t-72 49t-50.5 70.5t-18.5 85v11q0 12 -1 26.5t-1 30.5z" />
<glyph unicode="&#xe8;" horiz-adv-x="602" d="M45 395q0 16 9 24.5t21.5 14.5t24 12.5t17.5 18.5q0 4 5 24.5t9 51t8 65.5t4 66v10l-8 2q-18 10 -36.5 24.5t-18.5 39.5q0 16 13 29.5t30.5 25.5t31 25.5t13.5 31.5q12 55 15 95t6.5 64.5t10.5 37t25 12.5q25 0 45.5 -16.5t20.5 -46.5q0 -29 -8.5 -58.5t-8.5 -58.5h9 q20 10 44.5 20.5t47 18.5t40 13t23.5 5t20.5 -2t14.5 -12q0 -14 -13.5 -30.5t-21.5 -20.5l-61 -39q-35 -23 -75 -45.5t-46 -38.5q-4 -4 -9 -28.5t-11.5 -59.5t-10.5 -74t-4 -72q4 0 9.5 -2t9.5 -2q0 2 31.5 17.5t75.5 35t92 39t83 31.5q8 -4 14.5 -13t6.5 -14 q0 -10 -5.5 -22t-15.5 -16l-86 -41l-188 -119q-16 -10 -26.5 -18.5t-10.5 -43.5q0 -29 5 -59.5t18.5 -56t35 -43t54.5 -17.5q57 0 104 37t84 78l10 12h6q14 0 18.5 -19.5t4.5 -29.5v-8q0 -18 -10 -31q-29 -37 -55.5 -61.5t-54.5 -39t-57.5 -21.5t-66.5 -9l-16 10 q-88 43 -130 101.5t-44 142.5q-23 4 -47.5 15.5t-24.5 37.5zM150 1319q0 12 9 21.5t25 9.5q2 0 20.5 -9.5t42 -25t50.5 -33.5t49 -37l23 -18q18 -16 30.5 -37t14.5 -33q0 -20 -15 -22h-4q-8 0 -15 4t-11 8l-47 43l-138 76q-10 6 -19 17.5t-13 23.5q-2 4 -2 12z" />
<glyph unicode="&#xe9;" horiz-adv-x="602" d="M45 395q0 16 9 24.5t21.5 14.5t24 12.5t17.5 18.5q0 4 5 24.5t9 51t8 65.5t4 66v10l-8 2q-18 10 -36.5 24.5t-18.5 39.5q0 16 13 29.5t30.5 25.5t31 25.5t13.5 31.5q12 55 15 95t6.5 64.5t10.5 37t25 12.5q25 0 45.5 -16.5t20.5 -46.5q0 -29 -8.5 -58.5t-8.5 -58.5h9 q20 10 44.5 20.5t47 18.5t40 13t23.5 5t20.5 -2t14.5 -12q0 -14 -13.5 -30.5t-21.5 -20.5l-61 -39q-35 -23 -75 -45.5t-46 -38.5q-4 -4 -9 -28.5t-11.5 -59.5t-10.5 -74t-4 -72q4 0 9.5 -2t9.5 -2q0 2 31.5 17.5t75.5 35t92 39t83 31.5q8 -4 14.5 -13t6.5 -14 q0 -10 -5.5 -22t-15.5 -16l-86 -41l-188 -119q-16 -10 -26.5 -18.5t-10.5 -43.5q0 -29 5 -59.5t18.5 -56t35 -43t54.5 -17.5q57 0 104 37t84 78l10 12h6q14 0 18.5 -19.5t4.5 -29.5v-8q0 -18 -10 -31q-29 -37 -55.5 -61.5t-54.5 -39t-57.5 -21.5t-66.5 -9l-16 10 q-88 43 -130 101.5t-44 142.5q-23 4 -47.5 15.5t-24.5 37.5zM129 1196q0 4 12.5 15.5t30.5 24.5t42 28.5t46 27.5l23 11q74 41 108.5 59t63.5 18h2q2 -2 5 -3t5 -3l4 -4q0 -4 -3 -9t-5 -7v-11q-70 -35 -133.5 -80.5t-120.5 -95.5q-8 -2 -18.5 -8t-18.5 -6q-23 0 -33 13.5 t-10 29.5z" />
<glyph unicode="&#xea;" horiz-adv-x="602" d="M45 395q0 16 9 24.5t21.5 14.5t24 12.5t17.5 18.5q0 4 5 24.5t9 51t8 65.5t4 66v10l-8 2q-18 10 -36.5 24.5t-18.5 39.5q0 16 13 29.5t30.5 25.5t31 25.5t13.5 31.5q12 55 15 95t6.5 64.5t10.5 37t25 12.5q25 0 45.5 -16.5t20.5 -46.5q0 -29 -8.5 -58.5t-8.5 -58.5h9 q20 10 44.5 20.5t47 18.5t40 13t23.5 5t20.5 -2t14.5 -12q0 -14 -13.5 -30.5t-21.5 -20.5l-61 -39q-35 -23 -75 -45.5t-46 -38.5q-4 -4 -9 -28.5t-11.5 -59.5t-10.5 -74t-4 -72q4 0 9.5 -2t9.5 -2q0 2 31.5 17.5t75.5 35t92 39t83 31.5q8 -4 14.5 -13t6.5 -14 q0 -10 -5.5 -22t-15.5 -16l-86 -41l-188 -119q-16 -10 -26.5 -18.5t-10.5 -43.5q0 -29 5 -59.5t18.5 -56t35 -43t54.5 -17.5q57 0 104 37t84 78l10 12h6q14 0 18.5 -19.5t4.5 -29.5v-8q0 -18 -10 -31q-29 -37 -55.5 -61.5t-54.5 -39t-57.5 -21.5t-66.5 -9l-16 10 q-88 43 -130 101.5t-44 142.5q-23 4 -47.5 15.5t-24.5 37.5zM74 1163q0 23 15 30t30 7h20q8 4 27.5 18.5t34.5 30.5l49 54q14 14 27.5 39.5t23.5 48t20.5 40t18.5 17.5q27 0 47 -21v-6q0 -66 21.5 -112.5t48 -77.5t48 -47.5t21.5 -20.5q0 -12 -14 -20h-41q-53 29 -82 71.5 t-49 92.5q-8 0 -8 -4l-53 -66q-12 -14 -27.5 -31.5t-36 -33t-44.5 -26.5t-50 -11q-12 0 -29.5 7t-17.5 21z" />
<glyph unicode="&#xeb;" horiz-adv-x="602" d="M45 395q0 16 9 24.5t21.5 14.5t24 12.5t17.5 18.5q0 4 5 24.5t9 51t8 65.5t4 66v10l-8 2q-18 10 -36.5 24.5t-18.5 39.5q0 16 13 29.5t30.5 25.5t31 25.5t13.5 31.5q12 55 15 95t6.5 64.5t10.5 37t25 12.5q25 0 45.5 -16.5t20.5 -46.5q0 -29 -8.5 -58.5t-8.5 -58.5h9 q20 10 44.5 20.5t47 18.5t40 13t23.5 5t20.5 -2t14.5 -12q0 -14 -13.5 -30.5t-21.5 -20.5l-61 -39q-35 -23 -75 -45.5t-46 -38.5q-4 -4 -9 -28.5t-11.5 -59.5t-10.5 -74t-4 -72q4 0 9.5 -2t9.5 -2q0 2 31.5 17.5t75.5 35t92 39t83 31.5q8 -4 14.5 -13t6.5 -14 q0 -10 -5.5 -22t-15.5 -16l-86 -41l-188 -119q-16 -10 -26.5 -18.5t-10.5 -43.5q0 -29 5 -59.5t18.5 -56t35 -43t54.5 -17.5q57 0 104 37t84 78l10 12h6q14 0 18.5 -19.5t4.5 -29.5v-8q0 -18 -10 -31q-29 -37 -55.5 -61.5t-54.5 -39t-57.5 -21.5t-66.5 -9l-16 10 q-88 43 -130 101.5t-44 142.5q-23 4 -47.5 15.5t-24.5 37.5zM117 1214q0 23 9 46.5t34 23.5q27 0 45 -24.5t18 -57.5q0 -37 -11 -44t-38 -7q-57 0 -57 63zM360 1208v13q0 25 13.5 44t40.5 19q10 0 22.5 -7t23.5 -19.5t18 -28t7 -29.5q0 -20 -18 -36.5t-45 -16.5 q-20 0 -32.5 7t-18.5 17.5t-8.5 20.5t-2.5 16z" />
<glyph unicode="&#xec;" horiz-adv-x="258" d="M-18 967q0 12 9 21t25 9t26.5 -10t25.5 -20q4 -4 20 -14.5t34.5 -22.5t35 -22.5t20.5 -14.5l23 -19q18 -16 31.5 -36.5t15.5 -32.5q0 -18 -15 -23h-6q-8 0 -14 4.5t-12 8.5l-47 43l-35 22l-101 53q-10 6 -20 17.5t-14 23.5q-2 4 -2 13zM63 629q0 33 7.5 56.5t35.5 23.5 q23 0 41.5 -11.5t24.5 -31.5q-2 -35 -2 -70v-70q0 -98 5 -191t18 -188v-4q8 -18 14 -40.5t6 -43.5q0 -31 -35 -30q-29 0 -46 17t-27.5 41t-14.5 47.5t-4 37.5l-18 256v18.5t-1 37t-1 42v33.5q0 14 -1.5 32.5t-1.5 37.5z" />
<glyph unicode="&#xed;" horiz-adv-x="258" d="M-29 848q0 4 12.5 14t31 24.5t42 30t45.5 27.5l21 10q76 39 110.5 57.5t63.5 18.5h2q2 -2 4 -3t4 -3l4 -4q0 -2 -2 -8t-4 -8v-9q-72 -37 -134 -83t-122 -93q-8 -4 -18.5 -9t-18.5 -5q-20 0 -30.5 13.5t-10.5 29.5zM63 629q0 33 7.5 56.5t35.5 23.5q23 0 41.5 -11.5 t24.5 -31.5q-2 -35 -2 -70v-70q0 -98 5 -191t18 -188v-4q8 -18 14 -40.5t6 -43.5q0 -31 -35 -30q-29 0 -46 17t-27.5 41t-14.5 47.5t-4 37.5l-18 256v18.5t-1 37t-1 42v33.5q0 14 -1.5 32.5t-1.5 37.5z" />
<glyph unicode="&#xee;" horiz-adv-x="258" d="M-131 893q0 23 15.5 30t29.5 7h20q8 4 28 18.5t34 30.5l49 53q14 14 27.5 40t23.5 48.5t20.5 40t18.5 17.5q27 0 47 -21v-6q0 -66 21.5 -113t48.5 -77.5t48.5 -47t21.5 -20.5q0 -12 -15 -21h-41q-53 29 -81.5 72t-49.5 92q-8 0 -8 -4l-53 -65q-12 -14 -27.5 -31.5 t-36 -33t-44 -27t-50.5 -11.5q-12 0 -29.5 7.5t-17.5 21.5zM63 629q0 33 7.5 56.5t35.5 23.5q23 0 41.5 -11.5t24.5 -31.5q-2 -35 -2 -70v-70q0 -98 5 -191t18 -188v-4q8 -18 14 -40.5t6 -43.5q0 -31 -35 -30q-29 0 -46 17t-27.5 41t-14.5 47.5t-4 37.5l-18 256v18.5t-1 37 t-1 42v33.5q0 14 -1.5 32.5t-1.5 37.5z" />
<glyph unicode="&#xef;" horiz-adv-x="258" d="M-70 983q0 23 10.5 46.5t32.5 23.5q29 0 46.5 -24.5t17.5 -57.5q0 -37 -11.5 -44t-37.5 -7q-58 0 -58 63zM63 629q0 33 7.5 56.5t35.5 23.5q23 0 41.5 -11.5t24.5 -31.5q-2 -35 -2 -70v-70q0 -98 5 -191t18 -188v-4q8 -18 14 -40.5t6 -43.5q0 -31 -35 -30q-29 0 -46 17 t-27.5 41t-14.5 47.5t-4 37.5l-18 256v18.5t-1 37t-1 42v33.5q0 14 -1.5 32.5t-1.5 37.5zM176 977v12q0 25 12.5 44.5t40.5 19.5q20 0 45 -28t25 -56q0 -20 -17.5 -37t-43.5 -17q-20 0 -32.5 7.5t-19 17.5t-8.5 20.5t-2 16.5z" />
<glyph unicode="&#xf0;" horiz-adv-x="790" d="M39 342q0 63 36 109.5t90 76t117.5 43t118.5 13.5q53 0 106.5 -8.5t102.5 -22.5q4 4 9.5 28.5t5.5 39.5l-31 194q-6 12 -12 25q-4 10 -8.5 20t-8.5 17l-47 84q-4 8 -14 20t-19.5 23.5t-15.5 20.5l-6 9l-8 -2q-12 -2 -28.5 -25.5t-34 -56t-34 -70.5t-26.5 -67 q-6 -12 -8 -25.5t-8.5 -22.5t-17.5 -15.5t-32 -6.5q-16 0 -29.5 6.5t-17.5 24.5l-2 2q25 92 73 170t103 152v8l-100 84q-2 0 -9.5 5t-9.5 7l-104 66q0 4 -1 8t-1 8q0 20 15.5 26.5t27.5 6.5q29 -2 63 -23l58 -32q35 -20 63.5 -53t63.5 -50l90 64l72 37q8 2 22 7t31 11 q18 8 37 14h6q10 0 22.5 -2t20.5 -8l2 -4q0 -10 -25.5 -27.5t-60.5 -38t-72 -42t-57 -40.5q-4 -4 -13.5 -12t-13.5 -16l17 -21q31 -39 62.5 -84t56 -100t41 -123.5t16.5 -155.5q0 -29 -4 -60.5t-11 -74.5q2 -16 4.5 -29.5t2.5 -23.5q0 -35 -14.5 -50t-35.5 -44l-12 -29 q-25 -47 -53.5 -97t-66.5 -91t-87 -67.5t-112 -26.5q-55 0 -103.5 25.5t-85.5 65.5t-60.5 91t-31.5 100q-2 10 -3 18.5t-1 16.5zM129 340q0 -6 1 -14.5t3 -18.5q12 -72 47 -120t101 -81q14 -10 20 -14t18 -4q47 0 85 23.5t69 60.5t52.5 80t35.5 84l31 88q2 10 2 25v8 q-4 14 -21.5 26.5t-44 20.5t-59.5 12t-66 4q-49 0 -98 -10t-88 -32.5t-63.5 -56.5t-24.5 -81z" />
<glyph unicode="&#xf1;" horiz-adv-x="628" d="M37 772q0 16 14.5 25.5t30.5 9.5q41 0 54.5 -39t21.5 -88l18 -111q18 33 23.5 83t13.5 104.5t26.5 105.5t61.5 82h31q39 0 66.5 -21.5t46 -54t29.5 -71.5t22 -72l4 -12q23 -92 38 -184.5t29 -188.5q6 -53 9.5 -103.5t17.5 -101.5q-27 -16 -62 -16q-25 0 -32.5 25.5 t-12.5 54.5q-10 78 -18 155.5t-19.5 155.5t-30 154.5t-48.5 150.5l-17 33l-4 4q-2 0 -2 1t-2 1t-2 2q-2 0 -4 -4t-4 -4l-17 -33q-33 -66 -39 -135.5t-14 -138.5l-6 -58q-6 -53 -13 -128.5t-14 -166.5v-6q0 -4 4.5 -23.5t4.5 -23.5v-12q0 -12 -8.5 -28.5t-24.5 -16.5 q-12 0 -37 5t-33 36q-12 53 -14 106.5t-8 106.5l-35 278q-8 41 -17.5 75t-21.5 71zM94 1135q0 2 1 13t3 15l6 17q29 35 47.5 45t51.5 10q27 0 46 -14.5t35.5 -34l33 -39t38.5 -29.5q10 10 16.5 29.5t6.5 48.5q0 10 -1 17.5t-1 11.5q6 6 12 11t17 5q31 0 37 -21.5t6 -31.5 t-3.5 -31.5t-12.5 -43t-25.5 -37t-42.5 -15.5q-33 0 -53.5 18.5t-38 41t-34 41t-42.5 18.5h-4q-41 -12 -41 -56q0 -14 4 -21t4 -18q0 -16 -8.5 -20t-16.5 -4q-12 0 -20.5 10t-12.5 22.5t-6 25t-2 16.5z" />
<glyph unicode="&#xf2;" d="M53 477q0 78 22.5 182.5t62.5 198.5t97.5 159.5t129.5 65.5h16q27 0 49 -10l10 -8q10 -16 28.5 -29.5t35.5 -31.5q53 -61 75.5 -137t22.5 -150q0 -53 -9 -106.5t-32 -102.5q-16 -35 -48 -78t-74 -80t-90 -61.5t-97 -24.5q-55 0 -93 18.5t-61.5 48t-34 67.5t-10.5 79z M156 492q2 -37 5 -61.5t9 -41t17.5 -27t29.5 -20.5h16q25 0 50.5 11.5t44.5 25.5q98 74 137 167t39 202q0 39 -9.5 76.5t-24.5 68.5t-33.5 53.5t-37.5 30.5h-10l-49 -25l-53 -43l-41 -69q-45 -78 -63.5 -163t-26.5 -169v-16zM260 1296q0 12 9.5 21.5t25.5 9.5t26.5 -10 t24.5 -21q4 -4 20.5 -14t35 -22.5t35 -22.5t20.5 -14l22 -19q18 -16 31.5 -37.5t15.5 -31.5q0 -18 -14 -23h-6q-10 0 -27 12l-47 43l-35 23l-100 51q-10 6 -20.5 17.5t-14.5 23.5q-2 6 -2 14z" />
<glyph unicode="&#xf3;" d="M53 477q0 78 22.5 182.5t62.5 198.5t97.5 159.5t129.5 65.5h16q27 0 49 -10l10 -8q10 -16 28.5 -29.5t35.5 -31.5q53 -61 75.5 -137t22.5 -150q0 -53 -9 -106.5t-32 -102.5q-16 -35 -48 -78t-74 -80t-90 -61.5t-97 -24.5q-55 0 -93 18.5t-61.5 48t-34 67.5t-10.5 79z M152 1196q0 4 12 15.5t31.5 24.5t42 28.5t45.5 27.5l22 11q76 41 110 59t64 18q2 -2 5 -3t5 -3l5 -4q0 -4 -3.5 -9t-3.5 -7v-11q-72 -35 -135 -80.5t-121 -95.5q-8 -2 -18 -8t-18 -6q-20 0 -31.5 13.5t-11.5 29.5zM156 492q2 -37 5 -61.5t9 -41t17.5 -27t29.5 -20.5h16 q25 0 50.5 11.5t44.5 25.5q98 74 137 167t39 202q0 39 -9.5 76.5t-24.5 68.5t-33.5 53.5t-37.5 30.5h-10l-49 -25l-53 -43l-41 -69q-45 -78 -63.5 -163t-26.5 -169v-16z" />
<glyph unicode="&#xf4;" d="M53 477q0 78 22.5 182.5t62.5 198.5t97.5 159.5t129.5 65.5h16q27 0 49 -10l10 -8q10 -16 28.5 -29.5t35.5 -31.5q53 -61 75.5 -137t22.5 -150q0 -53 -9 -106.5t-32 -102.5q-16 -35 -48 -78t-74 -80t-90 -61.5t-97 -24.5q-55 0 -93 18.5t-61.5 48t-34 67.5t-10.5 79z M127 1145q0 23 15.5 30t31.5 7h19q8 4 27.5 18t33.5 31l49 53q16 18 32.5 42t26.5 50q8 20 9.5 37t23.5 17q27 0 45 -21v-4q0 -66 21.5 -114t48.5 -78.5t48.5 -47t21.5 -20.5q0 -14 -13 -19h-43q-53 29 -80.5 71t-50.5 93q-6 0 -6 -6l-55 -65q-10 -14 -25.5 -32t-36 -33 t-45 -26.5t-49.5 -11.5q-12 0 -30.5 7.5t-18.5 21.5zM156 492q2 -37 5 -61.5t9 -41t17.5 -27t29.5 -20.5h16q25 0 50.5 11.5t44.5 25.5q98 74 137 167t39 202q0 39 -9.5 76.5t-24.5 68.5t-33.5 53.5t-37.5 30.5h-10l-49 -25l-53 -43l-41 -69q-45 -78 -63.5 -163t-26.5 -169 v-16z" />
<glyph unicode="&#xf5;" d="M53 477q0 78 22.5 182.5t62.5 198.5t97.5 159.5t129.5 65.5h16q27 0 49 -10l10 -8q10 -16 28.5 -29.5t35.5 -31.5q53 -61 75.5 -137t22.5 -150q0 -53 -9 -106.5t-32 -102.5q-16 -35 -48 -78t-74 -80t-90 -61.5t-97 -24.5q-55 0 -93 18.5t-61.5 48t-34 67.5t-10.5 79z M156 492q2 -37 5 -61.5t9 -41t17.5 -27t29.5 -20.5h16q25 0 50.5 11.5t44.5 25.5q98 74 137 167t39 202q0 39 -9.5 76.5t-24.5 68.5t-33.5 53.5t-37.5 30.5h-10l-49 -25l-53 -43l-41 -69q-45 -78 -63.5 -163t-26.5 -169v-16zM190 1219q0 2 1.5 13t3.5 15l6 17q29 35 47 45 t51 10q27 0 46.5 -14.5t35.5 -34t32.5 -39t39.5 -29.5q10 10 16 29.5t6 48.5q0 8 -1 16.5t-1 10.5q12 16 29 16q33 0 38 -20.5t5 -30.5q0 -12 -3 -32.5t-12.5 -42t-25 -37t-41.5 -15.5q-35 0 -55.5 18.5t-37 41t-34 41t-43.5 18.5h-4q-20 -6 -29.5 -21.5t-9.5 -34.5 q0 -14 3 -22t3 -19q0 -14 -8 -18t-17 -4q-12 0 -19 10t-12 22.5t-7.5 25t-2.5 16.5z" />
<glyph unicode="&#xf6;" d="M53 477q0 78 22.5 182.5t62.5 198.5t97.5 159.5t129.5 65.5h16q27 0 49 -10l10 -8q10 -16 28.5 -29.5t35.5 -31.5q53 -61 75.5 -137t22.5 -150q0 -53 -9 -106.5t-32 -102.5q-16 -35 -48 -78t-74 -80t-90 -61.5t-97 -24.5q-55 0 -93 18.5t-61.5 48t-34 67.5t-10.5 79z M156 492q2 -37 5 -61.5t9 -41t17.5 -27t29.5 -20.5h16q25 0 50.5 11.5t44.5 25.5q98 74 137 167t39 202q0 39 -9.5 76.5t-24.5 68.5t-33.5 53.5t-37.5 30.5h-10l-49 -25l-53 -43l-41 -69q-45 -78 -63.5 -163t-26.5 -169v-16zM190 1208q0 23 9.5 46.5t33.5 23.5 q27 0 45.5 -24.5t18.5 -57.5q0 -37 -11.5 -45t-37.5 -8q-58 -1 -58 65zM434 1200v14q0 25 13.5 44.5t39.5 19.5q20 0 46 -27.5t26 -58.5q0 -18 -18.5 -34.5t-44.5 -16.5q-20 0 -32.5 7t-19 17.5t-8.5 20.5t-2 14z" />
<glyph unicode="&#xf7;" horiz-adv-x="610" d="M45 520q0 25 51 40t122 22.5t147.5 9.5t128.5 2q27 0 49 -4t22 -19v-4q-16 -20 -21 -25t-32 -10l-53 -8q-59 -10 -118.5 -14t-117.5 -18q-33 -8 -61.5 -18.5t-63.5 -10.5q-23 0 -34 14t-19 43zM217 743q0 16 11.5 30.5t26.5 25t32.5 16.5t29.5 6q25 0 39.5 -19.5 t14.5 -47.5v-4q-8 -29 -17.5 -42.5t-20.5 -19.5t-22.5 -7t-25.5 -3h-15q-25 0 -39 20t-14 45zM236 350q0 16 11 30.5t26.5 25t33 16.5t29.5 6q25 0 39 -19.5t14 -48.5v-4q-8 -29 -17.5 -42t-20.5 -19t-22.5 -7t-25.5 -3h-14q-27 0 -39 20t-14 45z" />
<glyph unicode="&#xf8;" d="M53 477q0 51 10.5 115.5t29 132.5t45 131.5t60 113.5t74.5 80.5t88 32.5l7 80q10 10 17 20.5t17 10.5q23 0 43.5 -15.5t26.5 -27.5l4 -12q-4 -25 -8 -48.5t-8 -48.5q78 -70 110.5 -151.5t32.5 -173.5q0 -53 -9 -107.5t-32 -101.5q-16 -33 -44 -71t-64.5 -73.5 t-79.5 -62.5t-88 -35l-11 -39q-23 -35 -30.5 -69.5t-13 -64.5t-13.5 -52.5t-27 -34.5l-18 31q-4 0 -4 39q0 29 4 78t18 116q-76 20 -106.5 79t-30.5 128zM156 492q2 -35 4 -58.5t8 -39t15.5 -27t25.5 -19.5q8 39 21.5 80t27.5 92q29 104 51.5 214t38.5 222l-61 -47l-41 -69 q-45 -78 -63.5 -163t-26.5 -169v-16zM315 369l13 10q98 74 137 167t39 202q0 53 -18.5 102t-41.5 84q-16 -145 -53 -285.5t-76 -279.5z" />
<glyph unicode="&#xf9;" horiz-adv-x="688" d="M51 365q0 49 1 69.5t9 44.5q6 45 10.5 84t10.5 80t14 87t21 106q2 16 3 38.5t5 44t13 37t32 15.5h16q14 -10 26.5 -24.5t12.5 -31.5v-10q0 -25 -8 -48t-12 -48q-8 -35 -14.5 -63.5t-12.5 -58.5t-11 -65.5t-7 -84.5q-4 -47 -10.5 -91.5t-6.5 -89.5v-20q0 -23 9 -29 q31 8 56 31.5t42 46.5l45 61l53 91q4 4 10.5 15t8.5 15q18 23 23 33t9 22.5t12.5 34t30.5 68.5q4 18 18.5 45t35.5 94q6 25 7 54.5t17 52.5l19 12q4 4 10 7t8 3l37 -16q4 -2 10 -8l8 -8v-56q0 -2 -4 -19.5t-6 -21.5q-16 -86 -21.5 -172t-5.5 -178q0 -102 5.5 -207.5 t40.5 -204.5q4 -14 12 -29.5t8 -19.5t-1 -10t-9 -6h-64q-10 0 -20 21.5t-19.5 53t-16.5 68.5t-12 70t-9.5 54.5t-4.5 23.5v16q0 14 -1 49t-2 74t-2 73.5t-1 49.5l-22 -35q-23 -43 -52.5 -99.5t-66.5 -107.5t-82 -87t-96 -36q-63 0 -86 38t-23 102zM244 1233q0 12 9 21.5 t26 9.5q4 0 22 -9.5t42 -25t49.5 -33.5t47.5 -37l23 -18q18 -16 31.5 -38t15.5 -34q0 -16 -14 -20h-7q-10 0 -26 12l-47 41q-2 4 -16.5 12t-18.5 12l-100 52q-10 6 -20.5 17.5t-14.5 23.5q-2 6 -2 14z" />
<glyph unicode="&#xfa;" horiz-adv-x="688" d="M51 365q0 49 1 69.5t9 44.5q6 45 10.5 84t10.5 80t14 87t21 106q2 16 3 38.5t5 44t13 37t32 15.5h16q14 -10 26.5 -24.5t12.5 -31.5v-10q0 -25 -8 -48t-12 -48q-8 -35 -14.5 -63.5t-12.5 -58.5t-11 -65.5t-7 -84.5q-4 -47 -10.5 -91.5t-6.5 -89.5v-20q0 -23 9 -29 q31 8 56 31.5t42 46.5l45 61l53 91q4 4 10.5 15t8.5 15q18 23 23 33t9 22.5t12.5 34t30.5 68.5q4 18 18.5 45t35.5 94q6 25 7 54.5t17 52.5l19 12q4 4 10 7t8 3l37 -16q4 -2 10 -8l8 -8v-56q0 -2 -4 -19.5t-6 -21.5q-16 -86 -21.5 -172t-5.5 -178q0 -102 5.5 -207.5 t40.5 -204.5q4 -14 12 -29.5t8 -19.5t-1 -10t-9 -6h-64q-10 0 -20 21.5t-19.5 53t-16.5 68.5t-12 70t-9.5 54.5t-4.5 23.5v16q0 14 -1 49t-2 74t-2 73.5t-1 49.5l-22 -35q-23 -43 -52.5 -99.5t-66.5 -107.5t-82 -87t-96 -36q-63 0 -86 38t-23 102zM182 1133q0 4 12.5 14 t31 24.5t42 30t45.5 27.5l21 10q76 39 110.5 57.5t63.5 18.5h2q4 0 8 -4l4 -4q0 -4 -2 -10.5t-4 -6.5v-10q-72 -35 -134.5 -82t-121.5 -94q-8 -2 -18.5 -8t-16.5 -6q-23 0 -33 13.5t-10 29.5z" />
<glyph unicode="&#xfb;" horiz-adv-x="688" d="M51 365q0 49 1 69.5t9 44.5q6 45 10.5 84t10.5 80t14 87t21 106q2 16 3 38.5t5 44t13 37t32 15.5h16q14 -10 26.5 -24.5t12.5 -31.5v-10q0 -25 -8 -48t-12 -48q-8 -35 -14.5 -63.5t-12.5 -58.5t-11 -65.5t-7 -84.5q-4 -47 -10.5 -91.5t-6.5 -89.5v-20q0 -23 9 -29 q31 8 56 31.5t42 46.5l45 61l53 91q4 4 10.5 15t8.5 15q18 23 23 33t9 22.5t12.5 34t30.5 68.5q4 18 18.5 45t35.5 94q6 25 7 54.5t17 52.5l19 12q4 4 10 7t8 3l37 -16q4 -2 10 -8l8 -8v-56q0 -2 -4 -19.5t-6 -21.5q-16 -86 -21.5 -172t-5.5 -178q0 -102 5.5 -207.5 t40.5 -204.5q4 -14 12 -29.5t8 -19.5t-1 -10t-9 -6h-64q-10 0 -20 21.5t-19.5 53t-16.5 68.5t-12 70t-9.5 54.5t-4.5 23.5v16q0 14 -1 49t-2 74t-2 73.5t-1 49.5l-22 -35q-23 -43 -52.5 -99.5t-66.5 -107.5t-82 -87t-96 -36q-63 0 -86 38t-23 102zM143 1118q0 25 14.5 31 t30.5 6h21q6 4 25.5 18.5t33.5 30.5l49 53q33 37 60 93q8 20 9 37.5t24 17.5q27 0 45 -23v-4q0 -66 21.5 -113.5t48 -78.5t48 -47.5t21.5 -20.5q0 -14 -12 -18h-43q-53 29 -81 70.5t-50 93.5q-6 0 -7 -7l-53 -65q-12 -14 -28.5 -31.5t-36 -33t-43 -26.5t-50.5 -11 q-12 0 -29.5 8t-17.5 20z" />
<glyph unicode="&#xfc;" horiz-adv-x="688" d="M51 365q0 49 1 69.5t9 44.5q6 45 10.5 84t10.5 80t14 87t21 106q2 16 3 38.5t5 44t13 37t32 15.5h16q14 -10 26.5 -24.5t12.5 -31.5v-10q0 -25 -8 -48t-12 -48q-8 -35 -14.5 -63.5t-12.5 -58.5t-11 -65.5t-7 -84.5q-4 -47 -10.5 -91.5t-6.5 -89.5v-20q0 -23 9 -29 q31 8 56 31.5t42 46.5l45 61l53 91q4 4 10.5 15t8.5 15q18 23 23 33t9 22.5t12.5 34t30.5 68.5q4 18 18.5 45t35.5 94q6 25 7 54.5t17 52.5l19 12q4 4 10 7t8 3l37 -16q4 -2 10 -8l8 -8v-56q0 -2 -4 -19.5t-6 -21.5q-16 -86 -21.5 -172t-5.5 -178q0 -102 5.5 -207.5 t40.5 -204.5q4 -14 12 -29.5t8 -19.5t-1 -10t-9 -6h-64q-10 0 -20 21.5t-19.5 53t-16.5 68.5t-12 70t-9.5 54.5t-4.5 23.5v16q-4 14 -5 49t-1 74v73.5v49.5l-22 -35q-23 -43 -52.5 -99.5t-66.5 -107.5t-82 -87t-96 -36q-63 0 -86 38t-23 102zM215 1184q0 23 9 47t34 24 q27 0 45.5 -24.5t18.5 -56.5q0 -37 -11.5 -45.5t-38.5 -8.5q-57 1 -57 64zM459 1178v14q0 25 13 44t40 19q10 0 22.5 -8t23.5 -20.5t18.5 -27.5t7.5 -30q0 -20 -18.5 -35.5t-45.5 -15.5q-20 0 -32.5 7.5t-18.5 17.5t-8 20.5t-2 14.5z" />
<glyph unicode="&#xfd;" horiz-adv-x="684" d="M45 551v14q0 66 10.5 126.5t24.5 123.5q12 49 22.5 76t22.5 39t26.5 14t32.5 2q10 0 17.5 -2t15.5 -14l21 -25q0 -18 -19.5 -33.5t-25.5 -31.5q-10 -23 -18.5 -50.5t-16.5 -54t-12.5 -51.5t-4.5 -39v-174q0 -43 32 -80t83 -37q23 0 45.5 11.5t44 28t39.5 34.5t31 35 q37 35 54 85t34 91v156q0 41 7 77.5t42 36.5q23 0 37 -13t18 -32l-10 -164v-118q0 -158 16.5 -309.5t16.5 -309.5v-39q0 -137 -5 -280.5t-10 -302.5v-9q-8 -31 -9 -64.5t-6 -61t-21.5 -46t-57.5 -18.5q-14 0 -17 8.5t-3 18.5q0 25 8 48t10 48q0 6 2 24.5t3 39t2 40t1 27.5 v84q0 6 2 33.5t3.5 58.5t3.5 57.5t2 32.5v117q0 6 1 31.5t2 53t2 52.5t1 31v8q0 6 -1 34.5t-2 61.5t-2 61.5t-1 34.5v62l-27 227h-2q-2 0 -3 1t-3 1q-41 -55 -101.5 -105t-142.5 -50h-35q-10 0 -38.5 9t-36.5 15l-62 58l-25 41q-14 33 -16 71.5t-2 73.5zM176 1094 q0 4 12.5 15t31 25.5t42 30t45.5 27.5l21 8q76 41 110.5 59.5t63.5 18.5h2q2 -2 4 -3t4 -3l4 -4q0 -2 -2 -8.5t-4 -8.5v-10q-72 -35 -134.5 -81t-121.5 -93q-8 -4 -18.5 -9t-18.5 -5q-20 0 -30.5 12.5t-10.5 28.5z" />
<glyph unicode="&#xfe;" horiz-adv-x="555" d="M4 311v13q0 4 6 4q8 0 23.5 -6.5t36.5 -16.5q0 14 1 26.5t3 24.5v383q0 29 -5.5 79t-5.5 95q0 41 8.5 70t37.5 29h18q37 0 46 -11.5t11 -27.5l6 -10v-14.5t-1 -23t-2 -23.5t-3 -13q4 -37 6.5 -75t2.5 -77q8 0 15 1t17 1q74 0 128.5 -44t92 -100t58 -109.5t26.5 -71.5 q4 -4 5.5 -18.5t1.5 -35.5q0 -12 -1 -32.5t-1 -22.5q0 -25 -20.5 -48.5t-53.5 -41.5t-75 -28.5t-85 -10.5q-70 0 -127 23v-23q0 -23 2 -33v-96q0 -27 3 -45t3 -33q0 -16 -4 -29.5t-16 -25.5q-2 0 -6 3t-6 5q-33 23 -50.5 51.5t-25.5 60.5t-10.5 64.5t-2.5 65.5q0 23 1 45 t4 45q-20 16 -41 31.5t-21 25.5zM176 258q33 -14 68 -23.5t69 -9.5h15q33 0 54 14.5t33.5 34t17.5 41t5 33.5q0 78 -40 156t-111 143q0 4 -8.5 11.5t-20.5 13.5t-25.5 11t-21.5 7l-8 -12v-27q0 -70 20.5 -138.5t34.5 -135.5v-12l-76 57q-6 -84 -6 -164z" />
<glyph unicode="&#xff;" horiz-adv-x="684" d="M45 551v14q0 66 10.5 126.5t24.5 123.5q12 49 22.5 76t22.5 39t26.5 14t32.5 2q10 0 17.5 -2t15.5 -14l21 -25q0 -18 -19.5 -33.5t-25.5 -31.5q-10 -23 -18.5 -50.5t-16.5 -54t-12.5 -51.5t-4.5 -39v-174q0 -43 32 -80t83 -37q23 0 45.5 11.5t44 28t39.5 34.5t31 35 q37 35 54 85t34 91v156q0 41 7 77.5t42 36.5q23 0 37 -13t18 -32l-10 -164v-118q0 -158 16.5 -309.5t16.5 -309.5v-39q0 -137 -5 -280.5t-10 -302.5v-9q-8 -31 -9 -64.5t-6 -61t-21.5 -46t-57.5 -18.5q-14 0 -17 8.5t-3 18.5q0 25 8 48t10 48q0 6 2 24.5t3 39t2 40t1 27.5 v84q0 6 2 33.5t3.5 58.5t3.5 57.5t2 32.5v117q0 6 1 31.5t2 53t2 52.5t1 31v8q0 6 -1 34.5t-2 61.5t-2 61.5t-1 34.5v62l-27 227h-2q-2 0 -3 1t-3 1q-41 -55 -101.5 -105t-142.5 -50h-35q-10 0 -38.5 9t-36.5 15l-62 58l-25 41q-14 33 -16 71.5t-2 73.5zM193 1110 q0 23 10 46.5t33 23.5q29 0 46 -25t17 -57q0 -37 -11.5 -45.5t-37.5 -8.5q-57 0 -57 66zM438 1102v14q0 25 12.5 44.5t41.5 19.5q20 0 44.5 -28t24.5 -58q0 -18 -17.5 -35t-43.5 -17q-20 0 -32.5 7.5t-19 17.5t-8.5 20.5t-2 14.5z" />
<glyph unicode="&#x152;" horiz-adv-x="991" d="M53 477q0 78 22.5 182.5t62.5 198.5t97.5 159.5t129.5 65.5h16q27 0 49 -10l10 -8q10 -16 28.5 -29.5t35.5 -31.5q31 -37 49 -78t33 -86q4 8 4 16q12 55 15 94t6 64.5t10.5 37t25.5 11.5q25 0 44.5 -15.5t19.5 -46.5q0 -29 -8.5 -59.5t-8.5 -58.5h8q20 10 45 21 t47.5 19.5t40 13.5t23.5 5t21.5 -2t15.5 -12q0 -16 -13.5 -32.5t-23.5 -21.5l-59 -36q-37 -23 -77 -46.5t-46 -39.5q-4 -4 -9 -29t-10.5 -58.5t-9.5 -72.5t-4 -72q2 0 8 -2t8 -2q0 2 32 17.5t77 35t93 39t83 31.5q8 -4 13.5 -13.5t5.5 -15.5q0 -10 -4.5 -21t-14.5 -16 l-88 -43l-188 -116q-16 -10 -25.5 -18.5t-9.5 -43.5q0 -29 5 -59.5t18.5 -56t35 -43t53.5 -17.5q57 0 103.5 37t85.5 78l10 10h4q16 0 19.5 -19.5t3.5 -29.5v-8q0 -8 -1 -14.5t-7 -14.5q-31 -39 -57.5 -63.5t-54.5 -39t-57.5 -20.5t-64.5 -8l-18 10q-2 0 -13.5 3t-13.5 5 q-74 41 -108.5 102.5t-38.5 133.5q-18 4 -40 12t-28 27q-47 -47 -103.5 -80t-113.5 -33q-55 0 -93 18.5t-61.5 48t-34 67.5t-10.5 79zM156 492q2 -37 5 -61.5t9 -41t17.5 -27t29.5 -20.5h16q25 0 50.5 11.5t44.5 25.5q92 70 132 159t44 189q-2 6 -2 14q0 6 2 9 q0 39 -10.5 75.5t-25.5 68.5t-33.5 53.5t-35.5 29.5h-10l-49 -25l-53 -43l-41 -69q-45 -78 -63.5 -163t-26.5 -169v-16z" />
<glyph unicode="&#x153;" horiz-adv-x="991" d="M53 477q0 78 22.5 182.5t62.5 198.5t97.5 159.5t129.5 65.5h16q27 0 49 -10l10 -8q10 -16 28.5 -29.5t35.5 -31.5q31 -37 49 -78t33 -86q4 8 4 16q12 55 15 94t6 64.5t10.5 37t25.5 11.5q25 0 44.5 -15.5t19.5 -46.5q0 -29 -8.5 -59.5t-8.5 -58.5h8q20 10 45 21 t47.5 19.5t40 13.5t23.5 5t21.5 -2t15.5 -12q0 -16 -13.5 -32.5t-23.5 -21.5l-59 -36q-37 -23 -77 -46.5t-46 -39.5q-4 -4 -9 -29t-10.5 -58.5t-9.5 -72.5t-4 -72q2 0 8 -2t8 -2q0 2 32 17.5t77 35t93 39t83 31.5q8 -4 13.5 -13.5t5.5 -15.5q0 -10 -4.5 -21t-14.5 -16 l-88 -43l-188 -116q-16 -10 -25.5 -18.5t-9.5 -43.5q0 -29 5 -59.5t18.5 -56t35 -43t53.5 -17.5q57 0 103.5 37t85.5 78l10 10h4q16 0 19.5 -19.5t3.5 -29.5v-8q0 -8 -1 -14.5t-7 -14.5q-31 -39 -57.5 -63.5t-54.5 -39t-57.5 -20.5t-64.5 -8l-18 10q-2 0 -13.5 3t-13.5 5 q-74 41 -108.5 102.5t-38.5 133.5q-18 4 -40 12t-28 27q-47 -47 -103.5 -80t-113.5 -33q-55 0 -93 18.5t-61.5 48t-34 67.5t-10.5 79zM156 492q2 -37 5 -61.5t9 -41t17.5 -27t29.5 -20.5h16q25 0 50.5 11.5t44.5 25.5q92 70 132 159t44 189q-2 6 -2 14q0 6 2 9 q0 39 -10.5 75.5t-25.5 68.5t-33.5 53.5t-35.5 29.5h-10l-49 -25l-53 -43l-41 -69q-45 -78 -63.5 -163t-26.5 -169v-16z" />
<glyph unicode="&#x178;" horiz-adv-x="684" d="M45 551v14q0 66 10.5 126.5t24.5 123.5q12 49 22.5 76t22.5 39t26.5 14t32.5 2q10 0 17.5 -2t15.5 -14l21 -25q0 -18 -19.5 -33.5t-25.5 -31.5q-10 -23 -18.5 -50.5t-16.5 -54t-12.5 -51.5t-4.5 -39v-174q0 -43 32 -80t83 -37q23 0 45.5 11.5t44 28t39.5 34.5t31 35 q37 35 54 85t34 91v156q0 41 7 77.5t42 36.5q23 0 37 -13t18 -32l-10 -164v-118q0 -158 16.5 -309.5t16.5 -309.5v-39q0 -137 -5 -280.5t-10 -302.5v-9q-8 -31 -9 -64.5t-6 -61t-21.5 -46t-57.5 -18.5q-14 0 -17 8.5t-3 18.5q0 25 8 48t10 48q0 6 2 24.5t3 39t2 40t1 27.5 v84q0 6 2 33.5t3.5 58.5t3.5 57.5t2 32.5v117q0 6 1 31.5t2 53t2 52.5t1 31v8q0 6 -1 34.5t-2 61.5t-2 61.5t-1 34.5v62l-27 227h-2q-2 0 -3 1t-3 1q-41 -55 -101.5 -105t-142.5 -50h-35q-10 0 -38.5 9t-36.5 15l-62 58l-25 41q-14 33 -16 71.5t-2 73.5zM193 1110 q0 23 10 46.5t33 23.5q29 0 46 -25t17 -57q0 -37 -11.5 -45.5t-37.5 -8.5q-57 0 -57 66zM438 1102v14q0 25 12.5 44.5t41.5 19.5q20 0 44.5 -28t24.5 -58q0 -18 -17.5 -35t-43.5 -17q-20 0 -32.5 7.5t-19 17.5t-8.5 20.5t-2 14.5z" />
<glyph unicode="&#x2c6;" horiz-adv-x="583" d="M66 1163q0 23 15 30t30 7h20q8 4 27.5 18.5t34.5 30.5l49 54q14 14 27.5 39.5t23.5 48t20.5 40t18.5 17.5q27 0 47 -21v-6q0 -66 21.5 -112.5t48 -77.5t48 -47.5t21.5 -20.5q0 -12 -14 -20h-41q-53 29 -82 71.5t-49 92.5q-8 0 -8 -4l-54 -66q-12 -14 -27.5 -31.5t-36 -33 t-44 -26.5t-49.5 -11q-12 0 -29.5 7t-17.5 21z" />
<glyph unicode="&#x2dc;" horiz-adv-x="487" d="M66 1237q0 2 2 12.5t2 16.5l8 16q27 35 45 45t53 10q27 0 46.5 -14t34.5 -33.5t31.5 -39t39.5 -29.5q23 23 22 77q0 8 -1 16.5t-1 10.5q12 16 29 16q33 0 39 -20.5t6 -30.5q0 -12 -3 -32.5t-12.5 -42t-25.5 -37t-43 -15.5q-33 0 -53.5 18.5t-38 41t-34.5 41t-44 18.5h-4 q-39 -12 -39 -57q0 -12 3 -20.5t3 -18.5q0 -14 -7 -18.5t-18 -4.5q-12 0 -19 10.5t-12 22.5t-7 24.5t-2 16.5z" />
<glyph unicode="&#x2000;" horiz-adv-x="776" />
<glyph unicode="&#x2001;" horiz-adv-x="1552" />
<glyph unicode="&#x2002;" horiz-adv-x="776" />
<glyph unicode="&#x2003;" horiz-adv-x="1552" />
<glyph unicode="&#x2004;" horiz-adv-x="517" />
<glyph unicode="&#x2005;" horiz-adv-x="388" />
<glyph unicode="&#x2006;" horiz-adv-x="258" />
<glyph unicode="&#x2007;" horiz-adv-x="258" />
<glyph unicode="&#x2008;" horiz-adv-x="194" />
<glyph unicode="&#x2009;" horiz-adv-x="310" />
<glyph unicode="&#x200a;" horiz-adv-x="86" />
<glyph unicode="&#x2010;" horiz-adv-x="610" d="M45 520q0 25 51 40t122 22.5t147.5 9.5t128.5 2q27 0 49 -4t22 -19v-4q-16 -20 -21 -25t-32 -10l-53 -8q-59 -10 -118.5 -14t-117.5 -18q-33 -8 -61.5 -18.5t-63.5 -10.5q-23 0 -34 14t-19 43z" />
<glyph unicode="&#x2011;" horiz-adv-x="610" d="M45 520q0 25 51 40t122 22.5t147.5 9.5t128.5 2q27 0 49 -4t22 -19v-4q-16 -20 -21 -25t-32 -10l-53 -8q-59 -10 -118.5 -14t-117.5 -18q-33 -8 -61.5 -18.5t-63.5 -10.5q-23 0 -34 14t-19 43z" />
<glyph unicode="&#x2012;" horiz-adv-x="610" d="M45 520q0 25 51 40t122 22.5t147.5 9.5t128.5 2q27 0 49 -4t22 -19v-4q-16 -20 -21 -25t-32 -10l-53 -8q-59 -10 -118.5 -14t-117.5 -18q-33 -8 -61.5 -18.5t-63.5 -10.5q-23 0 -34 14t-19 43z" />
<glyph unicode="&#x2013;" horiz-adv-x="1114" d="M45 520q0 25 100.5 40t240 22.5t290.5 9.5t253 2q53 0 96.5 -4t43.5 -19v-4q-32 -20 -41.5 -25t-62.5 -10l-105 -8q-116 -10 -233 -14t-231 -18q-65 -8 -121.5 -18.5t-125.5 -10.5q-45 0 -66.5 14t-37.5 43z" />
<glyph unicode="&#x2014;" horiz-adv-x="2138" d="M45 520q0 25 201 40t480.5 22.5t581 9.5t505.5 2q107 0 193.5 -4t86.5 -19v-4q-63 -20 -82.5 -25t-126.5 -10l-208 -8q-233 -10 -467.5 -14t-462.5 -18q-130 -8 -242 -18.5t-250 -10.5q-91 0 -134 14t-75 43z" />
<glyph unicode="&#x2018;" horiz-adv-x="239" d="M66 905v117q4 47 30.5 87t67.5 40h10q-14 -35 -25.5 -80t-11.5 -82q0 -25 3 -52.5t8.5 -54t8.5 -49t3 -36.5q0 -16 -23 -27l-2 -2q-25 0 -39 13.5t-20 35t-8 45t-2 45.5z" />
<glyph unicode="&#x2019;" horiz-adv-x="239" d="M66 766q14 35 25 80t11 84q0 25 -4 51.5l-8 53t-8 49t-4 36.5t24 27l2 2q25 0 39.5 -13.5t20.5 -34t8 -45t2 -44.5v-119q-4 -47 -30.5 -87t-67.5 -40h-10z" />
<glyph unicode="&#x201a;" horiz-adv-x="239" d="M66 -182q14 35 25 80t11 82q0 25 -4 52l-8 54t-8 49.5t-4 36.5t24 27l2 2q25 0 39.5 -13.5t20.5 -35t8 -46t2 -45.5v-116q-4 -47 -30.5 -87t-67.5 -40h-10z" />
<glyph unicode="&#x201c;" horiz-adv-x="405" d="M66 1006v38q0 23 4 51.5t18 55.5t39 44t66 17v-8q0 -12 -8.5 -27.5t-17.5 -36t-17.5 -42t-8.5 -45.5v-33q0 -39 10.5 -79t10.5 -79q0 -10 -2 -18t-19 -13h-14l-31 13l-8 12l-8 27zM213 995q0 29 2 51.5t6 34.5l15 52l16 24q10 14 20.5 25.5t30.5 11.5q10 0 20.5 -1 t16.5 -5q-16 -47 -30.5 -91t-14.5 -93v-29q0 -23 7 -44.5t7 -29.5v-12q0 -16 -9 -20.5t-26 -4.5q-37 0 -49 42t-12 89z" />
<glyph unicode="&#x201d;" horiz-adv-x="405" d="M66 856q16 47 30.5 92t14.5 94v27q0 23 -8.5 45.5t-8.5 28.5v14q0 16 10.5 20.5t26.5 4.5q20 0 32.5 -14.5t18.5 -35t8.5 -44t2.5 -41.5v-31.5t-1.5 -19t-3.5 -14.5t-4 -19l-16 -50l-16 -24q-10 -16 -20.5 -27.5t-29.5 -11.5q-10 0 -20 1t-16 5zM213 831v9q0 12 8 28.5 t17.5 36t17.5 42t8 44.5v35q-4 39 -13 78t-9 80q0 10 3 17t19 11h15l28 -12l8 -12l9 -27l16 -123v-37q0 -23 -4 -52t-18.5 -56t-39 -44.5t-65.5 -17.5z" />
<glyph unicode="&#x201e;" horiz-adv-x="405" d="M66 -166q16 47 30.5 92t14.5 94v27q0 23 -8.5 44.5t-8.5 29.5v14q0 16 10.5 20.5t26.5 4.5q20 0 32.5 -14.5t18.5 -35t8.5 -44t2.5 -41.5v-31.5t-1.5 -19t-3.5 -14.5t-4 -19l-16 -52l-16 -24q-10 -14 -20.5 -25.5t-29.5 -11.5q-10 0 -20 1t-16 5zM213 -182q0 12 8 27.5 t17.5 36t17.5 42t8 45.5v35q-4 37 -13 77t-9 79q0 12 3 19t19 11h15l28 -12l8 -12l9 -27l16 -123v-36q0 -23 -4 -52.5t-18.5 -56.5t-39 -44t-65.5 -17v8z" />
<glyph unicode="&#x2022;" horiz-adv-x="362" d="M72 604q0 20 15 40t37.5 34t47.5 22.5t43 8.5q35 0 55.5 -27t20.5 -64v-6q-12 -37 -25.5 -55t-29 -26.5t-32 -9.5t-36.5 -3h-21q-35 0 -55 26.5t-20 59.5z" />
<glyph unicode="&#x2026;" horiz-adv-x="856" d="M66 61q0 16 11 30.5t26.5 25t33 16.5t29.5 6q25 0 39 -19.5t14 -47.5v-4q-8 -29 -17 -42.5t-20.5 -19.5t-23 -7t-25.5 -3h-14q-25 0 -39 20t-14 45zM350 61q0 16 11.5 30.5t26.5 25t32.5 16.5t30.5 6q25 0 39 -19.5t14 -47.5v-4q-8 -29 -17.5 -42.5t-20.5 -19.5t-22.5 -7 t-25.5 -3h-12q-25 0 -40.5 20t-15.5 45zM635 61q0 16 11 30.5t26.5 25t33 16.5t29.5 6q25 0 40.5 -19.5t15.5 -47.5v-4q-10 -29 -19.5 -42.5t-20 -19.5t-22.5 -7t-27 -3h-12q-25 0 -40 20t-15 45z" />
<glyph unicode="&#x202f;" horiz-adv-x="310" />
<glyph unicode="&#x2039;" horiz-adv-x="391" d="M29 416v8l24 22q14 12 26.5 22.5t26 23t30 32t40.5 54.5l2 8l25 22q18 18 36.5 44t34.5 48l35 50q8 8 13 8h2q16 -4 16 -21v-4q-39 -66 -88 -119t-96 -106l-74 -84q0 -4 4 -4l92 -78q14 -12 42 -28.5t55.5 -32t48 -28.5t22.5 -20v-6q-6 -8 -14 -8l-15 2q-14 2 -27.5 8.5 t-29.5 14.5q-35 18 -59.5 37.5t-46 39t-44 37t-49.5 29.5q-8 4 -20 8t-12 21z" />
<glyph unicode="&#x203a;" horiz-adv-x="391" d="M29 227v6q0 8 10 15.5t22.5 13.5t23.5 10t13 4q27 12 51.5 30t47.5 36l94 78q2 2 2 4l-74 84q-47 53 -96 106.5t-86 118.5v4q0 18 14 21h2q6 0 13 -8l34 -50q16 -23 34 -48t38 -44l25 -22l4 -8q25 -35 41 -54.5t28.5 -32t24.5 -22.5t27 -23l24 -22v-8q0 -16 -12 -20.5 t-21 -8.5q-27 -12 -48 -29.5t-43.5 -37t-48 -40t-62.5 -38.5q-14 -6 -25.5 -12.5t-28.5 -8.5l-12 -2q-10 0 -16 8z" />
<glyph unicode="&#x205f;" horiz-adv-x="388" />
<glyph unicode="&#x20ac;" horiz-adv-x="870" d="M2 553v8q4 25 10 28t25 7q74 23 151.5 37t151.5 37q37 31 65.5 72.5t57.5 78.5q23 27 55.5 68t72.5 80t85 65.5t88 26.5q29 0 56.5 -12.5t27.5 -47.5q0 -16 -12.5 -23t-44.5 -7q-27 0 -58 -19.5t-53 -36.5l-8 -6q-10 -8 -41 -37.5t-62.5 -63.5t-56.5 -61.5t-25 -31.5 q0 -6 25 -6q14 0 37.5 3t46 7t41 8t27.5 6q8 -16 8 -31v-6q-20 -20 -49 -33.5t-62 -23.5t-65.5 -18.5t-59.5 -16.5q-14 -4 -30.5 -18.5t-30 -31.5t-22.5 -36.5t-9 -36.5l-4 -8l49 10q41 8 88 22.5l94 29t90.5 25.5t73.5 11q10 0 17.5 -3t7.5 -15q0 -16 -35 -45l-10 -5 t-24.5 -11.5t-27 -12.5t-18.5 -6l-84 -27q-37 -16 -72.5 -26t-68.5 -19l-70 -16q-16 -4 -33.5 -14.5t-17.5 -14.5v-80q0 -2 15.5 -18t25.5 -25l45 -18q10 0 39 -1t39 -1q16 0 46 1t34 1l59 18q29 6 60.5 23.5t54.5 19.5l59 27q4 2 17.5 11.5t17.5 9.5q2 0 7 -8.5t9 -12.5 l2 -4q0 -23 -28.5 -46.5t-66.5 -44t-75.5 -35.5t-56.5 -21q-18 0 -46 -9.5t-93 -9.5q-258 0 -270 207h-9q-25 0 -47 -5t-47 -5q-23 0 -42 9t-19 36q0 35 20.5 45t48.5 10h27q55 0 79.5 11.5t35 29.5t16.5 39.5t25 42.5q-2 2 -2 4v4q-27 0 -54.5 -8t-55.5 -18.5t-56.5 -18.5 t-55.5 -8q-45 0 -55 45z" />
<glyph unicode="&#x2122;" horiz-adv-x="894" d="M12 1098q0 10 9.5 19t25.5 9h21l38 9q41 10 86.5 8t88.5 12l6 53q0 10 6 12.5t22 6.5h7q8 -10 17 -20.5t9 -20.5q0 -4 -1 -9.5t-1 -13.5h103v45q2 6 12 6h18q8 -2 17.5 -7t9.5 -13v-31h33q10 0 14 -8t4 -14q0 -16 -18.5 -18.5t-34.5 -4.5q-2 -10 -2 -21.5v-19.5 q0 -18 4 -18t6 4t4 4l10 14l6 6l5 5q35 0 49 -25t21 -69t13.5 -105.5t24.5 -134.5l10 -64q0 -4 2 -9t5 -5q0 6 2 28.5t2 28.5v37q0 29 7 60.5t7 39.5v17l22 88q4 12 7.5 19.5t19.5 13.5h4q6 0 19 -4l12 -4l10 -17q4 -6 14.5 -42t20.5 -77t19 -74l8 -32l26 -88 q6 -20 13.5 -40t7.5 -42q0 -27 -31 -27h-6l-41 119q-12 39 -21.5 76t-19.5 76l-16 65q-4 20 -9 29q-14 -41 -17 -83t-7 -83q0 -63 -11.5 -124.5t-11.5 -123.5q-6 -31 -12 -35t-23 -4h-12q-10 2 -13 10.5t-3 12.5v2l-11 73q-4 41 -10 75t-10 69l-4 26q-10 68 -20.5 136.5 t-26.5 136.5l-4 -6q-16 -53 -21.5 -130t-11.5 -148.5t-15.5 -123t-31.5 -51.5q-10 0 -22.5 3t-12.5 13v48q0 59 3 118.5t7 118.5q2 68 3 111t1 68.5t1 41t3 31.5l-104 -6l-6 -8q-14 -49 -17.5 -100.5t-9.5 -102.5q-4 -45 -10 -87t-6 -89v-8q0 -4 1 -20.5t2 -35t2 -35 t1 -20.5v-12q-4 -6 -12 -11.5t-15 -5.5h-2q-4 0 -14 6.5t-18 10.5v143q0 35 3 71t7 70l12 105q0 2 1 11t1 20.5t1 20.5t1 11l6 47q0 4 -15 5.5t-24 1.5q-47 -4 -90 -17.5t-90 -13.5q-14 0 -26.5 9t-12.5 26z" />
<glyph unicode="&#x25fc;" horiz-adv-x="1126" d="M0 0v1126h1126v-1126h-1126z" />
<glyph unicode="&#xfb01;" horiz-adv-x="743" d="M20 283v30q0 2 4.5 6.5t6.5 4.5l37 16q16 0 39.5 12.5t23.5 14.5v299q-4 0 -16.5 -5.5t-20.5 -5.5q-8 4 -16 13q-16 16 -21 24v19q0 14 11 22q66 68 144.5 118t156 84t144.5 51.5t108 17.5q53 0 84.5 -20.5t31.5 -37.5q0 -12 -33.5 -22.5t-109.5 -10.5q-25 0 -76 -16 t-109.5 -42t-112.5 -57.5t-83 -64.5v-350q141 25 283 25h67v4v39.5t-1 55.5t-1 58.5v46.5q0 33 6 56.5t35 23.5q23 0 41.5 -11t24.5 -32v-139q0 -98 5 -191.5t15 -187.5q0 -18 10.5 -41.5t10.5 -46.5q0 -31 -33 -31q-29 0 -47.5 17.5t-28.5 41t-13 47t-3 38.5l-15 182 q-47 -6 -105 -11t-111.5 -11.5t-94.5 -14.5t-53 -20v-369q0 -39 3 -88t6 -95t6 -85t3 -58v-12q0 -16 -6 -30.5t-29 -14.5h-12q-4 0 -14 10.5t-10 14.5q-12 88 -16.5 179t-4.5 179q0 20 -2 36.5t-3 38t-3 50.5t-2 76v79.5t2 53.5q-4 -2 -18.5 -5t-18.5 -3h-18l-37 16 q-6 6 -8.5 14t-2.5 15z" />
<glyph unicode="&#xfb02;" horiz-adv-x="1015" d="M20 283v30q0 2 4.5 6.5t6.5 4.5l37 16q16 0 39.5 12.5t23.5 14.5v299q-4 0 -16.5 -5.5t-20.5 -5.5q-8 4 -16 13q-16 16 -21 24v19q0 14 11 22q66 68 144.5 118t156 84t144.5 51.5t108 17.5q18 0 28 -3q0 4 1 9.5t1 9.5v8v29q0 20 7.5 33.5t23.5 13.5h10q18 0 40 -8.5 t22 -32.5q0 -35 -8.5 -88t-20.5 -117.5t-26.5 -134.5t-28.5 -135v-10q-14 -90 -25 -183q14 -10 14 -28q0 -8 -16 -13v-69q0 -47 3 -87t18.5 -69t47 -44t87.5 -15q47 0 88 18t86 31h12q12 0 15.5 -12.5t3.5 -22.5q0 -20 -20.5 -36.5t-50.5 -28t-62.5 -17.5t-57.5 -6 q-51 0 -99 9t-85 36t-58.5 77t-21.5 130v88q-47 -6 -102.5 -11.5t-105.5 -11.5t-88 -14t-48 -18v-369q0 -39 3 -88t6 -95t6 -85t3 -58v-12q0 -16 -6 -30.5t-29 -14.5h-12q-16 2 -24.5 32.5t-13.5 73.5t-6 93.5t-1 95.5v88q0 20 -2 36.5t-3 38t-3 50.5t-2 76v79.5t2 53.5 q-4 -2 -18.5 -5t-18.5 -3h-18l-37 16q-6 6 -8.5 14t-2.5 15zM213 383q141 25 283 25h57q10 109 29.5 214t42.5 214l10 77h-41q-25 0 -76 -16t-109.5 -42t-112.5 -57.5t-83 -64.5v-350z" />
</font>
</defs>
</svg>
