<svg xmlns="http://www.w3.org/2000/svg" viewBox="0 0 500 500" >

	<path fill="none" stroke="#D6D6D6" stroke-width="1.7196" stroke-miterlimit="10" d="M119.361,76.284
		c-4.589-5.293-23.923-7.762-38.78-0.304c-13.919,6.987-25.851,22.131-26.275,29.604C71.7,94.493,96.781,84.449,119.361,76.284z"/>

	<path fill="none" stroke="#D6D6D6" stroke-width="1.7196" stroke-miterlimit="10" d="M435.472,91.725
			c-4.729-5.89-11.389-11.827-18.714-15.504c-12.742-6.397-28.779-5.238-35.982-1.439"/>

	<path fill="none" stroke="#4657A5" stroke-width="1.7196" stroke-miterlimit="10" d="M451.333,110.515
		c0.765-1.618,1.076-2.74,1.343-3.327c0.983-2.162-9.674-13.094-32.327-23.387c-22.655-10.293-45.333-9.957-46.315-7.796
		c-0.013,0.029,0.074-0.083,0,0C400.938,85.497,432.381,96.971,451.333,110.515z"/>

	<path fill="none" stroke="#000000" stroke-width="1.7196" stroke-miterlimit="10" d="M11.753,182.953
			c-1.403,14.712-2.666,34.296-5.082,52.416c-7.222,54.165-4.127,131.544,4.642,160.433c8.771,28.888,29.92,29.403,29.92,29.403
			c45.396,6.706,45.912-114.521,50.554-123.806c3.72-7.441,7.621-14.017,7.621-14.017"/>
	<path fill="none" stroke="#000000" stroke-width="1.7196" stroke-miterlimit="10" d="M400.22,285.406
			c0,0,5.048,8.551,8.769,15.992c4.643,9.284,5.158,130.512,50.554,123.806c0,0,21.149-0.516,29.92-29.403
			c8.769-28.889,11.865-106.268,4.644-160.433c-6.418-48.141-6.334-84.581-22.775-104.083"/>
	<path fill="none" stroke="#000000" stroke-width="1.7196" stroke-miterlimit="10" d="M456.54,114.654
			c-19.212-16.397-58.323-30.195-89.014-40.972c-32.713-11.488-74.577-18.384-120.208-18.384c-46.05,0-88.265,7.023-121.111,18.702
			c-28.76,10.227-63.617,23.455-82.117,38.657"/>
	<path fill="none" stroke="#000000" stroke-width="1.7196" stroke-miterlimit="10" d="M194.365,219.962
			c11.483-2.117,28.261-5.368,55.569-5.209c10.485,0.062,21.017-1.097,52.958,5.746"/>

	<path fill="none" stroke="#000000" stroke-width="1.7196" stroke-miterlimit="10" d="M427.792,264.442
		c-1.111,0.48-2.229,0.94-3.357,1.373c-9.439,4.18-26.306,14.36-33.538,35.698c-0.126,0.367-0.261,0.725-0.4,1.076
		c-6.36,28.461-33.127,49.993-63.308,49.993c-34.617,0-62.678-28.061-62.678-62.676c0-21.453,10.78-40.385,27.217-51.684
		c0.042-0.054,1.635-2.11,1.682-2.16c12.175-13.135,16.93-38.891,18.146-52.796c-0.092-1.649-0.142-3.303-0.142-4.959
		c0-47.436,38.454-85.891,85.89-85.891c47.437,0,88.719,38.101,88.719,85.537c0,35.487-23.517,69.994-55.224,85.126L427.792,264.442
		z"/>

	<path fill="none" stroke="#000000" stroke-width="1.7196" stroke-miterlimit="10" d="M333.664,327.599
			c-1.686,0.713-4.453,0.731-6.148,0.043l-22.221-9.026c-1.695-0.688-3.665-2.632-4.377-4.317l-9.33-22.097
			c-0.712-1.686-0.73-4.453-0.042-6.148l9.026-22.221c0.688-1.695,2.632-3.665,4.317-4.377l22.097-9.33
			c1.686-0.712,4.453-0.731,6.148-0.042l22.219,9.026c1.695,0.689,3.666,2.633,4.378,4.318l9.33,22.096
			c0.712,1.686,0.731,4.453,0.042,6.148l-9.026,22.221c-0.689,1.695-2.633,3.665-4.318,4.378L333.664,327.599z"/>

	<circle fill="none" stroke="#EC3132" stroke-width="1.7196" stroke-miterlimit="10" cx="343.138" cy="207.187" r="18.744"/>
	<circle fill="none" stroke="#55B848" stroke-width="1.7196" stroke-miterlimit="10" cx="400.056" cy="178.813" r="28.89"/>
	<path fill="none" stroke="#D6D6D6" stroke-width="1.7196" stroke-miterlimit="10" d="M399.569,136.282
		c6.813-0.346,12.352-5.53,12.352-12.353c0-4.114-2.014-7.758-5.106-10.002c-5.177-4.127-18.336-6.06-28.024-2.637
		c-7.562,2.672-14.619,8.417-17.84,12.705c-1.814,2.15-2.91,4.926-2.91,7.959c0,6.822,5.531,12.353,12.353,12.353
		c5.824,0,7.488-3.009,13.958-5.044c2.354-0.741,4.328-1.554,6.763-2.121C393.183,136.66,397.446,136.39,399.569,136.282z"/>
	<path fill="none" stroke="#D6D6D6" stroke-width="1.7196" stroke-miterlimit="10" d="M443.369,181.4
		c0.346,6.814,5.531,12.353,12.353,12.353c4.113,0,7.757-2.014,10.002-5.107c4.129-5.177,6.061-18.335,2.637-28.024
		c-2.672-7.562-8.417-14.619-12.705-17.841c-2.148-1.814-4.926-2.909-7.959-2.909c-6.822,0-12.352,5.53-12.352,12.352
		c0,5.824,3.009,7.487,5.043,13.958c0.742,2.355,1.555,4.329,2.122,6.763C442.991,175.015,443.261,179.278,443.369,181.4z"/>
	<path fill="none" stroke="#000000" stroke-width="1.7196" stroke-miterlimit="10" d="M69.853,264.844
		c1.111,0.479,2.229,0.941,3.357,1.372c9.438,4.181,26.305,14.362,33.538,35.698c0.125,0.367,0.26,0.725,0.4,1.077
		c6.36,28.461,33.126,49.992,63.309,49.992c34.615,0,62.677-28.061,62.677-62.677c0-21.451-10.781-40.384-27.216-51.683
		c-0.042-0.054-1.636-2.11-1.682-2.16c-12.175-13.135-16.931-38.892-18.147-52.795c0.09-1.65,0.142-3.303,0.142-4.959
		c0-47.436-38.455-85.89-85.89-85.89s-88.719,38.101-88.719,85.536c0,35.487,23.517,69.995,55.225,85.126L69.853,264.844z"/>

	<path fill="none" stroke="#D6D6D6" stroke-width="1.7196" stroke-miterlimit="10" d="M199.752,277.773
			c0-0.737-0.603-1.34-1.339-1.34h-17.725c-0.737,0-1.339-0.603-1.339-1.34v-17.725c0-0.737-0.603-1.34-1.339-1.34h-20.58
			c-0.737,0-1.339,0.603-1.339,1.34v17.725c0,0.737-0.603,1.34-1.339,1.34h-17.727c-0.737,0-1.339,0.603-1.339,1.34v20.579
			c0,0.737,0.603,1.34,1.339,1.34h17.727c0.737,0,1.339,0.603,1.339,1.34v17.725c0,0.737,0.603,1.34,1.339,1.34h20.58
			c0.737,0,1.339-0.603,1.339-1.34v-17.725c0-0.737,0.603-1.34,1.339-1.34h17.725c0.737,0,1.339-0.603,1.339-1.34V277.773z"/>

	<path d="M97.276,136.338c1.188,0,2.372,0.183,3.275,0.55l24.216,9.837c1.848,0.75,3.995,2.868,4.771,4.706l10.168,24.081
				c0.776,1.838,0.796,4.854,0.045,6.702l-9.837,24.216c-0.751,1.848-2.869,3.995-4.707,4.771l-24.079,10.168
				c-0.939,0.396-2.185,0.596-3.426,0.596c-1.188,0-2.372-0.183-3.275-0.55l-24.216-9.838c-1.848-0.75-3.995-2.868-4.771-4.706
				l-10.168-24.081c-0.776-1.838-0.796-4.854-0.046-6.702l9.838-24.217c0.75-1.848,2.868-3.995,4.706-4.771l24.08-10.167
				C94.789,136.537,96.035,136.338,97.276,136.338 M97.276,134.618c-1.524,0-2.979,0.26-4.095,0.731l-24.08,10.167
				c-2.242,0.946-4.715,3.454-5.63,5.708l-9.838,24.216c-0.916,2.255-0.891,5.776,0.055,8.018l10.168,24.081
				c0.946,2.242,3.454,4.715,5.708,5.63l24.216,9.838c1.074,0.436,2.467,0.676,3.922,0.676c1.524,0,2.979-0.26,4.095-0.731
				l24.079-10.168c2.241-0.946,4.715-3.453,5.631-5.708l9.837-24.217c0.916-2.254,0.892-5.775-0.054-8.018l-10.168-24.081
				c-0.946-2.242-3.454-4.715-5.708-5.63l-24.216-9.837C100.125,134.858,98.732,134.618,97.276,134.618L97.276,134.618z"/>

	<circle fill="none" stroke="#D6D6D6" stroke-width="1.7196" stroke-miterlimit="10" cx="249.383" cy="181.462" r="12.639"/>
	<circle fill="none" stroke="#D6D6D6" stroke-width="1.7196" stroke-miterlimit="10" cx="97.49" cy="179.158" r="38.916"/>
	<circle fill="none" stroke="#E8C52D" stroke-width="1.7196" stroke-miterlimit="10" cx="330.325" cy="288.863" r="35.147"/>

</svg>
