<svg xmlns="http://www.w3.org/2000/svg" viewBox="0 0 500 500">
	<path fill="none" stroke="#D6D6D6" stroke-width="1.7196" stroke-miterlimit="10" d="M119.154,78.096
		c-4.59-5.293-23.924-7.762-38.781-0.304c-13.919,6.987-25.851,22.131-26.275,29.604C71.492,96.305,96.573,86.26,119.154,78.096z"/>

	<path fill="none" stroke="#D6D6D6" stroke-width="1.7196" stroke-miterlimit="10" d="M435.265,93.536
			c-4.729-5.89-11.39-11.827-18.716-15.505c-12.742-6.397-28.777-5.238-35.98-1.438"/>

	<path fill="none" stroke="#4657A5" stroke-width="1.7196" stroke-miterlimit="10" d="M451.125,112.326
		c0.765-1.619,1.077-2.74,1.344-3.327c0.982-2.162-9.675-13.094-32.329-23.387c-22.653-10.293-45.332-9.958-46.314-7.796
		c-0.013,0.028,0.075-0.083,0,0C400.729,87.309,432.173,98.782,451.125,112.326z"/>

	<path fill="none" stroke="#595FC9" stroke-width="1.7196" stroke-miterlimit="10" d="M11.546,184.764
			c-1.403,14.712-2.666,34.295-5.082,52.416c-7.222,54.165-4.127,131.544,4.643,160.432c8.77,28.889,29.919,29.403,29.919,29.403
			c45.396,6.707,45.912-114.521,50.554-123.806c3.72-7.439,7.62-14.016,7.62-14.016"/>
	<path fill="none" stroke="#595FC9" stroke-width="1.7196" stroke-miterlimit="10" d="M400.012,287.218
			c0,0,5.049,8.552,8.769,15.991c4.644,9.285,5.159,130.513,50.554,123.806c0,0,21.151-0.515,29.92-29.403
			c8.77-28.888,11.865-106.267,4.644-160.432c-6.419-48.142-6.333-84.581-22.775-104.083"/>
	<path fill="none" stroke="#595FC9" stroke-width="1.7196" stroke-miterlimit="10" d="M456.332,116.465
			c-19.212-16.396-58.322-30.195-89.013-40.972C334.604,64.005,292.74,57.11,247.112,57.11c-46.05,0-88.266,7.023-121.111,18.702
			c-28.76,10.227-63.617,23.455-82.117,38.657"/>
	<path fill="none" stroke="#595FC9" stroke-width="1.7196" stroke-miterlimit="10" d="M194.157,221.774
			c11.482-2.117,28.261-5.369,55.569-5.209c10.486,0.061,21.017-1.097,52.957,5.746"/>

	<path fill="none" stroke="#595FC9" stroke-width="1.7196" stroke-miterlimit="10" d="M427.583,266.254
		c-1.11,0.479-2.229,0.94-3.356,1.372c-9.438,4.181-26.305,14.361-33.538,35.698c-0.125,0.368-0.26,0.725-0.4,1.077
		c-6.36,28.461-33.126,49.993-63.309,49.993c-34.615,0-62.677-28.062-62.677-62.677c0-21.452,10.781-40.385,27.217-51.683
		c0.042-0.054,1.635-2.11,1.682-2.161c12.175-13.135,16.93-38.891,18.146-52.795c-0.091-1.649-0.142-3.303-0.142-4.959
		c0-47.436,38.454-85.89,85.89-85.89c47.437,0,88.719,38.101,88.719,85.536c0,35.487-23.517,69.994-55.225,85.127L427.583,266.254z"
		/>

	<path fill="none" stroke="#595FC9" stroke-width="1.7196" stroke-miterlimit="10" d="M333.455,329.41
			c-1.686,0.712-4.453,0.731-6.148,0.042l-22.22-9.025c-1.695-0.689-3.665-2.633-4.377-4.318l-9.33-22.097
			c-0.712-1.686-0.73-4.453-0.042-6.148l9.026-22.22c0.688-1.695,2.632-3.665,4.317-4.378l22.096-9.329
			c1.686-0.712,4.453-0.73,6.148-0.042l22.22,9.025c1.695,0.689,3.666,2.633,4.378,4.318l9.329,22.096
			c0.712,1.686,0.731,4.453,0.042,6.148l-9.025,22.221c-0.689,1.695-2.633,3.666-4.318,4.378L333.455,329.41z"/>

	<circle fill="none" stroke="#EC3132" stroke-width="1.7196" stroke-miterlimit="10" cx="342.93" cy="208.999" r="18.744"/>
	<circle fill="none" stroke="#55B848" stroke-width="1.7196" stroke-miterlimit="10" cx="399.849" cy="180.625" r="28.89"/>
	<path fill="none" stroke="#D6D6D6" stroke-width="1.7196" stroke-miterlimit="10" d="M399.361,138.094
		c6.812-0.346,12.353-5.531,12.353-12.353c0-4.114-2.014-7.757-5.107-10.002c-5.177-4.128-18.335-6.06-28.023-2.637
		c-7.563,2.672-14.62,8.417-17.842,12.705c-1.813,2.15-2.908,4.926-2.908,7.959c0,6.822,5.53,12.353,12.353,12.353
		c5.823,0,7.487-3.008,13.957-5.044c2.354-0.741,4.329-1.554,6.764-2.121C392.976,138.471,397.239,138.201,399.361,138.094z"/>
	<path fill="none" stroke="#D6D6D6" stroke-width="1.7196" stroke-miterlimit="10" d="M443.161,183.212
		c0.346,6.813,5.53,12.352,12.353,12.352c4.115,0,7.758-2.014,10.003-5.107c4.127-5.176,6.06-18.334,2.636-28.023
		c-2.672-7.563-8.417-14.62-12.704-17.841c-2.15-1.814-4.926-2.909-7.959-2.909c-6.822,0-12.353,5.531-12.353,12.353
		c0,5.824,3.008,7.487,5.044,13.958c0.74,2.355,1.554,4.329,2.121,6.764C442.783,176.826,443.054,181.09,443.161,183.212z"/>
	<path fill="none" stroke="#595FC9" stroke-width="1.7196" stroke-miterlimit="10" d="M69.645,266.655
		c1.111,0.479,2.229,0.94,3.357,1.371c9.438,4.181,26.305,14.361,33.538,35.699c0.125,0.368,0.26,0.725,0.4,1.077
		c6.361,28.461,33.126,49.992,63.309,49.992c34.615,0,62.676-28.061,62.676-62.676c0-21.453-10.78-40.385-27.216-51.684
		c-0.042-0.054-1.635-2.11-1.681-2.161c-12.175-13.134-16.93-38.891-18.146-52.795c0.09-1.649,0.141-3.303,0.141-4.959
		c0-47.436-38.455-85.89-85.89-85.89c-47.436,0-88.718,38.101-88.718,85.536c0,35.488,23.516,69.994,55.224,85.127L69.645,266.655z"
		/>

	<path fill="none" stroke="#D6D6D6" stroke-width="1.7196" stroke-miterlimit="10" d="M199.544,279.585
			c0-0.737-0.603-1.34-1.339-1.34H180.48c-0.737,0-1.339-0.603-1.339-1.34v-17.725c0-0.737-0.603-1.34-1.339-1.34h-20.58
			c-0.737,0-1.339,0.603-1.339,1.34v17.725c0,0.737-0.603,1.34-1.339,1.34h-17.726c-0.737,0-1.339,0.603-1.339,1.34v20.579
			c0,0.737,0.603,1.34,1.339,1.34h17.726c0.737,0,1.339,0.603,1.339,1.34v17.725c0,0.737,0.603,1.34,1.339,1.34h20.58
			c0.737,0,1.339-0.603,1.339-1.34v-17.725c0-0.737,0.603-1.34,1.339-1.34h17.725c0.737,0,1.339-0.603,1.339-1.34V279.585z"/>

	<path fill="#595FC9" d="M97.068,138.149c1.188,0,2.372,0.183,3.275,0.55l24.216,9.837c1.848,0.75,3.995,2.868,4.771,4.706
				l10.168,24.081c0.776,1.838,0.796,4.854,0.045,6.702l-9.837,24.216c-0.751,1.848-2.869,3.995-4.707,4.771l-24.08,10.169
				c-0.939,0.396-2.185,0.596-3.426,0.596c-1.188,0-2.372-0.183-3.275-0.55l-24.216-9.837c-1.848-0.75-3.995-2.868-4.771-4.706
				l-10.167-24.081c-0.776-1.838-0.796-4.854-0.046-6.702l9.837-24.217c0.75-1.848,2.868-3.995,4.706-4.771l24.08-10.167
				C94.581,138.348,95.827,138.149,97.068,138.149 M97.068,136.429c-1.524,0-2.979,0.26-4.095,0.731l-24.08,10.168
				c-2.242,0.946-4.715,3.454-5.63,5.708l-9.837,24.217c-0.916,2.254-0.891,5.776,0.055,8.018l10.168,24.081
				c0.946,2.242,3.454,4.715,5.708,5.63l24.216,9.837c1.074,0.436,2.467,0.676,3.922,0.676c1.524,0,2.979-0.26,4.095-0.731
				l24.08-10.169c2.241-0.946,4.715-3.453,5.631-5.708l9.837-24.216c0.916-2.254,0.892-5.775-0.054-8.018l-10.169-24.081
				c-0.946-2.242-3.454-4.715-5.708-5.63l-24.216-9.837C99.917,136.669,98.524,136.429,97.068,136.429L97.068,136.429z"/>

	<circle fill="none" stroke="#D6D6D6" stroke-width="1.7196" stroke-miterlimit="10" cx="249.175" cy="183.273" r="12.638"/>
	<circle fill="none" stroke="#D6D6D6" stroke-width="1.7196" stroke-miterlimit="10" cx="97.282" cy="180.969" r="38.916"/>
	<circle fill="none" stroke="#E8C52D" stroke-width="1.7196" stroke-miterlimit="10" cx="330.117" cy="290.674" r="35.147"/>

</svg>
