<svg xmlns="http://www.w3.org/2000/svg" viewBox="0 0 500 500">
	<path fill="#D6D6D6" d="M117.946,76.789c2.981,5.938-14.591,17.592-30.466,25.561s-32.033,11.151-35.014,5.212
	c-2.981-5.938,9.809-24.424,25.683-32.393S114.965,70.851,117.946,76.789z"/>
	<path fill="#D6D6D6" d="M378.319,76.789c-2.98,5.938,14.592,17.592,30.466,25.561c15.875,7.969,32.033,11.151,35.015,5.212
	c2.98-5.938-9.809-24.424-25.684-32.393C402.242,67.201,381.301,70.851,378.319,76.789z"/>
	<circle fill="#D6D6D6" cx="248.327" cy="181.025" r="11.8"/>
	<path fill="#4657A5" d="M454.138,106.406c-0.991,2.182-2.591,16.403-25.452,6.016c-20.488-9.31-51.029-28.536-55.877-34.36
	c-0.562-0.674,1.863-2.897,1.967-3.124c0.99-2.181,23.877-2.52,46.737,7.867C444.374,93.193,455.128,104.225,454.138,106.406z"/>

	<path fill="#595FC9" d="M4.056,236.015c-7.288,54.66-4.165,132.746,4.685,161.898c8.85,29.152,30.193,29.673,30.193,29.673
		c45.811,6.768,46.332-115.567,51.017-124.938c3.754-7.509,8.85-16.139,8.85-16.139L37.372,125.133
		C5.617,139.709,11.344,181.355,4.056,236.015z"/>
	<path fill="#595FC9" d="M495.944,236.015c-7.288-54.66-1.562-96.306-33.316-110.882L401.2,286.51c0,0,5.096,8.63,8.85,16.139
		c4.686,9.37,5.206,131.705,51.017,124.938c0,0,21.343-0.521,30.193-29.673C500.109,368.761,503.232,290.675,495.944,236.015z"/>
	<path fill="#595FC9" d="M469.871,134.172c0-25.499-58.922-46.313-101.661-61.322c-33.014-11.593-75.261-18.552-121.307-18.552
		c-46.471,0-89.072,7.087-122.218,18.874c-42.215,15.011-95.819,35.683-95.819,61c0,40.503,71.693,80.219,162.022,86.766
		c11.627-2.083,28.98-5.9,58.654-5.727c10.971,0.064,21.991-1.195,57.092,6.594C392.915,213.882,469.871,173.447,469.871,134.172z"
		/>

	<path fill="#595FC9" stroke="#5656AF" stroke-width="1.7353" stroke-miterlimit="10" d="M429.025,265.355
	c-1.121,0.483-2.25,0.948-3.389,1.384c-9.524,4.219-26.545,14.492-33.845,36.025c-0.126,0.371-0.262,0.731-0.403,1.086
	c-6.419,28.722-33.43,50.45-63.888,50.45c-34.932,0-63.25-28.317-63.25-63.249c0-21.648,10.88-40.754,27.466-52.156
	c0.042-0.055,1.649-2.129,1.696-2.18c12.287-13.255,17.086-39.247,18.313-53.278c-0.092-1.664-0.144-3.333-0.144-5.004
	c0-47.87,38.807-86.676,86.676-86.676s89.529,38.449,89.529,86.318c0,35.812-23.731,70.634-55.729,85.905L429.025,265.355z"/>

	<path fill="none" stroke="#5656AF" stroke-width="1.7353" stroke-miterlimit="10" d="M334.037,329.088
		c-1.701,0.719-4.494,0.738-6.205,0.043l-22.424-9.108c-1.711-0.695-3.699-2.656-4.418-4.357l-9.414-22.298
		c-0.719-1.701-0.738-4.494-0.043-6.205l9.109-22.424c0.695-1.711,2.656-3.699,4.357-4.418l22.297-9.414
		c1.701-0.718,4.494-0.737,6.205-0.042l22.423,9.108c1.711,0.695,3.699,2.656,4.418,4.357l9.414,22.298
		c0.719,1.701,0.738,4.494,0.043,6.205l-9.109,22.423c-0.695,1.711-2.656,3.699-4.357,4.418L334.037,329.088z"/>

	<circle fill="#EC3132" cx="343.597" cy="207.576" r="18.915"/>
	<circle fill="#55B848" cx="401.036" cy="178.943" r="29.153"/>
	<path fill="#D6D6D6" d="M400.545,136.022c6.875-0.349,12.465-5.581,12.465-12.465c0-4.152-2.032-7.828-5.154-10.094
		c-5.224-4.166-18.502-6.115-28.279-2.661c-7.632,2.697-14.754,8.495-18.004,12.821c-1.831,2.169-2.936,4.971-2.936,8.032
		c0,6.884,5.58,12.465,12.465,12.465c5.878,0,7.556-3.036,14.086-5.09c2.376-0.748,4.367-1.568,6.825-2.141
		C394.101,136.404,398.403,136.131,400.545,136.022z"/>
	<path fill="#D6D6D6" d="M444.745,181.553c0.349,6.876,5.581,12.465,12.466,12.465c4.151,0,7.828-2.032,10.093-5.154
		c4.166-5.223,6.115-18.502,2.662-28.279c-2.697-7.632-8.495-14.753-12.821-18.004c-2.17-1.831-4.971-2.936-8.032-2.936
		c-6.885,0-12.465,5.582-12.465,12.465c0,5.878,3.035,7.556,5.09,14.085c0.747,2.376,1.567,4.368,2.14,6.825
		C444.364,175.109,444.637,179.412,444.745,181.553z"/>
	<path fill="#595FC9" stroke="#5656AF" stroke-width="1.7353" stroke-miterlimit="10" d="M67.814,265.76
		c1.121,0.483,2.249,0.949,3.388,1.384c9.524,4.219,26.545,14.493,33.845,36.025c0.125,0.371,0.262,0.731,0.403,1.087
		c6.419,28.721,33.429,50.449,63.887,50.449c34.932,0,63.25-28.317,63.25-63.249c0-21.648-10.879-40.754-27.465-52.156
		c-0.042-0.055-1.649-2.129-1.697-2.18c-12.287-13.255-17.085-39.247-18.312-53.278c0.091-1.665,0.143-3.333,0.143-5.004
		c0-47.87-38.806-86.676-86.675-86.676c-47.87,0-89.529,38.449-89.529,86.318c0,35.812,23.731,70.634,55.729,85.906L67.814,265.76z"
		/>

	<path fill="#D6D6D6" d="M198.901,278.808c0-0.743-0.608-1.352-1.352-1.352h-17.888c-0.743,0-1.352-0.608-1.352-1.352v-17.888
		c0-0.743-0.608-1.352-1.352-1.352h-20.768c-0.743,0-1.352,0.608-1.352,1.352v17.888c0,0.743-0.608,1.352-1.352,1.352H135.6
		c-0.743,0-1.352,0.608-1.352,1.352v20.768c0,0.743,0.608,1.352,1.352,1.352h17.889c0.743,0,1.352,0.608,1.352,1.352v17.888
		c0,0.743,0.608,1.352,1.352,1.352h20.768c0.743,0,1.352-0.608,1.352-1.352v-17.888c0-0.743,0.608-1.352,1.352-1.352h17.888
		c0.743,0,1.352-0.608,1.352-1.352V278.808z"/>

	<path fill="#5656AF" d="M95.488,136.079c1.199,0,2.393,0.185,3.305,0.555l24.437,9.927c1.865,0.758,4.032,2.895,4.815,4.749
		l10.261,24.301c0.783,1.854,0.804,4.897,0.046,6.762l-9.928,24.438c-0.757,1.865-2.895,4.031-4.749,4.814l-24.3,10.261
		c-0.947,0.4-2.205,0.602-3.458,0.602c-1.199,0-2.393-0.185-3.305-0.555l-24.438-9.927c-1.865-0.758-4.032-2.895-4.815-4.749
		L53.1,182.956c-0.783-1.854-0.804-4.897-0.046-6.763l9.927-24.438c0.758-1.865,2.895-4.032,4.749-4.815l24.301-10.26
		C92.978,136.28,94.236,136.079,95.488,136.079 M95.488,134.343c-1.538,0-3.006,0.262-4.133,0.738l-24.3,10.26
		c-2.262,0.955-4.758,3.485-5.682,5.76l-9.927,24.438c-0.924,2.275-0.9,5.829,0.056,8.091l10.26,24.301
		c0.955,2.262,3.485,4.758,5.76,5.682l24.438,9.927c1.083,0.44,2.489,0.682,3.958,0.682c1.538,0,3.006-0.262,4.133-0.738
		l24.3-10.261c2.262-0.956,4.758-3.485,5.682-5.76l9.928-24.438c0.924-2.274,0.9-5.828-0.056-8.091l-10.261-24.301
		c-0.955-2.262-3.485-4.758-5.76-5.682l-24.437-9.927C98.363,134.586,96.958,134.344,95.488,134.343L95.488,134.343z"/>

	<circle fill="#D6D6D6" cx="248.985" cy="181.615" r="12.754"/>
	<circle fill="#D6D6D6" cx="95.703" cy="179.29" r="39.271"/>
	<circle fill="#E8C52D" cx="330.667" cy="289.998" r="35.469"/>
</svg>
