<svg xmlns="http://www.w3.org/2000/svg" viewBox="0 0 500 500">
	<path fill="none" stroke="#FFFFFF" stroke-width="1.7179" stroke-miterlimit="10" d="M11.452,183.27
			c-1.401,14.697-2.663,34.262-5.076,52.365c-7.215,54.113-4.124,131.418,4.638,160.277c8.761,28.86,29.89,29.377,29.89,29.377
			c45.353,6.699,45.868-114.411,50.506-123.688c3.716-7.434,7.613-14.004,7.613-14.004"/>
	<path fill="none" stroke="#FFFFFF" stroke-width="1.7179" stroke-miterlimit="10" d="M399.544,285.624
			c0,0,5.045,8.544,8.762,15.978c4.64,9.275,5.154,130.387,50.507,123.688c0,0,21.13-0.517,29.889-29.377
			c8.764-28.859,11.855-106.164,4.64-160.277c-6.413-48.095-6.326-84.5-22.753-103.982"/>
	<path fill="none" stroke="#FFFFFF" stroke-width="1.7179" stroke-miterlimit="10" d="M455.812,115.035
			c-19.193-16.381-58.268-30.166-88.927-40.933c-32.683-11.477-74.508-18.366-120.093-18.366c-46.005,0-88.181,7.017-120.994,18.685
			c-28.731,10.217-63.556,23.431-82.039,38.62"/>
	<path fill="none" stroke="#FFFFFF" stroke-width="1.7179" stroke-miterlimit="10" d="M193.889,220.243
			c11.471-2.115,28.234-5.363,55.517-5.205c10.475,0.062,20.995-1.095,52.904,5.741"/>

	<path fill="none" stroke="#FFFFFF" stroke-width="1.7179" stroke-miterlimit="10" d="M427.091,264.68
		c-1.109,0.48-2.227,0.94-3.355,1.371c-9.429,4.177-26.278,14.348-33.506,35.665c-0.125,0.368-0.259,0.723-0.399,1.075
		c-6.354,28.435-33.096,49.945-63.248,49.945c-34.581,0-62.616-28.034-62.616-62.617c0-21.431,10.771-40.345,27.19-51.633
		c0.041-0.055,1.633-2.107,1.68-2.159c12.163-13.122,16.914-38.853,18.129-52.744c-0.091-1.648-0.143-3.3-0.143-4.954
		c0-47.391,38.418-85.809,85.809-85.809c47.39,0,88.633,38.064,88.633,85.454c0,35.454-23.494,69.926-55.172,85.044L427.091,264.68z
		"/>

	<path fill="none" stroke="#FFFFFF" stroke-width="1.7179" stroke-miterlimit="10" d="M333.055,327.775
			c-1.685,0.712-4.45,0.73-6.144,0.041l-22.199-9.016c-1.694-0.688-3.662-2.63-4.374-4.313l-9.319-22.074
			c-0.712-1.685-0.731-4.449-0.043-6.144l9.019-22.199c0.687-1.693,2.629-3.661,4.312-4.374l22.073-9.318
			c1.685-0.712,4.449-0.731,6.144-0.042l22.198,9.017c1.693,0.688,3.661,2.629,4.374,4.313l9.32,22.074
			c0.71,1.685,0.729,4.449,0.041,6.144l-9.017,22.198c-0.688,1.692-2.63,3.662-4.314,4.373L333.055,327.775z"/>

	<circle fill="none" stroke="#FFFFFF" stroke-width="1.7179" stroke-miterlimit="10" cx="342.518" cy="207.48" r="18.726"/>
	<circle fill="none" stroke="#FFFFFF" stroke-width="1.7179" stroke-miterlimit="10" cx="399.382" cy="179.133" r="28.861"/>
	<path fill="none" stroke="#FFFFFF" stroke-width="1.7179" stroke-miterlimit="10" d="M398.896,136.643
		c6.807-0.346,12.34-5.525,12.34-12.34c0-4.111-2.013-7.75-5.103-9.993c-5.172-4.125-18.317-6.054-27.996-2.634
		c-7.556,2.669-14.605,8.41-17.824,12.692c-1.812,2.147-2.906,4.921-2.906,7.951c0,6.815,5.524,12.341,12.34,12.341
		c5.82,0,7.481-3.006,13.946-5.039c2.353-0.741,4.323-1.553,6.756-2.119C392.516,137.02,396.775,136.75,398.896,136.643z"/>
	<path fill="none" stroke="#FFFFFF" stroke-width="1.7179" stroke-miterlimit="10" d="M442.653,181.718
		c0.346,6.806,5.525,12.34,12.342,12.34c4.109,0,7.749-2.012,9.991-5.103c4.124-5.171,6.054-18.316,2.636-27.996
		c-2.671-7.556-8.411-14.605-12.693-17.823c-2.147-1.813-4.92-2.907-7.951-2.907c-6.816,0-12.34,5.526-12.34,12.339
		c0,5.82,3.004,7.481,5.04,13.944c0.738,2.352,1.55,4.324,2.117,6.757C442.276,175.338,442.547,179.599,442.653,181.718z"/>
	<path fill="none" stroke="#FFFFFF" stroke-width="1.7179" stroke-miterlimit="10" d="M69.496,265.081
		c1.109,0.479,2.226,0.939,3.354,1.37c9.428,4.177,26.279,14.348,33.505,35.665c0.125,0.367,0.259,0.723,0.4,1.075
		c6.354,28.435,33.094,49.946,63.247,49.946c34.582,0,62.617-28.035,62.617-62.617c0-21.432-10.77-40.347-27.19-51.634
		c-0.042-0.055-1.634-2.107-1.68-2.158c-12.164-13.122-16.914-38.854-18.128-52.744c0.091-1.648,0.141-3.3,0.141-4.955
		c0-47.39-38.417-85.808-85.807-85.808c-47.391,0-88.632,38.064-88.632,85.454c0,35.454,23.493,69.927,55.171,85.046L69.496,265.081
		z"/>

	<path fill="none" stroke="#FFFFFF" stroke-width="1.7179" stroke-miterlimit="10" d="M199.271,277.999
			c0-0.736-0.602-1.339-1.338-1.339h-17.708c-0.736,0-1.339-0.603-1.339-1.338V257.61c0-0.734-0.602-1.337-1.339-1.337h-20.56
			c-0.735,0-1.338,0.603-1.338,1.337v17.712c0,0.735-0.602,1.338-1.338,1.338h-17.706c-0.736,0-1.338,0.603-1.338,1.339v20.561
			c0,0.735,0.602,1.338,1.338,1.338h17.708c0.736,0,1.338,0.603,1.338,1.338v17.709c0,0.736,0.603,1.339,1.339,1.339h20.56
			c0.736,0,1.338-0.603,1.338-1.339v-17.709c0-0.735,0.602-1.338,1.339-1.338h17.709c0.734,0,1.338-0.603,1.338-1.338v-20.561
			H199.271z"/>

	<path fill="#FFFFFF" d="M96.893,136.698c1.188,0,2.369,0.184,3.272,0.549l24.192,9.828c1.847,0.75,3.992,2.866,4.767,4.702
			l10.159,24.058c0.774,1.835,0.795,4.848,0.045,6.696l-9.828,24.193c-0.75,1.847-2.866,3.992-4.702,4.767l-24.057,10.159
			c-0.938,0.396-2.184,0.595-3.424,0.595c-1.187,0-2.369-0.182-3.272-0.549l-24.194-9.828c-1.846-0.75-3.991-2.866-4.766-4.701
			l-10.157-24.06c-0.775-1.835-0.795-4.848-0.045-6.695l9.827-24.194c0.751-1.845,2.867-3.991,4.702-4.767l24.057-10.156
			C94.408,136.897,95.653,136.698,96.893,136.698 M96.893,134.981c-1.522,0-2.976,0.259-4.091,0.73l-24.057,10.157
			c-2.24,0.945-4.711,3.45-5.625,5.702l-9.829,24.194c-0.914,2.252-0.891,5.771,0.056,8.01l10.158,24.058
			c0.945,2.239,3.45,4.71,5.703,5.625l24.193,9.828c1.072,0.435,2.464,0.677,3.918,0.677c1.522,0,2.976-0.26,4.091-0.732
			l24.058-10.157c2.239-0.946,4.71-3.451,5.625-5.704l9.828-24.193c0.915-2.252,0.891-5.77-0.055-8.01l-10.159-24.057
			c-0.945-2.24-3.449-4.711-5.703-5.625l-24.192-9.828C99.738,135.22,98.348,134.981,96.893,134.981L96.893,134.981z"/>

	<circle fill="none" stroke="#FFFFFF" stroke-width="1.7179" stroke-miterlimit="10" cx="248.853" cy="181.78" r="12.626"/>
	<circle fill="none" stroke="#FFFFFF" stroke-width="1.7179" stroke-miterlimit="10" cx="97.106" cy="179.478" r="38.878"/>
	<circle fill="none" stroke="#FFFFFF" stroke-width="1.7179" stroke-miterlimit="10" cx="329.718" cy="289.078" r="35.114"/>
	<path fill="none" stroke="#FFFFFF" stroke-width="1.7179" stroke-miterlimit="10" d="M118.956,76.703
		c-4.585-5.288-23.9-7.754-38.744-0.304c-13.906,6.98-25.827,22.11-26.25,29.576C71.341,94.894,96.397,84.86,118.956,76.703z"/>
	<path fill="none" stroke="#FFFFFF" stroke-width="1.7179" stroke-miterlimit="10" d="M450.61,110.9
		c0.763-1.617,1.075-2.739,1.341-3.323c0.98-2.16-9.666-13.081-32.298-23.365c-22.631-10.283-45.289-9.947-46.27-7.788
		c-0.013,0.029,0.074-0.083,0,0C400.262,85.907,431.674,97.37,450.61,110.9z"/>

	<path fill="none" stroke="#FFFFFF" stroke-width="1.7179" stroke-miterlimit="10" d="M419.653,84.212
			c5.835,2.65,10.866,5.342,15.11,7.916c-4.724-5.884-11.376-11.815-18.696-15.489c-12.73-6.39-28.75-5.233-35.946-1.438
			C388.68,75.113,404.171,77.177,419.653,84.212z"/>

</svg>
