<?xml version="1.0" encoding="utf-8"?>
<!-- Generator: Adobe Illustrator 16.0.0, SVG Export Plug-In . SVG Version: 6.00 Build 0)  -->
<!DOCTYPE svg PUBLIC "-//W3C//DTD SVG 1.1//EN" "http://www.w3.org/Graphics/SVG/1.1/DTD/svg11.dtd">
<svg version="1.1" id="Layer_1" xmlns="http://www.w3.org/2000/svg" xmlns:xlink="http://www.w3.org/1999/xlink" x="0px" y="0px"
	 width="500px" height="500px" viewBox="0 0 500 500" enable-background="new 0 0 500 500" xml:space="preserve">
<g>
	<g>
		<path fill="none" stroke="#000000" stroke-width="1.7252" stroke-miterlimit="10" d="M10.514,183.809
			c-1.408,14.758-2.674,34.407-5.097,52.586c-7.247,54.342-4.142,131.973,4.657,160.955c8.799,28.982,30.017,29.502,30.017,29.502
			c45.545,6.727,46.063-114.895,50.72-124.211c3.731-7.465,7.645-14.063,7.645-14.063"/>
		<path fill="none" stroke="#000000" stroke-width="1.7252" stroke-miterlimit="10" d="M400.247,286.597
			c0,0,5.067,8.579,8.799,16.044c4.658,9.315,5.177,130.937,50.719,124.211c0,0,21.22-0.52,30.018-29.502
			c8.797-28.981,11.903-106.612,4.657-160.955c-6.438-48.298-6.353-84.856-22.848-104.422"/>
		<path fill="none" stroke="#000000" stroke-width="1.7252" stroke-miterlimit="10" d="M456.752,115.286
			c-19.276-16.45-58.512-30.293-89.304-41.106c-32.821-11.525-74.822-18.444-120.601-18.444c-46.2,0-88.552,7.046-121.505,18.764
			c-28.854,10.26-63.825,23.531-82.385,38.784"/>
		<path fill="none" stroke="#000000" stroke-width="1.7252" stroke-miterlimit="10" d="M193.722,220.939
			c11.519-2.124,28.352-5.387,55.75-5.226c10.521,0.062,21.085-1.102,53.131,5.764"/>
	</g>
	<path fill="none" stroke="#000000" stroke-width="1.7252" stroke-miterlimit="10" d="M427.909,265.564
		c-1.113,0.481-2.237,0.942-3.368,1.375c-9.47,4.195-26.392,14.408-33.647,35.815c-0.126,0.369-0.262,0.727-0.401,1.081
		c-6.383,28.554-33.234,50.156-63.516,50.156c-34.729,0-62.882-28.152-62.882-62.882c0-21.522,10.815-40.516,27.307-51.852
		c0.042-0.055,1.64-2.116,1.686-2.167c12.215-13.178,16.986-39.019,18.205-52.968c-0.09-1.655-0.14-3.314-0.14-4.975
		c0-47.591,38.579-86.171,86.167-86.171c47.592,0,89.008,38.224,89.008,85.815c0,35.604-23.592,70.221-55.403,85.405
		L427.909,265.564z"/>
	<g>
		<path fill="none" stroke="#000000" stroke-width="1.7252" stroke-miterlimit="10" d="M333.474,328.925
			c-1.688,0.715-4.466,0.732-6.167,0.044l-22.293-9.056c-1.701-0.691-3.679-2.642-4.392-4.332l-9.359-22.167
			c-0.715-1.691-0.735-4.468-0.043-6.17l9.056-22.294c0.69-1.7,2.641-3.676,4.331-4.392l22.167-9.357
			c1.693-0.715,4.469-0.735,6.17-0.044l22.291,9.055c1.703,0.69,3.678,2.642,4.394,4.332l9.358,22.169
			c0.716,1.691,0.734,4.469,0.042,6.169l-9.056,22.291c-0.691,1.702-2.639,3.679-4.331,4.393L333.474,328.925z"/>
	</g>
	<circle fill="none" stroke="#000000" stroke-width="1.7252" stroke-miterlimit="10" cx="342.979" cy="208.121" r="18.805"/>
	<circle fill="none" stroke="#000000" stroke-width="1.7252" stroke-miterlimit="10" cx="400.083" cy="179.655" r="28.983"/>
	<path fill="none" stroke="#000000" stroke-width="1.7252" stroke-miterlimit="10" d="M399.596,136.985
		c6.835-0.347,12.392-5.549,12.392-12.392c0-4.128-2.02-7.783-5.123-10.035c-5.194-4.143-18.396-6.079-28.115-2.646
		c-7.589,2.681-14.668,8.445-17.901,12.746c-1.816,2.157-2.918,4.942-2.918,7.985c0,6.845,5.549,12.393,12.395,12.393
		c5.842,0,7.51-3.019,14.002-5.06c2.363-0.744,4.344-1.559,6.784-2.129C393.188,137.364,397.465,137.092,399.596,136.985z"/>
	<path fill="none" stroke="#000000" stroke-width="1.7252" stroke-miterlimit="10" d="M443.537,182.25
		c0.348,6.835,5.551,12.393,12.395,12.393c4.126,0,7.781-2.021,10.033-5.125c4.143-5.193,6.081-18.394,2.646-28.114
		c-2.682-7.588-8.446-14.666-12.745-17.899c-2.157-1.821-4.943-2.919-7.986-2.919c-6.844,0-12.393,5.549-12.393,12.393
		c0,5.844,3.019,7.512,5.06,14.003c0.745,2.363,1.56,4.343,2.13,6.786C443.159,175.845,443.429,180.122,443.537,182.25z"/>
	<path fill="none" stroke="#000000" stroke-width="1.7249" stroke-miterlimit="10" d="M68.802,265.968
		c1.114,0.479,2.237,0.941,3.369,1.374c9.469,4.195,26.39,14.408,33.647,35.816c0.125,0.369,0.26,0.726,0.401,1.079
		c6.381,28.553,33.234,50.155,63.516,50.155c34.729,0,62.881-28.152,62.881-62.88c0-21.521-10.815-40.516-27.304-51.852
		c-0.042-0.055-1.641-2.117-1.686-2.168c-12.216-13.178-16.986-39.018-18.206-52.967c0.09-1.655,0.142-3.313,0.142-4.975
		c0-47.591-38.58-86.17-86.171-86.17s-89.007,38.225-89.007,85.814c0,35.603,23.593,70.223,55.404,85.406L68.802,265.968z"/>
	<g>
		<path fill="none" stroke="#000000" stroke-width="1.7252" stroke-miterlimit="10" d="M199.125,278.938
			c0-0.739-0.604-1.344-1.343-1.344h-17.783c-0.739,0-1.344-0.605-1.344-1.345v-17.786c0-0.737-0.604-1.342-1.344-1.342h-20.647
			c-0.739,0-1.345,0.604-1.345,1.342v17.786c0,0.738-0.604,1.345-1.343,1.345H136.19c-0.738,0-1.344,0.603-1.344,1.344v20.648
			c0,0.735,0.605,1.343,1.344,1.343h17.786c0.739,0,1.343,0.605,1.343,1.344v17.782c0,0.74,0.605,1.345,1.345,1.345h20.648
			c0.739,0,1.344-0.604,1.344-1.345v-17.782c0-0.738,0.604-1.344,1.344-1.344h17.783c0.739,0,1.343-0.606,1.343-1.343
			L199.125,278.938L199.125,278.938z"/>
	</g>
	<g>
		<path d="M96.315,137.041c1.192,0,2.379,0.184,3.286,0.552l24.294,9.87c1.854,0.752,4.009,2.878,4.787,4.721l10.202,24.159
			c0.777,1.844,0.798,4.868,0.045,6.722l-9.87,24.296c-0.753,1.854-2.877,4.007-4.721,4.787l-24.159,10.201
			c-0.942,0.397-2.192,0.599-3.437,0.599c-1.192,0-2.379-0.184-3.286-0.551l-24.296-9.87c-1.854-0.753-4.008-2.878-4.787-4.721
			l-10.2-24.161c-0.779-1.843-0.8-4.868-0.046-6.724l9.869-24.295c0.754-1.854,2.878-4.009,4.722-4.787l24.16-10.201
			C93.82,137.24,95.07,137.041,96.315,137.041 M96.315,135.316L96.315,135.316c-1.528,0-2.988,0.26-4.108,0.732L68.047,146.25
			c-2.249,0.949-4.73,3.464-5.648,5.726l-9.869,24.295c-0.919,2.262-0.896,5.795,0.055,8.044l10.201,24.16
			c0.949,2.247,3.464,4.73,5.726,5.648l24.295,9.87c1.078,0.437,2.476,0.679,3.936,0.679c1.529,0,2.988-0.261,4.109-0.733
			l24.159-10.203c2.25-0.95,4.73-3.464,5.648-5.725l9.871-24.297c0.918-2.261,0.893-5.794-0.055-8.043l-10.203-24.159
			c-0.949-2.249-3.464-4.729-5.725-5.649l-24.295-9.869C99.173,135.557,97.776,135.316,96.315,135.316L96.315,135.316z"/>
	</g>
	<circle fill="none" stroke="#000000" stroke-width="1.7252" stroke-miterlimit="10" cx="248.918" cy="182.312" r="12.679"/>
	<circle fill="none" stroke="#000000" stroke-width="1.7252" stroke-miterlimit="10" cx="96.529" cy="180" r="39.042"/>
	<circle fill="none" stroke="#000000" stroke-width="1.7252" stroke-miterlimit="10" cx="330.124" cy="290.063" r="35.26"/>
	<path fill="none" stroke="#000000" stroke-width="1.7252" stroke-miterlimit="10" d="M118.472,76.791
		c-4.604-5.31-24.001-7.787-38.906-0.305c-13.965,7.01-25.936,22.204-26.361,29.702C70.655,95.06,95.818,84.982,118.472,76.791z"/>
	<path fill="none" stroke="#000000" stroke-width="1.7252" stroke-miterlimit="10" d="M451.526,111.133
		c0.768-1.623,1.082-2.75,1.349-3.336c0.985-2.17-9.706-13.137-32.435-23.464c-22.727-10.328-45.479-9.99-46.466-7.822
		c-0.012,0.03,0.076-0.083,0,0C400.967,86.035,432.514,97.546,451.526,111.133z"/>
	<g>
		<path fill="none" stroke="#000000" stroke-width="1.7252" stroke-miterlimit="10" d="M420.44,84.333
			c5.858,2.662,10.908,5.364,15.175,7.949c-4.743-5.908-11.426-11.866-18.777-15.555c-12.782-6.418-28.871-5.254-36.099-1.444
			C389.335,75.195,404.893,77.267,420.44,84.333z"/>
	</g>
</g>
</svg>
