<svg xmlns="http://www.w3.org/2000/svg" viewBox="0 0 500 500">
   <path fill="none" stroke="#FFFFFF" stroke-width="1.8518" stroke-miterlimit="10" d="M495.442,225.453
		c-6.98-32.988-24.431-48.716-32.187-55.62s-47.311-28.385-56.618-31.455c-5.065-1.67-34.27-14.572-69.026-21.864
		c-38.377-8.052-60.479-9.972-87.611-9.589c-27.132-0.383-49.233,1.537-87.61,9.589c-34.758,7.292-63.962,20.194-69.027,21.864
		c-9.307,3.069-48.862,24.55-56.618,31.455s-25.206,22.632-32.187,55.62c-6.979,32.988,5.814,73.066,8.531,79.786
		c3.878,9.589,8.532,21.48,27.922,48.332c7.493,10.377,22.468,23.104,31.41,29.92c14.594,11.12,33.141,10.967,42.657,7.672
		c15.512-5.371,14.868-8.426,29.473-32.605c17.839-29.536,35.805-32.1,46.535-36.058c22.505-8.301,57.766-8.437,58.914-8.438
		c1.148,0.002,36.409,0.138,58.915,8.438c10.729,3.958,28.695,6.521,46.534,36.058c14.604,24.18,13.961,27.234,29.473,32.605
		c9.518,3.295,28.064,3.448,42.656-7.672c8.944-6.816,23.918-19.543,31.412-29.92c19.39-26.852,24.043-38.743,27.921-48.332
		C489.628,298.52,502.423,258.441,495.442,225.453z"/>
	
   <ellipse fill="none" stroke="#FFFFFF" stroke-width="1.8518" stroke-miterlimit="10" cx="112.903" cy="241.106" rx="77.171" ry="76.334"/>
	
   <ellipse fill="none" stroke="#FFFFFF" stroke-width="1.8518" stroke-miterlimit="10" cx="112.903" cy="241.106" rx="46.923" ry="46.415"/>
   <path fill="none" stroke="#FFFFFF" stroke-width="1.8518" stroke-miterlimit="10" d="M155.98,232.861
			c0-1.019-0.833-1.852-1.852-1.852h-29.166c-1.018,0-1.852-0.833-1.852-1.852v-28.811c0-1.019-0.833-1.852-1.852-1.852h-16.713
			c-1.018,0-1.852,0.833-1.852,1.852v28.811c0,1.019-0.833,1.852-1.852,1.852H71.677c-1.018,0-1.852,0.833-1.852,1.852v16.491
			c0,1.019,0.833,1.852,1.852,1.852h29.167c1.018,0,1.852,0.833,1.852,1.852v28.81c0,1.019,0.833,1.852,1.852,1.852h16.713
			c1.018,0,1.852-0.833,1.852-1.852v-28.81c0-1.019,0.833-1.852,1.852-1.852h29.166c1.018,0,1.852-0.833,1.852-1.852V232.861z"/>
   <path fill="none" stroke="#FFFFFF" stroke-width="1.8518" stroke-miterlimit="10" d="M375.193,165.978
		c1.24,2.843-0.133,6.164-3.069,7.418l-31.896,13.632c-2.936,1.255-6.321-0.031-7.562-2.873l0,0
		c-1.242-2.842,0.132-6.163,3.067-7.417l31.896-13.633C370.565,161.851,373.951,163.137,375.193,165.978L375.193,165.978z"/>
   <path fill="none" stroke="#FFFFFF" stroke-width="1.8518" stroke-miterlimit="10" d="M460.329,190.655
		c-8.742-6.492-19.023-9.374-28.877-8.882c-0.001,0-0.004-0.005-0.004-0.005s-0.043,0.004-0.104,0.009
		c-0.464,0.025-1.035,0.018-1.644,0.004c-0.138-0.031-0.275-0.058-0.41-0.064c-7.581-0.376-24.06,2.279-43.823,8.758
		c-5.279,1.646-10.612,3.555-15.76,5.754c-2.268,0.914-4.556,1.869-6.859,2.878c-11.117,4.864-22.113,12.135-31.478,19.274
		c-10.936,7.782-19.012,15.01-23.196,19.951c-1.01,0.918-1.984,1.877-2.905,2.894c-0.043,0.044-0.073,0.075-0.073,0.075
		s0.003,0.005,0.003,0.006c-6.562,7.288-10.731,17.021-11.093,27.829c-0.783,23.45,16.626,43.051,38.886,43.779
		c6.985,0.228,13.617-1.431,19.454-4.537c5.841-2.778,11.908-6.648,16.527-9.516c3.419-1.535,6.541-2.988,8.74-4.115
		c6.479-3.323,30.492-13.914,44.266-20.051c2.935-1.28,5.304-2.313,6.794-2.964c1.006-0.439,2.17-0.997,3.434-1.632
		c4.648-1.901,14.389-4.615,22.549-8.471c6.104-2.553,11.517-8.039,15.712-13.568C483.838,230.444,479.299,204.743,460.329,190.655z
		"/>
	
   <ellipse fill="none" stroke="#FFFFFF" stroke-width="1.8518" stroke-miterlimit="10" cx="336.284" cy="269.366" rx="20.359" ry="20.138"/>
	
   <ellipse fill="none" stroke="#FFFFFF" stroke-width="1.8518" stroke-miterlimit="10" cx="386.309" cy="242.898" rx="20.359" ry="20.139"/>
	
   <ellipse fill="none" stroke="#FFFFFF" stroke-width="1.8518" stroke-miterlimit="10" cx="437.885" cy="222.952" rx="20.359" ry="20.139"/>
</svg>
