<svg xmlns="http://www.w3.org/2000/svg" viewBox="0 0 500 500">
<g>
	<path opacity="0.15" fill="none" stroke="#FFFFFF" stroke-width="0.8053" stroke-miterlimit="10" d="M405.416,118.531
		c0.01-0.723,0.062-1.441,0.175-2.138c-7.397,3.332-13.467,8.91-17.236,15.812c0.759-0.109,1.523-0.169,2.305-0.176
		C394.075,126.267,399.219,121.557,405.416,118.531z"/>
	<path opacity="0.15" fill="none" stroke="#FFFFFF" stroke-width="0.8053" stroke-miterlimit="10" d="M389.029,162.249
		c-0.772-0.083-1.538-0.215-2.275-0.402c3.867,9.298,11.692,16.675,21.503,20.227c-0.318-0.733-0.572-1.498-0.771-2.285
		C399.244,176.392,392.622,170.097,389.029,162.249z"/>
	<path opacity="0.15" fill="none" stroke="#FFFFFF" stroke-width="0.8053" stroke-miterlimit="10" d="M452.953,133.015
		c0.094,0,0.178-0.005,0.27-0.005c0.67,0,1.318,0.042,1.957,0.118c-3.807-7.487-10.277-13.514-18.227-16.963
		c0.123,0.7,0.191,1.41,0.211,2.139C443.92,121.481,449.463,126.654,452.953,133.015z"/>
	<path opacity="0.15" fill="none" stroke="#FFFFFF" stroke-width="0.8053" stroke-miterlimit="10" d="M438.672,178.33
		c-0.111,0.802-0.289,1.584-0.525,2.342c7.787-3.695,14.037-9.913,17.576-17.53c-0.721,0.107-1.461,0.167-2.213,0.179
		C450.315,169.675,445.104,174.928,438.672,178.33z"/>
	<path fill="none" stroke="#FFFFFF" stroke-width="2.0132" stroke-miterlimit="10" d="M493.64,187.143
		c-2.677-14.95-0.284-28.967-3.914-40.324c-7.388-38.144-38.899-66.893-78.913-74.554c0.042-0.111-44.7-7.077-44.732-7.085
		c-7.193-1.571-5.4-1.725-7.193-3.341c-2.26-2.045-8.859-19.924-8.859-21.247c0-0.694-7.478-3.734-13.01-6.141
		c-15.994-8.72-48.292-14.679-85.538-14.679c-0.229,0-0.459,0-0.688,0.003c-0.234-0.003-0.464-0.003-0.693-0.003
		c-24.565,0-46.973,2.596-63.975,6.859c-9.477,2.276-17.368,5.063-23.134,8.205c-5.537,2.409-13.013,5.449-13.013,6.143
		c0,1.322-6.601,19.198-8.862,21.247c-1.782,1.617,0,1.77-7.192,3.342c-0.039,0.009-44.776,6.976-44.727,7.086
		c-40.017,7.656-71.53,36.41-78.917,74.548c-3.633,11.36-1.235,25.377-3.917,40.328C4.003,200.7,1.006,224.88,1.006,255.985
		c0,55.016,19.369,121.564,46.156,122.74c6.03,0.271,10.357-0.784,14.834-3.929c3.676-2.591,5.562-2.556,12.795-13.167
		c10.894-15.998,23.471-63.948,25.943-91.683c1.348-15.13,4.946-11.797,14.536-12.001c3.94-0.12,11.323,0.944,15.131,0.4
		c10.713,1.77,17.173,3.497,22.871,7.074c8.447,5.318,11.992,11.182,15.455,24.393c3.285,12.562,29.258,123.737,38.12,148.323
		c8.515,24.949,25.024,42.09,41.616,42.09l2.886-0.196c10.364,0,19.815-5.537,27.524-15.774
		c5.775-7.025,10.727-16.088,14.284-26.509c8.858-24.589,34.831-135.762,38.122-148.319c3.455-13.215,7.002-19.08,15.447-24.391
		c5.699-3.574,12.16-5.307,22.868-7.078c3.818,0.542,11.202-0.521,15.138-0.394c9.59,0.196,13.188-3.136,14.535,11.997
		c2.476,27.733,15.055,75.687,25.944,91.679c7.232,10.607,9.114,10.577,12.796,13.164c4.473,3.15,8.795,4.203,14.834,3.938
		c26.786-1.183,46.151-67.732,46.151-122.746C498.993,224.496,495.989,200.312,493.64,187.143z"/>
	<g>
		<path fill="none" stroke="#FFFFFF" stroke-width="2.0132" stroke-miterlimit="10" d="M126.555,155.417
			c0-0.665-0.543-1.208-1.208-1.208h-22.555c-0.665,0-1.208-0.543-1.208-1.208v-21.425c0-0.665-0.543-1.208-1.208-1.208H74.325
			c-0.665,0-1.208,0.543-1.208,1.208v21.425c0,0.665-0.543,1.208-1.208,1.208H49.347c-0.665,0-1.208,0.543-1.208,1.208v24.758
			c0,0.665,0.543,1.208,1.208,1.208h22.562c0.665,0,1.208,0.543,1.208,1.208v21.427c0,0.665,0.543,1.208,1.208,1.208h26.051
			c0.665,0,1.208-0.543,1.208-1.208v-21.427c0-0.665,0.543-1.208,1.208-1.208h22.555c0.665,0,1.208-0.543,1.208-1.208V155.417z"/>
	</g>
	<path fill="none" stroke="#FFFFFF" stroke-width="2.0132" stroke-miterlimit="10" d="M406.622,147.614
		c0,8.37-7.109,15.16-15.875,15.16c-8.77,0-15.885-6.79-15.885-15.16c0-8.373,7.115-15.16,15.885-15.16
		C399.513,132.454,406.622,139.242,406.622,147.614z"/>
	<path fill="none" stroke="#FFFFFF" stroke-width="2.0132" stroke-miterlimit="10" d="M438.766,176.728
		c0,8.37-7.104,15.157-15.879,15.157c-8.766,0-15.876-6.788-15.876-15.157c0-8.373,7.11-15.161,15.876-15.161
		C431.662,161.567,438.766,168.355,438.766,176.728z"/>
	
		<ellipse fill="none" stroke="#FFFFFF" stroke-width="2.0132" stroke-miterlimit="10" cx="453.174" cy="148.597" rx="15.877" ry="15.158"/>
	<path fill="none" stroke="#FFFFFF" stroke-width="2.0132" stroke-miterlimit="10" d="M437.115,119.091
		c0,8.375-7.104,15.16-15.873,15.16c-8.772,0-15.882-6.786-15.882-15.16c0-8.372,7.109-15.161,15.882-15.161
		C430.012,103.931,437.115,110.719,437.115,119.091z"/>
	
		<line opacity="0.15" fill="none" stroke="#FFFFFF" stroke-width="2.0132" stroke-miterlimit="10" x1="361.764" y1="191.885" x2="370.567" y2="200.295"/>
	<path fill="none" stroke="#FFFFFF" stroke-width="2.0132" stroke-miterlimit="10" d="M367.705,177.991
		c0,10.811-9.178,19.572-20.504,19.572c-11.322,0-20.504-8.762-20.504-19.572c0-10.815,9.182-19.579,20.504-19.579
		C358.527,158.412,367.705,167.176,367.705,177.991z"/>
	
		<ellipse fill="none" stroke="#FFFFFF" stroke-width="2.0132" stroke-miterlimit="10" cx="383.445" cy="214.168" rx="20.506" ry="19.573"/>
	<path fill="none" stroke="#FFFFFF" stroke-width="2.0132" stroke-miterlimit="10" d="M270.962,181.896
		c0,10.67-9.062,19.327-20.243,19.327c-11.181,0-20.244-8.657-20.244-19.327c0-10.676,9.063-19.329,20.244-19.329
		C261.9,162.567,270.962,171.22,270.962,181.896z"/>
	<path fill="none" stroke="#FFFFFF" stroke-width="2.0132" stroke-miterlimit="10" d="M306.422,282.127
		c0,29.692-25.221,53.771-56.328,53.771c-31.108,0-56.324-24.079-56.324-53.771c0-29.697,25.216-53.775,56.324-53.775
		C281.201,228.352,306.422,252.43,306.422,282.127z"/>
	<path fill="none" stroke="#FFFFFF" stroke-width="2.0132" stroke-miterlimit="10" d="M276.152,282.127
		c0,13.408-11.385,24.281-25.434,24.281c-14.048,0-25.434-10.873-25.434-24.281c0-13.414,11.386-24.287,25.434-24.287
		C264.768,257.84,276.152,268.713,276.152,282.127z"/>
</g>
</svg>
