<svg xmlns="http://www.w3.org/2000/svg" viewBox="0 0 500 500" >
   <g>
      <path fill="#D3D3D3" d="M494.621,183.891c-2.689-15.722-0.284-30.464-3.931-42.409c-7.415-40.113-39.057-70.35-79.232-78.405
		c0.047-0.116-44.872-7.439-44.909-7.448c-7.224-1.655-5.429-1.814-7.224-3.517c-2.269-2.152-8.896-20.953-8.896-22.343
		c0-0.729-7.508-3.929-13.063-6.46c-16.054-9.168-48.483-15.436-85.88-15.436c-0.231,0-0.463,0.001-0.695,0.003
		c-0.232-0.001-0.463-0.003-0.696-0.003c-24.661,0-47.162,2.727-64.231,7.212c-9.517,2.395-17.439,5.324-23.23,8.631
		c-5.556,2.532-13.064,5.731-13.064,6.46c0,1.39-6.627,20.19-8.896,22.343c-1.794,1.702,0,1.862-7.224,3.517
		c-0.036,0.009-44.957,7.332-44.909,7.448c-40.176,8.056-71.818,38.292-79.233,78.405c-3.646,11.945-1.241,26.687-3.931,42.41
		C3.009,198.149,0,223.58,0,256.291c0,57.857,19.446,127.848,46.34,129.09c6.059,0.279,10.402-0.828,14.895-4.139
		c3.695-2.721,5.585-2.689,12.845-13.85c10.937-16.814,23.565-67.244,26.048-96.414c1.354-15.916,4.965-12.412,14.598-12.623
		c3.955-0.131,11.366,0.99,15.192,0.418c10.757,1.861,17.242,3.68,22.963,7.447c8.482,5.586,12.042,11.754,15.516,25.652
		c3.301,13.207,29.376,130.125,38.272,155.984c8.55,26.238,25.126,44.27,41.789,44.27l2.896-0.207
		c10.41,0,19.896-5.826,27.636-16.596c5.797-7.381,10.771-16.91,14.344-27.875c8.896-25.859,34.972-142.775,38.271-155.984
		c3.475-13.898,7.034-20.066,15.516-25.652c5.722-3.768,12.206-5.584,22.964-7.447c3.826,0.572,11.237-0.547,15.192-0.416
		c9.632,0.209,13.243-3.295,14.598,12.623c2.482,29.168,15.11,79.6,26.048,96.414c7.259,11.16,9.149,11.127,12.844,13.85
		c4.494,3.309,8.837,4.416,14.896,4.137c26.894-1.24,46.34-71.232,46.34-129.09C500,223.173,496.991,197.742,494.621,183.891z"/>
      <g>
         <path fill="#636363" d="M126.055,150.499c0-0.683-0.559-1.241-1.241-1.241h-22.591c-0.683,0-1.241-0.559-1.241-1.241v-22.593
			c0-0.683-0.559-1.241-1.241-1.241H73.641c-0.683,0-1.241,0.559-1.241,1.241v22.593c0,0.683-0.559,1.241-1.241,1.241H48.566
			c-0.683,0-1.241,0.559-1.241,1.241v26.096c0,0.683,0.559,1.241,1.241,1.241h22.593c0.683,0,1.241,0.559,1.241,1.241v22.592
			c0,0.683,0.559,1.241,1.241,1.241H99.74c0.683,0,1.241-0.559,1.241-1.241v-22.592c0-0.683,0.559-1.241,1.241-1.241h22.591
			c0.683,0,1.241-0.559,1.241-1.241V150.499z"/>
      </g>
      <path opacity="0.15" fill="#989898" d="M422.163,106.361c-20.734,0-37.542,16.81-37.542,37.542
		c0,20.733,16.808,37.542,37.542,37.542c20.733,0,37.542-16.809,37.542-37.542C459.705,123.17,442.896,106.361,422.163,106.361z
		 M422.163,179.51c-19.664,0-35.606-15.944-35.606-35.607s15.942-35.607,35.606-35.607s35.605,15.944,35.605,35.607
		S441.827,179.51,422.163,179.51z"/>
      <circle fill="#E8C52D" cx="391.312" cy="142.318" r="15.943"/>
      <circle fill="#E8C52D" cx="423.584" cy="172.936" r="15.943"/>
      <circle fill="#E8C52D" cx="453.995" cy="143.353" r="15.943"/>
      <circle fill="#E8C52D" cx="421.929" cy="112.321" r="15.943"/>
	
      <line opacity="0.15" fill="none" stroke="#989898" stroke-width="2.0687" stroke-miterlimit="10" x1="347.596" y1="174.264" x2="385.123" y2="211.791"/>
      <circle fill="#55B848" cx="347.596" cy="174.264" r="20.588"/>
      <circle fill="#4657A5" cx="383.981" cy="212.312" r="20.588"/>
      <circle fill="#EC3132" cx="250.72" cy="178.372" r="20.328"/>
      <circle fill="#636363" cx="250.094" cy="283.781" r="56.552"/>
      <circle fill="#F2F2F2" cx="250.72" cy="283.781" r="25.54"/>
   </g>
</svg>
