<svg xmlns="http://www.w3.org/2000/svg" viewBox="0 0 500 500">
<g>
	<path opacity="0.15" fill="none" stroke="#989898" stroke-width="0.8216" stroke-miterlimit="10" d="M405.4,113.147
		c0.006-0.756,0.064-1.501,0.174-2.229c-7.395,3.468-13.461,9.274-17.232,16.46c0.75-0.116,1.52-0.176,2.303-0.183
		C394.064,121.195,399.205,116.294,405.4,113.147z"/>
	<path opacity="0.15" fill="none" stroke="#989898" stroke-width="0.8216" stroke-miterlimit="10" d="M389.014,158.652
		c-0.777-0.085-1.535-0.226-2.271-0.418c3.859,9.676,11.693,17.356,21.5,21.056c-0.316-0.765-0.574-1.56-0.77-2.379
		C399.23,173.375,392.611,166.822,389.014,158.652z"/>
	<path opacity="0.15" fill="none" stroke="#989898" stroke-width="0.8216" stroke-miterlimit="10" d="M452.936,128.223
		c0.09-0.001,0.182-0.006,0.273-0.006c0.662,0,1.312,0.045,1.953,0.123c-3.807-7.795-10.273-14.069-18.229-17.655
		c0.121,0.726,0.191,1.468,0.209,2.223C443.904,116.214,449.443,121.599,452.936,128.223z"/>
	<path opacity="0.15" fill="none" stroke="#989898" stroke-width="0.8216" stroke-miterlimit="10" d="M438.654,175.39
		c-0.113,0.837-0.289,1.654-0.529,2.443c7.793-3.85,14.041-10.321,17.578-18.253c-0.721,0.113-1.459,0.175-2.209,0.188
		C450.301,166.383,445.088,171.85,438.654,175.39z"/>
	<path fill="none" stroke="#D3D3D3" stroke-width="2.0539" stroke-miterlimit="10" d="M493.615,184.566
		c-2.678-15.562-0.283-30.152-3.914-41.976c-7.385-39.704-38.896-69.631-78.908-77.605c0.049-0.114-44.688-7.363-44.723-7.372
		c-7.195-1.638-5.408-1.796-7.195-3.48c-2.258-2.13-8.859-20.739-8.859-22.114c0-0.722-7.477-3.889-13.01-6.395
		c-15.988-9.075-48.283-15.279-85.525-15.279c-0.232,0-0.462,0.001-0.693,0.003c-0.231-0.002-0.461-0.003-0.693-0.003
		c-24.56,0-46.968,2.699-63.967,7.139c-9.477,2.37-17.368,5.27-23.135,8.543c-5.532,2.505-13.01,5.672-13.01,6.394
		c0,1.375-6.599,19.984-8.859,22.115c-1.787,1.685,0,1.842-7.194,3.48c-0.037,0.008-44.772,7.257-44.725,7.372
		c-40.011,7.974-71.523,37.901-78.907,77.605c-3.631,11.823-1.237,26.414-3.914,41.975c-2.36,13.71-5.357,38.881-5.357,71.258
		c0,57.267,19.366,126.543,46.149,127.772c6.035,0.275,10.359-0.819,14.834-4.096c3.68-2.694,5.562-2.663,12.792-13.709
		c10.892-16.643,23.469-66.559,25.941-95.43c1.349-15.754,4.944-12.285,14.538-12.492c3.939-0.131,11.32,0.978,15.13,0.411
		c10.713,1.843,17.171,3.643,22.869,7.372c8.447,5.527,11.992,11.633,15.452,25.39c3.288,13.073,29.256,128.796,38.115,154.39
		c8.516,25.972,25.023,43.819,41.617,43.819l2.883-0.204c10.367,0,19.816-5.767,27.523-16.427
		c5.773-7.307,10.727-16.738,14.285-27.591c8.857-25.595,34.826-141.316,38.113-154.39c3.461-13.757,7.006-19.863,15.453-25.39
		c5.697-3.729,12.154-5.529,22.869-7.372c3.811,0.566,11.191-0.543,15.131-0.413c9.592,0.208,13.188-3.261,14.535,12.492
		c2.473,28.873,15.051,78.788,25.941,95.431c7.229,11.047,9.111,11.015,12.791,13.709c4.475,3.275,8.801,4.372,14.834,4.095
		c26.783-1.228,46.15-70.505,46.15-127.771C498.973,223.447,495.975,198.276,493.615,184.566z"/>
	<g>
		<path fill="none" stroke="#636363" stroke-width="2.0539" stroke-miterlimit="10" d="M126.563,151.519
			c0-0.678-0.555-1.232-1.232-1.232h-22.506c-0.678,0-1.232-0.555-1.232-1.232v-22.355c0-0.678-0.555-1.232-1.232-1.232H74.361
			c-0.678,0-1.232,0.555-1.232,1.232v22.355c0,0.678-0.555,1.232-1.232,1.232H49.389c-0.678,0-1.232,0.555-1.232,1.232v25.822
			c0,0.678,0.555,1.232,1.232,1.232h22.508c0.678,0,1.232,0.555,1.232,1.232v22.354c0,0.678,0.555,1.232,1.232,1.232h25.999
			c0.678,0,1.232-0.555,1.232-1.232v-22.354c0-0.678,0.555-1.232,1.232-1.232h22.506c0.678,0,1.232-0.555,1.232-1.232V151.519z"/>
	</g>
	
		<ellipse fill="none" stroke="#E8C52D" stroke-width="2.0539" stroke-miterlimit="10" cx="390.73" cy="143.418" rx="15.877" ry="15.78"/>
	
		<ellipse fill="none" stroke="#E8C52D" stroke-width="2.0539" stroke-miterlimit="10" cx="422.87" cy="173.723" rx="15.878" ry="15.779"/>
	
		<ellipse fill="none" stroke="#E8C52D" stroke-width="2.0539" stroke-miterlimit="10" cx="453.155" cy="144.442" rx="15.878" ry="15.78"/>
	
		<ellipse fill="none" stroke="#E8C52D" stroke-width="2.0539" stroke-miterlimit="10" cx="421.222" cy="113.728" rx="15.878" ry="15.779"/>
	
		<line opacity="0.15" fill="none" stroke="#989898" stroke-width="2.0539" stroke-miterlimit="10" x1="361.748" y1="189.502" x2="370.555" y2="198.256"/>
	
		<ellipse fill="none" stroke="#55B848" stroke-width="2.0539" stroke-miterlimit="10" cx="347.194" cy="175.037" rx="20.503" ry="20.378"/>
	
		<ellipse fill="none" stroke="#4657A5" stroke-width="2.0539" stroke-miterlimit="10" cx="383.431" cy="212.697" rx="20.503" ry="20.377"/>
	
		<ellipse fill="none" stroke="#EC3132" stroke-width="2.0539" stroke-miterlimit="10" cx="250.716" cy="179.104" rx="20.243" ry="20.119"/>
	
		<ellipse fill="none" stroke="#636363" stroke-width="2.0539" stroke-miterlimit="10" cx="250.093" cy="283.438" rx="56.319" ry="55.976"/>
	
		<ellipse fill="none" stroke="#F2F2F2" stroke-width="2.0539" stroke-miterlimit="10" cx="250.716" cy="283.438" rx="25.434" ry="25.279"/>
</g>
</svg>
