<svg xmlns="http://www.w3.org/2000/svg" viewBox="0 0 500 500">
   <path fill="#282827" d="M497.922,224.934c-7.051-33.687-24.678-49.747-32.512-56.797c-7.835-7.052-47.789-28.987-57.189-32.121
		c-5.117-1.706-34.616-14.88-69.725-22.328c-38.765-8.223-61.09-10.183-88.497-9.793c-27.405-0.39-49.731,1.57-88.496,9.793
		c-35.108,7.447-64.608,20.622-69.724,22.328c-9.401,3.134-49.355,25.069-57.19,32.121c-7.834,7.05-25.46,23.11-32.512,56.797
		c-7.05,33.688,5.873,74.614,8.618,81.476c3.917,9.793,8.618,21.936,28.203,49.355c7.569,10.598,22.695,23.594,31.729,30.553
		c14.741,11.357,33.475,11.199,43.088,7.835c15.668-5.483,15.018-8.604,29.77-33.295c18.019-30.162,36.167-32.78,47.005-36.821
		c22.733-8.477,58.35-8.615,59.509-8.617c1.161,0.002,36.778,0.141,59.51,8.617c10.838,4.041,28.986,6.659,47.005,36.821
		c14.752,24.691,14.102,27.812,29.77,33.295c9.614,3.364,28.349,3.522,43.088-7.835c9.034-6.959,24.159-19.955,31.729-30.553
		c19.586-27.42,24.286-39.562,28.203-49.355C492.049,299.548,504.973,258.621,497.922,224.934z"/>
   <circle fill="#191818" cx="111.518" cy="240.919" r="77.95"/>
   <circle fill="#282827" cx="111.518" cy="240.919" r="47.397"/>
   <path fill="#333333" d="M155.031,232.488c0-1.034-0.846-1.881-1.881-1.881h-29.44c-1.035,0-1.881-0.847-1.881-1.881v-29.438
			c0-1.034-0.846-1.881-1.881-1.881h-16.86c-1.035,0-1.881,0.847-1.881,1.881v29.438c0,1.034-0.846,1.881-1.881,1.881h-29.44
			c-1.035,0-1.881,0.847-1.881,1.881v16.861c0,1.034,0.846,1.881,1.881,1.881h29.44c1.035,0,1.881,0.847,1.881,1.881v29.439
			c0,1.034,0.846,1.881,1.881,1.881h16.86c1.035,0,1.881-0.847,1.881-1.881v-29.439c0-1.034,0.846-1.881,1.881-1.881h29.44
			c1.035,0,1.881-0.847,1.881-1.881V232.488z"/>
   <path fill="#EC3433" d="M376.458,164.199c1.253,2.902-0.135,6.294-3.1,7.575l-32.219,13.921c-2.965,1.28-6.385-0.033-7.639-2.936
		l0,0c-1.254-2.901,0.134-6.292,3.099-7.574l32.219-13.921C371.783,159.984,375.203,161.298,376.458,164.199L376.458,164.199z"/>
   <path fill="#191818" d="M462.453,189.399c-8.83-6.629-19.215-9.573-29.168-9.069c-0.002,0-0.004-0.006-0.004-0.006
		s-0.044,0.005-0.105,0.01c-0.469,0.024-1.046,0.018-1.66,0.003c-0.14-0.032-0.278-0.059-0.415-0.065
		c-7.657-0.383-24.302,2.327-44.265,8.942c-5.333,1.681-10.721,3.631-15.92,5.877c-2.291,0.934-4.602,1.909-6.929,2.938
		c-11.229,4.968-22.336,12.392-31.795,19.683c-11.046,7.946-19.204,15.327-23.431,20.374c-1.02,0.937-2.005,1.916-2.936,2.954
		c-0.043,0.046-0.073,0.077-0.073,0.077l0.003,0.006c-6.629,7.442-10.84,17.382-11.204,28.418
		c-0.792,23.947,16.793,43.964,39.278,44.706c7.055,0.234,13.754-1.46,19.65-4.633c5.899-2.837,12.028-6.789,16.694-9.716
		c3.453-1.568,6.607-3.052,8.829-4.204c6.544-3.393,30.799-14.207,44.712-20.474c2.964-1.308,5.356-2.363,6.862-3.027
		c1.016-0.448,2.192-1.018,3.468-1.666c4.696-1.942,14.535-4.713,22.776-8.65c6.168-2.606,11.633-8.209,15.871-13.855
		C486.2,230.031,481.615,203.786,462.453,189.399z"/>
   <circle fill="#282827" cx="337.156" cy="269.777" r="20.565"/>
   <circle fill="#282827" cx="387.686" cy="242.749" r="20.565"/>
   <circle fill="#282827" cx="439.783" cy="222.381" r="20.564"/>
</svg>
