<svg xmlns="http://www.w3.org/2000/svg" viewBox="0 0 500 500">
   <path fill="none" stroke="#282827" stroke-width="1.8518" stroke-miterlimit="10" d="M495.442,225.454
		c-6.98-32.989-24.431-48.717-32.187-55.621s-47.311-28.385-56.617-31.454c-5.066-1.67-34.271-14.572-69.027-21.865
		c-38.377-8.052-60.479-9.972-87.611-9.59c-27.132-0.382-49.233,1.538-87.61,9.59c-34.758,7.293-63.962,20.194-69.027,21.865
		c-9.307,3.069-48.862,24.549-56.618,31.454c-7.755,6.904-25.206,22.632-32.187,55.621c-6.979,32.988,5.814,73.066,8.531,79.785
		c3.878,9.59,8.532,21.482,27.922,48.332c7.493,10.379,22.468,23.105,31.411,29.92c14.593,11.121,33.14,10.967,42.656,7.672
		c15.512-5.369,14.868-8.424,29.473-32.604c17.839-29.537,35.805-32.102,46.535-36.059c22.505-8.301,57.767-8.436,58.914-8.438
		c1.148,0.002,36.409,0.137,58.915,8.438c10.729,3.957,28.695,6.521,46.534,36.059c14.604,24.18,13.961,27.234,29.473,32.604
		c9.518,3.295,28.064,3.449,42.657-7.672c8.943-6.814,23.917-19.541,31.411-29.92c19.39-26.85,24.043-38.742,27.921-48.332
		C489.628,298.52,502.423,258.441,495.442,225.454z"/>
	
   <ellipse fill="none" stroke="#191818" stroke-width="1.8518" stroke-miterlimit="10" cx="112.903" cy="241.107" rx="77.171" ry="76.333"/>
	
   <ellipse fill="none" stroke="#282827" stroke-width="1.8518" stroke-miterlimit="10" cx="112.903" cy="241.107" rx="46.923" ry="46.415"/>
   <path fill="none" stroke="#333333" stroke-width="1.8518" stroke-miterlimit="10" d="M155.98,232.861
			c0-1.019-0.833-1.852-1.852-1.852h-29.166c-1.018,0-1.852-0.833-1.852-1.852v-28.81c0-1.019-0.833-1.852-1.852-1.852h-16.713
			c-1.018,0-1.852,0.833-1.852,1.852v28.81c0,1.019-0.833,1.852-1.852,1.852H71.677c-1.018,0-1.852,0.833-1.852,1.852v16.491
			c0,1.019,0.833,1.851,1.852,1.851h29.167c1.018,0,1.852,0.834,1.852,1.852v28.811c0,1.02,0.833,1.852,1.852,1.852h16.713
			c1.018,0,1.852-0.832,1.852-1.852v-28.811c0-1.018,0.833-1.852,1.852-1.852h29.166c1.018,0,1.852-0.833,1.852-1.851V232.861z"/>
   <path fill="none" stroke="#EC3433" stroke-width="1.8518" stroke-miterlimit="10" d="M375.193,165.978
		c1.241,2.842-0.133,6.163-3.068,7.418l-31.896,13.632c-2.936,1.254-6.321-0.032-7.562-2.874l0,0
		c-1.241-2.842,0.132-6.162,3.067-7.417l31.896-13.633C370.565,161.85,373.951,163.136,375.193,165.978L375.193,165.978z"/>
   <path fill="none" stroke="#191818" stroke-width="1.8518" stroke-miterlimit="10" d="M460.329,190.655
		c-8.742-6.491-19.023-9.374-28.877-8.881l-0.004-0.006c0,0-0.043,0.005-0.104,0.01c-0.464,0.024-1.035,0.018-1.644,0.003
		c-0.139-0.031-0.275-0.058-0.41-0.064c-7.581-0.375-24.06,2.279-43.823,8.758c-5.279,1.646-10.612,3.555-15.76,5.754
		c-2.268,0.915-4.555,1.87-6.859,2.878c-11.117,4.865-22.112,12.135-31.478,19.274c-10.936,7.782-19.012,15.01-23.195,19.952
		c-1.011,0.917-1.985,1.876-2.906,2.894c-0.043,0.044-0.073,0.074-0.073,0.074s0.003,0.006,0.003,0.007
		c-6.562,7.287-10.731,17.021-11.093,27.828c-0.783,23.451,16.626,43.053,38.886,43.779c6.985,0.229,13.617-1.43,19.454-4.537
		c5.841-2.777,11.908-6.648,16.527-9.514c3.419-1.535,6.541-2.988,8.741-4.117c6.479-3.322,30.491-13.912,44.265-20.049
		c2.935-1.281,5.304-2.314,6.794-2.965c1.006-0.439,2.17-0.996,3.434-1.631c4.648-1.902,14.389-4.615,22.549-8.471
		c6.105-2.553,11.517-8.039,15.712-13.569C483.838,230.445,479.299,204.744,460.329,190.655z"/>
	
   <ellipse fill="none" stroke="#282827" stroke-width="1.8518" stroke-miterlimit="10" cx="336.284" cy="269.367" rx="20.359" ry="20.137"/>
	
   <ellipse fill="none" stroke="#282827" stroke-width="1.8518" stroke-miterlimit="10" cx="386.309" cy="242.899" rx="20.359" ry="20.138"/>
	
   <ellipse fill="none" stroke="#282827" stroke-width="1.8518" stroke-miterlimit="10" cx="437.885" cy="222.953" rx="20.359" ry="20.138"/>
</svg>
