<svg xmlns="http://www.w3.org/2000/svg" viewBox="0 0 500 500">
   <g>
      <path fill="none" stroke="#282827" stroke-width="0.8064" stroke-miterlimit="10" enable-background="new    " d="M405.414,118.156
		c0.006-0.729,0.063-1.446,0.175-2.147c-7.396,3.341-13.464,8.934-17.236,15.857c0.753-0.111,1.521-0.169,2.304-0.176
		C394.078,125.909,399.218,121.187,405.414,118.156z"/>
      <path fill="none" stroke="#282827" stroke-width="0.8064" stroke-miterlimit="10" enable-background="new    " d="M389.025,161.995
		c-0.776-0.082-1.535-0.217-2.272-0.402c3.861,9.322,11.696,16.72,21.503,20.285c-0.318-0.736-0.576-1.502-0.771-2.292
		C399.244,176.179,392.623,169.866,389.025,161.995z"/>
      <path fill="none" stroke="#282827" stroke-width="0.8064" stroke-miterlimit="10" enable-background="new    " d="M452.949,132.679
		c0.093-0.001,0.183-0.005,0.275-0.005c0.661,0,1.312,0.042,1.953,0.118c-3.806-7.51-10.272-13.555-18.229-17.01
		c0.122,0.699,0.19,1.415,0.21,2.143C443.919,121.11,449.461,126.298,452.949,132.679z"/>
      <path fill="none" stroke="#282827" stroke-width="0.8064" stroke-miterlimit="10" enable-background="new    " d="M438.671,178.121
		c-0.113,0.806-0.29,1.592-0.529,2.354c7.791-3.708,14.04-9.943,17.578-17.585c-0.722,0.108-1.459,0.168-2.209,0.181
		C450.316,169.442,445.104,174.71,438.671,178.121z"/>
      <path fill="none" stroke="#282827" stroke-width="2.0161" stroke-miterlimit="10" d="M493.636,186.961
		c-2.68-14.993-0.283-29.049-3.914-40.44c-7.387-38.25-38.899-67.082-78.915-74.764c0.05-0.11-44.689-7.093-44.727-7.102
		c-7.194-1.578-5.406-1.73-7.194-3.354c-2.26-2.053-8.859-19.979-8.859-21.305c0-0.696-7.479-3.747-13.013-6.161
		c-15.987-8.742-48.287-14.72-85.533-14.72c-0.229,0-0.461,0.001-0.691,0.003c-0.23-0.001-0.461-0.003-0.693-0.003
		c-24.562,0-46.971,2.601-63.972,6.877c-9.479,2.284-17.369,5.078-23.137,8.231c-5.532,2.414-13.011,5.464-13.011,6.161
		c0,1.324-6.601,19.251-8.86,21.305c-1.786,1.624,0,1.775-7.194,3.353c-0.036,0.008-44.774,6.992-44.728,7.102
		c-40.014,7.682-71.528,36.514-78.913,74.764c-3.633,11.391-1.237,25.448-3.916,40.44c-2.359,13.208-5.356,37.458-5.356,68.65
		c0,55.171,19.368,121.912,46.153,123.095c6.034,0.269,10.359-0.788,14.836-3.944c3.68-2.596,5.562-2.564,12.792-13.207
		c10.893-16.032,23.47-64.121,25.943-91.937c1.349-15.179,4.944-11.837,14.538-12.036c3.939-0.126,11.32,0.942,15.131,0.396
		c10.714,1.773,17.172,3.509,22.871,7.102c8.447,5.326,11.993,11.209,15.452,24.461c3.288,12.596,29.259,124.083,38.118,148.739
		c8.517,25.021,25.025,42.217,41.62,42.217l2.885-0.198c10.367,0,19.815-5.556,27.523-15.824
		c5.775-7.04,10.729-16.126,14.286-26.581c8.859-24.659,34.83-136.146,38.118-148.739c3.461-13.253,7.005-19.137,15.454-24.46
		c5.695-3.595,12.155-5.328,22.868-7.104c3.812,0.547,11.193-0.521,15.133-0.396c9.593,0.201,13.188-3.141,14.539,12.036
		c2.472,27.815,15.049,75.903,25.941,91.937c7.229,10.645,9.113,10.612,12.793,13.208c4.476,3.155,8.8,4.212,14.834,3.945
		c26.786-1.185,46.153-67.924,46.153-123.097C498.992,224.418,495.997,200.169,493.636,186.961z"/>
      <g>
         <path fill="none" stroke="#282827" stroke-width="2.0161" stroke-miterlimit="10" d="M126.555,155.145
			c0-0.665-0.544-1.209-1.209-1.209h-22.554c-0.665,0-1.209-0.544-1.209-1.209v-21.492c0-0.665-0.544-1.209-1.209-1.209H74.325
			c-0.665,0-1.209,0.544-1.209,1.209v21.492c0,0.665-0.544,1.209-1.209,1.209H49.351c-0.665,0-1.209,0.544-1.209,1.209v24.833
			c0,0.665,0.544,1.209,1.209,1.209h22.555c0.665,0,1.209,0.544,1.209,1.209v21.491c0,0.665,0.544,1.209,1.209,1.209h26.048
			c0.665,0,1.209-0.544,1.209-1.209v-21.491c0-0.665,0.544-1.209,1.209-1.209h22.554c0.665,0,1.209-0.544,1.209-1.209v-24.833
			H126.555z"/>
      </g>
	
      <ellipse fill="none" stroke="#282827" stroke-width="2.0161" stroke-miterlimit="10" cx="390.743" cy="147.319" rx="15.878" ry="15.201"/>
	
      <ellipse fill="none" stroke="#282827" stroke-width="2.0161" stroke-miterlimit="10" cx="422.884" cy="176.515" rx="15.879" ry="15.202"/>
	
      <ellipse fill="none" stroke="#282827" stroke-width="2.0161" stroke-miterlimit="10" cx="453.173" cy="148.305" rx="15.878" ry="15.202"/>
	
      <ellipse fill="none" stroke="#282827" stroke-width="2.0161" stroke-miterlimit="10" cx="421.237" cy="118.715" rx="15.878" ry="15.202"/>
	
      <line fill="none" stroke="#282827" stroke-width="2.0161" stroke-miterlimit="10" enable-background="new    " x1="361.759" y1="191.716" x2="370.565" y2="200.149"/>
	
      <ellipse fill="none" stroke="#282827" stroke-width="2.0161" stroke-miterlimit="10" cx="347.203" cy="177.781" rx="20.505" ry="19.632"/>
	
      <ellipse fill="none" stroke="#282827" stroke-width="2.0161" stroke-miterlimit="10" cx="383.441" cy="214.062" rx="20.505" ry="19.632"/>
	
      <ellipse fill="none" stroke="#282827" stroke-width="2.0161" stroke-miterlimit="10" cx="250.718" cy="181.698" rx="20.247" ry="19.383"/>
	
      <ellipse fill="none" stroke="#282827" stroke-width="2.0161" stroke-miterlimit="10" cx="250.095" cy="282.215" rx="56.324" ry="53.926"/>
	
      <ellipse fill="none" stroke="#282827" stroke-width="2.0161" stroke-miterlimit="10" cx="250.718" cy="282.215" rx="25.437" ry="24.354"/>
   </g>
</svg>
