<svg xmlns="http://www.w3.org/2000/svg" xmlns:xlink="http://www.w3.org/1999/xlink" viewBox="0 0 500 500">
   <g id="Case">
      <path fill="none" stroke="#FFFFFF" stroke-width="1.9566" stroke-miterlimit="10" d="M497.5,354.837
			c0,0.646-0.528,1.174-1.174,1.174H3.674c-0.646,0-1.174-0.528-1.174-1.174V145.163c0-0.646,0.528-1.174,1.174-1.174h492.652
			c0.646,0,1.174,0.528,1.174,1.174V354.837z"/>
   </g>
   <g id="Face">
      <path fill="none" stroke="#FFFFFF" stroke-width="1.9566" stroke-miterlimit="10" d="M486.576,344.691
			c0,1.076-0.881,1.957-1.957,1.957H15.379c-1.076,0-1.957-0.881-1.957-1.957V178.72c0-1.076,0.88-1.957,1.957-1.957h469.24
			c1.076,0,1.957,0.88,1.957,1.957V344.691z"/>
   </g>
   <defs>
      <rect id="Mask" x="13.423" y="176.763" width="473.153" height="169.885"/>
   </defs>
   <clipPath id="Mask_clip">
      <use xlink:href="#Mask"  overflow="visible"/>
   </clipPath>
   <g id="Detail" clip-path="url(#Mask_clip)">
      <path fill="none" stroke="#FFFFFF" stroke-width="1.9566" stroke-miterlimit="10" d="M156.328,263.061
						c0,1.507,1.232,2.739,2.739,2.739h138.361c1.507,0,2.739-1.232,2.739-2.739v-21.754c0-1.507-1.232-2.739-2.739-2.739H159.067
						c-1.507,0-2.739,1.232-2.739,2.739V263.061z"/>

      <path fill="none" stroke="#FFFFFF" stroke-width="1.9566" stroke-miterlimit="10" d="M159.067,207.621
						c-1.507,0-2.739,1.232-2.739,2.739v21.444c0,1.507,1.232,2.739,2.739,2.739h138.361c1.507,0,2.739-1.232,2.739-2.739V210.36
						c0-1.507-1.232-2.739-2.739-2.739H159.067z"/>

      <path fill="none" stroke="#FFFFFF" stroke-width="1.9566" stroke-miterlimit="10" d="M300.168,272.252
						c0-1.507-1.232-2.739-2.739-2.739H159.067c-1.507,0-2.739,1.232-2.739,2.739v47.439c0,1.507,1.232,2.739,2.739,2.739h138.361
						c1.507,0,2.739-1.232,2.739-2.739V272.252z"/>

      <path fill="none" stroke="#FFFFFF" stroke-width="1.9566" stroke-miterlimit="10" d="M297.429,203.599
						c1.507,0,2.739-1.232,2.739-2.739v-32.603c0-1.507-1.232-2.739-2.739-2.739H159.067c-1.507,0-2.739,1.232-2.739,2.739v32.603
						c0,1.507,1.232,2.739,2.739,2.739H297.429z"/>

      <path fill="none" stroke="#FFFFFF" stroke-width="1.9566" stroke-miterlimit="10" d="M159.067,328.62
						c-1.507,0-2.739,1.232-2.739,2.739v17.096c0,1.507,1.232,2.739,2.739,2.739h138.361c1.507,0,2.739-1.232,2.739-2.739v-17.096
						c0-1.507-1.232-2.739-2.739-2.739H159.067z"/>

      <path fill="none" stroke="#FFFFFF" stroke-width="1.9566" stroke-miterlimit="10" d="M294.006,276.816
						c0-1.076-0.881-1.957-1.957-1.957H164.447c-1.076,0-1.957,0.881-1.957,1.957v38.311c0,1.076,0.88,1.957,1.957,1.957h127.602
						c1.076,0,1.957-0.881,1.957-1.957V276.816z"/>

   </g>
		
   <use xlink:href="#Mask"  overflow="visible" fill="none" stroke="#FFFFFF" stroke-width="1.9566" stroke-miterlimit="10"/>


   <path fill="none" stroke="#FFFFFF" stroke-width="1.9566" stroke-miterlimit="10" d="M217.221,299.396
			c0,1.937-1.585,3.521-3.522,3.521h-36.272c-1.937,0-3.522-1.585-3.522-3.521v-7.347c0-1.937,1.585-3.521,3.522-3.521h36.272
			c1.937,0,3.522,1.585,3.522,3.521V299.396z"/>

   <path fill="none" stroke="#FFFFFF" stroke-width="1.9566" stroke-miterlimit="10" d="M281.252,299.396
			c0,1.937-1.585,3.521-3.521,3.521h-36.272c-1.937,0-3.522-1.585-3.522-3.521v-7.347c0-1.937,1.585-3.521,3.522-3.521h36.272
			c1.937,0,3.521,1.585,3.521,3.521V299.396z"/>

   <path fill="none" stroke="#FFFFFF" stroke-width="1.9566" stroke-miterlimit="10" d="M379.184,322.546
			c0,1.076-0.881,1.957-1.957,1.957h-53.841c-1.076,0-1.957-0.881-1.957-1.957V268.9c0-1.076,0.881-1.957,1.957-1.957h53.841
			c1.076,0,1.957,0.881,1.957,1.957V322.546z"/>

   <path fill="none" stroke="#FFFFFF" stroke-width="1.9566" stroke-miterlimit="10" d="M444.472,322.546
			c0,1.076-0.881,1.957-1.957,1.957h-53.841c-1.076,0-1.957-0.881-1.957-1.957V268.9c0-1.076,0.881-1.957,1.957-1.957h53.841
			c1.076,0,1.957,0.881,1.957,1.957V322.546z"/>

	
   <ellipse fill="none" stroke="#FFFFFF" stroke-width="1.9566" stroke-miterlimit="10" cx="349.993" cy="295.724" rx="23.228" ry="22.899"/>
	
   <ellipse fill="none" stroke="#FFFFFF" stroke-width="1.9566" stroke-miterlimit="10" cx="415.594" cy="295.724" rx="23.228" ry="22.899"/>

   <path fill="none" stroke="#FFFFFF" stroke-width="1.9566" stroke-miterlimit="10" d="M135.925,250.168
			c0-0.646-0.528-1.174-1.174-1.174h-24.96c-0.646,0-1.174-0.528-1.174-1.174v-24.575c0-0.646-0.528-1.174-1.174-1.174H63.337
			c-0.646,0-1.174,0.528-1.174,1.174v24.575c0,0.646-0.528,1.174-1.174,1.174H36.03c-0.646,0-1.174,0.528-1.174,1.174v43.452
			c0,0.646,0.528,1.174,1.174,1.174h24.959c0.646,0,1.174,0.528,1.174,1.174v24.576c0,0.646,0.528,1.174,1.174,1.174h44.106
			c0.646,0,1.174-0.528,1.174-1.174v-24.576c0-0.646,0.528-1.174,1.174-1.174h24.96c0.646,0,1.174-0.528,1.174-1.174V250.168z"/>

   <path fill="none" stroke="#FFFFFF" stroke-width="1.9566" stroke-miterlimit="10" d="M128.071,258.834
			c0-0.646-0.528-1.174-1.174-1.174h-24.64c-0.646,0-1.174-0.528-1.174-1.174v-24.259c0-0.646-0.528-1.174-1.174-1.174H71.498
			c-0.646,0-1.174,0.528-1.174,1.174v24.259c0,0.646-0.528,1.174-1.174,1.174H44.511c-0.646,0-1.174,0.528-1.174,1.174v27.979
			c0,0.646,0.528,1.174,1.174,1.174H69.15c0.646,0,1.174,0.528,1.174,1.174v24.259c0,0.646,0.528,1.174,1.174,1.174H99.91
			c0.646,0,1.174-0.528,1.174-1.174V289.16c0-0.646,0.528-1.174,1.174-1.174h24.64c0.646,0,1.174-0.528,1.174-1.174V258.834z"/>

</svg>
