<svg xmlns="http://www.w3.org/2000/svg" xmlns:xlink="http://www.w3.org/1999/xlink" viewBox="0 0 500 500">

   <g id="Case">
      <path fill="none" stroke="#282827" stroke-width="1.9852" stroke-miterlimit="10" d="M498.881,357.338
			c0,0.656-0.537,1.191-1.191,1.191H2.311c-0.654,0-1.191-0.535-1.191-1.191V142.662c0-0.655,0.537-1.191,1.191-1.191h495.378
			c0.654,0,1.191,0.536,1.191,1.191V357.338z"/>
   </g>
   <g id="Face">
      <path fill="none" stroke="#282827" stroke-width="1.9852" stroke-miterlimit="10" d="M487.896,346.959
			c0,1.092-0.893,1.986-1.984,1.986H14.089c-1.092,0-1.985-0.895-1.985-1.986v-169.95c0-1.092,0.894-1.985,1.985-1.985h471.823
			c1.092,0,1.984,0.894,1.984,1.985V346.959z"/>
   </g>

   <defs>
      <rect id="Mask" x="12.104" y="175.023" width="475.792" height="173.922"/>
   </defs>
   <clipPath id="Mask_clip">
      <use xlink:href="#Mask"  overflow="visible"/>
   </clipPath>
   <g id="Detail" clip-path="url(#Mask_clip)">

      <path fill="none" stroke="#282827" stroke-width="1.9852" stroke-miterlimit="10" d="M155.807,263.397
						c0,1.527,1.25,2.778,2.779,2.778H297.67c1.527,0,2.779-1.251,2.779-2.778v-22.32c0-1.529-1.252-2.779-2.779-2.779H158.586
						c-1.529,0-2.779,1.25-2.779,2.779V263.397z"/>

      <path fill="none" stroke="#282827" stroke-width="1.9852" stroke-miterlimit="10" d="M158.586,206.616
						c-1.529,0-2.779,1.25-2.779,2.779v22.003c0,1.529,1.25,2.779,2.779,2.779H297.67c1.527,0,2.779-1.25,2.779-2.779v-22.003
						c0-1.529-1.252-2.779-2.779-2.779H158.586z"/>

      <path fill="none" stroke="#282827" stroke-width="1.9852" stroke-miterlimit="10" d="M300.449,272.758
						c0-1.529-1.252-2.779-2.779-2.779H158.586c-1.529,0-2.779,1.25-2.779,2.779v48.615c0,1.529,1.25,2.779,2.779,2.779H297.67
						c1.527,0,2.779-1.25,2.779-2.779V272.758z"/>

      <path fill="none" stroke="#282827" stroke-width="1.9852" stroke-miterlimit="10" d="M297.67,202.497
						c1.527,0,2.779-1.252,2.779-2.779V166.29c0-1.528-1.252-2.779-2.779-2.779H158.586c-1.529,0-2.779,1.251-2.779,2.779v33.428
						c0,1.527,1.25,2.779,2.779,2.779H297.67z"/>

      <path fill="none" stroke="#282827" stroke-width="1.9852" stroke-miterlimit="10" d="M158.586,330.488
						c-1.529,0-2.779,1.252-2.779,2.779v17.551c0,1.529,1.25,2.779,2.779,2.779H297.67c1.527,0,2.779-1.25,2.779-2.779v-17.551
						c0-1.527-1.252-2.779-2.779-2.779H158.586z"/>

      <path fill="none" stroke="#282827" stroke-width="1.9852" stroke-miterlimit="10" d="M294.252,277.436
						c0-1.092-0.893-1.986-1.984-1.986H163.989c-1.092,0-1.985,0.895-1.985,1.986v39.258c0,1.092,0.894,1.984,1.985,1.984h128.279
						c1.092,0,1.984-0.893,1.984-1.984V277.436z"/>

   </g>
		
   <use xlink:href="#Mask"  overflow="visible" fill="none" stroke="#282827" stroke-width="1.9852" stroke-miterlimit="10"/>


   <path fill="none" stroke="#282827" stroke-width="1.9852" stroke-miterlimit="10" d="M217.039,300.604
			c0,1.965-1.608,3.572-3.573,3.572h-36.41c-1.966,0-3.574-1.607-3.574-3.572v-7.586c0-1.965,1.608-3.574,3.574-3.574h36.41
			c1.965,0,3.573,1.609,3.573,3.574V300.604z"/>

   <path fill="none" stroke="#282827" stroke-width="1.9852" stroke-miterlimit="10" d="M281.428,300.604
			c0,1.965-1.607,3.572-3.572,3.572h-36.412c-1.965,0-3.573-1.607-3.573-3.572v-7.586c0-1.965,1.608-3.574,3.573-3.574h36.412
			c1.965,0,3.572,1.609,3.572,3.574V300.604z"/>

   <path fill="none" stroke="#282827" stroke-width="1.9852" stroke-miterlimit="10" d="M379.904,324.289
			c0,1.092-0.893,1.984-1.984,1.984h-54.105c-1.092,0-1.986-0.893-1.986-1.984v-54.957c0-1.092,0.895-1.986,1.986-1.986h54.105
			c1.092,0,1.984,0.895,1.984,1.986V324.289z"/>

   <path fill="none" stroke="#282827" stroke-width="1.9852" stroke-miterlimit="10" d="M445.557,324.289
			c0,1.092-0.893,1.984-1.984,1.984h-54.105c-1.092,0-1.986-0.893-1.986-1.984v-54.957c0-1.092,0.895-1.986,1.986-1.986h54.105
			c1.092,0,1.984,0.895,1.984,1.986V324.289z"/>

	
   <ellipse fill="none" stroke="#282827" stroke-width="1.9852" stroke-miterlimit="10" cx="350.551" cy="296.811" rx="23.357" ry="23.443"/>
	
   <ellipse fill="none" stroke="#282827" stroke-width="1.9852" stroke-miterlimit="10" cx="416.52" cy="296.811" rx="23.357" ry="23.443"/>

   <path fill="none" stroke="#282827" stroke-width="1.9852" stroke-miterlimit="10" d="M135.29,250.163
			c0-0.654-0.536-1.191-1.191-1.191H109.02c-0.654,0-1.19-0.535-1.19-1.191v-25.182c0-0.654-0.536-1.191-1.19-1.191H62.307
			c-0.654,0-1.19,0.537-1.19,1.191v25.182c0,0.656-0.536,1.191-1.19,1.191H34.848c-0.654,0-1.191,0.537-1.191,1.191v44.505
			c0,0.654,0.537,1.191,1.191,1.191h25.078c0.654,0,1.19,0.535,1.19,1.191v25.18c0,0.656,0.536,1.191,1.19,1.191h44.332
			c0.654,0,1.19-0.535,1.19-1.191v-25.18c0-0.656,0.536-1.191,1.19-1.191h25.078c0.655,0,1.191-0.537,1.191-1.191V250.163z"/>

   <path fill="none" stroke="#282827" stroke-width="1.9852" stroke-miterlimit="10" d="M127.392,259.034
			c0-0.654-0.536-1.191-1.19-1.191h-24.756c-0.655,0-1.191-0.535-1.191-1.191v-24.856c0-0.654-0.536-1.191-1.191-1.191H70.514
			c-0.655,0-1.191,0.537-1.191,1.191v24.856c0,0.656-0.536,1.191-1.191,1.191H43.376c-0.655,0-1.19,0.537-1.19,1.191v28.665
			c0,0.654,0.535,1.191,1.19,1.191h24.755c0.655,0,1.191,0.535,1.191,1.191v24.854c0,0.656,0.536,1.191,1.191,1.191h28.549
			c0.655,0,1.191-0.535,1.191-1.191v-24.854c0-0.656,0.536-1.191,1.191-1.191h24.756c0.654,0,1.19-0.537,1.19-1.191V259.034z"/>


</svg>
