<svg xmlns="http://www.w3.org/2000/svg" viewBox="0 0 500 500">
	<path fill="none" stroke="#474747" stroke-width="1.7816" stroke-miterlimit="10" d="M394.727,130.372
		c11.222,0,21.146,1.326,27.191,3.357c-0.369-1.168-1.137-3.222-2.152-3.953C418.154,127.889,408.727,125,393.6,125
		c-14.717,0-25.291,3.7-27.563,5.812c-0.139,0.016-0.234,0.028-0.285,0.036c-0.842,0.139-1.793,3.98-2.166,5.634
		C370.008,133.252,382.139,130.372,394.727,130.372z"/>
	<path fill="none" stroke="#474747" stroke-width="1.7816" stroke-miterlimit="10" d="M103.518,130.372
		c-11.221,0-21.145,1.326-27.192,3.357c0.37-1.168,1.138-3.222,2.152-3.953c1.611-1.887,11.039-4.776,26.167-4.776
		c14.717,0,25.291,3.7,27.565,5.812c0.137,0.016,0.233,0.028,0.284,0.036c0.842,0.139,1.794,3.98,2.167,5.634
		C128.236,133.252,116.105,130.372,103.518,130.372z"/>
	<path fill="none" stroke="#9E9E9E" stroke-width="1.7816" stroke-miterlimit="10" d="M344.059,311.961l54.562,92.023
		c0.858,1.637,1.797,3.223,2.815,4.75l0.003,0.002l0,0c9.348,14.018,25.188,23.234,43.155,23.234
		c28.734,0,52.027-23.57,52.027-52.646c0-4.621-0.59-9.102-1.695-13.372l-18.69-130.164l0,0c0.02-0.719,0.03-1.44,0.03-2.164
		c0-29.244-16.084-54.77-39.975-68.389c0.152-0.008,0.234-0.012,0.234-0.012s-2.281-11.571-4.447-20.144
		c-1.482-5.869-5.187-10.259-9.4-11.197c-5.924-2.218-16.311-3.689-28.131-3.689c-17.475,0-34.072,5.552-35.738,9.885
		c-0.793,1.215-1.536,2.924-2.168,5.421c-2.071,8.198-2.125,20.958-5.141,22.867H146.671c-3.014-1.91-3.068-14.669-5.14-22.867
		c-0.631-2.497-1.375-4.206-2.169-5.421c-1.666-4.333-18.263-9.885-35.738-9.885c-11.821,0-22.206,1.471-28.132,3.689
		c-4.213,0.938-7.916,5.328-9.399,11.197c-2.167,8.573-4.447,20.144-4.447,20.144s0.086,0.004,0.254,0.012
		c-23.887,13.621-39.97,39.146-39.97,68.39c0,0.808,0.016,1.612,0.041,2.414L3.315,365.953c-1.105,4.271-1.695,8.751-1.695,13.372
		c0,29.075,23.294,52.646,52.028,52.646c17.968,0,33.808-9.218,43.156-23.233l0.001-0.002c1.019-1.528,1.958-3.114,2.816-4.75
		l54.561-92.024L344.059,311.961z"/>
	<path fill="none" stroke="#878787" stroke-width="1.7816" stroke-miterlimit="10" d="M458.16,212.032
		c0-0.98-0.801-1.782-1.781-1.782H420.9c-0.98,0-1.781-0.802-1.781-1.782v-34.719c0-0.98-0.803-1.782-1.781-1.782h-39.777
		c-0.979,0-1.78,0.802-1.78,1.782v34.719c0,0.98-0.802,1.782-1.781,1.782h-34.762c-0.98,0-1.781,0.802-1.781,1.782v39.328
		c0,0.98,0.801,1.782,1.781,1.782h34.762c0.979,0,1.781,0.802,1.781,1.782v34.72c0,0.979,0.803,1.781,1.78,1.781h39.777
		c0.979,0,1.781-0.802,1.781-1.781v-34.72c0-0.98,0.801-1.782,1.781-1.782h35.479c0.98,0,1.781-0.802,1.781-1.782V212.032z"/>
	<ellipse fill="none" stroke="#474747" stroke-width="1.7816" stroke-miterlimit="10" cx="397.808" cy="191.995" rx="17.729" ry="17.546"/>
	<ellipse fill="none" stroke="#474747" stroke-width="1.7816" stroke-miterlimit="10" cx="397.808" cy="271.396" rx="17.729" ry="17.546"/>
	<ellipse fill="none" stroke="#474747" stroke-width="1.7816" stroke-miterlimit="10" cx="437.207" cy="231.696" rx="17.73" ry="17.546"/>
	<ellipse fill="none" stroke="#474747" stroke-width="1.7816" stroke-miterlimit="10" cx="358.408" cy="231.696" rx="17.729" ry="17.546"/>
	<path fill="none" stroke="#878787" stroke-width="1.7816" stroke-miterlimit="10" d="M161.231,212.032
		c0-0.98-0.802-1.782-1.782-1.782h-35.478c-0.98,0-1.782-0.802-1.782-1.782v-34.719c0-0.98-0.802-1.782-1.782-1.782H80.632
		c-0.98,0-1.782,0.802-1.782,1.782v34.719c0,0.98-0.802,1.782-1.782,1.782h-34.76c-0.98,0-1.782,0.802-1.782,1.782v39.328
		c0,0.98,0.802,1.782,1.782,1.782h34.761c0.98,0,1.782,0.802,1.782,1.782v34.72c0,0.979,0.802,1.781,1.782,1.781h39.776
		c0.98,0,1.782-0.802,1.782-1.781v-34.72c0-0.98,0.802-1.782,1.782-1.782h35.478c0.98,0,1.782-0.802,1.782-1.782v-39.328H161.231z"/>
	<path fill="none" stroke="#474747" stroke-width="1.7816" stroke-miterlimit="10" d="M230.359,266.605
		c0,0.588-0.481,1.069-1.069,1.069h-24.009c-0.588,0-1.069-0.481-1.069-1.069v-15.231c0-0.588,0.481-1.069,1.069-1.069h24.009
		c0.588,0,1.069,0.481,1.069,1.069V266.605z"/>
	<path fill="none" stroke="#474747" stroke-width="1.7816" stroke-miterlimit="10" d="M264.238,251.418
		c0-0.588,0.457-0.92,1.016-0.737l24.83,8.096c0.561,0.183,0.561,0.48,0,0.663l-24.83,8.095c-0.559,0.183-1.016-0.149-1.016-0.737
		V251.418z"/>
	<path fill="none" stroke="#474747" stroke-width="1.7816" stroke-linejoin="round" stroke-miterlimit="10" d="M94.361,233.357
		c0.629-0.751,0.629-1.979,0-2.73l-10.486-12.512c-0.629-0.751-1.145-1.365-1.145-1.366s-0.802,0-1.782,0H60.156
		c-0.98,0-1.782,0.802-1.782,1.782v26.921c0,0.98,0.802,1.782,1.782,1.782h20.792c0.98,0,2.297-0.614,2.926-1.365L94.361,233.357z"/>
	<path fill="none" stroke="#474747" stroke-width="1.7816" stroke-linejoin="round" stroke-miterlimit="10" d="M102.256,238.143
		c-0.757-0.622-1.997-0.622-2.754,0l-12.647,10.382c-0.757,0.622-1.377,1.13-1.377,1.13s0,0.802,0,1.782v20.541
		c0,0.98,0.802,1.782,1.782,1.782h27.24c0.98,0,1.782-0.802,1.782-1.782v-20.541c0-0.98,0-1.782,0-1.782s-0.619-0.509-1.376-1.13
		L102.256,238.143z"/>
	<path fill="none" stroke="#474747" stroke-width="1.7816" stroke-linejoin="round" stroke-miterlimit="10" d="M107.396,230.625
		c-0.629,0.751-0.629,1.979,0,2.73l10.486,12.512c0.629,0.751,1.145,1.365,1.145,1.365s0.802,0,1.782,0h20.793
		c0.98,0,1.782-0.802,1.782-1.782v-26.919c0-0.98-0.802-1.782-1.782-1.782H120.81c-0.98,0-1.782,0-1.782,0s-0.515,0.614-1.145,1.365
		L107.396,230.625z"/>
	<path fill="none" stroke="#474747" stroke-width="1.7816" stroke-linejoin="round" stroke-miterlimit="10" d="M99.501,225.248
		c0.757,0.622,1.997,0.622,2.754,0l12.647-10.382c0.757-0.622,1.377-1.13,1.377-1.13s0-0.802,0-1.782v-20.54
		c0-0.98-0.802-1.782-1.782-1.782h-27.24c-0.98,0-1.782,0.802-1.782,1.782v20.54c0,0.98,0,1.782,0,1.782s0.619,0.509,1.376,1.13
		L99.501,225.248z"/>
	<ellipse fill="none" stroke="#878787" stroke-width="1.7816" stroke-miterlimit="10" cx="99.804" cy="232.719" rx="77.362" ry="76.562"/>
	<ellipse fill="none" stroke="#878787" stroke-width="1.7816" stroke-miterlimit="10" cx="397.808" cy="231.695" rx="77.362" ry="76.562"/>
	<ellipse fill="none" stroke="#FF5853" stroke-width="1.7816" stroke-miterlimit="10" cx="437.208" cy="231.696" rx="10.747" ry="10.636"/>
	<rect x="348.877" y="222.263" fill="none" stroke="#F990DC" stroke-width="1.7816" stroke-miterlimit="10" width="19.062" height="18.865"/>
	<line fill="none" stroke="#90C0FC" stroke-width="1.7816" stroke-miterlimit="10" x1="388.277" y1="261.964" x2="407.34" y2="280.83"/>
	<line fill="none" stroke="#90C0FC" stroke-width="1.7816" stroke-miterlimit="10" x1="407.34" y1="261.964" x2="388.277" y2="280.83"/>
	<polygon fill="none" stroke="#00D4CA" stroke-width="1.7816" stroke-miterlimit="10" points="386.225,199.447 397.807,179.592 
		409.391,199.447 "/>
</svg>
