<svg xmlns="http://www.w3.org/2000/svg" viewBox="0 0 500 750">
	<path fill="none" stroke="#FFFFFF" stroke-width="1.7816" stroke-miterlimit="10" d="M344.938,408.477L344.938,408.477
		l54.562,92.022c0.857,1.636,1.797,3.223,2.816,4.75v0.002l0,0c9.348,14.017,25.188,23.234,43.155,23.234
		c28.734,0,52.029-23.571,52.029-52.647c0-4.621-0.592-9.102-1.697-13.372l-18.688-130.165h-0.002c0.02-0.719,0.03-1.44,0.03-2.164
		c0-29.244-16.084-54.77-39.973-68.389c0.152-0.008,0.232-0.012,0.232-0.012s-2.279-11.571-4.445-20.145
		c-1.484-5.869-5.188-10.259-9.4-11.197c-5.926-2.218-16.311-3.689-28.131-3.689c-17.477,0-34.074,5.552-35.737,9.885
		c-0.796,1.215-1.539,2.924-2.171,5.421c-2.069,8.198-2.125,20.958-5.139,22.867H147.55c-3.014-1.91-3.068-14.669-5.14-22.867
		c-0.631-2.497-1.375-4.206-2.169-5.421c-1.666-4.333-18.263-9.885-35.738-9.885c-11.821,0-22.206,1.471-28.132,3.689
		c-4.213,0.938-7.916,5.328-9.399,11.197c-2.167,8.573-4.447,20.145-4.447,20.145s0.086,0.004,0.254,0.012
		c-23.889,13.62-39.971,39.145-39.971,68.388c0,0.808,0.016,1.612,0.041,2.414L4.195,462.467C3.09,466.737,2.5,471.218,2.5,475.839
		c0,29.076,23.294,52.647,52.028,52.647c17.968,0,33.808-9.219,43.156-23.234l0.001-0.002c1.019-1.527,1.958-3.114,2.816-4.75
		l54.561-92.023H344.938z"/>
	<path fill="none" stroke="#FFFFFF" stroke-width="1.7816" stroke-miterlimit="10" d="M395.604,226.885
		c11.224,0,21.146,1.326,27.193,3.357c-0.371-1.168-1.139-3.222-2.152-3.953c-1.61-1.888-11.038-4.776-26.168-4.776
		c-14.717,0-25.289,3.7-27.563,5.812c-0.137,0.016-0.232,0.028-0.283,0.036c-0.842,0.139-1.795,3.98-2.166,5.634
		C370.888,229.766,383.019,226.885,395.604,226.885z"/>
	<path fill="none" stroke="#FFFFFF" stroke-width="1.7816" stroke-miterlimit="10" d="M104.397,226.885
		c-11.221,0-21.145,1.326-27.192,3.357c0.37-1.168,1.138-3.222,2.152-3.953c1.611-1.888,11.039-4.776,26.167-4.776
		c14.716,0,25.291,3.7,27.565,5.812c0.137,0.016,0.233,0.028,0.284,0.036c0.842,0.139,1.794,3.98,2.167,5.634
		C129.115,229.766,116.984,226.885,104.397,226.885z"/>
	<path fill="none" stroke="#FFFFFF" stroke-width="1.7816" stroke-miterlimit="10" d="M459.04,308.545
		c0-0.98-0.803-1.782-1.781-1.782H421.78c-0.98,0-1.781-0.802-1.781-1.782v-34.719c0-0.979-0.803-1.782-1.781-1.782H378.44
		c-0.98,0-1.781,0.802-1.781,1.782v34.719c0,0.98-0.803,1.782-1.781,1.782h-34.762c-0.98,0-1.781,0.802-1.781,1.782v39.328
		c0,0.98,0.801,1.782,1.781,1.782h34.762c0.979,0,1.781,0.802,1.781,1.782v34.719c0,0.979,0.801,1.781,1.781,1.781h39.776
		c0.979,0,1.781-0.802,1.781-1.781v-34.719c0-0.98,0.801-1.782,1.781-1.782h35.479c0.979,0,1.781-0.802,1.781-1.782L459.04,308.545
		L459.04,308.545z"/>
	<ellipse fill="none" stroke="#FFFFFF" stroke-width="1.7816" stroke-miterlimit="10" cx="398.688" cy="288.509" rx="17.729" ry="17.546"/>
	<ellipse fill="none" stroke="#FFFFFF" stroke-width="1.7816" stroke-miterlimit="10" cx="398.688" cy="367.91" rx="17.729" ry="17.546"/>
	<ellipse fill="none" stroke="#FFFFFF" stroke-width="1.7816" stroke-miterlimit="10" cx="438.086" cy="328.209" rx="17.729" ry="17.546"/>
	<ellipse fill="none" stroke="#FFFFFF" stroke-width="1.7816" stroke-miterlimit="10" cx="359.287" cy="328.209" rx="17.729" ry="17.546"/>
	<path fill="none" stroke="#FFFFFF" stroke-width="1.7816" stroke-miterlimit="10" d="M162.11,308.545
		c0-0.98-0.802-1.782-1.782-1.782H124.85c-0.98,0-1.782-0.802-1.782-1.782v-34.719c0-0.979-0.802-1.782-1.782-1.782H81.512
		c-0.98,0-1.782,0.802-1.782,1.782v34.719c0,0.98-0.802,1.782-1.782,1.782H43.187c-0.98,0-1.782,0.802-1.782,1.782v39.328
		c0,0.98,0.802,1.782,1.782,1.782h34.761c0.98,0,1.782,0.802,1.782,1.782v34.719c0,0.979,0.802,1.781,1.782,1.781h39.776
		c0.98,0,1.782-0.802,1.782-1.781v-34.719c0-0.98,0.802-1.782,1.782-1.782h35.478c0.98,0,1.782-0.802,1.782-1.782v-39.328H162.11z"/>
	<path fill="none" stroke="#FFFFFF" stroke-width="1.7816" stroke-miterlimit="10" d="M231.238,363.119
		c0,0.588-0.48,1.069-1.068,1.069h-24.008c-0.588,0-1.07-0.481-1.07-1.069v-15.231c0-0.588,0.482-1.069,1.07-1.069h24.008
		c0.588,0,1.068,0.481,1.068,1.069V363.119z"/>
	<path fill="none" stroke="#FFFFFF" stroke-width="1.7816" stroke-miterlimit="10" d="M265.116,347.932
		c0-0.588,0.457-0.92,1.018-0.737l24.83,8.096c0.56,0.183,0.56,0.48,0,0.663l-24.83,8.095c-0.561,0.183-1.018-0.149-1.018-0.737
		V347.932z"/>
	<path fill="none" stroke="#FFFFFF" stroke-width="1.7816" stroke-linejoin="round" stroke-miterlimit="10" d="M95.241,329.871
		c0.629-0.751,0.629-1.979,0-2.73l-10.486-12.512c-0.629-0.751-1.145-1.365-1.145-1.366s-0.802,0-1.782,0H61.036
		c-0.98,0-1.782,0.802-1.782,1.782v26.921c0,0.98,0.802,1.782,1.782,1.782h20.792c0.98,0,2.297-0.614,2.926-1.365L95.241,329.871z"/>
	<path fill="none" stroke="#FFFFFF" stroke-width="1.7816" stroke-linejoin="round" stroke-miterlimit="10" d="M103.135,334.657
		c-0.757-0.622-1.997-0.622-2.754,0l-12.647,10.382c-0.757,0.622-1.377,1.13-1.377,1.13s0,0.802,0,1.782v20.541
		c0,0.98,0.802,1.782,1.782,1.782h27.24c0.98,0,1.782-0.802,1.782-1.782v-20.541c0-0.98,0-1.782,0-1.782s-0.619-0.509-1.376-1.13
		L103.135,334.657z"/>
	<path fill="none" stroke="#FFFFFF" stroke-width="1.7816" stroke-linejoin="round" stroke-miterlimit="10" d="M108.275,327.139
		c-0.629,0.751-0.629,1.979,0,2.73l10.486,12.512c0.629,0.751,1.145,1.365,1.145,1.365s0.802,0,1.782,0h20.793
		c0.98,0,1.782-0.802,1.782-1.782v-26.921c0-0.98-0.802-1.782-1.782-1.782h-20.792c-0.98,0-1.782,0-1.782,0s-0.515,0.614-1.145,1.365
		L108.275,327.139z"/>
	<path fill="none" stroke="#FFFFFF" stroke-width="1.7816" stroke-linejoin="round" stroke-miterlimit="10" d="M100.38,321.762
		c0.757,0.622,1.997,0.622,2.754,0l12.647-10.382c0.757-0.622,1.377-1.13,1.377-1.13s0-0.802,0-1.782v-20.541
		c0-0.98-0.802-1.782-1.782-1.782h-27.24c-0.98,0-1.782,0.802-1.782,1.782v20.54c0,0.98,0,1.782,0,1.782s0.619,0.509,1.376,1.13
		L100.38,321.762z"/>
	<ellipse fill="none" stroke="#FFFFFF" stroke-width="1.7816" stroke-miterlimit="10" cx="100.684" cy="329.232" rx="77.363" ry="76.562"/>
	<ellipse fill="none" stroke="#FFFFFF" stroke-width="1.7816" stroke-miterlimit="10" cx="398.686" cy="328.209" rx="77.362" ry="76.562"/>
	<ellipse fill="none" stroke="#FFFFFF" stroke-width="1.7816" stroke-miterlimit="10" cx="438.086" cy="328.209" rx="10.747" ry="10.636"/>
	<rect x="349.757" y="318.777" fill="none" stroke="#FFFFFF" stroke-width="1.7816" stroke-miterlimit="10" width="19.062" height="18.865"/>
	<line fill="none" stroke="#FFFFFF" stroke-width="1.7816" stroke-miterlimit="10" x1="389.155" y1="358.478" x2="408.218" y2="377.343"/>
	<line fill="none" stroke="#FFFFFF" stroke-width="1.7816" stroke-miterlimit="10" x1="408.218" y1="358.478" x2="389.155" y2="377.343"/>
	<polygon fill="none" stroke="#FFFFFF" stroke-width="1.7816" stroke-miterlimit="10" points="387.103,295.961 398.688,276.105 
		410.271,295.961 "/>
</svg>
