<?xml version="1.0" encoding="utf-8"?>
<!-- Generator: Adobe Illustrator 15.0.2, SVG Export Plug-In . SVG Version: 6.00 Build 0)  -->
<!DOCTYPE svg PUBLIC "-//W3C//DTD SVG 1.1//EN" "http://www.w3.org/Graphics/SVG/1.1/DTD/svg11.dtd">
<svg version="1.1" id="Layer_1" xmlns="http://www.w3.org/2000/svg" xmlns:xlink="http://www.w3.org/1999/xlink" x="0px" y="0px"
	 width="500px" height="500px" viewBox="0 0 500 500" enable-background="new 0 0 500 500" xml:space="preserve">
<g>
	<path fill="none" stroke="#FFFFFF" stroke-width="1.7811" stroke-miterlimit="10" d="M394.48,145.596v-0.013H106.598
		C49.106,145.583,2.5,191.483,2.5,248.103c0,56.622,46.606,102.522,104.098,102.522c20.949,0,40.447-5.062,56.776-15.121
		l-0.004,0.01c0,0,0.011-0.01,0.021-0.018c1.688-1.041,3.344-2.129,4.961-3.275c4.786-2.545,13.073-5.637,25.113-5.637h113.297
		c11.408,0,19.446,2.777,24.33,5.232c17.373,12.51,38.939,18.809,62.312,18.809c57.491,0,104.097-45.9,104.097-102.522
		C497.5,191.837,451.475,146.167,394.48,145.596z"/>
	
		<ellipse fill="none" stroke="#FFFFFF" stroke-width="1.7811" stroke-miterlimit="10" cx="394.48" cy="249.164" rx="94.406" ry="92.975"/>
	<g>
		<path fill="none" stroke="#FFFFFF" stroke-width="1.7811" stroke-miterlimit="10" d="M151.151,235.599
			c0-0.979-0.802-1.781-1.781-1.781h-23.779c-0.98,0-1.781-0.802-1.781-1.781v-23.365c0-0.979-0.801-1.781-1.781-1.781H94.427
			c-0.98,0-1.781,0.802-1.781,1.781v23.365c0,0.979-0.802,1.781-1.781,1.781H67.086c-0.979,0-1.781,0.802-1.781,1.781v27.129
			c0,0.98,0.802,1.781,1.781,1.781h23.778c0.979,0,1.781,0.803,1.781,1.781v23.365c0,0.98,0.801,1.781,1.781,1.781h27.602
			c0.98,0,1.781-0.801,1.781-1.781v-23.365c0-0.979,0.801-1.781,1.781-1.781h23.779c0.979,0,1.781-0.801,1.781-1.781V235.599z"/>
	</g>
	<path opacity="0.15" fill="none" stroke="#FFFFFF" stroke-width="1.7811" stroke-miterlimit="10" d="M108.229,187.472
		c-34.596,0-62.641,27.62-62.641,61.691c0,34.071,28.045,61.69,62.641,61.69c34.594,0,62.639-27.619,62.639-61.69
		C170.867,215.092,142.822,187.472,108.229,187.472z M108.229,307.674c-32.812,0-59.409-26.195-59.409-58.51
		c0-32.313,26.598-58.51,59.409-58.51c32.811,0,59.408,26.196,59.408,58.51C167.637,281.479,141.039,307.674,108.229,307.674z"/>
	<path fill="none" stroke="#FFFFFF" stroke-width="1.7811" stroke-miterlimit="10" d="M413.384,196.134
		c-8.084-10.09-22.943-11.815-33.188-3.854l-48.146,37.212c-10.245,7.961-11.997,22.596-3.913,32.686s22.942,11.814,33.188,3.854
		l48.146-37.211C419.715,220.858,421.468,206.224,413.384,196.134z"/>
	
		<ellipse fill="none" stroke="#FFFFFF" stroke-width="1.7811" stroke-miterlimit="10" cx="394.48" cy="211.126" rx="18.306" ry="18.029"/>
	<path fill="none" stroke="#FFFFFF" stroke-width="1.7811" stroke-miterlimit="10" d="M461.364,232.783
		c-8.084-10.091-22.943-11.816-33.188-3.854l-48.146,37.212c-10.244,7.961-11.996,22.594-3.913,32.684
		c8.084,10.092,22.943,11.816,33.188,3.855l48.145-37.211C467.696,257.506,469.448,242.873,461.364,232.783z"/>
	
		<ellipse fill="none" stroke="#FFFFFF" stroke-width="1.7811" stroke-miterlimit="10" cx="346.92" cy="247.891" rx="18.306" ry="18.029"/>
	
		<ellipse fill="none" stroke="#FFFFFF" stroke-width="1.7811" stroke-miterlimit="10" cx="442.578" cy="247.538" rx="18.306" ry="18.029"/>
	
		<ellipse fill="none" stroke="#FFFFFF" stroke-width="1.7811" stroke-miterlimit="10" cx="395.019" cy="284.303" rx="18.306" ry="18.027"/>
	<path fill="none" stroke="#FFFFFF" stroke-width="1.7811" stroke-miterlimit="10" d="M274.251,251.934
		c-2.526-3.155-7.172-3.695-10.376-1.206l-20.638,16.6c-3.203,2.488-3.751,7.062-1.224,10.217s7.173,3.693,10.375,1.205l20.639-16.6
		C276.23,259.662,276.778,255.086,274.251,251.934z"/>
	<path fill="none" stroke="#FFFFFF" stroke-width="1.7811" stroke-miterlimit="10" d="M219.241,251.934
		c-2.526-3.155-7.172-3.695-10.375-1.206l-20.64,16.6c-3.203,2.488-3.75,7.062-1.223,10.217s7.172,3.693,10.375,1.205l20.639-16.6
		C221.221,259.662,221.769,255.086,219.241,251.934z"/>
	<g>
		<path fill="none" stroke="#FFFFFF" stroke-width="1.7811" stroke-miterlimit="10" d="M441.143,155.115
			c0,0.979-0.714,1.417-1.587,0.973c0,0-4.979-2.536-7.266-3.435c-5.712-2.244-13.658-4.982-18.415-5.844
			c-4.373-0.792-15.94-1.373-15.94-1.373c-0.979-0.049-2.581-0.089-3.561-0.089h-58.179c-0.979,0-1.552-0.768-1.271-1.707
			l0.178-0.593c0.28-0.938,1.311-1.739,2.289-1.779c0,0,33.867-1.379,58.795-0.298c7.146,0.31,13.379,1.31,17.678,2.02
			c5.021,0.828,14.73,4.097,19.384,6.128c2.03,0.886,6.323,3.169,6.323,3.169c0.864,0.461,1.572,1.639,1.572,2.618V155.115z"/>
	</g>
	<g>
		<path fill="none" stroke="#FFFFFF" stroke-width="1.7811" stroke-miterlimit="10" d="M58.048,155.468
			c0,0.979,0.714,1.417,1.587,0.973c0,0,4.979-2.536,7.266-3.435c5.711-2.244,13.658-4.982,18.416-5.844
			c4.372-0.792,15.941-1.373,15.941-1.373c0.979-0.049,2.581-0.089,3.56-0.089h58.177c0.979,0,1.552-0.768,1.271-1.707l-0.177-0.593
			c-0.28-0.938-1.311-1.739-2.29-1.779c0,0-33.867-1.379-58.794-0.298c-7.146,0.31-13.378,1.31-17.679,2.02
			c-5.019,0.828-14.73,4.097-19.383,6.128c-2.03,0.886-6.323,3.169-6.323,3.169c-0.865,0.461-1.572,1.639-1.572,2.618V155.468z"/>
	</g>
</g>
</svg>
