<svg xmlns="http://www.w3.org/2000/svg" viewBox="0 0 500 500">
   <path fill="none" stroke="#282827" stroke-width="1.7811" stroke-miterlimit="10" d="M394.479,149.825v-0.014H106.597
		C49.106,149.812,2.5,195.711,2.5,252.33c0,56.618,46.606,102.518,104.097,102.518c20.95,0,40.448-5.062,56.777-15.119l-0.004,0.01
		c0,0,0.011-0.01,0.021-0.02c1.688-1.039,3.344-2.128,4.962-3.273c4.785-2.545,13.072-5.637,25.112-5.637h113.297
		c11.407,0,19.446,2.776,24.329,5.232c17.374,12.509,38.939,18.807,62.312,18.807c57.491,0,104.098-45.899,104.098-102.518
		C497.5,196.064,451.475,150.396,394.479,149.825z"/>
	
   <ellipse fill="none" stroke="#282827" stroke-width="1.7811" stroke-miterlimit="10" cx="394.479" cy="253.391" rx="94.405" ry="92.973"/>
   <path fill="none" stroke="#282827" stroke-width="1.7811" stroke-miterlimit="10" d="M151.151,239.825
			c0-0.979-0.801-1.781-1.781-1.781h-23.779c-0.98,0-1.781-0.802-1.781-1.781v-23.364c0-0.979-0.801-1.781-1.781-1.781H94.427
			c-0.98,0-1.781,0.802-1.781,1.781v23.364c0,0.979-0.801,1.781-1.781,1.781H67.085c-0.98,0-1.781,0.802-1.781,1.781v27.13
			c0,0.979,0.801,1.781,1.781,1.781h23.779c0.98,0,1.781,0.802,1.781,1.781v23.364c0,0.979,0.801,1.781,1.781,1.781h27.602
			c0.98,0,1.781-0.802,1.781-1.781v-23.364c0-0.979,0.801-1.781,1.781-1.781h23.779c0.98,0,1.781-0.802,1.781-1.781V239.825z"/>
   <path opacity="0.15" fill="none" stroke="#282827" stroke-width="1.7811" stroke-miterlimit="10" d="M108.228,191.7
		c-34.595,0-62.64,27.62-62.64,61.69s28.045,61.688,62.64,61.688c34.595,0,62.639-27.618,62.639-61.688S142.823,191.7,108.228,191.7
		z M108.228,311.898c-32.811,0-59.41-26.195-59.41-58.508c0-32.313,26.599-58.509,59.41-58.509
		c32.811,0,59.409,26.195,59.409,58.509C167.637,285.703,141.039,311.898,108.228,311.898z"/>
   <path fill="none" stroke="#282827" stroke-width="1.7811" stroke-miterlimit="10" d="M413.383,200.361
		c-8.083-10.089-22.942-11.814-33.188-3.854l-48.146,37.211c-10.245,7.961-11.997,22.595-3.913,32.685
		c8.083,10.089,22.942,11.815,33.188,3.854l48.146-37.21C419.715,225.085,421.467,210.452,413.383,200.361z"/>
	
   <ellipse fill="none" stroke="#282827" stroke-width="1.7811" stroke-miterlimit="10" cx="394.48" cy="215.354" rx="18.306" ry="18.029"/>
   <path fill="none" stroke="#282827" stroke-width="1.7811" stroke-miterlimit="10" d="M461.364,237.01
		c-8.085-10.091-22.943-11.816-33.189-3.854l-48.146,37.211c-10.244,7.961-11.996,22.595-3.912,32.684
		c8.084,10.091,22.942,11.816,33.188,3.855l48.146-37.212C467.695,261.732,469.448,247.099,461.364,237.01z"/>
	
   <ellipse fill="none" stroke="#282827" stroke-width="1.7811" stroke-miterlimit="10" cx="346.92" cy="252.118" rx="18.306" ry="18.027"/>
	
   <ellipse fill="none" stroke="#282827" stroke-width="1.7811" stroke-miterlimit="10" cx="442.578" cy="251.765" rx="18.306" ry="18.027"/>
	
   <ellipse fill="none" stroke="#282827" stroke-width="1.7811" stroke-miterlimit="10" cx="395.018" cy="288.528" rx="18.306" ry="18.027"/>
   <path fill="none" stroke="#282827" stroke-width="1.7811" stroke-miterlimit="10" d="M274.251,256.159
		c-2.527-3.154-7.173-3.694-10.376-1.205l-20.639,16.599c-3.202,2.489-3.751,7.063-1.223,10.218
		c2.527,3.154,7.172,3.694,10.375,1.205l20.639-16.599C276.23,263.889,276.778,259.312,274.251,256.159z"/>
   <path fill="none" stroke="#282827" stroke-width="1.7811" stroke-miterlimit="10" d="M219.24,256.159
		c-2.526-3.154-7.172-3.694-10.375-1.205l-20.639,16.599c-3.203,2.489-3.75,7.063-1.223,10.218s7.173,3.694,10.375,1.205
		l20.639-16.599C221.221,263.889,221.768,259.312,219.24,256.159z"/>
   <path fill="none" stroke="#282827" stroke-width="1.7811" stroke-miterlimit="10" d="M441.143,159.696
			c0,0.979-0.714,1.418-1.587,0.973c0,0-4.98-2.536-7.266-3.435c-5.712-2.244-13.658-4.982-18.415-5.844
			c-4.373-0.792-15.941-1.372-15.941-1.372c-0.979-0.049-2.581-0.09-3.561-0.09h-58.178c-0.979,0-1.552-0.768-1.271-1.706
			l0.178-0.593c0.28-0.939,1.311-1.74,2.289-1.779c0,0,33.866-1.379,58.794-0.298c7.147,0.31,13.379,1.31,17.679,2.02
			c5.02,0.828,14.73,4.098,19.384,6.128c2.03,0.886,6.323,3.169,6.323,3.169c0.864,0.461,1.572,1.639,1.572,2.618V159.696z"/>
   <path fill="none" stroke="#282827" stroke-width="1.7811" stroke-miterlimit="10" d="M58.407,159.696
			c0,0.979,0.714,1.417,1.587,0.973c0,0,4.979-2.536,7.266-3.435c5.712-2.244,13.659-4.982,18.416-5.844
			c4.372-0.792,15.941-1.372,15.941-1.372c0.979-0.049,2.58-0.09,3.56-0.09h58.178c0.98,0,1.552-0.768,1.271-1.706l-0.177-0.593
			c-0.28-0.939-1.311-1.74-2.29-1.779c0,0-33.867-1.379-58.794-0.298c-7.146,0.31-13.378,1.31-17.678,2.02
			c-5.02,0.828-14.73,4.098-19.384,6.128c-2.03,0.886-6.323,3.169-6.323,3.169c-0.865,0.461-1.572,1.639-1.572,2.618V159.696z"/>
</svg>
