<svg xmlns="http://www.w3.org/2000/svg" viewBox="0 0 500 500">

   <path fill="#D3D3D3" d="M395.939,151.5v-0.014H105.148C47.076,151.486,0,198.558,0,256.623S47.076,361.76,105.148,361.76
		c21.162,0,40.855-5.191,57.35-15.504l-0.004,0.008c0,0,0.012-0.01,0.021-0.019c1.703-1.066,3.377-2.182,5.012-3.358
		c4.834-2.609,13.203-5.779,25.365-5.779h114.441c11.523,0,19.645,2.846,24.576,5.364c17.549,12.829,39.332,19.288,62.941,19.288
		C452.924,361.76,500,314.688,500,256.623C500,198.921,453.51,152.084,395.939,151.5z"/>
   <ellipse fill="#989898" cx="395.939" cy="257.711" rx="95.359" ry="95.348"/>

   <path fill="#282827" d="M150.152,243.786c0-0.997-0.815-1.812-1.812-1.812h-23.991c-0.997,0-1.813-0.815-1.813-1.812V216.17
			c0-0.997-0.815-1.812-1.812-1.812H92.869c-0.997,0-1.812,0.815-1.812,1.812v23.991c0,0.997-0.816,1.812-1.813,1.812H65.251
			c-0.997,0-1.813,0.815-1.813,1.812v27.85c0,0.997,0.816,1.812,1.813,1.812h23.992c0.997,0,1.813,0.815,1.813,1.812v23.99
			c0,0.997,0.815,1.812,1.812,1.812h27.854c0.997,0,1.812-0.815,1.812-1.812v-23.99c0-0.997,0.816-1.812,1.813-1.812h23.991
			c0.997,0,1.812-0.815,1.812-1.812V243.786z"/>

   <path opacity="0.15" fill="#989898" d="M106.795,194.445c-34.943,0-63.271,28.324-63.271,63.266
		c0,34.94,28.328,63.265,63.271,63.265c34.945,0,63.273-28.324,63.273-63.265C170.068,222.77,141.74,194.445,106.795,194.445z
		 M106.795,317.713c-33.143,0-60.01-26.864-60.01-60.002c0-33.139,26.867-60.003,60.01-60.003s60.01,26.864,60.01,60.003
		C166.805,290.849,139.938,317.713,106.795,317.713z"/>
   <path fill="#D3D3D3" d="M415.033,203.327c-8.164-10.347-23.174-12.116-33.523-3.952l-48.631,38.161
		c-10.35,8.165-12.119,23.173-3.953,33.52c8.166,10.348,23.174,12.118,33.523,3.953l48.631-38.161
		C421.43,228.683,423.199,213.675,415.033,203.327z"/>
   <circle fill="#4657A5" cx="395.939" cy="218.703" r="18.49"/>
   <path fill="#D3D3D3" d="M463.498,240.911c-8.164-10.348-23.174-12.117-33.523-3.952l-48.631,38.161
		c-10.348,8.164-12.119,23.172-3.953,33.519c8.166,10.349,23.176,12.118,33.523,3.954l48.631-38.162
		C469.895,266.266,471.664,251.259,463.498,240.911z"/>
   <circle fill="#55B848" cx="347.899" cy="256.406" r="18.491"/>
   <circle fill="#EC3132" cx="444.523" cy="256.043" r="18.49"/>
   <circle fill="#E8C52D" cx="396.483" cy="293.746" r="18.491"/>
   <path fill="#282827" d="M274.496,260.551c-2.553-3.235-7.246-3.788-10.48-1.235l-20.848,17.022
		c-3.234,2.552-3.787,7.243-1.236,10.479c2.553,3.235,7.246,3.788,10.48,1.235l20.848-17.022
		C276.496,268.478,277.049,263.785,274.496,260.551z"/>
   <path fill="#282827" d="M218.93,260.551c-2.553-3.235-7.244-3.788-10.48-1.235l-20.848,17.022
		c-3.234,2.552-3.787,7.243-1.234,10.479s7.244,3.788,10.48,1.235l20.848-17.022C220.93,268.478,221.482,263.785,218.93,260.551z"/>

   <path fill="#D3D3D3" d="M442.348,162c0,0.996-0.725,1.438-1.609,0.98c0,0-5.023-2.598-7.332-3.519
			c-5.77-2.302-13.797-5.11-18.602-5.993c-4.416-0.812-16.088-1.407-16.088-1.407c-0.996-0.051-2.627-0.093-3.623-0.093h-58.74
			c-0.996,0-1.582-0.782-1.301-1.738l0.186-0.631c0.281-0.956,1.328-1.772,2.324-1.813c0,0,34.195-1.414,59.373-0.304
			c7.219,0.317,13.514,1.342,17.857,2.07c5.07,0.85,14.879,4.202,19.58,6.283c2.051,0.909,6.381,3.248,6.381,3.248
			c0.877,0.473,1.594,1.677,1.594,2.674V162z"/>

   <path fill="#D3D3D3" d="M57.559,162c0,0.996,0.725,1.438,1.611,0.98c0,0,5.021-2.598,7.33-3.519
			c5.77-2.302,13.797-5.11,18.602-5.993c4.418-0.812,16.09-1.407,16.09-1.407c0.995-0.051,2.626-0.093,3.623-0.093h58.737
			c0.997,0,1.583-0.782,1.302-1.738l-0.186-0.631c-0.281-0.956-1.326-1.772-2.322-1.813c0,0-34.195-1.414-59.375-0.304
			c-7.219,0.317-13.514,1.342-17.857,2.07c-5.07,0.85-14.879,4.202-19.58,6.283c-2.051,0.909-6.379,3.248-6.379,3.248
			c-0.877,0.473-1.596,1.677-1.596,2.674V162z"/>

</svg>
