<svg xmlns="http://www.w3.org/2000/svg" viewBox="0 0 500 500">

   <path fill="none" stroke="#D3D3D3" stroke-width="1.7811" stroke-miterlimit="10" d="M394.479,149.825v-0.014H106.598
		C49.105,149.811,2.5,195.709,2.5,252.328c0,56.619,46.605,102.52,104.098,102.52c20.949,0,40.447-5.062,56.777-15.119l-0.006,0.008
		c0,0,0.012-0.008,0.021-0.018c1.688-1.039,3.344-2.127,4.961-3.273c4.785-2.545,13.073-5.637,25.113-5.637h113.297
		c11.407,0,19.446,2.775,24.329,5.23c17.374,12.51,38.939,18.809,62.312,18.809c57.492,0,104.098-45.9,104.098-102.52
		C497.5,196.065,451.475,150.395,394.479,149.825z"/>
	
   <ellipse fill="none" stroke="#989898" stroke-width="1.7811" stroke-miterlimit="10" cx="394.479" cy="253.389" rx="94.405" ry="92.975"/>

   <path fill="none" stroke="#282827" stroke-width="1.7811" stroke-miterlimit="10" d="M151.152,239.827
			c0-0.98-0.802-1.781-1.781-1.781h-23.779c-0.98,0-1.781-0.803-1.781-1.781v-23.365c0-0.98-0.802-1.781-1.781-1.781H94.427
			c-0.979,0-1.781,0.801-1.781,1.781v23.365c0,0.979-0.802,1.781-1.781,1.781H67.086c-0.98,0-1.781,0.801-1.781,1.781v27.128
			c0,0.979,0.801,1.781,1.781,1.781h23.778c0.979,0,1.781,0.801,1.781,1.781v23.363c0,0.98,0.802,1.781,1.781,1.781h27.603
			c0.979,0,1.781-0.801,1.781-1.781v-23.363c0-0.98,0.801-1.781,1.781-1.781h23.779c0.979,0,1.781-0.803,1.781-1.781V239.827z"/>

   <path opacity="0.15" fill="none" stroke="#989898" stroke-width="1.7811" stroke-miterlimit="10" d="M108.229,191.702
		c-34.596,0-62.64,27.617-62.64,61.687c0,34.07,28.044,61.691,62.64,61.691c34.594,0,62.639-27.621,62.639-61.691
		C170.867,219.319,142.822,191.702,108.229,191.702z M108.229,311.898c-32.812,0-59.41-26.195-59.41-58.51
		c0-32.312,26.599-58.507,59.41-58.507c32.811,0,59.408,26.195,59.408,58.507C167.637,285.703,141.039,311.898,108.229,311.898z"/>
   <path fill="none" stroke="#D3D3D3" stroke-width="1.7811" stroke-miterlimit="10" d="M413.383,200.362
		c-8.083-10.09-22.942-11.816-33.188-3.855l-48.146,37.213c-10.245,7.961-11.997,22.593-3.913,32.683s22.942,11.816,33.188,3.854
		l48.146-37.208C419.715,225.084,421.467,210.452,413.383,200.362z"/>
	
   <ellipse fill="none" stroke="#4657A5" stroke-width="1.7811" stroke-miterlimit="10" cx="394.48" cy="215.354" rx="18.306" ry="18.027"/>
   <path fill="none" stroke="#D3D3D3" stroke-width="1.7811" stroke-miterlimit="10" d="M461.364,237.008
		c-8.085-10.09-22.943-11.814-33.189-3.854l-48.145,37.21c-10.245,7.961-11.997,22.594-3.913,32.684
		c8.084,10.092,22.942,11.816,33.188,3.855l48.146-37.211C467.695,261.732,469.448,247.098,461.364,237.008z"/>
	
   <ellipse fill="none" stroke="#55B848" stroke-width="1.7811" stroke-miterlimit="10" cx="346.92" cy="252.117" rx="18.306" ry="18.027"/>
	
   <ellipse fill="none" stroke="#EC3132" stroke-width="1.7811" stroke-miterlimit="10" cx="442.579" cy="251.764" rx="18.306" ry="18.027"/>
	
   <ellipse fill="none" stroke="#E8C52D" stroke-width="1.7811" stroke-miterlimit="10" cx="395.019" cy="288.527" rx="18.306" ry="18.027"/>
   <path fill="none" stroke="#282827" stroke-width="1.7811" stroke-miterlimit="10" d="M274.251,256.158
		c-2.527-3.154-7.173-3.693-10.375-1.205l-20.64,16.6c-3.202,2.488-3.75,7.062-1.223,10.217c2.527,3.156,7.172,3.695,10.375,1.205
		l20.639-16.598C276.23,263.889,276.778,259.312,274.251,256.158z"/>
   <path fill="none" stroke="#282827" stroke-width="1.7811" stroke-miterlimit="10" d="M219.241,256.158
		c-2.527-3.154-7.173-3.693-10.375-1.205l-20.64,16.6c-3.203,2.488-3.75,7.062-1.223,10.217c2.527,3.156,7.172,3.695,10.375,1.205
		l20.639-16.598C221.221,263.889,221.769,259.312,219.241,256.158z"/>

   <path fill="none" stroke="#D3D3D3" stroke-width="1.7811" stroke-miterlimit="10" d="M441.86,159.696
			c0,0.98-0.714,1.418-1.587,0.973c0,0-4.979-2.535-7.266-3.434c-5.712-2.244-13.658-4.982-18.415-5.844
			c-4.372-0.793-15.941-1.373-15.941-1.373c-0.979-0.049-2.581-0.09-3.561-0.09h-58.178c-0.979,0-1.552-0.768-1.271-1.706
			l0.178-0.593c0.28-0.938,1.311-1.739,2.289-1.779c0,0,33.867-1.379,58.794-0.297c7.147,0.31,13.379,1.309,17.679,2.02
			c5.02,0.827,14.73,4.096,19.384,6.127c2.03,0.887,6.323,3.17,6.323,3.17c0.864,0.461,1.572,1.639,1.572,2.617V159.696z"/>
   <path fill="none" stroke="#D3D3D3" stroke-width="1.7811" stroke-miterlimit="10" d="M58.766,159.696
			c0,0.98,0.715,1.418,1.587,0.973c0,0,4.979-2.535,7.266-3.434c5.712-2.244,13.659-4.982,18.415-5.844
			c4.373-0.793,15.941-1.373,15.941-1.373c0.979-0.049,2.58-0.09,3.561-0.09h58.178c0.98,0,1.552-0.768,1.271-1.706l-0.178-0.593
			c-0.279-0.938-1.311-1.739-2.289-1.779c0,0-33.866-1.379-58.794-0.297c-7.147,0.31-13.379,1.309-17.679,2.02
			c-5.02,0.827-14.73,4.096-19.384,6.127c-2.03,0.887-6.323,3.17-6.323,3.17c-0.865,0.461-1.572,1.639-1.572,2.617V159.696z"/>
</svg>
