<svg xmlns="http://www.w3.org/2000/svg" xmlns:xlink="http://www.w3.org/1999/xlink" viewBox="0 0 500 500">

   <g id="Case">
      <path fill="#D3D3D3" d="M499.378,355.675c0,1.65-1.35,3-3,3h-494c-1.65,0-3-1.35-3-3V144.452c0-1.65,1.35-3,3-3h494
			c1.65,0,3,1.35,3,3V355.675z"/>
   </g>
   <g id="Face">
      <path fill="#282827" d="M488.345,344.084c0,2.75-2.25,5-5,5H15.412c-2.75,0-5-2.25-5-5V180.03c0-2.75,2.25-5,5-5h467.933
			c2.75,0,5,2.25,5,5V344.084z"/>
   </g>
   
   <defs>
      <rect id="Mask" x="10.412" y="175.03" width="477.933" height="174.054"/>
   </defs>
   <clipPath id="Mask_clip">
      <use xlink:href="#Mask"  overflow="visible"/>
   </clipPath>
   <g id="Detail" clip-path="url(#Mask_clip)">
      <path fill="#989898" d="M154.761,259.251c0,3.851,3.15,7,7,7h131.293c3.85,0,6.999-3.149,6.999-7V245.35
							c0-3.85-3.149-7-6.999-7H161.761c-3.85,0-7,3.15-7,7V259.251z"/>
      <path fill="#989898" d="M161.761,206.646c-3.85,0-7,3.15-7,7v13.583c0,3.85,3.15,7,7,7h131.293c3.85,0,6.999-3.15,6.999-7
							v-13.583c0-3.85-3.149-7-6.999-7H161.761z"/>
      <path fill="#989898" d="M300.054,277.057c0-3.851-3.149-7-6.999-7H161.761c-3.85,0-7,3.149-7,7v40.215c0,3.851,3.15,7,7,7
							h131.293c3.85,0,6.999-3.149,6.999-7V277.057L300.054,277.057z"/>
      <path fill="#989898" d="M293.055,202.523c3.85,0,6.999-3.15,6.999-7v-25.015c0-3.85-3.149-7-6.999-7H161.761
							c-3.85,0-7,3.15-7,7v25.015c0,3.85,3.15,7,7,7H293.055z"/>
      <path fill="#989898" d="M161.761,330.613c-3.85,0-7,3.15-7,7v9.127c0,3.85,3.15,7,7,7h131.293c3.85,0,6.999-3.15,6.999-7
							v-9.127c0-3.85-3.149-7-6.999-7H161.761z"/>
      <path fill="#D3D3D3" d="M293.829,280.532c0-2.75-2.25-5-5-5H165.985c-2.75,0-5,2.25-5,5v33.262c0,2.75,2.25,5,5,5h122.844
							c2.75,0,5-2.25,5-5V280.532z"/>
   </g>


   <path fill="#282827" d="M216.268,296.908c0,4.055-4.05,7.371-9,7.371h-25.753c-4.95,0-9-3.316-9-7.371s4.05-7.371,9-7.371h25.753
			C212.218,289.537,216.268,292.854,216.268,296.908z"/>

   <path fill="#282827" d="M280.945,296.908c0,4.055-4.049,7.371-9,7.371h-25.751c-4.95,0-9-3.316-9-7.371s4.05-7.371,9-7.371h25.751
			C276.896,289.537,280.945,292.854,280.945,296.908z"/>

   <path fill="#D3D3D3" d="M379.867,321.395c0,2.75-2.25,5-5,5h-48.338c-2.75,0-5-2.25-5-5v-48.973c0-2.75,2.25-5,5-5h48.338
			c2.75,0,5,2.25,5,5V321.395z"/>

   <path fill="#D3D3D3" d="M445.814,321.395c0,2.75-2.25,5-5,5h-48.339c-2.75,0-5-2.25-5-5v-48.973c0-2.75,2.25-5,5-5h48.339
			c2.75,0,5,2.25,5,5V321.395z"/>

   <circle fill="#EC3030" cx="350.381" cy="296.908" r="23.462"/>
   <circle fill="#EC3030" cx="416.646" cy="296.908" r="23.462"/>

   <path fill="#D3D3D3" d="M134.151,252.033c0-1.65-1.35-3-3-3h-21.584c-1.65,0-3-1.35-3-3v-21.584c0-1.65-1.35-3-3-3H62.644
			c-1.65,0-3,1.35-3,3v21.584c0,1.65-1.35,3-3,3H35.062c-1.65,0-3,1.35-3,3v40.923c0,1.649,1.35,3,3,3h21.583c1.65,0,3,1.351,3,3
			v21.585c0,1.65,1.35,3,3,3h40.923c1.65,0,3-1.35,3-3v-21.585c0-1.649,1.35-3,3-3h21.584c1.65,0,3-1.351,3-3L134.151,252.033
			L134.151,252.033z"/>

   <path fill="#282827" d="M126.218,260.912c0-1.65-1.35-3-3-3h-21.26c-1.65,0-3-1.35-3-3v-21.26c0-1.65-1.35-3-3-3h-25.07
			c-1.65,0-3,1.35-3,3v21.26c0,1.65-1.35,3-3,3h-21.26c-1.65,0-3,1.35-3,3v25.07c0,1.649,1.35,3,3,3h21.26c1.65,0,3,1.35,3,3v21.259
			c0,1.649,1.35,3,3,3h25.071c1.65,0,3-1.351,3-3v-21.259c0-1.65,1.35-3,3-3h21.26c1.65,0,3-1.351,3-3v-25.07H126.218z"/>

</svg>
