<svg xmlns="http://www.w3.org/2000/svg" xmlns:xlink="http://www.w3.org/1999/xlink" viewBox="0 0 500 500">

   <g id="Case">
      <path fill="none" stroke="#D3D3D3" stroke-width="1.9859" stroke-miterlimit="10" d="M499.202,357.268
			c0,0.655-0.536,1.191-1.191,1.191H1.989c-0.655,0-1.191-0.536-1.191-1.191V142.731c0-0.655,0.536-1.191,1.191-1.191h496.021
			c0.655,0,1.191,0.536,1.191,1.191V357.268z"/>
   </g>
   <g id="Face">
      <path fill="none" stroke="#282827" stroke-width="1.9859" stroke-miterlimit="10" d="M488.204,346.896
			c0,1.093-0.894,1.986-1.986,1.986H13.782c-1.092,0-1.986-0.894-1.986-1.986V177.058c0-1.092,0.894-1.986,1.986-1.986h472.436
			c1.093,0,1.986,0.894,1.986,1.986V346.896z"/>
   </g>

   <defs>
      <rect id="Mask" x="11.796" y="175.072" width="476.408" height="173.81"/>
   </defs>
   <clipPath id="Mask_clip">
      <use xlink:href="#Mask"  overflow="visible"/>
   </clipPath>
   <g id="Detail" clip-path="url(#Mask_clip)">

      <path fill="none" stroke="#989898" stroke-width="1.9859" stroke-miterlimit="10" d="M155.685,263.384
						c0,1.529,1.251,2.78,2.78,2.78h139.269c1.529,0,2.78-1.251,2.78-2.78v-22.301c0-1.529-1.251-2.78-2.78-2.78H158.465
						c-1.529,0-2.78,1.251-2.78,2.78V263.384z"/>

      <path fill="none" stroke="#989898" stroke-width="1.9859" stroke-miterlimit="10" d="M158.465,206.643
						c-1.529,0-2.78,1.251-2.78,2.78v21.984c0,1.529,1.251,2.78,2.78,2.78h139.269c1.529,0,2.78-1.251,2.78-2.78v-21.984
						c0-1.529-1.251-2.78-2.78-2.78H158.465z"/>

      <path fill="none" stroke="#989898" stroke-width="1.9859" stroke-miterlimit="10" d="M300.514,272.745
						c0-1.529-1.251-2.78-2.78-2.78H158.465c-1.529,0-2.78,1.251-2.78,2.78v48.579c0,1.529,1.251,2.78,2.78,2.78h139.269
						c1.529,0,2.78-1.251,2.78-2.78V272.745z"/>

      <path fill="none" stroke="#989898" stroke-width="1.9859" stroke-miterlimit="10" d="M297.733,202.527
						c1.529,0,2.78-1.251,2.78-2.78v-33.4c0-1.529-1.251-2.78-2.78-2.78H158.465c-1.529,0-2.78,1.251-2.78,2.78v33.4
						c0,1.529,1.251,2.78,2.78,2.78H297.733z"/>

      <path fill="none" stroke="#989898" stroke-width="1.9859" stroke-miterlimit="10" d="M158.465,330.437
						c-1.529,0-2.78,1.251-2.78,2.78v17.534c0,1.529,1.251,2.78,2.78,2.78h139.269c1.529,0,2.78-1.251,2.78-2.78v-17.534
						c0-1.529-1.251-2.78-2.78-2.78H158.465z"/>

      <path fill="none" stroke="#D3D3D3" stroke-width="1.9859" stroke-miterlimit="10" d="M294.309,277.421
						c0-1.093-0.894-1.986-1.986-1.986H163.875c-1.092,0-1.986,0.894-1.986,1.986v39.227c0,1.093,0.894,1.986,1.986,1.986h128.448
						c1.093,0,1.986-0.894,1.986-1.986V277.421z"/>

   </g>

   <path fill="none" stroke="#282827" stroke-width="1.9859" stroke-miterlimit="10" d="M216.994,300.566
			c0,1.966-1.608,3.574-3.575,3.574h-36.463c-1.966,0-3.575-1.608-3.575-3.574v-7.574c0-1.966,1.608-3.574,3.575-3.574h36.463
			c1.966,0,3.575,1.608,3.575,3.574V300.566z"/>

   <path fill="none" stroke="#282827" stroke-width="1.9859" stroke-miterlimit="10" d="M281.468,300.566
			c0,1.966-1.608,3.574-3.574,3.574h-36.465c-1.966,0-3.575-1.608-3.575-3.574v-7.574c0-1.966,1.608-3.574,3.575-3.574h36.465
			c1.966,0,3.574,1.608,3.574,3.574V300.566z"/>

   <path fill="none" stroke="#D3D3D3" stroke-width="1.9859" stroke-miterlimit="10" d="M380.072,324.238
			c0,1.093-0.894,1.986-1.986,1.986h-54.18c-1.093,0-1.986-0.894-1.986-1.986v-54.917c0-1.093,0.894-1.986,1.986-1.986h54.18
			c1.093,0,1.986,0.894,1.986,1.986V324.238z"/>

   <path fill="none" stroke="#D3D3D3" stroke-width="1.9859" stroke-miterlimit="10" d="M445.809,324.238
			c0,1.093-0.894,1.986-1.986,1.986h-54.178c-1.093,0-1.986-0.894-1.986-1.986v-54.917c0-1.093,0.894-1.986,1.986-1.986h54.178
			c1.093,0,1.986,0.894,1.986,1.986V324.238z"/>

	
   <ellipse fill="none" stroke="#EC3030" stroke-width="1.9859" stroke-miterlimit="10" cx="350.681" cy="296.779" rx="23.388" ry="23.429"/>
	
   <ellipse fill="none" stroke="#EC3030" stroke-width="1.9859" stroke-miterlimit="10" cx="416.733" cy="296.779" rx="23.388" ry="23.429"/>

   <path fill="none" stroke="#D3D3D3" stroke-width="1.9859" stroke-miterlimit="10" d="M135.141,250.163
			c0-0.655-0.536-1.191-1.191-1.191h-25.113c-0.655,0-1.191-0.536-1.191-1.191v-25.163c0-0.655-0.536-1.191-1.191-1.191H62.062
			c-0.655,0-1.191,0.536-1.191,1.191v25.163c0,0.655-0.536,1.191-1.191,1.191H34.568c-0.655,0-1.191,0.536-1.191,1.191v44.475
			c0,0.655,0.536,1.191,1.191,1.191H59.68c0.655,0,1.191,0.536,1.191,1.191v25.163c0,0.655,0.536,1.191,1.191,1.191h44.391
			c0.655,0,1.191-0.536,1.191-1.191v-25.163c0-0.655,0.536-1.191,1.191-1.191h25.113c0.655,0,1.191-0.536,1.191-1.191V250.163z"/>

   <path fill="none" stroke="#282827" stroke-width="1.9859" stroke-miterlimit="10" d="M127.232,259.029
			c0-0.655-0.536-1.191-1.191-1.191h-24.79c-0.655,0-1.191-0.536-1.191-1.191v-24.839c0-0.655-0.536-1.191-1.191-1.191H70.28
			c-0.655,0-1.191,0.536-1.191,1.191v24.839c0,0.655-0.536,1.191-1.191,1.191h-24.79c-0.655,0-1.191,0.536-1.191,1.191v28.644
			c0,0.655,0.536,1.191,1.191,1.191h24.79c0.655,0,1.191,0.536,1.191,1.191v24.838c0,0.655,0.536,1.191,1.191,1.191h28.588
			c0.655,0,1.191-0.536,1.191-1.191v-24.838c0-0.655,0.536-1.191,1.191-1.191h24.79c0.655,0,1.191-0.536,1.191-1.191V259.029z"/>

</svg>
